<?xml version="1.0" encoding="utf-8" standalone="no"?>
<!DOCTYPE svg PUBLIC "-//W3C//DTD SVG 1.1//EN"
  "http://www.w3.org/Graphics/SVG/1.1/DTD/svg11.dtd">
<svg xmlns:xlink="http://www.w3.org/1999/xlink" width="561.6pt" height="691.2pt" viewBox="0 0 561.6 691.2" xmlns="http://www.w3.org/2000/svg" version="1.1">
 <metadata>
  <rdf:RDF xmlns:dc="http://purl.org/dc/elements/1.1/" xmlns:cc="http://creativecommons.org/ns#" xmlns:rdf="http://www.w3.org/1999/02/22-rdf-syntax-ns#">
   <cc:Work>
    <dc:type rdf:resource="http://purl.org/dc/dcmitype/StillImage"/>
    <dc:date>2026-07-15T15:15:11.696480</dc:date>
    <dc:format>image/svg+xml</dc:format>
    <dc:creator>
     <cc:Agent>
      <dc:title>Matplotlib v3.11.0, https://matplotlib.org/</dc:title>
     </cc:Agent>
    </dc:creator>
   </cc:Work>
  </rdf:RDF>
 </metadata>
 <defs>
  <style type="text/css">*{stroke-linejoin: round; stroke-linecap: butt}</style>
 </defs>
 <g id="figure_1">
  <g id="patch_1">
   <path d="M 0 691.2 
L 561.6 691.2 
L 561.6 0 
L 0 0 
z
" style="fill: #ffffff"/>
  </g>
  <g id="axes_1">
   <g id="patch_2">
    <path d="M 14.8608 158.8032 
L 40.032 158.8032 
Q 46.5984 158.8032 46.5984 150.6816 
L 46.5984 59.9904 
Q 46.5984 51.8688 40.032 51.8688 
L 14.8608 51.8688 
Q 8.2944 51.8688 8.2944 59.9904 
L 8.2944 150.6816 
Q 8.2944 158.8032 14.8608 158.8032 
z
" clip-path="url(#p2276d00864)" style="fill: #ffffff; stroke: #374e55; stroke-width: 1.4; stroke-linejoin: miter"/>
   </g>
   <g id="patch_3">
    <path d="M 14.8608 319.5432 
L 40.032 319.5432 
Q 46.5984 319.5432 46.5984 311.4216 
L 46.5984 197.0424 
Q 46.5984 188.9208 40.032 188.9208 
L 14.8608 188.9208 
Q 8.2944 188.9208 8.2944 197.0424 
L 8.2944 311.4216 
Q 8.2944 319.5432 14.8608 319.5432 
z
" clip-path="url(#p2276d00864)" style="fill: #ffffff; stroke: #374e55; stroke-width: 1.4; stroke-linejoin: miter"/>
   </g>
   <g id="patch_4">
    <path d="M 14.8608 443.0592 
L 40.032 443.0592 
Q 46.5984 443.0592 46.5984 434.9376 
L 46.5984 344.2464 
Q 46.5984 336.1248 40.032 336.1248 
L 14.8608 336.1248 
Q 8.2944 336.1248 8.2944 344.2464 
L 8.2944 434.9376 
Q 8.2944 443.0592 14.8608 443.0592 
z
" clip-path="url(#p2276d00864)" style="fill: #ffffff; stroke: #c77b30; stroke-width: 1.4; stroke-linejoin: miter"/>
   </g>
   <g id="patch_5">
    <path d="M 14.8608 652.8672 
L 40.032 652.8672 
Q 46.5984 652.8672 46.5984 644.7456 
L 46.5984 479.6064 
Q 46.5984 471.4848 40.032 471.4848 
L 14.8608 471.4848 
Q 8.2944 471.4848 8.2944 479.6064 
L 8.2944 644.7456 
Q 8.2944 652.8672 14.8608 652.8672 
z
" clip-path="url(#p2276d00864)" style="fill: #ffffff; stroke: #374e55; stroke-width: 1.4; stroke-linejoin: miter"/>
   </g>
   <g id="patch_6">
    <path d="M 171.36 161.479336 
Q 171.36 173.016373 171.36 183.099966 
" clip-path="url(#p2276d00864)" style="fill: none; stroke: #8a8a8a; stroke-width: 1.3; stroke-linecap: round"/>
    <path d="M 173.56 178.699966 
L 171.36 183.099966 
L 169.16 178.699966 
z
" clip-path="url(#p2276d00864)" style="fill: #8a8a8a; stroke: #8a8a8a; stroke-width: 1.3; stroke-linecap: round"/>
   </g>
   <g id="patch_7">
    <path d="M 171.36 320.531467 
Q 171.36 326.990078 171.36 331.995245 
" clip-path="url(#p2276d00864)" style="fill: none; stroke: #8a8a8a; stroke-width: 1.3; stroke-linecap: round"/>
    <path d="M 173.56 327.595245 
L 171.36 331.995245 
L 169.16 327.595245 
z
" clip-path="url(#p2276d00864)" style="fill: #8a8a8a; stroke: #8a8a8a; stroke-width: 1.3; stroke-linecap: round"/>
   </g>
   <g id="patch_8">
    <path d="M 171.36 445.735336 
Q 171.36 457.272373 171.36 467.355966 
" clip-path="url(#p2276d00864)" style="fill: none; stroke: #8a8a8a; stroke-width: 1.3; stroke-linecap: round"/>
    <path d="M 173.56 462.955966 
L 171.36 467.355966 
L 169.16 462.955966 
z
" clip-path="url(#p2276d00864)" style="fill: #8a8a8a; stroke: #8a8a8a; stroke-width: 1.3; stroke-linecap: round"/>
   </g>
   <g id="patch_9">
    <path d="M 65.2032 102.6288 
L 304.8768 102.6288 
Q 311.4432 102.6288 311.4432 94.5072 
L 311.4432 55.2528 
Q 311.4432 47.1312 304.8768 47.1312 
L 65.2032 47.1312 
Q 58.6368 47.1312 58.6368 55.2528 
L 58.6368 94.5072 
Q 58.6368 102.6288 65.2032 102.6288 
z
" clip-path="url(#p2276d00864)" style="fill: #f4f6f7; stroke: #374e55; stroke-width: 1.2; stroke-linejoin: miter"/>
   </g>
   <g id="patch_10">
    <path d="M 65.2032 158.8032 
L 304.8768 158.8032 
Q 311.4432 158.8032 311.4432 150.6816 
L 311.4432 111.4272 
Q 311.4432 103.3056 304.8768 103.3056 
L 65.2032 103.3056 
Q 58.6368 103.3056 58.6368 111.4272 
L 58.6368 150.6816 
Q 58.6368 158.8032 65.2032 158.8032 
z
" clip-path="url(#p2276d00864)" style="fill: #ffffff; stroke: #374e55; stroke-width: 1.2; stroke-linejoin: miter"/>
   </g>
   <g id="patch_11">
    <path d="M 335.52 150.6816 
L 527.04 150.6816 
L 527.04 55.9296 
L 335.52 55.9296 
z
" clip-path="url(#p2276d00864)" style="fill: #f4f6f7; stroke-dasharray: 4,3; stroke-dashoffset: 0; stroke: #8a8a8a; stroke-linejoin: miter"/>
   </g>
   <g id="patch_12">
    <path d="M 65.2032 292.1328 
L 233.7408 292.1328 
Q 240.3072 292.1328 240.3072 284.0112 
L 240.3072 227.8368 
Q 240.3072 219.7152 233.7408 219.7152 
L 65.2032 219.7152 
Q 58.6368 219.7152 58.6368 227.8368 
L 58.6368 284.0112 
Q 58.6368 292.1328 65.2032 292.1328 
z
" clip-path="url(#p2276d00864)" style="fill: #ffffff; stroke: #374e55; stroke-width: 1.2; stroke-linejoin: miter"/>
   </g>
   <g id="patch_13">
    <path d="M 253.44 304.992 
L 384.768 304.992 
L 384.768 203.472 
L 253.44 203.472 
z
" clip-path="url(#p2276d00864)" style="fill: #f4f6f7; stroke-dasharray: 4,3; stroke-dashoffset: 0; stroke: #8a8a8a; stroke-linejoin: miter"/>
   </g>
   <g id="patch_14">
    <path d="M 395.712 304.992 
L 527.04 304.992 
L 527.04 203.472 
L 395.712 203.472 
z
" clip-path="url(#p2276d00864)" style="fill: #f4f6f7; stroke-dasharray: 4,3; stroke-dashoffset: 0; stroke: #8a8a8a; stroke-linejoin: miter"/>
   </g>
   <g id="patch_15">
    <path d="M 65.2032 424.1088 
L 310.3488 424.1088 
Q 316.9152 424.1088 316.9152 415.9872 
L 316.9152 363.1968 
Q 316.9152 355.0752 310.3488 355.0752 
L 65.2032 355.0752 
Q 58.6368 355.0752 58.6368 363.1968 
L 58.6368 415.9872 
Q 58.6368 424.1088 65.2032 424.1088 
z
" clip-path="url(#p2276d00864)" style="fill: #ffffff; stroke: #c77b30; stroke-width: 1.2; stroke-linejoin: miter"/>
   </g>
   <g id="patch_16">
    <path d="M 346.464 430.2 
L 527.04 430.2 
L 527.04 348.984 
L 346.464 348.984 
z
" clip-path="url(#p2276d00864)" style="fill: #f4f6f7; stroke-dasharray: 4,3; stroke-dashoffset: 0; stroke: #8a8a8a; stroke-linejoin: miter"/>
   </g>
   <g id="patch_17">
    <path d="M 65.2032 569.6208 
L 255.6288 569.6208 
Q 262.1952 569.6208 262.1952 561.4992 
L 262.1952 488.4048 
Q 262.1952 480.2832 255.6288 480.2832 
L 65.2032 480.2832 
Q 58.6368 480.2832 58.6368 488.4048 
L 58.6368 561.4992 
Q 58.6368 569.6208 65.2032 569.6208 
z
" clip-path="url(#p2276d00864)" style="fill: #ffffff; stroke: #374e55; stroke-width: 1.2; stroke-linejoin: miter"/>
   </g>
   <g id="patch_18">
    <path d="M 280.8 568.944 
L 527.04 568.944 
L 527.04 480.96 
L 280.8 480.96 
z
" clip-path="url(#p2276d00864)" style="fill: #f4f6f7; stroke-dasharray: 4,3; stroke-dashoffset: 0; stroke: #8a8a8a; stroke-linejoin: miter"/>
   </g>
   <g id="patch_19">
    <path d="M 280.8 656.928 
L 390.24 656.928 
L 390.24 582.48 
L 280.8 582.48 
z
" clip-path="url(#p2276d00864)" style="fill: #f4f6f7; stroke-dasharray: 4,3; stroke-dashoffset: 0; stroke: #8a8a8a; stroke-linejoin: miter"/>
   </g>
   <g id="patch_20">
    <path d="M 406.656 656.928 
L 527.04 656.928 
L 527.04 582.48 
L 406.656 582.48 
z
" clip-path="url(#p2276d00864)" style="fill: #f4f6f7; stroke-dasharray: 4,3; stroke-dashoffset: 0; stroke: #8a8a8a; stroke-linejoin: miter"/>
   </g>
   <g id="text_1">
    <text style="font-weight: 700; font-size: 11.5px; font-family: 'DejaVu Sans', 'Arial', 'Helvetica', sans-serif; text-anchor: middle; fill: #1a1a1a" x="297.216" y="22.0896" transform="rotate(-0 297.216 22.0896)">Study design: a multi-tissue MRI aging clock and age acceleration</text>
   </g>
   <g id="text_2">
    <text style="font-weight: 700; font-size: 9px; font-family: 'DejaVu Sans', 'Arial', 'Helvetica', sans-serif; fill: #374e55" transform="translate(24.383412 127.885922) rotate(-90)">Cohort &amp;</text>
    <text style="font-weight: 700; font-size: 9px; font-family: 'DejaVu Sans', 'Arial', 'Helvetica', sans-serif; fill: #374e55" transform="translate(35.185873 140.408578) rotate(-90)">segmentation</text>
   </g>
   <g id="text_3">
    <text style="font-weight: 700; font-size: 9px; font-family: 'DejaVu Sans', 'Arial', 'Helvetica', sans-serif; fill: #374e55" transform="translate(24.383412 279.640828) rotate(-90)">MRI aging</text>
    <text style="font-weight: 700; font-size: 9px; font-family: 'DejaVu Sans', 'Arial', 'Helvetica', sans-serif; fill: #374e55" transform="translate(35.185873 267.194109) rotate(-90)">clock</text>
   </g>
   <g id="text_4">
    <text style="font-weight: 700; font-size: 9px; font-family: 'DejaVu Sans', 'Arial', 'Helvetica', sans-serif; fill: #374e55" transform="translate(24.38306 399.347859) rotate(-90)">Age</text>
    <text style="font-weight: 700; font-size: 9px; font-family: 'DejaVu Sans', 'Arial', 'Helvetica', sans-serif; fill: #374e55" transform="translate(35.185521 420.85575) rotate(-90)">acceleration</text>
   </g>
   <g id="text_5">
    <text style="font-weight: 700; font-size: 9px; font-family: 'DejaVu Sans', 'Arial', 'Helvetica', sans-serif; fill: #374e55" transform="translate(24.383412 591.342328) rotate(-90)">Association</text>
    <text style="font-weight: 700; font-size: 9px; font-family: 'DejaVu Sans', 'Arial', 'Helvetica', sans-serif; fill: #374e55" transform="translate(35.185873 582.828187) rotate(-90)">analysis</text>
   </g>
   <g id="text_6">
    <text style="font-style: italic; font-size: 7px; font-family: 'DejaVu Sans', 'Arial', 'Helvetica', sans-serif; text-anchor: middle; fill: #8a8a8a" x="431.28" y="105.124233" transform="rotate(-0 431.28 105.124233)">[ segmented MRI panel ]</text>
   </g>
   <g id="text_7">
    <text style="font-style: italic; font-size: 7px; font-family: 'DejaVu Sans', 'Arial', 'Helvetica', sans-serif; text-anchor: middle; fill: #8a8a8a" x="319.104" y="256.050633" transform="rotate(-0 319.104 256.050633)">[ λ-selection curve ]</text>
   </g>
   <g id="text_8">
    <text style="font-style: italic; font-size: 7px; font-family: 'DejaVu Sans', 'Arial', 'Helvetica', sans-serif; text-anchor: middle; fill: #8a8a8a" x="461.376" y="256.050633" transform="rotate(-0 461.376 256.050633)">[ imaging vs chronological age ]</text>
   </g>
   <g id="text_9">
    <text style="font-style: italic; font-size: 7px; font-family: 'DejaVu Sans', 'Arial', 'Helvetica', sans-serif; text-anchor: middle; fill: #8a8a8a" x="436.752" y="391.410633" transform="rotate(-0 436.752 391.410633)">[ age-acceleration distribution ]</text>
   </g>
   <g id="text_10">
    <text style="font-style: italic; font-size: 7px; font-family: 'DejaVu Sans', 'Arial', 'Helvetica', sans-serif; text-anchor: middle; fill: #8a8a8a" x="403.92" y="526.770633" transform="rotate(-0 403.92 526.770633)">[ table-forest of the association ]</text>
   </g>
   <g id="text_11">
    <text style="font-style: italic; font-size: 7px; font-family: 'DejaVu Sans', 'Arial', 'Helvetica', sans-serif; text-anchor: middle; fill: #8a8a8a" x="335.52" y="621.522633" transform="rotate(-0 335.52 621.522633)">[ discordance matrix ]</text>
   </g>
   <g id="text_12">
    <text style="font-style: italic; font-size: 7px; font-family: 'DejaVu Sans', 'Arial', 'Helvetica', sans-serif; text-anchor: middle; fill: #8a8a8a" x="466.848" y="621.522633" transform="rotate(-0 466.848 621.522633)">[ ROC: clinical ± AAR ]</text>
   </g>
   <g id="text_13">
    <text style="font-size: 7.2px; font-family: 'DejaVu Sans', 'Arial', 'Helvetica', sans-serif; fill: #374e55" transform="translate(114.14025 68.108625)">204 patients · preoperative lumbar MRI</text>
    <text style="font-size: 7.2px; font-family: 'DejaVu Sans', 'Arial', 'Helvetica', sans-serif; fill: #374e55" transform="translate(116.719312 76.750594)">Automated multi-tissue segmentation</text>
    <text style="font-size: 7.2px; font-family: 'DejaVu Sans', 'Arial', 'Helvetica', sans-serif; fill: #374e55" transform="translate(130.654687 85.392562)">(3D Slicer / TotalSegmentator)</text>
   </g>
   <g id="text_14">
    <text style="font-size: 6.9px; font-family: 'DejaVu Sans', 'Arial', 'Helvetica', sans-serif; fill: #374e55" transform="translate(142.40932 120.424222)">Scanner-robust features:</text>
    <text style="font-size: 6.9px; font-family: 'DejaVu Sans', 'Arial', 'Helvetica', sans-serif; fill: #374e55" transform="translate(102.486891 128.706109)">size-normalized volumes + vertebra-referenced</text>
    <text style="font-size: 6.9px; font-family: 'DejaVu Sans', 'Arial', 'Helvetica', sans-serif; fill: #374e55" transform="translate(105.343922 136.987996)">T2 intensity ratios (iliopsoas, deep paraspinal,</text>
    <text style="font-size: 6.9px; font-family: 'DejaVu Sans', 'Arial', 'Helvetica', sans-serif; fill: #374e55" transform="translate(150.128156 145.269882)">vertebra, disc, cord)</text>
   </g>
   <g id="text_15">
    <text style="font-size: 7.2px; font-family: 'DejaVu Sans', 'Arial', 'Helvetica', sans-serif; fill: #374e55" transform="translate(103.69125 244.831641)">Ridge regression predicts</text>
    <text style="font-size: 7.2px; font-family: 'DejaVu Sans', 'Arial', 'Helvetica', sans-serif; fill: #374e55" transform="translate(101.025 253.473609)">chronological age from the</text>
    <text style="font-size: 7.2px; font-family: 'DejaVu Sans', 'Arial', 'Helvetica', sans-serif; fill: #374e55" transform="translate(110.213437 262.115578)">multi-tissue signature</text>
    <text style="font-size: 7.2px; font-family: 'DejaVu Sans', 'Arial', 'Helvetica', sans-serif; fill: #374e55" transform="translate(88.578 270.757547)">(10-fold CV; λ selected by age R²)</text>
   </g>
   <g id="text_16">
    <text style="font-size: 7.2px; font-family: 'DejaVu Sans', 'Arial', 'Helvetica', sans-serif; fill: #374e55" transform="translate(121.827937 378.499641)">Age acceleration (AAR) = residual of</text>
    <text style="font-size: 7.2px; font-family: 'DejaVu Sans', 'Arial', 'Helvetica', sans-serif; fill: #374e55" transform="translate(128.181375 387.141609)">imaging age ~ chronological age</text>
    <text style="font-size: 7.2px; font-family: 'DejaVu Sans', 'Arial', 'Helvetica', sans-serif; fill: #374e55" transform="translate(98.654625 395.783578)">Orthogonal to chronological age (no suppression)</text>
    <text style="font-size: 7.2px; font-family: 'DejaVu Sans', 'Arial', 'Helvetica', sans-serif; fill: #374e55" transform="translate(95.806687 404.425547)">positive = tissues look older than the patient's age</text>
   </g>
   <g id="text_17">
    <text style="font-size: 7.2px; font-family: 'DejaVu Sans', 'Arial', 'Helvetica', sans-serif; fill: #374e55" transform="translate(100.117125 505.218234)">Firth penalized logistic regression</text>
    <text style="font-size: 7.2px; font-family: 'DejaVu Sans', 'Arial', 'Helvetica', sans-serif; fill: #374e55" transform="translate(160.416 513.859641)"/>
    <text style="font-size: 7.2px; font-family: 'DejaVu Sans', 'Arial', 'Helvetica', sans-serif; fill: #374e55" transform="translate(85.422937 522.501609)">Non-home discharge  ~  age acceleration</text>
    <text style="font-size: 7.2px; font-family: 'DejaVu Sans', 'Arial', 'Helvetica', sans-serif; fill: #374e55" transform="translate(90.255375 531.143578)">+ chronological age + sex + ASA class</text>
    <text style="font-size: 7.2px; font-family: 'DejaVu Sans', 'Arial', 'Helvetica', sans-serif; fill: #374e55" transform="translate(160.416 539.784984)"/>
    <text style="font-size: 7.2px; font-family: 'DejaVu Sans', 'Arial', 'Helvetica', sans-serif; fill: #374e55" transform="translate(73.791562 548.426953)">Sensitivity: clock specification · λ · random seed</text>
   </g>
  </g>
 </g>
 <defs>
  <clipPath id="p2276d00864">
   <rect x="7.2" y="7.2" width="547.2" height="676.8"/>
  </clipPath>
 </defs>
</svg>
