<?xml version="1.0" encoding="utf-8" standalone="no"?>
<!DOCTYPE svg PUBLIC "-//W3C//DTD SVG 1.1//EN"
  "http://www.w3.org/Graphics/SVG/1.1/DTD/svg11.dtd">
<svg xmlns:xlink="http://www.w3.org/1999/xlink" width="438.2775pt" height="269.71113pt" viewBox="0 0 438.2775 269.71113" xmlns="http://www.w3.org/2000/svg" version="1.1">
 <metadata>
  <rdf:RDF xmlns:dc="http://purl.org/dc/elements/1.1/" xmlns:cc="http://creativecommons.org/ns#" xmlns:rdf="http://www.w3.org/1999/02/22-rdf-syntax-ns#">
   <cc:Work>
    <dc:type rdf:resource="http://purl.org/dc/dcmitype/StillImage"/>
    <dc:date>2026-07-08T20:32:36.202081</dc:date>
    <dc:format>image/svg+xml</dc:format>
    <dc:creator>
     <cc:Agent>
      <dc:title>Matplotlib v3.11.0, https://matplotlib.org/</dc:title>
     </cc:Agent>
    </dc:creator>
   </cc:Work>
  </rdf:RDF>
 </metadata>
 <defs>
  <style type="text/css">*{stroke-linejoin: round; stroke-linecap: butt}</style>
 </defs>
 <g id="figure_1">
  <g id="patch_1">
   <path d="M 0 269.71113 
L 438.2775 269.71113 
L 438.2775 0 
L 0 0 
z
" style="fill: #ffffff"/>
  </g>
  <g id="axes_1">
   <g id="patch_2">
    <path d="M 79.63875 208.446 
L 358.63875 208.446 
L 358.63875 19.95 
L 79.63875 19.95 
z
" style="fill: #ffffff"/>
   </g>
   <g id="FillBetweenPolyCollection_1">
    <defs>
     <path id="me4f43c6aa5" d="M 79.63875 -164.998377 
L 79.63875 -121.449817 
L 88.93875 -125.764639 
L 98.23875 -105.389936 
L 107.53875 -105.859706 
L 116.83875 -116.275549 
L 126.13875 -107.989353 
L 135.43875 -100.184547 
L 144.73875 -103.778069 
L 154.03875 -105.556041 
L 163.33875 -75.701835 
L 172.63875 -83.003367 
L 181.93875 -92.282556 
L 191.23875 -88.620903 
L 200.53875 -91.592318 
L 209.83875 -95.612394 
L 219.13875 -96.112473 
L 228.43875 -91.618519 
L 237.73875 -97.153734 
L 247.03875 -95.70668 
L 256.33875 -105.379785 
L 265.63875 -93.737097 
L 274.93875 -92.283471 
L 284.23875 -69.83313 
L 293.53875 -90.333574 
L 302.83875 -96.760303 
L 312.13875 -114.553614 
L 321.43875 -98.190927 
L 330.73875 -101.315678 
L 340.03875 -92.127972 
L 349.33875 -85.194506 
L 358.63875 -79.484842 
L 358.63875 -179.250633 
L 358.63875 -179.250633 
L 349.33875 -183.806682 
L 340.03875 -201.117502 
L 330.73875 -213.195887 
L 321.43875 -216.250826 
L 312.13875 -241.19313 
L 302.83875 -222.223344 
L 293.53875 -221.478259 
L 284.23875 -190.201815 
L 274.93875 -200.233982 
L 265.63875 -190.448834 
L 256.33875 -195.710985 
L 247.03875 -176.875257 
L 237.73875 -171.050705 
L 228.43875 -161.146416 
L 219.13875 -160.247625 
L 209.83875 -158.247309 
L 200.53875 -152.782158 
L 191.23875 -150.5634 
L 181.93875 -158.334545 
L 172.63875 -150.746121 
L 163.33875 -148.194791 
L 154.03875 -179.076825 
L 144.73875 -176.50321 
L 135.43875 -174.169025 
L 126.13875 -167.513481 
L 116.83875 -182.730835 
L 107.53875 -175.646614 
L 98.23875 -168.893454 
L 88.93875 -176.448223 
L 79.63875 -164.998377 
z
"/>
    </defs>
    <g clip-path="url(#p1122dcd44a)">
     <use xlink:href="#me4f43c6aa5" x="0" y="269.71113" style="fill: #00a1d5; fill-opacity: 0.15"/>
    </g>
   </g>
   <g id="matplotlib.axis_1">
    <g id="xtick_1">
     <g id="line2d_1">
      <defs>
       <path id="mfe79fdd0d5" d="M 0 0 
L 0 3.5 
" style="stroke: #000000; stroke-width: 0.8"/>
      </defs>
      <g>
       <use xlink:href="#mfe79fdd0d5" x="79.63875" y="208.446" style="stroke: #000000; stroke-width: 0.8"/>
      </g>
     </g>
     <g id="text_1">
      <!-- 10 -->
      <g transform="translate(75.19 221.446) scale(0.08 -0.08)">
       <defs>
        <path id="Helvetica-14" d="M 613 3169 
L 613 3600 
Q 1222 3659 1462 3798 
Q 1703 3938 1822 4456 
L 2266 4456 
L 2266 0 
L 1666 0 
L 1666 3169 
L 613 3169 
z
" transform="scale(0.015625)"/>
        <path id="Helvetica-13" d="M 1731 4475 
Q 2600 4475 2988 3759 
Q 3288 3206 3288 2244 
Q 3288 1331 3016 734 
Q 2622 -122 1728 -122 
Q 922 -122 528 578 
Q 200 1163 200 2147 
Q 200 2909 397 3456 
Q 766 4475 1731 4475 
z
M 1725 391 
Q 2163 391 2422 778 
Q 2681 1166 2681 2222 
Q 2681 2984 2493 3476 
Q 2306 3969 1766 3969 
Q 1269 3969 1039 3501 
Q 809 3034 809 2125 
Q 809 1441 956 1025 
Q 1181 391 1725 391 
z
" transform="scale(0.015625)"/>
       </defs>
       <use xlink:href="#Helvetica-14"/>
       <use xlink:href="#Helvetica-13" transform="translate(55.609375 0)"/>
      </g>
     </g>
    </g>
    <g id="xtick_2">
     <g id="line2d_2">
      <g>
       <use xlink:href="#mfe79fdd0d5" x="126.13875" y="208.446" style="stroke: #000000; stroke-width: 0.8"/>
      </g>
     </g>
     <g id="text_2">
      <!-- 15 -->
      <g transform="translate(121.69 221.446) scale(0.08 -0.08)">
       <defs>
        <path id="Helvetica-18" d="M 791 1141 
Q 847 659 1238 475 
Q 1438 381 1700 381 
Q 2200 381 2440 700 
Q 2681 1019 2681 1406 
Q 2681 1875 2395 2131 
Q 2109 2388 1709 2388 
Q 1419 2388 1211 2275 
Q 1003 2163 856 1963 
L 369 1991 
L 709 4400 
L 3034 4400 
L 3034 3856 
L 1131 3856 
L 941 2613 
Q 1097 2731 1238 2791 
Q 1488 2894 1816 2894 
Q 2431 2894 2859 2497 
Q 3288 2100 3288 1491 
Q 3288 856 2895 371 
Q 2503 -113 1644 -113 
Q 1097 -113 676 195 
Q 256 503 206 1141 
L 791 1141 
z
" transform="scale(0.015625)"/>
       </defs>
       <use xlink:href="#Helvetica-14"/>
       <use xlink:href="#Helvetica-18" transform="translate(55.609375 0)"/>
      </g>
     </g>
    </g>
    <g id="xtick_3">
     <g id="line2d_3">
      <g>
       <use xlink:href="#mfe79fdd0d5" x="172.63875" y="208.446" style="stroke: #000000; stroke-width: 0.8"/>
      </g>
     </g>
     <g id="text_3">
      <!-- 20 -->
      <g transform="translate(168.19 221.446) scale(0.08 -0.08)">
       <defs>
        <path id="Helvetica-15" d="M 200 0 
Q 231 578 439 1006 
Q 647 1434 1250 1784 
L 1850 2131 
Q 2253 2366 2416 2531 
Q 2672 2791 2672 3125 
Q 2672 3516 2437 3745 
Q 2203 3975 1813 3975 
Q 1234 3975 1013 3538 
Q 894 3303 881 2888 
L 309 2888 
Q 319 3472 525 3841 
Q 891 4491 1816 4491 
Q 2584 4491 2939 4075 
Q 3294 3659 3294 3150 
Q 3294 2613 2916 2231 
Q 2697 2009 2131 1694 
L 1703 1456 
Q 1397 1288 1222 1134 
Q 909 863 828 531 
L 3272 531 
L 3272 0 
L 200 0 
z
" transform="scale(0.015625)"/>
       </defs>
       <use xlink:href="#Helvetica-15"/>
       <use xlink:href="#Helvetica-13" transform="translate(55.609375 0)"/>
      </g>
     </g>
    </g>
    <g id="xtick_4">
     <g id="line2d_4">
      <g>
       <use xlink:href="#mfe79fdd0d5" x="219.13875" y="208.446" style="stroke: #000000; stroke-width: 0.8"/>
      </g>
     </g>
     <g id="text_4">
      <!-- 25 -->
      <g transform="translate(214.69 221.446) scale(0.08 -0.08)">
       <use xlink:href="#Helvetica-15"/>
       <use xlink:href="#Helvetica-18" transform="translate(55.609375 0)"/>
      </g>
     </g>
    </g>
    <g id="xtick_5">
     <g id="line2d_5">
      <g>
       <use xlink:href="#mfe79fdd0d5" x="265.63875" y="208.446" style="stroke: #000000; stroke-width: 0.8"/>
      </g>
     </g>
     <g id="text_5">
      <!-- 30 -->
      <g transform="translate(261.19 221.446) scale(0.08 -0.08)">
       <defs>
        <path id="Helvetica-16" d="M 1663 -122 
Q 869 -122 511 314 
Q 153 750 153 1375 
L 741 1375 
Q 778 941 903 744 
Q 1122 391 1694 391 
Q 2138 391 2406 628 
Q 2675 866 2675 1241 
Q 2675 1703 2392 1887 
Q 2109 2072 1606 2072 
Q 1550 2072 1492 2070 
Q 1434 2069 1375 2066 
L 1375 2563 
Q 1463 2553 1522 2550 
Q 1581 2547 1650 2547 
Q 1966 2547 2169 2647 
Q 2525 2822 2525 3272 
Q 2525 3606 2287 3787 
Q 2050 3969 1734 3969 
Q 1172 3969 956 3594 
Q 838 3388 822 3006 
L 266 3006 
Q 266 3506 466 3856 
Q 809 4481 1675 4481 
Q 2359 4481 2734 4176 
Q 3109 3872 3109 3294 
Q 3109 2881 2888 2625 
Q 2750 2466 2531 2375 
Q 2884 2278 3082 2001 
Q 3281 1725 3281 1325 
Q 3281 684 2859 281 
Q 2438 -122 1663 -122 
z
" transform="scale(0.015625)"/>
       </defs>
       <use xlink:href="#Helvetica-16"/>
       <use xlink:href="#Helvetica-13" transform="translate(55.609375 0)"/>
      </g>
     </g>
    </g>
    <g id="xtick_6">
     <g id="line2d_6">
      <g>
       <use xlink:href="#mfe79fdd0d5" x="312.13875" y="208.446" style="stroke: #000000; stroke-width: 0.8"/>
      </g>
     </g>
     <g id="text_6">
      <!-- 35 -->
      <g transform="translate(307.69 221.446) scale(0.08 -0.08)">
       <use xlink:href="#Helvetica-16"/>
       <use xlink:href="#Helvetica-18" transform="translate(55.609375 0)"/>
      </g>
     </g>
    </g>
    <g id="xtick_7">
     <g id="line2d_7">
      <g>
       <use xlink:href="#mfe79fdd0d5" x="358.63875" y="208.446" style="stroke: #000000; stroke-width: 0.8"/>
      </g>
     </g>
     <g id="text_7">
      <!-- 40 -->
      <g transform="translate(354.19 221.446) scale(0.08 -0.08)">
       <defs>
        <path id="Helvetica-17" d="M 2116 1584 
L 2116 3613 
L 681 1584 
L 2116 1584 
z
M 2125 0 
L 2125 1094 
L 163 1094 
L 163 1644 
L 2213 4488 
L 2688 4488 
L 2688 1584 
L 3347 1584 
L 3347 1094 
L 2688 1094 
L 2688 0 
L 2125 0 
z
" transform="scale(0.015625)"/>
       </defs>
       <use xlink:href="#Helvetica-17"/>
       <use xlink:href="#Helvetica-13" transform="translate(55.609375 0)"/>
      </g>
     </g>
    </g>
    <g id="text_8">
     <!-- Threshold probability, % -->
     <g transform="translate(176.52625 232.805375) scale(0.08 -0.08)">
      <defs>
       <path id="Helvetica-37" d="M 3828 4591 
L 3828 4044 
L 2281 4044 
L 2281 0 
L 1650 0 
L 1650 4044 
L 103 4044 
L 103 4591 
L 3828 4591 
z
" transform="scale(0.015625)"/>
       <path id="Helvetica-4b" d="M 413 4606 
L 975 4606 
L 975 2894 
Q 1175 3147 1334 3250 
Q 1606 3428 2013 3428 
Q 2741 3428 3000 2919 
Q 3141 2641 3141 2147 
L 3141 0 
L 2563 0 
L 2563 2109 
Q 2563 2478 2469 2650 
Q 2316 2925 1894 2925 
Q 1544 2925 1259 2684 
Q 975 2444 975 1775 
L 975 0 
L 413 0 
L 413 4606 
z
" transform="scale(0.015625)"/>
       <path id="Helvetica-55" d="M 428 3347 
L 963 3347 
L 963 2769 
Q 1028 2938 1284 3180 
Q 1541 3422 1875 3422 
Q 1891 3422 1928 3419 
Q 1966 3416 2056 3406 
L 2056 2813 
Q 2006 2822 1964 2825 
Q 1922 2828 1872 2828 
Q 1447 2828 1219 2554 
Q 991 2281 991 1925 
L 991 0 
L 428 0 
L 428 3347 
z
" transform="scale(0.015625)"/>
       <path id="Helvetica-48" d="M 1806 3422 
Q 2163 3422 2497 3255 
Q 2831 3088 3006 2822 
Q 3175 2569 3231 2231 
Q 3281 2000 3281 1494 
L 828 1494 
Q 844 984 1069 676 
Q 1294 369 1766 369 
Q 2206 369 2469 659 
Q 2619 828 2681 1050 
L 3234 1050 
Q 3213 866 3089 639 
Q 2966 413 2813 269 
Q 2556 19 2178 -69 
Q 1975 -119 1719 -119 
Q 1094 -119 659 336 
Q 225 791 225 1609 
Q 225 2416 662 2919 
Q 1100 3422 1806 3422 
z
M 2703 1941 
Q 2669 2306 2544 2525 
Q 2313 2931 1772 2931 
Q 1384 2931 1121 2651 
Q 859 2372 844 1941 
L 2703 1941 
z
M 1753 3428 
L 1753 3428 
z
" transform="scale(0.015625)"/>
       <path id="Helvetica-56" d="M 747 1050 
Q 772 769 888 619 
Q 1100 347 1625 347 
Q 1938 347 2175 483 
Q 2413 619 2413 903 
Q 2413 1119 2222 1231 
Q 2100 1300 1741 1391 
L 1294 1503 
Q 866 1609 663 1741 
Q 300 1969 300 2372 
Q 300 2847 642 3140 
Q 984 3434 1563 3434 
Q 2319 3434 2653 2991 
Q 2863 2709 2856 2384 
L 2325 2384 
Q 2309 2575 2191 2731 
Q 1997 2953 1519 2953 
Q 1200 2953 1036 2831 
Q 872 2709 872 2509 
Q 872 2291 1088 2159 
Q 1213 2081 1456 2022 
L 1828 1931 
Q 2434 1784 2641 1647 
Q 2969 1431 2969 969 
Q 2969 522 2630 197 
Q 2291 -128 1597 -128 
Q 850 -128 539 211 
Q 228 550 206 1050 
L 747 1050 
z
M 1578 3428 
L 1578 3428 
z
" transform="scale(0.015625)"/>
       <path id="Helvetica-52" d="M 1741 363 
Q 2300 363 2508 786 
Q 2716 1209 2716 1728 
Q 2716 2197 2566 2491 
Q 2328 2953 1747 2953 
Q 1231 2953 997 2559 
Q 763 2166 763 1609 
Q 763 1075 997 719 
Q 1231 363 1741 363 
z
M 1763 3444 
Q 2409 3444 2856 3012 
Q 3303 2581 3303 1744 
Q 3303 934 2909 406 
Q 2516 -122 1688 -122 
Q 997 -122 590 345 
Q 184 813 184 1600 
Q 184 2444 612 2944 
Q 1041 3444 1763 3444 
z
M 1744 3428 
L 1744 3428 
z
" transform="scale(0.015625)"/>
       <path id="Helvetica-4f" d="M 428 4591 
L 991 4591 
L 991 0 
L 428 0 
L 428 4591 
z
" transform="scale(0.015625)"/>
       <path id="Helvetica-47" d="M 769 1634 
Q 769 1097 997 734 
Q 1225 372 1728 372 
Q 2119 372 2370 708 
Q 2622 1044 2622 1672 
Q 2622 2306 2362 2611 
Q 2103 2916 1722 2916 
Q 1297 2916 1033 2591 
Q 769 2266 769 1634 
z
M 1616 3406 
Q 2000 3406 2259 3244 
Q 2409 3150 2600 2916 
L 2600 4606 
L 3141 4606 
L 3141 0 
L 2634 0 
L 2634 466 
Q 2438 156 2169 18 
Q 1900 -119 1553 -119 
Q 994 -119 584 351 
Q 175 822 175 1603 
Q 175 2334 548 2870 
Q 922 3406 1616 3406 
z
" transform="scale(0.015625)"/>
       <path id="Helvetica-3" transform="scale(0.015625)"/>
       <path id="Helvetica-53" d="M 1825 378 
Q 2219 378 2480 708 
Q 2741 1038 2741 1694 
Q 2741 2094 2625 2381 
Q 2406 2934 1825 2934 
Q 1241 2934 1025 2350 
Q 909 2038 909 1556 
Q 909 1169 1025 897 
Q 1244 378 1825 378 
z
M 369 3331 
L 916 3331 
L 916 2888 
Q 1084 3116 1284 3241 
Q 1569 3428 1953 3428 
Q 2522 3428 2919 2992 
Q 3316 2556 3316 1747 
Q 3316 653 2744 184 
Q 2381 -113 1900 -113 
Q 1522 -113 1266 53 
Q 1116 147 931 375 
L 931 -1334 
L 369 -1334 
L 369 3331 
z
" transform="scale(0.015625)"/>
       <path id="Helvetica-45" d="M 369 4606 
L 916 4606 
L 916 2941 
Q 1100 3181 1356 3307 
Q 1613 3434 1913 3434 
Q 2538 3434 2927 3004 
Q 3316 2575 3316 1738 
Q 3316 944 2931 419 
Q 2547 -106 1866 -106 
Q 1484 -106 1222 78 
Q 1066 188 888 428 
L 888 0 
L 369 0 
L 369 4606 
z
M 1831 391 
Q 2288 391 2514 753 
Q 2741 1116 2741 1709 
Q 2741 2238 2514 2584 
Q 2288 2931 1847 2931 
Q 1463 2931 1173 2647 
Q 884 2363 884 1709 
Q 884 1238 1003 944 
Q 1225 391 1831 391 
z
" transform="scale(0.015625)"/>
       <path id="Helvetica-44" d="M 844 891 
Q 844 647 1022 506 
Q 1200 366 1444 366 
Q 1741 366 2019 503 
Q 2488 731 2488 1250 
L 2488 1703 
Q 2384 1638 2221 1594 
Q 2059 1550 1903 1531 
L 1563 1488 
Q 1256 1447 1103 1359 
Q 844 1213 844 891 
z
M 2206 2028 
Q 2400 2053 2466 2191 
Q 2503 2266 2503 2406 
Q 2503 2694 2298 2823 
Q 2094 2953 1713 2953 
Q 1272 2953 1088 2716 
Q 984 2584 953 2325 
L 428 2325 
Q 444 2944 830 3186 
Q 1216 3428 1725 3428 
Q 2316 3428 2684 3203 
Q 3050 2978 3050 2503 
L 3050 575 
Q 3050 488 3086 434 
Q 3122 381 3238 381 
Q 3275 381 3322 386 
Q 3369 391 3422 400 
L 3422 -16 
Q 3291 -53 3222 -62 
Q 3153 -72 3034 -72 
Q 2744 -72 2613 134 
Q 2544 244 2516 444 
Q 2344 219 2022 53 
Q 1700 -113 1313 -113 
Q 847 -113 551 170 
Q 256 453 256 878 
Q 256 1344 547 1600 
Q 838 1856 1309 1916 
L 2206 2028 
z
M 1741 3428 
L 1741 3428 
z
" transform="scale(0.015625)"/>
       <path id="Helvetica-4c" d="M 413 3331 
L 984 3331 
L 984 0 
L 413 0 
L 413 3331 
z
M 413 4591 
L 984 4591 
L 984 3953 
L 413 3953 
L 413 4591 
z
" transform="scale(0.015625)"/>
       <path id="Helvetica-57" d="M 525 4281 
L 1094 4281 
L 1094 3347 
L 1628 3347 
L 1628 2888 
L 1094 2888 
L 1094 703 
Q 1094 528 1213 469 
Q 1278 434 1431 434 
Q 1472 434 1519 436 
Q 1566 438 1628 444 
L 1628 0 
Q 1531 -28 1426 -40 
Q 1322 -53 1200 -53 
Q 806 -53 665 148 
Q 525 350 525 672 
L 525 2888 
L 72 2888 
L 72 3347 
L 525 3347 
L 525 4281 
z
" transform="scale(0.015625)"/>
       <path id="Helvetica-5c" d="M 2503 3347 
L 3125 3347 
Q 3006 3025 2597 1878 
Q 2291 1016 2084 472 
Q 1597 -809 1397 -1090 
Q 1197 -1372 709 -1372 
Q 591 -1372 527 -1362 
Q 463 -1353 369 -1328 
L 369 -816 
Q 516 -856 581 -865 
Q 647 -875 697 -875 
Q 853 -875 926 -823 
Q 1000 -772 1050 -697 
Q 1066 -672 1162 -440 
Q 1259 -209 1303 -97 
L 66 3347 
L 703 3347 
L 1600 622 
L 2503 3347 
z
M 1597 3428 
L 1597 3428 
z
" transform="scale(0.015625)"/>
       <path id="Helvetica-f" d="M 531 -653 
Q 747 -616 834 -350 
Q 881 -209 881 -78 
Q 881 -56 879 -39 
Q 878 -22 872 0 
L 531 0 
L 531 681 
L 1200 681 
L 1200 50 
Q 1200 -322 1050 -603 
Q 900 -884 531 -950 
L 531 -653 
z
" transform="scale(0.015625)"/>
       <path id="Helvetica-8" d="M 4363 2175 
Q 4813 2175 5131 1856 
Q 5450 1538 5450 1088 
Q 5450 638 5131 319 
Q 4813 0 4363 0 
Q 3909 0 3590 319 
Q 3272 638 3272 1088 
Q 3272 1538 3590 1856 
Q 3909 2175 4363 2175 
z
M 3909 4456 
L 4256 4456 
L 1753 -119 
L 1406 -119 
L 3909 4456 
z
M 1294 2606 
Q 1563 2606 1752 2795 
Q 1941 2984 1941 3250 
Q 1941 3516 1752 3705 
Q 1563 3894 1294 3894 
Q 1028 3894 839 3706 
Q 650 3519 650 3250 
Q 650 2984 839 2795 
Q 1028 2606 1294 2606 
z
M 1294 4341 
Q 1747 4341 2065 4020 
Q 2384 3700 2384 3250 
Q 2384 2800 2065 2481 
Q 1747 2163 1294 2163 
Q 844 2163 525 2481 
Q 206 2800 206 3250 
Q 206 3700 525 4020 
Q 844 4341 1294 4341 
z
M 4363 444 
Q 4628 444 4817 633 
Q 5006 822 5006 1088 
Q 5006 1353 4817 1542 
Q 4628 1731 4363 1731 
Q 4094 1731 3905 1542 
Q 3716 1353 3716 1088 
Q 3716 822 3905 633 
Q 4094 444 4363 444 
z
" transform="scale(0.015625)"/>
      </defs>
      <use xlink:href="#Helvetica-37"/>
      <use xlink:href="#Helvetica-4b" transform="translate(61.078125 0)"/>
      <use xlink:href="#Helvetica-55" transform="translate(116.6875 0)"/>
      <use xlink:href="#Helvetica-48" transform="translate(149.984375 0)"/>
      <use xlink:href="#Helvetica-56" transform="translate(205.59375 0)"/>
      <use xlink:href="#Helvetica-4b" transform="translate(255.59375 0)"/>
      <use xlink:href="#Helvetica-52" transform="translate(311.203125 0)"/>
      <use xlink:href="#Helvetica-4f" transform="translate(366.8125 0)"/>
      <use xlink:href="#Helvetica-47" transform="translate(389.03125 0)"/>
      <use xlink:href="#Helvetica-3" transform="translate(444.640625 0)"/>
      <use xlink:href="#Helvetica-53" transform="translate(472.421875 0)"/>
      <use xlink:href="#Helvetica-55" transform="translate(528.03125 0)"/>
      <use xlink:href="#Helvetica-52" transform="translate(561.328125 0)"/>
      <use xlink:href="#Helvetica-45" transform="translate(616.9375 0)"/>
      <use xlink:href="#Helvetica-44" transform="translate(672.546875 0)"/>
      <use xlink:href="#Helvetica-45" transform="translate(728.15625 0)"/>
      <use xlink:href="#Helvetica-4c" transform="translate(783.765625 0)"/>
      <use xlink:href="#Helvetica-4f" transform="translate(805.984375 0)"/>
      <use xlink:href="#Helvetica-4c" transform="translate(828.203125 0)"/>
      <use xlink:href="#Helvetica-57" transform="translate(850.421875 0)"/>
      <use xlink:href="#Helvetica-5c" transform="translate(878.203125 0)"/>
      <use xlink:href="#Helvetica-f" transform="translate(920.828125 0)"/>
      <use xlink:href="#Helvetica-3" transform="translate(948.609375 0)"/>
      <use xlink:href="#Helvetica-8" transform="translate(976.390625 0)"/>
     </g>
    </g>
   </g>
   <g id="matplotlib.axis_2">
    <g id="ytick_1">
     <g id="line2d_8">
      <defs>
       <path id="m252891a0f4" d="M 0 0 
L -3.5 0 
" style="stroke: #000000; stroke-width: 0.8"/>
      </defs>
      <g>
       <use xlink:href="#m252891a0f4" x="79.63875" y="191.651514" style="stroke: #000000; stroke-width: 0.8"/>
      </g>
     </g>
     <g id="text_9">
      <!-- −0.04 -->
      <g transform="translate(52.3975 194.651514) scale(0.08 -0.08)">
       <defs>
        <path id="Helvetica-ef" d="M 3547 1894 
L 3547 1369 
L 288 1369 
L 288 1894 
L 3547 1894 
z
" transform="scale(0.015625)"/>
        <path id="Helvetica-11" d="M 547 681 
L 1200 681 
L 1200 0 
L 547 0 
L 547 681 
z
" transform="scale(0.015625)"/>
       </defs>
       <use xlink:href="#Helvetica-ef"/>
       <use xlink:href="#Helvetica-13" transform="translate(58.40625 0)"/>
       <use xlink:href="#Helvetica-11" transform="translate(114.015625 0)"/>
       <use xlink:href="#Helvetica-13" transform="translate(141.796875 0)"/>
       <use xlink:href="#Helvetica-17" transform="translate(197.40625 0)"/>
      </g>
     </g>
    </g>
    <g id="ytick_2">
     <g id="line2d_9">
      <g>
       <use xlink:href="#m252891a0f4" x="79.63875" y="162.434389" style="stroke: #000000; stroke-width: 0.8"/>
      </g>
     </g>
     <g id="text_10">
      <!-- −0.02 -->
      <g transform="translate(52.3975 165.434389) scale(0.08 -0.08)">
       <use xlink:href="#Helvetica-ef"/>
       <use xlink:href="#Helvetica-13" transform="translate(58.40625 0)"/>
       <use xlink:href="#Helvetica-11" transform="translate(114.015625 0)"/>
       <use xlink:href="#Helvetica-13" transform="translate(141.796875 0)"/>
       <use xlink:href="#Helvetica-15" transform="translate(197.40625 0)"/>
      </g>
     </g>
    </g>
    <g id="ytick_3">
     <g id="line2d_10">
      <g>
       <use xlink:href="#m252891a0f4" x="79.63875" y="133.217265" style="stroke: #000000; stroke-width: 0.8"/>
      </g>
     </g>
     <g id="text_11">
      <!-- 0.00 -->
      <g transform="translate(57.07 136.217265) scale(0.08 -0.08)">
       <use xlink:href="#Helvetica-13"/>
       <use xlink:href="#Helvetica-11" transform="translate(55.609375 0)"/>
       <use xlink:href="#Helvetica-13" transform="translate(83.390625 0)"/>
       <use xlink:href="#Helvetica-13" transform="translate(139 0)"/>
      </g>
     </g>
    </g>
    <g id="ytick_4">
     <g id="line2d_11">
      <g>
       <use xlink:href="#m252891a0f4" x="79.63875" y="104.00014" style="stroke: #000000; stroke-width: 0.8"/>
      </g>
     </g>
     <g id="text_12">
      <!-- 0.02 -->
      <g transform="translate(57.07 107.00014) scale(0.08 -0.08)">
       <use xlink:href="#Helvetica-13"/>
       <use xlink:href="#Helvetica-11" transform="translate(55.609375 0)"/>
       <use xlink:href="#Helvetica-13" transform="translate(83.390625 0)"/>
       <use xlink:href="#Helvetica-15" transform="translate(139 0)"/>
      </g>
     </g>
    </g>
    <g id="ytick_5">
     <g id="line2d_12">
      <g>
       <use xlink:href="#m252891a0f4" x="79.63875" y="74.783015" style="stroke: #000000; stroke-width: 0.8"/>
      </g>
     </g>
     <g id="text_13">
      <!-- 0.04 -->
      <g transform="translate(57.07 77.783015) scale(0.08 -0.08)">
       <use xlink:href="#Helvetica-13"/>
       <use xlink:href="#Helvetica-11" transform="translate(55.609375 0)"/>
       <use xlink:href="#Helvetica-13" transform="translate(83.390625 0)"/>
       <use xlink:href="#Helvetica-17" transform="translate(139 0)"/>
      </g>
     </g>
    </g>
    <g id="ytick_6">
     <g id="line2d_13">
      <g>
       <use xlink:href="#m252891a0f4" x="79.63875" y="45.565891" style="stroke: #000000; stroke-width: 0.8"/>
      </g>
     </g>
     <g id="text_14">
      <!-- 0.06 -->
      <g transform="translate(57.07 48.565891) scale(0.08 -0.08)">
       <defs>
        <path id="Helvetica-19" d="M 1872 4494 
Q 2622 4494 2917 4105 
Q 3213 3716 3213 3303 
L 2656 3303 
Q 2606 3569 2497 3719 
Q 2294 4000 1881 4000 
Q 1409 4000 1131 3564 
Q 853 3128 822 2316 
Q 1016 2600 1309 2741 
Q 1578 2866 1909 2866 
Q 2472 2866 2890 2506 
Q 3309 2147 3309 1434 
Q 3309 825 2912 354 
Q 2516 -116 1781 -116 
Q 1153 -116 697 361 
Q 241 838 241 1966 
Q 241 2800 444 3381 
Q 834 4494 1872 4494 
z
M 1831 384 
Q 2275 384 2495 682 
Q 2716 981 2716 1388 
Q 2716 1731 2519 2042 
Q 2322 2353 1803 2353 
Q 1441 2353 1167 2112 
Q 894 1872 894 1388 
Q 894 963 1142 673 
Q 1391 384 1831 384 
z
" transform="scale(0.015625)"/>
       </defs>
       <use xlink:href="#Helvetica-13"/>
       <use xlink:href="#Helvetica-11" transform="translate(55.609375 0)"/>
       <use xlink:href="#Helvetica-13" transform="translate(83.390625 0)"/>
       <use xlink:href="#Helvetica-19" transform="translate(139 0)"/>
      </g>
     </g>
    </g>
    <g id="text_15">
     <!-- Incremental net benefit -->
     <g transform="translate(39.048203 154.886125) rotate(-90) scale(0.08 -0.08)">
      <defs>
       <path id="Helvetica-2c" d="M 628 4591 
L 1256 4591 
L 1256 0 
L 628 0 
L 628 4591 
z
" transform="scale(0.015625)"/>
       <path id="Helvetica-51" d="M 413 3347 
L 947 3347 
L 947 2872 
Q 1184 3166 1450 3294 
Q 1716 3422 2041 3422 
Q 2753 3422 3003 2925 
Q 3141 2653 3141 2147 
L 3141 0 
L 2569 0 
L 2569 2109 
Q 2569 2416 2478 2603 
Q 2328 2916 1934 2916 
Q 1734 2916 1606 2875 
Q 1375 2806 1200 2600 
Q 1059 2434 1017 2257 
Q 975 2081 975 1753 
L 975 0 
L 413 0 
L 413 3347 
z
M 1734 3428 
L 1734 3428 
z
" transform="scale(0.015625)"/>
       <path id="Helvetica-46" d="M 1703 3444 
Q 2269 3444 2623 3169 
Q 2978 2894 3050 2222 
L 2503 2222 
Q 2453 2531 2275 2736 
Q 2097 2941 1703 2941 
Q 1166 2941 934 2416 
Q 784 2075 784 1575 
Q 784 1072 996 728 
Q 1209 384 1666 384 
Q 2016 384 2220 598 
Q 2425 813 2503 1184 
L 3050 1184 
Q 2956 519 2581 211 
Q 2206 -97 1622 -97 
Q 966 -97 575 383 
Q 184 863 184 1581 
Q 184 2463 612 2953 
Q 1041 3444 1703 3444 
z
M 1616 3428 
L 1616 3428 
z
" transform="scale(0.015625)"/>
       <path id="Helvetica-50" d="M 413 3347 
L 969 3347 
L 969 2872 
Q 1169 3119 1331 3231 
Q 1609 3422 1963 3422 
Q 2363 3422 2606 3225 
Q 2744 3113 2856 2894 
Q 3044 3163 3297 3292 
Q 3550 3422 3866 3422 
Q 4541 3422 4784 2934 
Q 4916 2672 4916 2228 
L 4916 0 
L 4331 0 
L 4331 2325 
Q 4331 2659 4164 2784 
Q 3997 2909 3756 2909 
Q 3425 2909 3186 2687 
Q 2947 2466 2947 1947 
L 2947 0 
L 2375 0 
L 2375 2184 
Q 2375 2525 2294 2681 
Q 2166 2916 1816 2916 
Q 1497 2916 1236 2669 
Q 975 2422 975 1775 
L 975 0 
L 413 0 
L 413 3347 
z
" transform="scale(0.015625)"/>
       <path id="Helvetica-c0" d="M 553 3856 
Q 566 4206 675 4369 
Q 872 4656 1434 4656 
Q 1488 4656 1544 4653 
Q 1600 4650 1672 4644 
L 1672 4131 
Q 1584 4138 1545 4139 
Q 1506 4141 1472 4141 
Q 1216 4141 1166 4008 
Q 1116 3875 1116 3331 
L 1672 3331 
L 1672 2888 
L 1109 2888 
L 1109 0 
L 553 0 
L 553 2888 
L 88 2888 
L 88 3331 
L 553 3331 
L 553 3856 
z
M 2213 3953 
L 2213 4591 
L 2775 4591 
L 2775 3953 
L 2213 3953 
z
M 2213 3331 
L 2775 3331 
L 2775 0 
L 2213 0 
L 2213 3331 
z
" transform="scale(0.015625)"/>
      </defs>
      <use xlink:href="#Helvetica-2c"/>
      <use xlink:href="#Helvetica-51" transform="translate(27.78125 0)"/>
      <use xlink:href="#Helvetica-46" transform="translate(83.390625 0)"/>
      <use xlink:href="#Helvetica-55" transform="translate(133.390625 0)"/>
      <use xlink:href="#Helvetica-48" transform="translate(166.6875 0)"/>
      <use xlink:href="#Helvetica-50" transform="translate(222.296875 0)"/>
      <use xlink:href="#Helvetica-48" transform="translate(305.59375 0)"/>
      <use xlink:href="#Helvetica-51" transform="translate(361.203125 0)"/>
      <use xlink:href="#Helvetica-57" transform="translate(416.8125 0)"/>
      <use xlink:href="#Helvetica-44" transform="translate(444.59375 0)"/>
      <use xlink:href="#Helvetica-4f" transform="translate(500.203125 0)"/>
      <use xlink:href="#Helvetica-3" transform="translate(522.421875 0)"/>
      <use xlink:href="#Helvetica-51" transform="translate(550.203125 0)"/>
      <use xlink:href="#Helvetica-48" transform="translate(605.8125 0)"/>
      <use xlink:href="#Helvetica-57" transform="translate(661.421875 0)"/>
      <use xlink:href="#Helvetica-3" transform="translate(689.203125 0)"/>
      <use xlink:href="#Helvetica-45" transform="translate(716.984375 0)"/>
      <use xlink:href="#Helvetica-48" transform="translate(772.59375 0)"/>
      <use xlink:href="#Helvetica-51" transform="translate(828.203125 0)"/>
      <use xlink:href="#Helvetica-48" transform="translate(883.8125 0)"/>
      <use xlink:href="#Helvetica-c0" transform="translate(939.421875 0)"/>
      <use xlink:href="#Helvetica-57" transform="translate(989.421875 0)"/>
     </g>
     <!-- (multi-muscle − clinical) -->
     <g transform="translate(46.645859 155.8705) rotate(-90) scale(0.08 -0.08)">
      <defs>
       <path id="Helvetica-b" d="M 1894 4666 
Q 1403 3713 1256 3263 
Q 1034 2578 1034 1681 
Q 1034 775 1288 25 
Q 1444 -438 1903 -1306 
L 1525 -1306 
Q 1069 -594 959 -397 
Q 850 -200 722 138 
Q 547 600 478 1125 
Q 444 1397 444 1644 
Q 444 2569 734 3291 
Q 919 3750 1503 4666 
L 1894 4666 
z
" transform="scale(0.015625)"/>
       <path id="Helvetica-58" d="M 975 3347 
L 975 1125 
Q 975 869 1056 706 
Q 1206 406 1616 406 
Q 2203 406 2416 931 
Q 2531 1213 2531 1703 
L 2531 3347 
L 3094 3347 
L 3094 0 
L 2563 0 
L 2569 494 
Q 2459 303 2297 172 
Q 1975 -91 1516 -91 
Q 800 -91 541 388 
Q 400 644 400 1072 
L 400 3347 
L 975 3347 
z
M 1747 3428 
L 1747 3428 
z
" transform="scale(0.015625)"/>
       <path id="Helvetica-10" d="M 266 2072 
L 1834 2072 
L 1834 1494 
L 266 1494 
L 266 2072 
z
" transform="scale(0.015625)"/>
       <path id="Helvetica-c" d="M 222 -1306 
Q 719 -338 863 106 
Q 1081 778 1081 1681 
Q 1081 2584 828 3334 
Q 672 3797 213 4666 
L 591 4666 
Q 1072 3897 1173 3717 
Q 1275 3538 1394 3222 
Q 1544 2831 1608 2450 
Q 1672 2069 1672 1716 
Q 1672 791 1378 66 
Q 1194 -400 613 -1306 
L 222 -1306 
z
" transform="scale(0.015625)"/>
      </defs>
      <use xlink:href="#Helvetica-b"/>
      <use xlink:href="#Helvetica-50" transform="translate(33.296875 0)"/>
      <use xlink:href="#Helvetica-58" transform="translate(116.59375 0)"/>
      <use xlink:href="#Helvetica-4f" transform="translate(172.203125 0)"/>
      <use xlink:href="#Helvetica-57" transform="translate(194.421875 0)"/>
      <use xlink:href="#Helvetica-4c" transform="translate(222.203125 0)"/>
      <use xlink:href="#Helvetica-10" transform="translate(244.421875 0)"/>
      <use xlink:href="#Helvetica-50" transform="translate(277.71875 0)"/>
      <use xlink:href="#Helvetica-58" transform="translate(361.015625 0)"/>
      <use xlink:href="#Helvetica-56" transform="translate(416.625 0)"/>
      <use xlink:href="#Helvetica-46" transform="translate(466.625 0)"/>
      <use xlink:href="#Helvetica-4f" transform="translate(516.625 0)"/>
      <use xlink:href="#Helvetica-48" transform="translate(538.84375 0)"/>
      <use xlink:href="#Helvetica-3" transform="translate(594.453125 0)"/>
      <use xlink:href="#Helvetica-ef" transform="translate(622.234375 0)"/>
      <use xlink:href="#Helvetica-3" transform="translate(680.640625 0)"/>
      <use xlink:href="#Helvetica-46" transform="translate(708.421875 0)"/>
      <use xlink:href="#Helvetica-4f" transform="translate(758.421875 0)"/>
      <use xlink:href="#Helvetica-4c" transform="translate(780.640625 0)"/>
      <use xlink:href="#Helvetica-51" transform="translate(802.859375 0)"/>
      <use xlink:href="#Helvetica-4c" transform="translate(858.46875 0)"/>
      <use xlink:href="#Helvetica-46" transform="translate(880.6875 0)"/>
      <use xlink:href="#Helvetica-44" transform="translate(930.6875 0)"/>
      <use xlink:href="#Helvetica-4f" transform="translate(986.296875 0)"/>
      <use xlink:href="#Helvetica-c" transform="translate(1008.515625 0)"/>
     </g>
    </g>
   </g>
   <g id="line2d_14">
    <path d="M 79.63875 133.217265 
L 358.63875 133.217265 
" clip-path="url(#p1122dcd44a)" style="fill: none; stroke-dasharray: 2.96,1.28; stroke-dashoffset: 0; stroke: #000000; stroke-opacity: 0.6; stroke-width: 0.8"/>
   </g>
   <g id="line2d_15">
    <path d="M 79.63875 126.091137 
L 88.93875 119.925835 
L 98.23875 132.569435 
L 107.53875 128.95797 
L 116.83875 120.2908 
L 126.13875 131.959713 
L 135.43875 131.859907 
L 144.73875 130.298128 
L 154.03875 126.960177 
L 163.33875 156.707094 
L 172.63875 151.032585 
L 181.93875 143.680946 
L 191.23875 148.565848 
L 200.53875 146.081314 
L 209.83875 141.093511 
L 219.13875 140.343393 
L 228.43875 142.461971 
L 237.73875 135.07201 
L 247.03875 133.613161 
L 256.33875 119.968689 
L 265.63875 128.127173 
L 274.93875 123.612484 
L 284.23875 139.924209 
L 293.53875 115.455125 
L 302.83875 112.054824 
L 312.13875 93.749479 
L 321.43875 112.729647 
L 330.73875 113.083125 
L 340.03875 124.941761 
L 349.33875 135.203235 
L 358.63875 140.343393 
" clip-path="url(#p1122dcd44a)" style="fill: none; stroke: #00a1d5; stroke-width: 1.8; stroke-linecap: square"/>
   </g>
   <g id="patch_3">
    <path d="M 79.63875 208.446 
L 79.63875 19.95 
" style="fill: none; stroke: #000000; stroke-width: 0.8; stroke-linejoin: miter; stroke-linecap: square"/>
   </g>
   <g id="patch_4">
    <path d="M 79.63875 208.446 
L 358.63875 208.446 
" style="fill: none; stroke: #000000; stroke-width: 0.8; stroke-linejoin: miter; stroke-linecap: square"/>
   </g>
   <g id="text_16">
    <!-- Mean incremental net benefit (10–40%) = +0.002 (bootstrap 95% CI spans zero; P[&gt;0] = 0.59). Muscle morphometry adds no net benefit beyond clinical factors. -->
    <g style="fill: #80796b" transform="translate(7.2 261.22488) scale(0.06 -0.06)">
     <defs>
      <path id="Helvetica-30" d="M 472 4591 
L 1363 4591 
L 2681 709 
L 3991 4591 
L 4872 4591 
L 4872 0 
L 4281 0 
L 4281 2709 
Q 4281 2850 4287 3175 
Q 4294 3500 4294 3872 
L 2984 0 
L 2369 0 
L 1050 3872 
L 1050 3731 
Q 1050 3563 1058 3217 
Q 1066 2872 1066 2709 
L 1066 0 
L 472 0 
L 472 4591 
z
" transform="scale(0.015625)"/>
      <path id="Helvetica-b2" d="M -16 2000 
L 3569 2000 
L 3569 1541 
L -16 1541 
L -16 2000 
z
" transform="scale(0.015625)"/>
      <path id="Helvetica-20" d="M 3547 2569 
L 3547 2044 
L 288 2044 
L 288 2569 
L 3547 2569 
z
M 3547 1228 
L 3547 694 
L 288 694 
L 288 1228 
L 3547 1228 
z
" transform="scale(0.015625)"/>
      <path id="Helvetica-e" d="M 288 1369 
L 288 1894 
L 1650 1894 
L 1650 3266 
L 2184 3266 
L 2184 1894 
L 3547 1894 
L 3547 1369 
L 2184 1369 
L 2184 0 
L 1650 0 
L 1650 1369 
L 288 1369 
z
" transform="scale(0.015625)"/>
      <path id="Helvetica-1c" d="M 850 1081 
Q 875 616 1209 438 
Q 1381 344 1597 344 
Q 2000 344 2284 680 
Q 2569 1016 2688 2044 
Q 2500 1747 2223 1626 
Q 1947 1506 1628 1506 
Q 981 1506 604 1909 
Q 228 2313 228 2947 
Q 228 3556 600 4018 
Q 972 4481 1697 4481 
Q 2675 4481 3047 3600 
Q 3253 3116 3253 2388 
Q 3253 1566 3006 931 
Q 2597 -125 1619 -125 
Q 963 -125 622 219 
Q 281 563 281 1081 
L 850 1081 
z
M 1703 2000 
Q 2038 2000 2314 2220 
Q 2591 2441 2591 2991 
Q 2591 3484 2342 3726 
Q 2094 3969 1709 3969 
Q 1297 3969 1055 3692 
Q 813 3416 813 2953 
Q 813 2516 1025 2258 
Q 1238 2000 1703 2000 
z
" transform="scale(0.015625)"/>
      <path id="Helvetica-26" d="M 2422 4716 
Q 3294 4716 3775 4256 
Q 4256 3797 4309 3213 
L 3703 3213 
Q 3600 3656 3292 3915 
Q 2984 4175 2428 4175 
Q 1750 4175 1333 3698 
Q 916 3222 916 2238 
Q 916 1431 1292 929 
Q 1669 428 2416 428 
Q 3103 428 3463 956 
Q 3653 1234 3747 1688 
L 4353 1688 
Q 4272 963 3816 472 
Q 3269 -119 2341 -119 
Q 1541 -119 997 366 
Q 281 1006 281 2344 
Q 281 3359 819 4009 
Q 1400 4716 2422 4716 
z
M 2297 4716 
L 2297 4716 
z
" transform="scale(0.015625)"/>
      <path id="Helvetica-5d" d="M 163 444 
L 2147 2844 
L 309 2844 
L 309 3347 
L 2903 3347 
L 2903 2888 
L 931 503 
L 2963 503 
L 2963 0 
L 163 0 
L 163 444 
z
M 1609 3428 
L 1609 3428 
z
" transform="scale(0.015625)"/>
      <path id="Helvetica-1e" d="M 709 -653 
Q 928 -613 1013 -363 
Q 1056 -231 1056 -75 
Q 1056 -59 1054 -48 
Q 1053 -38 1050 0 
L 709 0 
L 709 681 
L 1375 681 
L 1375 50 
Q 1375 -284 1278 -509 
Q 1116 -878 709 -950 
L 709 -653 
z
M 709 3303 
L 1375 3303 
L 1375 2622 
L 709 2622 
L 709 3303 
z
" transform="scale(0.015625)"/>
      <path id="Helvetica-33" d="M 547 4591 
L 2613 4591 
Q 3225 4591 3600 4245 
Q 3975 3900 3975 3275 
Q 3975 2738 3640 2339 
Q 3306 1941 2613 1941 
L 1169 1941 
L 1169 0 
L 547 0 
L 547 4591 
z
M 3347 3272 
Q 3347 3778 2972 3959 
Q 2766 4056 2406 4056 
L 1169 4056 
L 1169 2466 
L 2406 2466 
Q 2825 2466 3086 2644 
Q 3347 2822 3347 3272 
z
" transform="scale(0.015625)"/>
      <path id="Helvetica-3e" d="M 400 4622 
L 1600 4622 
L 1600 4163 
L 931 4163 
L 931 -800 
L 1600 -800 
L 1600 -1259 
L 400 -1259 
L 400 4622 
z
" transform="scale(0.015625)"/>
      <path id="Helvetica-21" d="M 3741 1369 
L 88 -59 
L 88 503 
L 3072 1634 
L 88 2763 
L 88 3325 
L 3741 1894 
L 3741 1369 
z
" transform="scale(0.015625)"/>
      <path id="Helvetica-40" d="M 147 -800 
L 813 -800 
L 813 4163 
L 147 4163 
L 147 4622 
L 1347 4622 
L 1347 -1259 
L 147 -1259 
L 147 -800 
z
" transform="scale(0.015625)"/>
      <path id="Helvetica-49" d="M 553 3856 
Q 566 4206 675 4369 
Q 872 4656 1434 4656 
Q 1488 4656 1544 4653 
Q 1600 4650 1672 4644 
L 1672 4131 
Q 1584 4138 1545 4139 
Q 1506 4141 1472 4141 
Q 1216 4141 1166 4008 
Q 1116 3875 1116 3331 
L 1672 3331 
L 1672 2888 
L 1109 2888 
L 1109 0 
L 553 0 
L 553 2888 
L 88 2888 
L 88 3331 
L 553 3331 
L 553 3856 
z
" transform="scale(0.015625)"/>
     </defs>
     <use xlink:href="#Helvetica-30"/>
     <use xlink:href="#Helvetica-48" transform="translate(83.296875 0)"/>
     <use xlink:href="#Helvetica-44" transform="translate(138.90625 0)"/>
     <use xlink:href="#Helvetica-51" transform="translate(194.515625 0)"/>
     <use xlink:href="#Helvetica-3" transform="translate(250.125 0)"/>
     <use xlink:href="#Helvetica-4c" transform="translate(277.90625 0)"/>
     <use xlink:href="#Helvetica-51" transform="translate(300.125 0)"/>
     <use xlink:href="#Helvetica-46" transform="translate(355.734375 0)"/>
     <use xlink:href="#Helvetica-55" transform="translate(405.734375 0)"/>
     <use xlink:href="#Helvetica-48" transform="translate(439.03125 0)"/>
     <use xlink:href="#Helvetica-50" transform="translate(494.640625 0)"/>
     <use xlink:href="#Helvetica-48" transform="translate(577.9375 0)"/>
     <use xlink:href="#Helvetica-51" transform="translate(633.546875 0)"/>
     <use xlink:href="#Helvetica-57" transform="translate(689.15625 0)"/>
     <use xlink:href="#Helvetica-44" transform="translate(716.9375 0)"/>
     <use xlink:href="#Helvetica-4f" transform="translate(772.546875 0)"/>
     <use xlink:href="#Helvetica-3" transform="translate(794.765625 0)"/>
     <use xlink:href="#Helvetica-51" transform="translate(822.546875 0)"/>
     <use xlink:href="#Helvetica-48" transform="translate(878.15625 0)"/>
     <use xlink:href="#Helvetica-57" transform="translate(933.765625 0)"/>
     <use xlink:href="#Helvetica-3" transform="translate(961.546875 0)"/>
     <use xlink:href="#Helvetica-45" transform="translate(989.328125 0)"/>
     <use xlink:href="#Helvetica-48" transform="translate(1044.9375 0)"/>
     <use xlink:href="#Helvetica-51" transform="translate(1100.546875 0)"/>
     <use xlink:href="#Helvetica-48" transform="translate(1156.15625 0)"/>
     <use xlink:href="#Helvetica-c0" transform="translate(1211.765625 0)"/>
     <use xlink:href="#Helvetica-57" transform="translate(1261.765625 0)"/>
     <use xlink:href="#Helvetica-3" transform="translate(1289.546875 0)"/>
     <use xlink:href="#Helvetica-b" transform="translate(1317.328125 0)"/>
     <use xlink:href="#Helvetica-14" transform="translate(1350.625 0)"/>
     <use xlink:href="#Helvetica-13" transform="translate(1406.234375 0)"/>
     <use xlink:href="#Helvetica-b2" transform="translate(1461.84375 0)"/>
     <use xlink:href="#Helvetica-17" transform="translate(1517.453125 0)"/>
     <use xlink:href="#Helvetica-13" transform="translate(1573.0625 0)"/>
     <use xlink:href="#Helvetica-8" transform="translate(1628.671875 0)"/>
     <use xlink:href="#Helvetica-c" transform="translate(1717.59375 0)"/>
     <use xlink:href="#Helvetica-3" transform="translate(1750.890625 0)"/>
     <use xlink:href="#Helvetica-20" transform="translate(1778.671875 0)"/>
     <use xlink:href="#Helvetica-3" transform="translate(1837.078125 0)"/>
     <use xlink:href="#Helvetica-e" transform="translate(1864.859375 0)"/>
     <use xlink:href="#Helvetica-13" transform="translate(1923.265625 0)"/>
     <use xlink:href="#Helvetica-11" transform="translate(1978.875 0)"/>
     <use xlink:href="#Helvetica-13" transform="translate(2006.65625 0)"/>
     <use xlink:href="#Helvetica-13" transform="translate(2062.265625 0)"/>
     <use xlink:href="#Helvetica-15" transform="translate(2117.875 0)"/>
     <use xlink:href="#Helvetica-3" transform="translate(2173.484375 0)"/>
     <use xlink:href="#Helvetica-b" transform="translate(2201.265625 0)"/>
     <use xlink:href="#Helvetica-45" transform="translate(2234.5625 0)"/>
     <use xlink:href="#Helvetica-52" transform="translate(2290.171875 0)"/>
     <use xlink:href="#Helvetica-52" transform="translate(2345.78125 0)"/>
     <use xlink:href="#Helvetica-57" transform="translate(2401.390625 0)"/>
     <use xlink:href="#Helvetica-56" transform="translate(2429.171875 0)"/>
     <use xlink:href="#Helvetica-57" transform="translate(2479.171875 0)"/>
     <use xlink:href="#Helvetica-55" transform="translate(2506.953125 0)"/>
     <use xlink:href="#Helvetica-44" transform="translate(2540.25 0)"/>
     <use xlink:href="#Helvetica-53" transform="translate(2595.859375 0)"/>
     <use xlink:href="#Helvetica-3" transform="translate(2651.46875 0)"/>
     <use xlink:href="#Helvetica-1c" transform="translate(2679.25 0)"/>
     <use xlink:href="#Helvetica-18" transform="translate(2734.859375 0)"/>
     <use xlink:href="#Helvetica-8" transform="translate(2790.46875 0)"/>
     <use xlink:href="#Helvetica-3" transform="translate(2879.390625 0)"/>
     <use xlink:href="#Helvetica-26" transform="translate(2907.171875 0)"/>
     <use xlink:href="#Helvetica-2c" transform="translate(2979.390625 0)"/>
     <use xlink:href="#Helvetica-3" transform="translate(3007.171875 0)"/>
     <use xlink:href="#Helvetica-56" transform="translate(3034.953125 0)"/>
     <use xlink:href="#Helvetica-53" transform="translate(3084.953125 0)"/>
     <use xlink:href="#Helvetica-44" transform="translate(3140.5625 0)"/>
     <use xlink:href="#Helvetica-51" transform="translate(3196.171875 0)"/>
     <use xlink:href="#Helvetica-56" transform="translate(3251.78125 0)"/>
     <use xlink:href="#Helvetica-3" transform="translate(3301.78125 0)"/>
     <use xlink:href="#Helvetica-5d" transform="translate(3329.5625 0)"/>
     <use xlink:href="#Helvetica-48" transform="translate(3379.5625 0)"/>
     <use xlink:href="#Helvetica-55" transform="translate(3435.171875 0)"/>
     <use xlink:href="#Helvetica-52" transform="translate(3468.46875 0)"/>
     <use xlink:href="#Helvetica-1e" transform="translate(3524.078125 0)"/>
     <use xlink:href="#Helvetica-3" transform="translate(3551.859375 0)"/>
     <use xlink:href="#Helvetica-33" transform="translate(3579.640625 0)"/>
     <use xlink:href="#Helvetica-3e" transform="translate(3646.34375 0)"/>
     <use xlink:href="#Helvetica-21" transform="translate(3674.125 0)"/>
     <use xlink:href="#Helvetica-13" transform="translate(3732.53125 0)"/>
     <use xlink:href="#Helvetica-40" transform="translate(3788.140625 0)"/>
     <use xlink:href="#Helvetica-3" transform="translate(3815.921875 0)"/>
     <use xlink:href="#Helvetica-20" transform="translate(3843.703125 0)"/>
     <use xlink:href="#Helvetica-3" transform="translate(3902.109375 0)"/>
     <use xlink:href="#Helvetica-13" transform="translate(3929.890625 0)"/>
     <use xlink:href="#Helvetica-11" transform="translate(3985.5 0)"/>
     <use xlink:href="#Helvetica-18" transform="translate(4013.28125 0)"/>
     <use xlink:href="#Helvetica-1c" transform="translate(4068.890625 0)"/>
     <use xlink:href="#Helvetica-c" transform="translate(4124.5 0)"/>
     <use xlink:href="#Helvetica-11" transform="translate(4157.796875 0)"/>
     <use xlink:href="#Helvetica-3" transform="translate(4185.578125 0)"/>
     <use xlink:href="#Helvetica-30" transform="translate(4213.359375 0)"/>
     <use xlink:href="#Helvetica-58" transform="translate(4296.65625 0)"/>
     <use xlink:href="#Helvetica-56" transform="translate(4352.265625 0)"/>
     <use xlink:href="#Helvetica-46" transform="translate(4402.265625 0)"/>
     <use xlink:href="#Helvetica-4f" transform="translate(4452.265625 0)"/>
     <use xlink:href="#Helvetica-48" transform="translate(4474.484375 0)"/>
     <use xlink:href="#Helvetica-3" transform="translate(4530.09375 0)"/>
     <use xlink:href="#Helvetica-50" transform="translate(4557.875 0)"/>
     <use xlink:href="#Helvetica-52" transform="translate(4641.171875 0)"/>
     <use xlink:href="#Helvetica-55" transform="translate(4696.78125 0)"/>
     <use xlink:href="#Helvetica-53" transform="translate(4730.078125 0)"/>
     <use xlink:href="#Helvetica-4b" transform="translate(4785.6875 0)"/>
     <use xlink:href="#Helvetica-52" transform="translate(4841.296875 0)"/>
     <use xlink:href="#Helvetica-50" transform="translate(4896.90625 0)"/>
     <use xlink:href="#Helvetica-48" transform="translate(4980.203125 0)"/>
     <use xlink:href="#Helvetica-57" transform="translate(5035.8125 0)"/>
     <use xlink:href="#Helvetica-55" transform="translate(5063.59375 0)"/>
     <use xlink:href="#Helvetica-5c" transform="translate(5096.890625 0)"/>
     <use xlink:href="#Helvetica-3" transform="translate(5146.890625 0)"/>
     <use xlink:href="#Helvetica-44" transform="translate(5174.671875 0)"/>
     <use xlink:href="#Helvetica-47" transform="translate(5230.28125 0)"/>
     <use xlink:href="#Helvetica-47" transform="translate(5285.890625 0)"/>
     <use xlink:href="#Helvetica-56" transform="translate(5341.5 0)"/>
     <use xlink:href="#Helvetica-3" transform="translate(5391.5 0)"/>
     <use xlink:href="#Helvetica-51" transform="translate(5419.28125 0)"/>
     <use xlink:href="#Helvetica-52" transform="translate(5474.890625 0)"/>
     <use xlink:href="#Helvetica-3" transform="translate(5530.5 0)"/>
     <use xlink:href="#Helvetica-51" transform="translate(5558.28125 0)"/>
     <use xlink:href="#Helvetica-48" transform="translate(5613.890625 0)"/>
     <use xlink:href="#Helvetica-57" transform="translate(5669.5 0)"/>
     <use xlink:href="#Helvetica-3" transform="translate(5697.28125 0)"/>
     <use xlink:href="#Helvetica-45" transform="translate(5725.0625 0)"/>
     <use xlink:href="#Helvetica-48" transform="translate(5780.671875 0)"/>
     <use xlink:href="#Helvetica-51" transform="translate(5836.28125 0)"/>
     <use xlink:href="#Helvetica-48" transform="translate(5891.890625 0)"/>
     <use xlink:href="#Helvetica-c0" transform="translate(5947.5 0)"/>
     <use xlink:href="#Helvetica-57" transform="translate(5997.5 0)"/>
     <use xlink:href="#Helvetica-3" transform="translate(6025.28125 0)"/>
     <use xlink:href="#Helvetica-45" transform="translate(6053.0625 0)"/>
     <use xlink:href="#Helvetica-48" transform="translate(6108.671875 0)"/>
     <use xlink:href="#Helvetica-5c" transform="translate(6164.28125 0)"/>
     <use xlink:href="#Helvetica-52" transform="translate(6214.28125 0)"/>
     <use xlink:href="#Helvetica-51" transform="translate(6269.890625 0)"/>
     <use xlink:href="#Helvetica-47" transform="translate(6325.5 0)"/>
     <use xlink:href="#Helvetica-3" transform="translate(6381.109375 0)"/>
     <use xlink:href="#Helvetica-46" transform="translate(6408.890625 0)"/>
     <use xlink:href="#Helvetica-4f" transform="translate(6458.890625 0)"/>
     <use xlink:href="#Helvetica-4c" transform="translate(6481.109375 0)"/>
     <use xlink:href="#Helvetica-51" transform="translate(6503.328125 0)"/>
     <use xlink:href="#Helvetica-4c" transform="translate(6558.9375 0)"/>
     <use xlink:href="#Helvetica-46" transform="translate(6581.15625 0)"/>
     <use xlink:href="#Helvetica-44" transform="translate(6631.15625 0)"/>
     <use xlink:href="#Helvetica-4f" transform="translate(6686.765625 0)"/>
     <use xlink:href="#Helvetica-3" transform="translate(6708.984375 0)"/>
     <use xlink:href="#Helvetica-49" transform="translate(6736.765625 0)"/>
     <use xlink:href="#Helvetica-44" transform="translate(6764.546875 0)"/>
     <use xlink:href="#Helvetica-46" transform="translate(6820.15625 0)"/>
     <use xlink:href="#Helvetica-57" transform="translate(6870.15625 0)"/>
     <use xlink:href="#Helvetica-52" transform="translate(6897.9375 0)"/>
     <use xlink:href="#Helvetica-55" transform="translate(6953.546875 0)"/>
     <use xlink:href="#Helvetica-56" transform="translate(6986.84375 0)"/>
     <use xlink:href="#Helvetica-11" transform="translate(7036.84375 0)"/>
    </g>
   </g>
   <g id="text_17">
    <!-- Added net benefit of morphometry over the clinical model -->
    <g transform="translate(79.63875 13.95) scale(0.09 -0.09)">
     <defs>
      <path id="Helvetica-Bold-24" d="M 3184 947 
L 1488 947 
L 1169 0 
L 163 0 
L 1806 4606 
L 2894 4606 
L 4525 0 
L 3481 0 
L 3184 947 
z
M 2916 1741 
L 2341 3553 
L 1747 1741 
L 2916 1741 
z
" transform="scale(0.015625)"/>
      <path id="Helvetica-Bold-47" d="M 3516 4600 
L 3516 0 
L 2650 0 
L 2650 472 
Q 2459 169 2215 31 
Q 1972 -106 1609 -106 
Q 1013 -106 605 376 
Q 197 859 197 1616 
Q 197 2488 598 2988 
Q 1000 3488 1672 3488 
Q 1981 3488 2222 3352 
Q 2463 3216 2613 2975 
L 2613 4600 
L 3516 4600 
z
M 1116 1681 
Q 1116 1209 1303 928 
Q 1488 644 1866 644 
Q 2244 644 2441 925 
Q 2638 1206 2638 1653 
Q 2638 2278 2322 2547 
Q 2128 2709 1872 2709 
Q 1481 2709 1298 2414 
Q 1116 2119 1116 1681 
z
" transform="scale(0.015625)"/>
      <path id="Helvetica-Bold-48" d="M 3331 1000 
Q 3297 697 3016 384 
Q 2578 -113 1791 -113 
Q 1141 -113 644 306 
Q 147 725 147 1669 
Q 147 2553 595 3025 
Q 1044 3497 1759 3497 
Q 2184 3497 2525 3337 
Q 2866 3178 3088 2834 
Q 3288 2531 3347 2131 
Q 3381 1897 3375 1456 
L 1044 1456 
Q 1063 944 1366 738 
Q 1550 609 1809 609 
Q 2084 609 2256 766 
Q 2350 850 2422 1000 
L 3331 1000 
z
M 2450 2044 
Q 2428 2397 2236 2580 
Q 2044 2763 1759 2763 
Q 1450 2763 1279 2569 
Q 1109 2375 1066 2044 
L 2450 2044 
z
" transform="scale(0.015625)"/>
      <path id="Helvetica-Bold-3" transform="scale(0.015625)"/>
      <path id="Helvetica-Bold-51" d="M 2019 2747 
Q 1566 2747 1397 2363 
Q 1309 2159 1309 1844 
L 1309 0 
L 422 0 
L 422 3400 
L 1281 3400 
L 1281 2903 
Q 1453 3166 1606 3281 
Q 1881 3488 2303 3488 
Q 2831 3488 3167 3211 
Q 3503 2934 3503 2294 
L 3503 0 
L 2591 0 
L 2591 2072 
Q 2591 2341 2519 2484 
Q 2388 2747 2019 2747 
z
" transform="scale(0.015625)"/>
      <path id="Helvetica-Bold-57" d="M 1975 634 
L 1975 -31 
L 1553 -47 
Q 922 -69 691 172 
Q 541 325 541 644 
L 541 2741 
L 66 2741 
L 66 3375 
L 541 3375 
L 541 4325 
L 1422 4325 
L 1422 3375 
L 1975 3375 
L 1975 2741 
L 1422 2741 
L 1422 941 
Q 1422 731 1475 679 
Q 1528 628 1800 628 
Q 1841 628 1886 629 
Q 1931 631 1975 634 
z
" transform="scale(0.015625)"/>
      <path id="Helvetica-Bold-45" d="M 2266 -91 
Q 1844 -91 1588 78 
Q 1434 178 1256 428 
L 1256 0 
L 384 0 
L 384 4600 
L 1272 4600 
L 1272 2963 
Q 1441 3200 1644 3325 
Q 1884 3481 2256 3481 
Q 2928 3481 3308 2997 
Q 3688 2513 3688 1747 
Q 3688 953 3313 431 
Q 2938 -91 2266 -91 
z
M 2753 1653 
Q 2753 2016 2659 2253 
Q 2481 2703 2003 2703 
Q 1519 2703 1338 2263 
Q 1244 2028 1244 1656 
Q 1244 1219 1437 931 
Q 1631 644 2028 644 
Q 2372 644 2562 922 
Q 2753 1200 2753 1653 
z
" transform="scale(0.015625)"/>
      <path id="Helvetica-Bold-c0" d="M 1472 0 
L 584 0 
L 584 2747 
L 88 2747 
L 88 3375 
L 575 3375 
L 575 3594 
Q 575 4138 816 4403 
Q 1031 4653 1694 4653 
Q 1775 4653 1859 4647 
Q 1944 4641 2034 4634 
L 2034 3909 
Q 1972 3913 1912 3914 
Q 1853 3916 1769 3916 
Q 1559 3916 1512 3800 
Q 1466 3684 1472 3438 
L 1472 3375 
L 2056 3375 
L 2056 2747 
L 1472 2747 
L 1472 0 
z
M 3472 3391 
L 3472 0 
L 2584 0 
L 2584 3391 
L 3472 3391 
z
M 2584 3822 
L 2584 4634 
L 3456 4634 
L 3456 3822 
L 2584 3822 
z
" transform="scale(0.015625)"/>
      <path id="Helvetica-Bold-52" d="M 3256 2975 
Q 3688 2434 3688 1697 
Q 3688 947 3256 414 
Q 2825 -119 1947 -119 
Q 1069 -119 637 414 
Q 206 947 206 1697 
Q 206 2434 637 2975 
Q 1069 3516 1947 3516 
Q 2825 3516 3256 2975 
z
M 1944 2763 
Q 1553 2763 1342 2486 
Q 1131 2209 1131 1697 
Q 1131 1184 1342 906 
Q 1553 628 1944 628 
Q 2334 628 2543 906 
Q 2753 1184 2753 1697 
Q 2753 2209 2543 2486 
Q 2334 2763 1944 2763 
z
" transform="scale(0.015625)"/>
      <path id="Helvetica-Bold-49" d="M 2013 4634 
L 2013 3909 
Q 1938 3919 1761 3923 
Q 1584 3928 1517 3845 
Q 1450 3763 1450 3663 
L 1450 3375 
L 2034 3375 
L 2034 2747 
L 1450 2747 
L 1450 0 
L 563 0 
L 563 2747 
L 66 2747 
L 66 3375 
L 553 3375 
L 553 3594 
Q 553 4141 738 4347 
Q 931 4653 1672 4653 
Q 1756 4653 1825 4648 
Q 1894 4644 2013 4634 
z
" transform="scale(0.015625)"/>
      <path id="Helvetica-Bold-50" d="M 2328 2469 
Q 2216 2716 1888 2716 
Q 1506 2716 1375 2469 
Q 1303 2328 1303 2050 
L 1303 0 
L 400 0 
L 400 3400 
L 1266 3400 
L 1266 2903 
Q 1431 3169 1578 3281 
Q 1838 3481 2250 3481 
Q 2641 3481 2881 3309 
Q 3075 3150 3175 2900 
Q 3350 3200 3609 3341 
Q 3884 3481 4222 3481 
Q 4447 3481 4665 3393 
Q 4884 3306 5063 3088 
Q 5206 2909 5256 2650 
Q 5288 2478 5288 2147 
L 5281 0 
L 4369 0 
L 4369 2169 
Q 4369 2363 4306 2488 
Q 4188 2725 3869 2725 
Q 3500 2725 3359 2419 
Q 3288 2256 3288 2028 
L 3288 0 
L 2391 0 
L 2391 2028 
Q 2391 2331 2328 2469 
z
" transform="scale(0.015625)"/>
      <path id="Helvetica-Bold-55" d="M 2128 2584 
Q 1591 2584 1406 2234 
Q 1303 2038 1303 1628 
L 1303 0 
L 406 0 
L 406 3406 
L 1256 3406 
L 1256 2813 
Q 1463 3153 1616 3278 
Q 1866 3488 2266 3488 
Q 2291 3488 2308 3486 
Q 2325 3484 2384 3481 
L 2384 2569 
Q 2300 2578 2234 2581 
Q 2169 2584 2128 2584 
z
" transform="scale(0.015625)"/>
      <path id="Helvetica-Bold-53" d="M 3269 3041 
Q 3681 2600 3681 1747 
Q 3681 847 3276 375 
Q 2872 -97 2234 -97 
Q 1828 -97 1559 106 
Q 1413 219 1272 434 
L 1272 -1341 
L 391 -1341 
L 391 3406 
L 1244 3406 
L 1244 2903 
Q 1388 3125 1550 3253 
Q 1847 3481 2256 3481 
Q 2853 3481 3269 3041 
z
M 2763 1703 
Q 2763 2097 2583 2400 
Q 2403 2703 2000 2703 
Q 1516 2703 1334 2244 
Q 1241 2000 1241 1625 
Q 1241 1031 1556 791 
Q 1744 650 2000 650 
Q 2372 650 2567 937 
Q 2763 1225 2763 1703 
z
" transform="scale(0.015625)"/>
      <path id="Helvetica-Bold-4b" d="M 3494 2000 
L 3494 0 
L 2584 0 
L 2584 2072 
Q 2584 2347 2491 2516 
Q 2369 2753 2028 2753 
Q 1675 2753 1492 2517 
Q 1309 2281 1309 1844 
L 1309 0 
L 422 0 
L 422 4591 
L 1309 4591 
L 1309 2963 
Q 1503 3259 1758 3376 
Q 2013 3494 2294 3494 
Q 2609 3494 2867 3384 
Q 3125 3275 3291 3050 
Q 3431 2859 3462 2657 
Q 3494 2456 3494 2000 
z
" transform="scale(0.015625)"/>
      <path id="Helvetica-Bold-5c" d="M 1800 894 
L 2503 3406 
L 3450 3406 
L 2281 56 
Q 1944 -913 1747 -1145 
Q 1550 -1378 959 -1378 
Q 841 -1378 769 -1376 
Q 697 -1375 553 -1366 
L 553 -653 
L 666 -659 
Q 797 -666 915 -650 
Q 1034 -634 1116 -578 
Q 1194 -525 1261 -356 
Q 1328 -188 1316 -150 
L 66 3406 
L 1056 3406 
L 1800 894 
z
" transform="scale(0.015625)"/>
      <path id="Helvetica-Bold-59" d="M 81 3406 
L 1081 3406 
L 1791 894 
L 2516 3406 
L 3472 3406 
L 2244 0 
L 1303 0 
L 81 3406 
z
" transform="scale(0.015625)"/>
      <path id="Helvetica-Bold-46" d="M 3363 2184 
L 2450 2184 
Q 2425 2375 2322 2528 
Q 2172 2734 1856 2734 
Q 1406 2734 1241 2288 
Q 1153 2050 1153 1656 
Q 1153 1281 1241 1053 
Q 1400 628 1841 628 
Q 2153 628 2284 797 
Q 2416 966 2444 1234 
L 3353 1234 
Q 3322 828 3059 466 
Q 2641 -119 1819 -119 
Q 997 -119 609 368 
Q 222 856 222 1634 
Q 222 2513 650 3000 
Q 1078 3488 1831 3488 
Q 2472 3488 2880 3200 
Q 3288 2913 3363 2184 
z
" transform="scale(0.015625)"/>
      <path id="Helvetica-Bold-4f" d="M 434 4606 
L 1325 4606 
L 1325 0 
L 434 0 
L 434 4606 
z
" transform="scale(0.015625)"/>
      <path id="Helvetica-Bold-4c" d="M 1331 3406 
L 1331 0 
L 428 0 
L 428 3406 
L 1331 3406 
z
M 1331 4634 
L 1331 3813 
L 428 3813 
L 428 4634 
L 1331 4634 
z
" transform="scale(0.015625)"/>
      <path id="Helvetica-Bold-44" d="M 544 3038 
Q 897 3488 1756 3488 
Q 2316 3488 2750 3266 
Q 3184 3044 3184 2428 
L 3184 866 
Q 3184 703 3191 472 
Q 3200 297 3244 234 
Q 3288 172 3375 131 
L 3375 0 
L 2406 0 
Q 2366 103 2350 193 
Q 2334 284 2325 400 
Q 2141 200 1900 59 
Q 1613 -106 1250 -106 
Q 788 -106 486 158 
Q 184 422 184 906 
Q 184 1534 669 1816 
Q 934 1969 1450 2034 
L 1753 2072 
Q 2000 2103 2106 2150 
Q 2297 2231 2297 2403 
Q 2297 2613 2151 2692 
Q 2006 2772 1725 2772 
Q 1409 2772 1278 2616 
Q 1184 2500 1153 2303 
L 294 2303 
Q 322 2750 544 3038 
z
M 1206 644 
Q 1331 541 1513 541 
Q 1800 541 2042 709 
Q 2284 878 2294 1325 
L 2294 1656 
Q 2209 1603 2123 1570 
Q 2038 1538 1888 1509 
L 1688 1472 
Q 1406 1422 1284 1350 
Q 1078 1228 1078 972 
Q 1078 744 1206 644 
z
" transform="scale(0.015625)"/>
     </defs>
     <use xlink:href="#Helvetica-Bold-24"/>
     <use xlink:href="#Helvetica-Bold-47" transform="translate(72.21875 0)"/>
     <use xlink:href="#Helvetica-Bold-47" transform="translate(133.296875 0)"/>
     <use xlink:href="#Helvetica-Bold-48" transform="translate(194.375 0)"/>
     <use xlink:href="#Helvetica-Bold-47" transform="translate(249.984375 0)"/>
     <use xlink:href="#Helvetica-Bold-3" transform="translate(311.0625 0)"/>
     <use xlink:href="#Helvetica-Bold-51" transform="translate(338.84375 0)"/>
     <use xlink:href="#Helvetica-Bold-48" transform="translate(399.921875 0)"/>
     <use xlink:href="#Helvetica-Bold-57" transform="translate(455.53125 0)"/>
     <use xlink:href="#Helvetica-Bold-3" transform="translate(488.828125 0)"/>
     <use xlink:href="#Helvetica-Bold-45" transform="translate(516.609375 0)"/>
     <use xlink:href="#Helvetica-Bold-48" transform="translate(577.6875 0)"/>
     <use xlink:href="#Helvetica-Bold-51" transform="translate(633.296875 0)"/>
     <use xlink:href="#Helvetica-Bold-48" transform="translate(694.375 0)"/>
     <use xlink:href="#Helvetica-Bold-c0" transform="translate(749.984375 0)"/>
     <use xlink:href="#Helvetica-Bold-57" transform="translate(811.0625 0)"/>
     <use xlink:href="#Helvetica-Bold-3" transform="translate(844.359375 0)"/>
     <use xlink:href="#Helvetica-Bold-52" transform="translate(872.140625 0)"/>
     <use xlink:href="#Helvetica-Bold-49" transform="translate(933.21875 0)"/>
     <use xlink:href="#Helvetica-Bold-3" transform="translate(966.515625 0)"/>
     <use xlink:href="#Helvetica-Bold-50" transform="translate(994.296875 0)"/>
     <use xlink:href="#Helvetica-Bold-52" transform="translate(1083.21875 0)"/>
     <use xlink:href="#Helvetica-Bold-55" transform="translate(1144.296875 0)"/>
     <use xlink:href="#Helvetica-Bold-53" transform="translate(1183.21875 0)"/>
     <use xlink:href="#Helvetica-Bold-4b" transform="translate(1244.296875 0)"/>
     <use xlink:href="#Helvetica-Bold-52" transform="translate(1305.375 0)"/>
     <use xlink:href="#Helvetica-Bold-50" transform="translate(1366.453125 0)"/>
     <use xlink:href="#Helvetica-Bold-48" transform="translate(1455.375 0)"/>
     <use xlink:href="#Helvetica-Bold-57" transform="translate(1510.984375 0)"/>
     <use xlink:href="#Helvetica-Bold-55" transform="translate(1544.28125 0)"/>
     <use xlink:href="#Helvetica-Bold-5c" transform="translate(1583.203125 0)"/>
     <use xlink:href="#Helvetica-Bold-3" transform="translate(1638.8125 0)"/>
     <use xlink:href="#Helvetica-Bold-52" transform="translate(1666.59375 0)"/>
     <use xlink:href="#Helvetica-Bold-59" transform="translate(1727.671875 0)"/>
     <use xlink:href="#Helvetica-Bold-48" transform="translate(1783.28125 0)"/>
     <use xlink:href="#Helvetica-Bold-55" transform="translate(1838.890625 0)"/>
     <use xlink:href="#Helvetica-Bold-3" transform="translate(1877.8125 0)"/>
     <use xlink:href="#Helvetica-Bold-57" transform="translate(1905.59375 0)"/>
     <use xlink:href="#Helvetica-Bold-4b" transform="translate(1938.890625 0)"/>
     <use xlink:href="#Helvetica-Bold-48" transform="translate(1999.96875 0)"/>
     <use xlink:href="#Helvetica-Bold-3" transform="translate(2055.578125 0)"/>
     <use xlink:href="#Helvetica-Bold-46" transform="translate(2083.359375 0)"/>
     <use xlink:href="#Helvetica-Bold-4f" transform="translate(2138.96875 0)"/>
     <use xlink:href="#Helvetica-Bold-4c" transform="translate(2166.75 0)"/>
     <use xlink:href="#Helvetica-Bold-51" transform="translate(2194.53125 0)"/>
     <use xlink:href="#Helvetica-Bold-4c" transform="translate(2255.609375 0)"/>
     <use xlink:href="#Helvetica-Bold-46" transform="translate(2283.390625 0)"/>
     <use xlink:href="#Helvetica-Bold-44" transform="translate(2339 0)"/>
     <use xlink:href="#Helvetica-Bold-4f" transform="translate(2394.609375 0)"/>
     <use xlink:href="#Helvetica-Bold-3" transform="translate(2422.390625 0)"/>
     <use xlink:href="#Helvetica-Bold-50" transform="translate(2450.171875 0)"/>
     <use xlink:href="#Helvetica-Bold-52" transform="translate(2539.09375 0)"/>
     <use xlink:href="#Helvetica-Bold-47" transform="translate(2600.171875 0)"/>
     <use xlink:href="#Helvetica-Bold-48" transform="translate(2661.25 0)"/>
     <use xlink:href="#Helvetica-Bold-4f" transform="translate(2716.859375 0)"/>
    </g>
   </g>
  </g>
 </g>
 <defs>
  <clipPath id="p1122dcd44a">
   <rect x="79.63875" y="19.95" width="279" height="188.496"/>
  </clipPath>
 </defs>
</svg>
