<?xml version="1.0" encoding="utf-8" standalone="no"?>
<!DOCTYPE svg PUBLIC "-//W3C//DTD SVG 1.1//EN"
  "http://www.w3.org/Graphics/SVG/1.1/DTD/svg11.dtd">
<svg xmlns:xlink="http://www.w3.org/1999/xlink" width="249.379pt" height="252.808375pt" viewBox="0 0 249.379 252.808375" xmlns="http://www.w3.org/2000/svg" version="1.1">
 <metadata>
  <rdf:RDF xmlns:dc="http://purl.org/dc/elements/1.1/" xmlns:cc="http://creativecommons.org/ns#" xmlns:rdf="http://www.w3.org/1999/02/22-rdf-syntax-ns#">
   <cc:Work>
    <dc:type rdf:resource="http://purl.org/dc/dcmitype/StillImage"/>
    <dc:date>2026-07-08T14:50:35.821334</dc:date>
    <dc:format>image/svg+xml</dc:format>
    <dc:creator>
     <cc:Agent>
      <dc:title>Matplotlib v3.11.0, https://matplotlib.org/</dc:title>
     </cc:Agent>
    </dc:creator>
   </cc:Work>
  </rdf:RDF>
 </metadata>
 <defs>
  <style type="text/css">*{stroke-linejoin: round; stroke-linecap: butt}</style>
 </defs>
 <g id="figure_1">
  <g id="patch_1">
   <path d="M 0 252.808375 
L 249.379 252.808375 
L 249.379 0 
L 0 0 
z
" style="fill: #ffffff"/>
  </g>
  <g id="axes_1">
   <g id="patch_2">
    <path d="M 37.035 219.534 
L 236.619 219.534 
L 236.619 19.95 
L 37.035 19.95 
z
" style="fill: #ffffff"/>
   </g>
   <g id="matplotlib.axis_1">
    <g id="xtick_1">
     <g id="line2d_1">
      <defs>
       <path id="m3d29fad3b0" d="M 0 0 
L 0 3.5 
" style="stroke: #000000; stroke-width: 0.8"/>
      </defs>
      <g>
       <use xlink:href="#m3d29fad3b0" x="37.035" y="219.534" style="stroke: #000000; stroke-width: 0.8"/>
      </g>
     </g>
     <g id="text_1">
      <!-- 0.0 -->
      <g transform="translate(31.475 232.534) scale(0.08 -0.08)">
       <defs>
        <path id="Helvetica-13" d="M 1731 4475 
Q 2600 4475 2988 3759 
Q 3288 3206 3288 2244 
Q 3288 1331 3016 734 
Q 2622 -122 1728 -122 
Q 922 -122 528 578 
Q 200 1163 200 2147 
Q 200 2909 397 3456 
Q 766 4475 1731 4475 
z
M 1725 391 
Q 2163 391 2422 778 
Q 2681 1166 2681 2222 
Q 2681 2984 2493 3476 
Q 2306 3969 1766 3969 
Q 1269 3969 1039 3501 
Q 809 3034 809 2125 
Q 809 1441 956 1025 
Q 1181 391 1725 391 
z
" transform="scale(0.015625)"/>
        <path id="Helvetica-11" d="M 547 681 
L 1200 681 
L 1200 0 
L 547 0 
L 547 681 
z
" transform="scale(0.015625)"/>
       </defs>
       <use xlink:href="#Helvetica-13"/>
       <use xlink:href="#Helvetica-11" transform="translate(55.609375 0)"/>
       <use xlink:href="#Helvetica-13" transform="translate(83.390625 0)"/>
      </g>
     </g>
    </g>
    <g id="xtick_2">
     <g id="line2d_2">
      <g>
       <use xlink:href="#m3d29fad3b0" x="76.9518" y="219.534" style="stroke: #000000; stroke-width: 0.8"/>
      </g>
     </g>
     <g id="text_2">
      <!-- 0.2 -->
      <g transform="translate(71.3918 232.534) scale(0.08 -0.08)">
       <defs>
        <path id="Helvetica-15" d="M 200 0 
Q 231 578 439 1006 
Q 647 1434 1250 1784 
L 1850 2131 
Q 2253 2366 2416 2531 
Q 2672 2791 2672 3125 
Q 2672 3516 2437 3745 
Q 2203 3975 1813 3975 
Q 1234 3975 1013 3538 
Q 894 3303 881 2888 
L 309 2888 
Q 319 3472 525 3841 
Q 891 4491 1816 4491 
Q 2584 4491 2939 4075 
Q 3294 3659 3294 3150 
Q 3294 2613 2916 2231 
Q 2697 2009 2131 1694 
L 1703 1456 
Q 1397 1288 1222 1134 
Q 909 863 828 531 
L 3272 531 
L 3272 0 
L 200 0 
z
" transform="scale(0.015625)"/>
       </defs>
       <use xlink:href="#Helvetica-13"/>
       <use xlink:href="#Helvetica-11" transform="translate(55.609375 0)"/>
       <use xlink:href="#Helvetica-15" transform="translate(83.390625 0)"/>
      </g>
     </g>
    </g>
    <g id="xtick_3">
     <g id="line2d_3">
      <g>
       <use xlink:href="#m3d29fad3b0" x="116.8686" y="219.534" style="stroke: #000000; stroke-width: 0.8"/>
      </g>
     </g>
     <g id="text_3">
      <!-- 0.4 -->
      <g transform="translate(111.3086 232.534) scale(0.08 -0.08)">
       <defs>
        <path id="Helvetica-17" d="M 2116 1584 
L 2116 3613 
L 681 1584 
L 2116 1584 
z
M 2125 0 
L 2125 1094 
L 163 1094 
L 163 1644 
L 2213 4488 
L 2688 4488 
L 2688 1584 
L 3347 1584 
L 3347 1094 
L 2688 1094 
L 2688 0 
L 2125 0 
z
" transform="scale(0.015625)"/>
       </defs>
       <use xlink:href="#Helvetica-13"/>
       <use xlink:href="#Helvetica-11" transform="translate(55.609375 0)"/>
       <use xlink:href="#Helvetica-17" transform="translate(83.390625 0)"/>
      </g>
     </g>
    </g>
    <g id="xtick_4">
     <g id="line2d_4">
      <g>
       <use xlink:href="#m3d29fad3b0" x="156.7854" y="219.534" style="stroke: #000000; stroke-width: 0.8"/>
      </g>
     </g>
     <g id="text_4">
      <!-- 0.6 -->
      <g transform="translate(151.2254 232.534) scale(0.08 -0.08)">
       <defs>
        <path id="Helvetica-19" d="M 1872 4494 
Q 2622 4494 2917 4105 
Q 3213 3716 3213 3303 
L 2656 3303 
Q 2606 3569 2497 3719 
Q 2294 4000 1881 4000 
Q 1409 4000 1131 3564 
Q 853 3128 822 2316 
Q 1016 2600 1309 2741 
Q 1578 2866 1909 2866 
Q 2472 2866 2890 2506 
Q 3309 2147 3309 1434 
Q 3309 825 2912 354 
Q 2516 -116 1781 -116 
Q 1153 -116 697 361 
Q 241 838 241 1966 
Q 241 2800 444 3381 
Q 834 4494 1872 4494 
z
M 1831 384 
Q 2275 384 2495 682 
Q 2716 981 2716 1388 
Q 2716 1731 2519 2042 
Q 2322 2353 1803 2353 
Q 1441 2353 1167 2112 
Q 894 1872 894 1388 
Q 894 963 1142 673 
Q 1391 384 1831 384 
z
" transform="scale(0.015625)"/>
       </defs>
       <use xlink:href="#Helvetica-13"/>
       <use xlink:href="#Helvetica-11" transform="translate(55.609375 0)"/>
       <use xlink:href="#Helvetica-19" transform="translate(83.390625 0)"/>
      </g>
     </g>
    </g>
    <g id="xtick_5">
     <g id="line2d_5">
      <g>
       <use xlink:href="#m3d29fad3b0" x="196.7022" y="219.534" style="stroke: #000000; stroke-width: 0.8"/>
      </g>
     </g>
     <g id="text_5">
      <!-- 0.8 -->
      <g transform="translate(191.1422 232.534) scale(0.08 -0.08)">
       <defs>
        <path id="Helvetica-1b" d="M 1741 2600 
Q 2113 2600 2322 2808 
Q 2531 3016 2531 3303 
Q 2531 3553 2331 3762 
Q 2131 3972 1722 3972 
Q 1316 3972 1134 3762 
Q 953 3553 953 3272 
Q 953 2956 1187 2778 
Q 1422 2600 1741 2600 
z
M 1775 384 
Q 2166 384 2423 595 
Q 2681 806 2681 1225 
Q 2681 1659 2415 1884 
Q 2150 2109 1734 2109 
Q 1331 2109 1076 1879 
Q 822 1650 822 1244 
Q 822 894 1055 639 
Q 1288 384 1775 384 
z
M 975 2384 
Q 741 2484 609 2619 
Q 363 2869 363 3269 
Q 363 3769 725 4128 
Q 1088 4488 1753 4488 
Q 2397 4488 2762 4148 
Q 3128 3809 3128 3356 
Q 3128 2938 2916 2678 
Q 2797 2531 2547 2391 
Q 2825 2263 2984 2097 
Q 3281 1784 3281 1284 
Q 3281 694 2884 283 
Q 2488 -128 1763 -128 
Q 1109 -128 657 226 
Q 206 581 206 1256 
Q 206 1653 400 1942 
Q 594 2231 975 2384 
z
" transform="scale(0.015625)"/>
       </defs>
       <use xlink:href="#Helvetica-13"/>
       <use xlink:href="#Helvetica-11" transform="translate(55.609375 0)"/>
       <use xlink:href="#Helvetica-1b" transform="translate(83.390625 0)"/>
      </g>
     </g>
    </g>
    <g id="xtick_6">
     <g id="line2d_6">
      <g>
       <use xlink:href="#m3d29fad3b0" x="236.619" y="219.534" style="stroke: #000000; stroke-width: 0.8"/>
      </g>
     </g>
     <g id="text_6">
      <!-- 1.0 -->
      <g transform="translate(231.059 232.534) scale(0.08 -0.08)">
       <defs>
        <path id="Helvetica-14" d="M 613 3169 
L 613 3600 
Q 1222 3659 1462 3798 
Q 1703 3938 1822 4456 
L 2266 4456 
L 2266 0 
L 1666 0 
L 1666 3169 
L 613 3169 
z
" transform="scale(0.015625)"/>
       </defs>
       <use xlink:href="#Helvetica-14"/>
       <use xlink:href="#Helvetica-11" transform="translate(55.609375 0)"/>
       <use xlink:href="#Helvetica-13" transform="translate(83.390625 0)"/>
      </g>
     </g>
    </g>
    <g id="text_7">
     <!-- Predicted probability -->
     <g transform="translate(100.587 243.893375) scale(0.08 -0.08)">
      <defs>
       <path id="Helvetica-33" d="M 547 4591 
L 2613 4591 
Q 3225 4591 3600 4245 
Q 3975 3900 3975 3275 
Q 3975 2738 3640 2339 
Q 3306 1941 2613 1941 
L 1169 1941 
L 1169 0 
L 547 0 
L 547 4591 
z
M 3347 3272 
Q 3347 3778 2972 3959 
Q 2766 4056 2406 4056 
L 1169 4056 
L 1169 2466 
L 2406 2466 
Q 2825 2466 3086 2644 
Q 3347 2822 3347 3272 
z
" transform="scale(0.015625)"/>
       <path id="Helvetica-55" d="M 428 3347 
L 963 3347 
L 963 2769 
Q 1028 2938 1284 3180 
Q 1541 3422 1875 3422 
Q 1891 3422 1928 3419 
Q 1966 3416 2056 3406 
L 2056 2813 
Q 2006 2822 1964 2825 
Q 1922 2828 1872 2828 
Q 1447 2828 1219 2554 
Q 991 2281 991 1925 
L 991 0 
L 428 0 
L 428 3347 
z
" transform="scale(0.015625)"/>
       <path id="Helvetica-48" d="M 1806 3422 
Q 2163 3422 2497 3255 
Q 2831 3088 3006 2822 
Q 3175 2569 3231 2231 
Q 3281 2000 3281 1494 
L 828 1494 
Q 844 984 1069 676 
Q 1294 369 1766 369 
Q 2206 369 2469 659 
Q 2619 828 2681 1050 
L 3234 1050 
Q 3213 866 3089 639 
Q 2966 413 2813 269 
Q 2556 19 2178 -69 
Q 1975 -119 1719 -119 
Q 1094 -119 659 336 
Q 225 791 225 1609 
Q 225 2416 662 2919 
Q 1100 3422 1806 3422 
z
M 2703 1941 
Q 2669 2306 2544 2525 
Q 2313 2931 1772 2931 
Q 1384 2931 1121 2651 
Q 859 2372 844 1941 
L 2703 1941 
z
M 1753 3428 
L 1753 3428 
z
" transform="scale(0.015625)"/>
       <path id="Helvetica-47" d="M 769 1634 
Q 769 1097 997 734 
Q 1225 372 1728 372 
Q 2119 372 2370 708 
Q 2622 1044 2622 1672 
Q 2622 2306 2362 2611 
Q 2103 2916 1722 2916 
Q 1297 2916 1033 2591 
Q 769 2266 769 1634 
z
M 1616 3406 
Q 2000 3406 2259 3244 
Q 2409 3150 2600 2916 
L 2600 4606 
L 3141 4606 
L 3141 0 
L 2634 0 
L 2634 466 
Q 2438 156 2169 18 
Q 1900 -119 1553 -119 
Q 994 -119 584 351 
Q 175 822 175 1603 
Q 175 2334 548 2870 
Q 922 3406 1616 3406 
z
" transform="scale(0.015625)"/>
       <path id="Helvetica-4c" d="M 413 3331 
L 984 3331 
L 984 0 
L 413 0 
L 413 3331 
z
M 413 4591 
L 984 4591 
L 984 3953 
L 413 3953 
L 413 4591 
z
" transform="scale(0.015625)"/>
       <path id="Helvetica-46" d="M 1703 3444 
Q 2269 3444 2623 3169 
Q 2978 2894 3050 2222 
L 2503 2222 
Q 2453 2531 2275 2736 
Q 2097 2941 1703 2941 
Q 1166 2941 934 2416 
Q 784 2075 784 1575 
Q 784 1072 996 728 
Q 1209 384 1666 384 
Q 2016 384 2220 598 
Q 2425 813 2503 1184 
L 3050 1184 
Q 2956 519 2581 211 
Q 2206 -97 1622 -97 
Q 966 -97 575 383 
Q 184 863 184 1581 
Q 184 2463 612 2953 
Q 1041 3444 1703 3444 
z
M 1616 3428 
L 1616 3428 
z
" transform="scale(0.015625)"/>
       <path id="Helvetica-57" d="M 525 4281 
L 1094 4281 
L 1094 3347 
L 1628 3347 
L 1628 2888 
L 1094 2888 
L 1094 703 
Q 1094 528 1213 469 
Q 1278 434 1431 434 
Q 1472 434 1519 436 
Q 1566 438 1628 444 
L 1628 0 
Q 1531 -28 1426 -40 
Q 1322 -53 1200 -53 
Q 806 -53 665 148 
Q 525 350 525 672 
L 525 2888 
L 72 2888 
L 72 3347 
L 525 3347 
L 525 4281 
z
" transform="scale(0.015625)"/>
       <path id="Helvetica-3" transform="scale(0.015625)"/>
       <path id="Helvetica-53" d="M 1825 378 
Q 2219 378 2480 708 
Q 2741 1038 2741 1694 
Q 2741 2094 2625 2381 
Q 2406 2934 1825 2934 
Q 1241 2934 1025 2350 
Q 909 2038 909 1556 
Q 909 1169 1025 897 
Q 1244 378 1825 378 
z
M 369 3331 
L 916 3331 
L 916 2888 
Q 1084 3116 1284 3241 
Q 1569 3428 1953 3428 
Q 2522 3428 2919 2992 
Q 3316 2556 3316 1747 
Q 3316 653 2744 184 
Q 2381 -113 1900 -113 
Q 1522 -113 1266 53 
Q 1116 147 931 375 
L 931 -1334 
L 369 -1334 
L 369 3331 
z
" transform="scale(0.015625)"/>
       <path id="Helvetica-52" d="M 1741 363 
Q 2300 363 2508 786 
Q 2716 1209 2716 1728 
Q 2716 2197 2566 2491 
Q 2328 2953 1747 2953 
Q 1231 2953 997 2559 
Q 763 2166 763 1609 
Q 763 1075 997 719 
Q 1231 363 1741 363 
z
M 1763 3444 
Q 2409 3444 2856 3012 
Q 3303 2581 3303 1744 
Q 3303 934 2909 406 
Q 2516 -122 1688 -122 
Q 997 -122 590 345 
Q 184 813 184 1600 
Q 184 2444 612 2944 
Q 1041 3444 1763 3444 
z
M 1744 3428 
L 1744 3428 
z
" transform="scale(0.015625)"/>
       <path id="Helvetica-45" d="M 369 4606 
L 916 4606 
L 916 2941 
Q 1100 3181 1356 3307 
Q 1613 3434 1913 3434 
Q 2538 3434 2927 3004 
Q 3316 2575 3316 1738 
Q 3316 944 2931 419 
Q 2547 -106 1866 -106 
Q 1484 -106 1222 78 
Q 1066 188 888 428 
L 888 0 
L 369 0 
L 369 4606 
z
M 1831 391 
Q 2288 391 2514 753 
Q 2741 1116 2741 1709 
Q 2741 2238 2514 2584 
Q 2288 2931 1847 2931 
Q 1463 2931 1173 2647 
Q 884 2363 884 1709 
Q 884 1238 1003 944 
Q 1225 391 1831 391 
z
" transform="scale(0.015625)"/>
       <path id="Helvetica-44" d="M 844 891 
Q 844 647 1022 506 
Q 1200 366 1444 366 
Q 1741 366 2019 503 
Q 2488 731 2488 1250 
L 2488 1703 
Q 2384 1638 2221 1594 
Q 2059 1550 1903 1531 
L 1563 1488 
Q 1256 1447 1103 1359 
Q 844 1213 844 891 
z
M 2206 2028 
Q 2400 2053 2466 2191 
Q 2503 2266 2503 2406 
Q 2503 2694 2298 2823 
Q 2094 2953 1713 2953 
Q 1272 2953 1088 2716 
Q 984 2584 953 2325 
L 428 2325 
Q 444 2944 830 3186 
Q 1216 3428 1725 3428 
Q 2316 3428 2684 3203 
Q 3050 2978 3050 2503 
L 3050 575 
Q 3050 488 3086 434 
Q 3122 381 3238 381 
Q 3275 381 3322 386 
Q 3369 391 3422 400 
L 3422 -16 
Q 3291 -53 3222 -62 
Q 3153 -72 3034 -72 
Q 2744 -72 2613 134 
Q 2544 244 2516 444 
Q 2344 219 2022 53 
Q 1700 -113 1313 -113 
Q 847 -113 551 170 
Q 256 453 256 878 
Q 256 1344 547 1600 
Q 838 1856 1309 1916 
L 2206 2028 
z
M 1741 3428 
L 1741 3428 
z
" transform="scale(0.015625)"/>
       <path id="Helvetica-4f" d="M 428 4591 
L 991 4591 
L 991 0 
L 428 0 
L 428 4591 
z
" transform="scale(0.015625)"/>
       <path id="Helvetica-5c" d="M 2503 3347 
L 3125 3347 
Q 3006 3025 2597 1878 
Q 2291 1016 2084 472 
Q 1597 -809 1397 -1090 
Q 1197 -1372 709 -1372 
Q 591 -1372 527 -1362 
Q 463 -1353 369 -1328 
L 369 -816 
Q 516 -856 581 -865 
Q 647 -875 697 -875 
Q 853 -875 926 -823 
Q 1000 -772 1050 -697 
Q 1066 -672 1162 -440 
Q 1259 -209 1303 -97 
L 66 3347 
L 703 3347 
L 1600 622 
L 2503 3347 
z
M 1597 3428 
L 1597 3428 
z
" transform="scale(0.015625)"/>
      </defs>
      <use xlink:href="#Helvetica-33"/>
      <use xlink:href="#Helvetica-55" transform="translate(66.703125 0)"/>
      <use xlink:href="#Helvetica-48" transform="translate(100 0)"/>
      <use xlink:href="#Helvetica-47" transform="translate(155.609375 0)"/>
      <use xlink:href="#Helvetica-4c" transform="translate(211.21875 0)"/>
      <use xlink:href="#Helvetica-46" transform="translate(233.4375 0)"/>
      <use xlink:href="#Helvetica-57" transform="translate(283.4375 0)"/>
      <use xlink:href="#Helvetica-48" transform="translate(311.21875 0)"/>
      <use xlink:href="#Helvetica-47" transform="translate(366.828125 0)"/>
      <use xlink:href="#Helvetica-3" transform="translate(422.4375 0)"/>
      <use xlink:href="#Helvetica-53" transform="translate(450.21875 0)"/>
      <use xlink:href="#Helvetica-55" transform="translate(505.828125 0)"/>
      <use xlink:href="#Helvetica-52" transform="translate(539.125 0)"/>
      <use xlink:href="#Helvetica-45" transform="translate(594.734375 0)"/>
      <use xlink:href="#Helvetica-44" transform="translate(650.34375 0)"/>
      <use xlink:href="#Helvetica-45" transform="translate(705.953125 0)"/>
      <use xlink:href="#Helvetica-4c" transform="translate(761.5625 0)"/>
      <use xlink:href="#Helvetica-4f" transform="translate(783.78125 0)"/>
      <use xlink:href="#Helvetica-4c" transform="translate(806 0)"/>
      <use xlink:href="#Helvetica-57" transform="translate(828.21875 0)"/>
      <use xlink:href="#Helvetica-5c" transform="translate(856 0)"/>
     </g>
    </g>
   </g>
   <g id="matplotlib.axis_2">
    <g id="ytick_1">
     <g id="line2d_7">
      <defs>
       <path id="mbf6bb0a0c7" d="M 0 0 
L -3.5 0 
" style="stroke: #000000; stroke-width: 0.8"/>
      </defs>
      <g>
       <use xlink:href="#mbf6bb0a0c7" x="37.035" y="219.534" style="stroke: #000000; stroke-width: 0.8"/>
      </g>
     </g>
     <g id="text_8">
      <!-- 0.0 -->
      <g transform="translate(18.915 222.534) scale(0.08 -0.08)">
       <use xlink:href="#Helvetica-13"/>
       <use xlink:href="#Helvetica-11" transform="translate(55.609375 0)"/>
       <use xlink:href="#Helvetica-13" transform="translate(83.390625 0)"/>
      </g>
     </g>
    </g>
    <g id="ytick_2">
     <g id="line2d_8">
      <g>
       <use xlink:href="#mbf6bb0a0c7" x="37.035" y="179.6172" style="stroke: #000000; stroke-width: 0.8"/>
      </g>
     </g>
     <g id="text_9">
      <!-- 0.2 -->
      <g transform="translate(18.915 182.6172) scale(0.08 -0.08)">
       <use xlink:href="#Helvetica-13"/>
       <use xlink:href="#Helvetica-11" transform="translate(55.609375 0)"/>
       <use xlink:href="#Helvetica-15" transform="translate(83.390625 0)"/>
      </g>
     </g>
    </g>
    <g id="ytick_3">
     <g id="line2d_9">
      <g>
       <use xlink:href="#mbf6bb0a0c7" x="37.035" y="139.7004" style="stroke: #000000; stroke-width: 0.8"/>
      </g>
     </g>
     <g id="text_10">
      <!-- 0.4 -->
      <g transform="translate(18.915 142.7004) scale(0.08 -0.08)">
       <use xlink:href="#Helvetica-13"/>
       <use xlink:href="#Helvetica-11" transform="translate(55.609375 0)"/>
       <use xlink:href="#Helvetica-17" transform="translate(83.390625 0)"/>
      </g>
     </g>
    </g>
    <g id="ytick_4">
     <g id="line2d_10">
      <g>
       <use xlink:href="#mbf6bb0a0c7" x="37.035" y="99.7836" style="stroke: #000000; stroke-width: 0.8"/>
      </g>
     </g>
     <g id="text_11">
      <!-- 0.6 -->
      <g transform="translate(18.915 102.7836) scale(0.08 -0.08)">
       <use xlink:href="#Helvetica-13"/>
       <use xlink:href="#Helvetica-11" transform="translate(55.609375 0)"/>
       <use xlink:href="#Helvetica-19" transform="translate(83.390625 0)"/>
      </g>
     </g>
    </g>
    <g id="ytick_5">
     <g id="line2d_11">
      <g>
       <use xlink:href="#mbf6bb0a0c7" x="37.035" y="59.8668" style="stroke: #000000; stroke-width: 0.8"/>
      </g>
     </g>
     <g id="text_12">
      <!-- 0.8 -->
      <g transform="translate(18.915 62.8668) scale(0.08 -0.08)">
       <use xlink:href="#Helvetica-13"/>
       <use xlink:href="#Helvetica-11" transform="translate(55.609375 0)"/>
       <use xlink:href="#Helvetica-1b" transform="translate(83.390625 0)"/>
      </g>
     </g>
    </g>
    <g id="ytick_6">
     <g id="line2d_12">
      <g>
       <use xlink:href="#mbf6bb0a0c7" x="37.035" y="19.95" style="stroke: #000000; stroke-width: 0.8"/>
      </g>
     </g>
     <g id="text_13">
      <!-- 1.0 -->
      <g transform="translate(18.915 22.95) scale(0.08 -0.08)">
       <use xlink:href="#Helvetica-14"/>
       <use xlink:href="#Helvetica-11" transform="translate(55.609375 0)"/>
       <use xlink:href="#Helvetica-13" transform="translate(83.390625 0)"/>
      </g>
     </g>
    </g>
    <g id="text_14">
     <!-- Observed frequency -->
     <g transform="translate(13.2 155.758875) rotate(-90) scale(0.08 -0.08)">
      <defs>
       <path id="Helvetica-32" d="M 2469 4716 
Q 3684 4716 4269 3934 
Q 4725 3325 4725 2375 
Q 4725 1347 4203 666 
Q 3591 -134 2456 -134 
Q 1397 -134 791 566 
Q 250 1241 250 2272 
Q 250 3203 713 3866 
Q 1306 4716 2469 4716 
z
M 2531 422 
Q 3353 422 3720 1011 
Q 4088 1600 4088 2366 
Q 4088 3175 3664 3669 
Q 3241 4163 2506 4163 
Q 1794 4163 1344 3673 
Q 894 3184 894 2231 
Q 894 1469 1280 945 
Q 1666 422 2531 422 
z
M 2488 4716 
L 2488 4716 
z
" transform="scale(0.015625)"/>
       <path id="Helvetica-56" d="M 747 1050 
Q 772 769 888 619 
Q 1100 347 1625 347 
Q 1938 347 2175 483 
Q 2413 619 2413 903 
Q 2413 1119 2222 1231 
Q 2100 1300 1741 1391 
L 1294 1503 
Q 866 1609 663 1741 
Q 300 1969 300 2372 
Q 300 2847 642 3140 
Q 984 3434 1563 3434 
Q 2319 3434 2653 2991 
Q 2863 2709 2856 2384 
L 2325 2384 
Q 2309 2575 2191 2731 
Q 1997 2953 1519 2953 
Q 1200 2953 1036 2831 
Q 872 2709 872 2509 
Q 872 2291 1088 2159 
Q 1213 2081 1456 2022 
L 1828 1931 
Q 2434 1784 2641 1647 
Q 2969 1431 2969 969 
Q 2969 522 2630 197 
Q 2291 -128 1597 -128 
Q 850 -128 539 211 
Q 228 550 206 1050 
L 747 1050 
z
M 1578 3428 
L 1578 3428 
z
" transform="scale(0.015625)"/>
       <path id="Helvetica-59" d="M 688 3347 
L 1581 622 
L 2516 3347 
L 3131 3347 
L 1869 0 
L 1269 0 
L 34 3347 
L 688 3347 
z
" transform="scale(0.015625)"/>
       <path id="Helvetica-49" d="M 553 3856 
Q 566 4206 675 4369 
Q 872 4656 1434 4656 
Q 1488 4656 1544 4653 
Q 1600 4650 1672 4644 
L 1672 4131 
Q 1584 4138 1545 4139 
Q 1506 4141 1472 4141 
Q 1216 4141 1166 4008 
Q 1116 3875 1116 3331 
L 1672 3331 
L 1672 2888 
L 1109 2888 
L 1109 0 
L 553 0 
L 553 2888 
L 88 2888 
L 88 3331 
L 553 3331 
L 553 3856 
z
" transform="scale(0.015625)"/>
       <path id="Helvetica-54" d="M 775 1628 
Q 775 1194 897 900 
Q 1113 378 1669 378 
Q 2256 378 2478 928 
Q 2600 1231 2600 1703 
Q 2600 2138 2466 2428 
Q 2238 2925 1663 2925 
Q 1297 2925 1036 2608 
Q 775 2291 775 1628 
z
M 1606 3422 
Q 2022 3422 2306 3213 
Q 2463 3100 2606 2881 
L 2606 3347 
L 3141 3347 
L 3141 -1334 
L 2575 -1334 
L 2575 384 
Q 2434 159 2186 26 
Q 1938 -106 1566 -106 
Q 1031 -106 609 312 
Q 188 731 188 1588 
Q 188 2391 583 2906 
Q 978 3422 1606 3422 
z
" transform="scale(0.015625)"/>
       <path id="Helvetica-58" d="M 975 3347 
L 975 1125 
Q 975 869 1056 706 
Q 1206 406 1616 406 
Q 2203 406 2416 931 
Q 2531 1213 2531 1703 
L 2531 3347 
L 3094 3347 
L 3094 0 
L 2563 0 
L 2569 494 
Q 2459 303 2297 172 
Q 1975 -91 1516 -91 
Q 800 -91 541 388 
Q 400 644 400 1072 
L 400 3347 
L 975 3347 
z
M 1747 3428 
L 1747 3428 
z
" transform="scale(0.015625)"/>
       <path id="Helvetica-51" d="M 413 3347 
L 947 3347 
L 947 2872 
Q 1184 3166 1450 3294 
Q 1716 3422 2041 3422 
Q 2753 3422 3003 2925 
Q 3141 2653 3141 2147 
L 3141 0 
L 2569 0 
L 2569 2109 
Q 2569 2416 2478 2603 
Q 2328 2916 1934 2916 
Q 1734 2916 1606 2875 
Q 1375 2806 1200 2600 
Q 1059 2434 1017 2257 
Q 975 2081 975 1753 
L 975 0 
L 413 0 
L 413 3347 
z
M 1734 3428 
L 1734 3428 
z
" transform="scale(0.015625)"/>
      </defs>
      <use xlink:href="#Helvetica-32"/>
      <use xlink:href="#Helvetica-45" transform="translate(77.78125 0)"/>
      <use xlink:href="#Helvetica-56" transform="translate(133.390625 0)"/>
      <use xlink:href="#Helvetica-48" transform="translate(183.390625 0)"/>
      <use xlink:href="#Helvetica-55" transform="translate(239 0)"/>
      <use xlink:href="#Helvetica-59" transform="translate(272.296875 0)"/>
      <use xlink:href="#Helvetica-48" transform="translate(322.296875 0)"/>
      <use xlink:href="#Helvetica-47" transform="translate(377.90625 0)"/>
      <use xlink:href="#Helvetica-3" transform="translate(433.515625 0)"/>
      <use xlink:href="#Helvetica-49" transform="translate(461.296875 0)"/>
      <use xlink:href="#Helvetica-55" transform="translate(489.078125 0)"/>
      <use xlink:href="#Helvetica-48" transform="translate(522.375 0)"/>
      <use xlink:href="#Helvetica-54" transform="translate(577.984375 0)"/>
      <use xlink:href="#Helvetica-58" transform="translate(633.59375 0)"/>
      <use xlink:href="#Helvetica-48" transform="translate(689.203125 0)"/>
      <use xlink:href="#Helvetica-51" transform="translate(744.8125 0)"/>
      <use xlink:href="#Helvetica-46" transform="translate(800.421875 0)"/>
      <use xlink:href="#Helvetica-5c" transform="translate(850.421875 0)"/>
     </g>
    </g>
   </g>
   <g id="line2d_13">
    <path d="M 37.035 219.534 
L 236.619 19.95 
" clip-path="url(#pbf7a7d3116)" style="fill: none; stroke-dasharray: 2.96,1.28; stroke-dashoffset: 0; stroke: #000000; stroke-opacity: 0.6; stroke-width: 0.8"/>
   </g>
   <g id="line2d_14">
    <path d="M 45.669016 204.930293 
L 58.879673 195.194488 
L 75.994916 190.326585 
L 103.077269 141.647561 
L 150.375618 117.308049 
" clip-path="url(#pbf7a7d3116)" style="fill: none; stroke: #df8f44; stroke-width: 1.4; stroke-linecap: square"/>
    <defs>
     <path id="m2d02c27add" d="M 0 2 
C 0.530406 2 1.03916 1.789267 1.414214 1.414214 
C 1.789267 1.03916 2 0.530406 2 0 
C 2 -0.530406 1.789267 -1.03916 1.414214 -1.414214 
C 1.03916 -1.789267 0.530406 -2 0 -2 
C -0.530406 -2 -1.03916 -1.789267 -1.414214 -1.414214 
C -1.789267 -1.03916 -2 -0.530406 -2 0 
C -2 0.530406 -1.789267 1.03916 -1.414214 1.414214 
C -1.03916 1.789267 -0.530406 2 0 2 
z
" style="stroke: #df8f44"/>
    </defs>
    <g clip-path="url(#pbf7a7d3116)">
     <use xlink:href="#m2d02c27add" x="45.669016" y="204.930293" style="fill: #df8f44; stroke: #df8f44"/>
     <use xlink:href="#m2d02c27add" x="58.879673" y="195.194488" style="fill: #df8f44; stroke: #df8f44"/>
     <use xlink:href="#m2d02c27add" x="75.994916" y="190.326585" style="fill: #df8f44; stroke: #df8f44"/>
     <use xlink:href="#m2d02c27add" x="103.077269" y="141.647561" style="fill: #df8f44; stroke: #df8f44"/>
     <use xlink:href="#m2d02c27add" x="150.375618" y="117.308049" style="fill: #df8f44; stroke: #df8f44"/>
    </g>
   </g>
   <g id="line2d_15">
    <path d="M 42.671136 209.798195 
L 56.914608 195.194488 
L 73.249658 175.722878 
L 103.101715 151.383366 
L 156.408754 117.308049 
" clip-path="url(#pbf7a7d3116)" style="fill: none; stroke: #00a1d5; stroke-width: 1.4; stroke-linecap: square"/>
    <defs>
     <path id="m1382503a2f" d="M 0 2 
C 0.530406 2 1.03916 1.789267 1.414214 1.414214 
C 1.789267 1.03916 2 0.530406 2 0 
C 2 -0.530406 1.789267 -1.03916 1.414214 -1.414214 
C 1.03916 -1.789267 0.530406 -2 0 -2 
C -0.530406 -2 -1.03916 -1.789267 -1.414214 -1.414214 
C -1.789267 -1.03916 -2 -0.530406 -2 0 
C -2 0.530406 -1.789267 1.03916 -1.414214 1.414214 
C -1.03916 1.789267 -0.530406 2 0 2 
z
" style="stroke: #00a1d5"/>
    </defs>
    <g clip-path="url(#pbf7a7d3116)">
     <use xlink:href="#m1382503a2f" x="42.671136" y="209.798195" style="fill: #00a1d5; stroke: #00a1d5"/>
     <use xlink:href="#m1382503a2f" x="56.914608" y="195.194488" style="fill: #00a1d5; stroke: #00a1d5"/>
     <use xlink:href="#m1382503a2f" x="73.249658" y="175.722878" style="fill: #00a1d5; stroke: #00a1d5"/>
     <use xlink:href="#m1382503a2f" x="103.101715" y="151.383366" style="fill: #00a1d5; stroke: #00a1d5"/>
     <use xlink:href="#m1382503a2f" x="156.408754" y="117.308049" style="fill: #00a1d5; stroke: #00a1d5"/>
    </g>
   </g>
   <g id="patch_3">
    <path d="M 37.035 219.534 
L 37.035 19.95 
" style="fill: none; stroke: #000000; stroke-width: 0.8; stroke-linejoin: miter; stroke-linecap: square"/>
   </g>
   <g id="patch_4">
    <path d="M 37.035 219.534 
L 236.619 219.534 
" style="fill: none; stroke: #000000; stroke-width: 0.8; stroke-linejoin: miter; stroke-linecap: square"/>
   </g>
   <g id="text_15">
    <!-- Calibration -->
    <g transform="translate(37.035 13.95) scale(0.09 -0.09)">
     <defs>
      <path id="Helvetica-Bold-26" d="M 3738 344 
Q 3222 -128 2419 -128 
Q 1425 -128 856 509 
Q 288 1150 288 2266 
Q 288 3472 934 4125 
Q 1497 4694 2366 4694 
Q 3528 4694 4066 3931 
Q 4363 3503 4384 3072 
L 3422 3072 
Q 3328 3403 3181 3572 
Q 2919 3872 2403 3872 
Q 1878 3872 1575 3448 
Q 1272 3025 1272 2250 
Q 1272 1475 1592 1089 
Q 1913 703 2406 703 
Q 2913 703 3178 1034 
Q 3325 1213 3422 1569 
L 4375 1569 
Q 4250 816 3738 344 
z
" transform="scale(0.015625)"/>
      <path id="Helvetica-Bold-44" d="M 544 3038 
Q 897 3488 1756 3488 
Q 2316 3488 2750 3266 
Q 3184 3044 3184 2428 
L 3184 866 
Q 3184 703 3191 472 
Q 3200 297 3244 234 
Q 3288 172 3375 131 
L 3375 0 
L 2406 0 
Q 2366 103 2350 193 
Q 2334 284 2325 400 
Q 2141 200 1900 59 
Q 1613 -106 1250 -106 
Q 788 -106 486 158 
Q 184 422 184 906 
Q 184 1534 669 1816 
Q 934 1969 1450 2034 
L 1753 2072 
Q 2000 2103 2106 2150 
Q 2297 2231 2297 2403 
Q 2297 2613 2151 2692 
Q 2006 2772 1725 2772 
Q 1409 2772 1278 2616 
Q 1184 2500 1153 2303 
L 294 2303 
Q 322 2750 544 3038 
z
M 1206 644 
Q 1331 541 1513 541 
Q 1800 541 2042 709 
Q 2284 878 2294 1325 
L 2294 1656 
Q 2209 1603 2123 1570 
Q 2038 1538 1888 1509 
L 1688 1472 
Q 1406 1422 1284 1350 
Q 1078 1228 1078 972 
Q 1078 744 1206 644 
z
" transform="scale(0.015625)"/>
      <path id="Helvetica-Bold-4f" d="M 434 4606 
L 1325 4606 
L 1325 0 
L 434 0 
L 434 4606 
z
" transform="scale(0.015625)"/>
      <path id="Helvetica-Bold-4c" d="M 1331 3406 
L 1331 0 
L 428 0 
L 428 3406 
L 1331 3406 
z
M 1331 4634 
L 1331 3813 
L 428 3813 
L 428 4634 
L 1331 4634 
z
" transform="scale(0.015625)"/>
      <path id="Helvetica-Bold-45" d="M 2266 -91 
Q 1844 -91 1588 78 
Q 1434 178 1256 428 
L 1256 0 
L 384 0 
L 384 4600 
L 1272 4600 
L 1272 2963 
Q 1441 3200 1644 3325 
Q 1884 3481 2256 3481 
Q 2928 3481 3308 2997 
Q 3688 2513 3688 1747 
Q 3688 953 3313 431 
Q 2938 -91 2266 -91 
z
M 2753 1653 
Q 2753 2016 2659 2253 
Q 2481 2703 2003 2703 
Q 1519 2703 1338 2263 
Q 1244 2028 1244 1656 
Q 1244 1219 1437 931 
Q 1631 644 2028 644 
Q 2372 644 2562 922 
Q 2753 1200 2753 1653 
z
" transform="scale(0.015625)"/>
      <path id="Helvetica-Bold-55" d="M 2128 2584 
Q 1591 2584 1406 2234 
Q 1303 2038 1303 1628 
L 1303 0 
L 406 0 
L 406 3406 
L 1256 3406 
L 1256 2813 
Q 1463 3153 1616 3278 
Q 1866 3488 2266 3488 
Q 2291 3488 2308 3486 
Q 2325 3484 2384 3481 
L 2384 2569 
Q 2300 2578 2234 2581 
Q 2169 2584 2128 2584 
z
" transform="scale(0.015625)"/>
      <path id="Helvetica-Bold-57" d="M 1975 634 
L 1975 -31 
L 1553 -47 
Q 922 -69 691 172 
Q 541 325 541 644 
L 541 2741 
L 66 2741 
L 66 3375 
L 541 3375 
L 541 4325 
L 1422 4325 
L 1422 3375 
L 1975 3375 
L 1975 2741 
L 1422 2741 
L 1422 941 
Q 1422 731 1475 679 
Q 1528 628 1800 628 
Q 1841 628 1886 629 
Q 1931 631 1975 634 
z
" transform="scale(0.015625)"/>
      <path id="Helvetica-Bold-52" d="M 3256 2975 
Q 3688 2434 3688 1697 
Q 3688 947 3256 414 
Q 2825 -119 1947 -119 
Q 1069 -119 637 414 
Q 206 947 206 1697 
Q 206 2434 637 2975 
Q 1069 3516 1947 3516 
Q 2825 3516 3256 2975 
z
M 1944 2763 
Q 1553 2763 1342 2486 
Q 1131 2209 1131 1697 
Q 1131 1184 1342 906 
Q 1553 628 1944 628 
Q 2334 628 2543 906 
Q 2753 1184 2753 1697 
Q 2753 2209 2543 2486 
Q 2334 2763 1944 2763 
z
" transform="scale(0.015625)"/>
      <path id="Helvetica-Bold-51" d="M 2019 2747 
Q 1566 2747 1397 2363 
Q 1309 2159 1309 1844 
L 1309 0 
L 422 0 
L 422 3400 
L 1281 3400 
L 1281 2903 
Q 1453 3166 1606 3281 
Q 1881 3488 2303 3488 
Q 2831 3488 3167 3211 
Q 3503 2934 3503 2294 
L 3503 0 
L 2591 0 
L 2591 2072 
Q 2591 2341 2519 2484 
Q 2388 2747 2019 2747 
z
" transform="scale(0.015625)"/>
     </defs>
     <use xlink:href="#Helvetica-Bold-26"/>
     <use xlink:href="#Helvetica-Bold-44" transform="translate(72.21875 0)"/>
     <use xlink:href="#Helvetica-Bold-4f" transform="translate(127.828125 0)"/>
     <use xlink:href="#Helvetica-Bold-4c" transform="translate(155.609375 0)"/>
     <use xlink:href="#Helvetica-Bold-45" transform="translate(183.390625 0)"/>
     <use xlink:href="#Helvetica-Bold-55" transform="translate(244.46875 0)"/>
     <use xlink:href="#Helvetica-Bold-44" transform="translate(283.390625 0)"/>
     <use xlink:href="#Helvetica-Bold-57" transform="translate(339 0)"/>
     <use xlink:href="#Helvetica-Bold-4c" transform="translate(372.296875 0)"/>
     <use xlink:href="#Helvetica-Bold-52" transform="translate(400.078125 0)"/>
     <use xlink:href="#Helvetica-Bold-51" transform="translate(461.15625 0)"/>
    </g>
   </g>
   <g id="legend_1">
    <g id="line2d_16">
     <path d="M 43.335 29.05 
L 50.335 29.05 
L 57.335 29.05 
" style="fill: none; stroke-dasharray: 2.96,1.28; stroke-dashoffset: 0; stroke: #000000; stroke-opacity: 0.6; stroke-width: 0.8"/>
    </g>
    <g id="text_16">
     <!-- Ideal -->
     <g transform="translate(62.935 31.5) scale(0.07 -0.07)">
      <defs>
       <path id="Helvetica-2c" d="M 628 4591 
L 1256 4591 
L 1256 0 
L 628 0 
L 628 4591 
z
" transform="scale(0.015625)"/>
      </defs>
      <use xlink:href="#Helvetica-2c"/>
      <use xlink:href="#Helvetica-47" transform="translate(27.78125 0)"/>
      <use xlink:href="#Helvetica-48" transform="translate(83.390625 0)"/>
      <use xlink:href="#Helvetica-44" transform="translate(139 0)"/>
      <use xlink:href="#Helvetica-4f" transform="translate(194.609375 0)"/>
     </g>
    </g>
    <g id="line2d_17">
     <path d="M 43.335 38.989453 
L 50.335 38.989453 
L 57.335 38.989453 
" style="fill: none; stroke: #df8f44; stroke-width: 1.4; stroke-linecap: square"/>
     <g>
      <use xlink:href="#m2d02c27add" x="50.335" y="38.989453" style="fill: #df8f44; stroke: #df8f44"/>
     </g>
    </g>
    <g id="text_17">
     <!-- Clinical (slope 0.87) -->
     <g transform="translate(62.935 41.439453) scale(0.07 -0.07)">
      <defs>
       <path id="Helvetica-26" d="M 2422 4716 
Q 3294 4716 3775 4256 
Q 4256 3797 4309 3213 
L 3703 3213 
Q 3600 3656 3292 3915 
Q 2984 4175 2428 4175 
Q 1750 4175 1333 3698 
Q 916 3222 916 2238 
Q 916 1431 1292 929 
Q 1669 428 2416 428 
Q 3103 428 3463 956 
Q 3653 1234 3747 1688 
L 4353 1688 
Q 4272 963 3816 472 
Q 3269 -119 2341 -119 
Q 1541 -119 997 366 
Q 281 1006 281 2344 
Q 281 3359 819 4009 
Q 1400 4716 2422 4716 
z
M 2297 4716 
L 2297 4716 
z
" transform="scale(0.015625)"/>
       <path id="Helvetica-b" d="M 1894 4666 
Q 1403 3713 1256 3263 
Q 1034 2578 1034 1681 
Q 1034 775 1288 25 
Q 1444 -438 1903 -1306 
L 1525 -1306 
Q 1069 -594 959 -397 
Q 850 -200 722 138 
Q 547 600 478 1125 
Q 444 1397 444 1644 
Q 444 2569 734 3291 
Q 919 3750 1503 4666 
L 1894 4666 
z
" transform="scale(0.015625)"/>
       <path id="Helvetica-1a" d="M 3347 4400 
L 3347 3909 
Q 3131 3700 2773 3181 
Q 2416 2663 2141 2063 
Q 1869 1478 1728 997 
Q 1638 688 1494 0 
L 872 0 
Q 1084 1281 1809 2550 
Q 2238 3294 2709 3834 
L 234 3834 
L 234 4400 
L 3347 4400 
z
" transform="scale(0.015625)"/>
       <path id="Helvetica-c" d="M 222 -1306 
Q 719 -338 863 106 
Q 1081 778 1081 1681 
Q 1081 2584 828 3334 
Q 672 3797 213 4666 
L 591 4666 
Q 1072 3897 1173 3717 
Q 1275 3538 1394 3222 
Q 1544 2831 1608 2450 
Q 1672 2069 1672 1716 
Q 1672 791 1378 66 
Q 1194 -400 613 -1306 
L 222 -1306 
z
" transform="scale(0.015625)"/>
      </defs>
      <use xlink:href="#Helvetica-26"/>
      <use xlink:href="#Helvetica-4f" transform="translate(72.21875 0)"/>
      <use xlink:href="#Helvetica-4c" transform="translate(94.4375 0)"/>
      <use xlink:href="#Helvetica-51" transform="translate(116.65625 0)"/>
      <use xlink:href="#Helvetica-4c" transform="translate(172.265625 0)"/>
      <use xlink:href="#Helvetica-46" transform="translate(194.484375 0)"/>
      <use xlink:href="#Helvetica-44" transform="translate(244.484375 0)"/>
      <use xlink:href="#Helvetica-4f" transform="translate(300.09375 0)"/>
      <use xlink:href="#Helvetica-3" transform="translate(322.3125 0)"/>
      <use xlink:href="#Helvetica-b" transform="translate(350.09375 0)"/>
      <use xlink:href="#Helvetica-56" transform="translate(383.390625 0)"/>
      <use xlink:href="#Helvetica-4f" transform="translate(433.390625 0)"/>
      <use xlink:href="#Helvetica-52" transform="translate(455.609375 0)"/>
      <use xlink:href="#Helvetica-53" transform="translate(511.21875 0)"/>
      <use xlink:href="#Helvetica-48" transform="translate(566.828125 0)"/>
      <use xlink:href="#Helvetica-3" transform="translate(622.4375 0)"/>
      <use xlink:href="#Helvetica-13" transform="translate(650.21875 0)"/>
      <use xlink:href="#Helvetica-11" transform="translate(705.828125 0)"/>
      <use xlink:href="#Helvetica-1b" transform="translate(733.609375 0)"/>
      <use xlink:href="#Helvetica-1a" transform="translate(789.21875 0)"/>
      <use xlink:href="#Helvetica-c" transform="translate(844.828125 0)"/>
     </g>
    </g>
    <g id="line2d_18">
     <path d="M 43.335 49.198516 
L 50.335 49.198516 
L 57.335 49.198516 
" style="fill: none; stroke: #00a1d5; stroke-width: 1.4; stroke-linecap: square"/>
     <g>
      <use xlink:href="#m1382503a2f" x="50.335" y="49.198516" style="fill: #00a1d5; stroke: #00a1d5"/>
     </g>
    </g>
    <g id="text_18">
     <!-- Multi-muscle (slope 0.81) -->
     <g transform="translate(62.935 51.648516) scale(0.07 -0.07)">
      <defs>
       <path id="Helvetica-30" d="M 472 4591 
L 1363 4591 
L 2681 709 
L 3991 4591 
L 4872 4591 
L 4872 0 
L 4281 0 
L 4281 2709 
Q 4281 2850 4287 3175 
Q 4294 3500 4294 3872 
L 2984 0 
L 2369 0 
L 1050 3872 
L 1050 3731 
Q 1050 3563 1058 3217 
Q 1066 2872 1066 2709 
L 1066 0 
L 472 0 
L 472 4591 
z
" transform="scale(0.015625)"/>
       <path id="Helvetica-10" d="M 266 2072 
L 1834 2072 
L 1834 1494 
L 266 1494 
L 266 2072 
z
" transform="scale(0.015625)"/>
       <path id="Helvetica-50" d="M 413 3347 
L 969 3347 
L 969 2872 
Q 1169 3119 1331 3231 
Q 1609 3422 1963 3422 
Q 2363 3422 2606 3225 
Q 2744 3113 2856 2894 
Q 3044 3163 3297 3292 
Q 3550 3422 3866 3422 
Q 4541 3422 4784 2934 
Q 4916 2672 4916 2228 
L 4916 0 
L 4331 0 
L 4331 2325 
Q 4331 2659 4164 2784 
Q 3997 2909 3756 2909 
Q 3425 2909 3186 2687 
Q 2947 2466 2947 1947 
L 2947 0 
L 2375 0 
L 2375 2184 
Q 2375 2525 2294 2681 
Q 2166 2916 1816 2916 
Q 1497 2916 1236 2669 
Q 975 2422 975 1775 
L 975 0 
L 413 0 
L 413 3347 
z
" transform="scale(0.015625)"/>
      </defs>
      <use xlink:href="#Helvetica-30"/>
      <use xlink:href="#Helvetica-58" transform="translate(83.296875 0)"/>
      <use xlink:href="#Helvetica-4f" transform="translate(138.90625 0)"/>
      <use xlink:href="#Helvetica-57" transform="translate(161.125 0)"/>
      <use xlink:href="#Helvetica-4c" transform="translate(188.90625 0)"/>
      <use xlink:href="#Helvetica-10" transform="translate(211.125 0)"/>
      <use xlink:href="#Helvetica-50" transform="translate(244.421875 0)"/>
      <use xlink:href="#Helvetica-58" transform="translate(327.71875 0)"/>
      <use xlink:href="#Helvetica-56" transform="translate(383.328125 0)"/>
      <use xlink:href="#Helvetica-46" transform="translate(433.328125 0)"/>
      <use xlink:href="#Helvetica-4f" transform="translate(483.328125 0)"/>
      <use xlink:href="#Helvetica-48" transform="translate(505.546875 0)"/>
      <use xlink:href="#Helvetica-3" transform="translate(561.15625 0)"/>
      <use xlink:href="#Helvetica-b" transform="translate(588.9375 0)"/>
      <use xlink:href="#Helvetica-56" transform="translate(622.234375 0)"/>
      <use xlink:href="#Helvetica-4f" transform="translate(672.234375 0)"/>
      <use xlink:href="#Helvetica-52" transform="translate(694.453125 0)"/>
      <use xlink:href="#Helvetica-53" transform="translate(750.0625 0)"/>
      <use xlink:href="#Helvetica-48" transform="translate(805.671875 0)"/>
      <use xlink:href="#Helvetica-3" transform="translate(861.28125 0)"/>
      <use xlink:href="#Helvetica-13" transform="translate(889.0625 0)"/>
      <use xlink:href="#Helvetica-11" transform="translate(944.671875 0)"/>
      <use xlink:href="#Helvetica-1b" transform="translate(972.453125 0)"/>
      <use xlink:href="#Helvetica-14" transform="translate(1028.0625 0)"/>
      <use xlink:href="#Helvetica-c" transform="translate(1083.671875 0)"/>
     </g>
    </g>
   </g>
  </g>
 </g>
 <defs>
  <clipPath id="pbf7a7d3116">
   <rect x="37.035" y="19.95" width="199.584" height="199.584"/>
  </clipPath>
 </defs>
</svg>
