<?xml version="1.0" encoding="utf-8" standalone="no"?>
<!DOCTYPE svg PUBLIC "-//W3C//DTD SVG 1.1//EN"
  "http://www.w3.org/Graphics/SVG/1.1/DTD/svg11.dtd">
<svg xmlns:xlink="http://www.w3.org/1999/xlink" width="708.467812pt" height="259.99494pt" viewBox="0 0 708.467812 259.99494" xmlns="http://www.w3.org/2000/svg" version="1.1">
 <metadata>
  <rdf:RDF xmlns:dc="http://purl.org/dc/elements/1.1/" xmlns:cc="http://creativecommons.org/ns#" xmlns:rdf="http://www.w3.org/1999/02/22-rdf-syntax-ns#">
   <cc:Work>
    <dc:type rdf:resource="http://purl.org/dc/dcmitype/StillImage"/>
    <dc:date>2026-07-08T20:45:22.190306</dc:date>
    <dc:format>image/svg+xml</dc:format>
    <dc:creator>
     <cc:Agent>
      <dc:title>Matplotlib v3.11.0, https://matplotlib.org/</dc:title>
     </cc:Agent>
    </dc:creator>
   </cc:Work>
  </rdf:RDF>
 </metadata>
 <defs>
  <style type="text/css">*{stroke-linejoin: round; stroke-linecap: butt}</style>
 </defs>
 <g id="figure_1">
  <g id="patch_1">
   <path d="M -0 259.99494 
L 708.467812 259.99494 
L 708.467812 0 
L -0 0 
z
" style="fill: #ffffff"/>
  </g>
  <g id="axes_1">
   <g id="patch_2">
    <path d="M 214.733906 219.534 
L 493.733906 219.534 
L 493.733906 19.95 
L 214.733906 19.95 
z
" style="fill: #ffffff"/>
   </g>
   <g id="patch_3">
    <path d="M 240.097543 219.534 
L 392.279361 219.534 
L 392.279361 19.95 
L 240.097543 19.95 
z
" clip-path="url(#pd9e313ceb5)" style="fill: #80796b; opacity: 0.08"/>
   </g>
   <g id="FillBetweenPolyCollection_1">
    <defs>
     <path id="m6d0ca9fea8" d="M 214.733906 -268.272327 
L 214.733906 -177.139882 
L 219.806634 -163.79381 
L 224.879361 -159.793358 
L 229.952088 -153.104836 
L 235.024815 -150.379616 
L 240.097543 -145.776118 
L 245.17027 -140.67017 
L 250.242997 -137.420069 
L 255.315724 -130.612318 
L 260.388452 -125.814347 
L 265.461179 -124.589624 
L 270.533906 -120.790311 
L 275.606634 -113.563618 
L 280.679361 -110.299319 
L 285.752088 -104.718422 
L 290.824815 -100.801665 
L 295.897543 -98.216108 
L 300.97027 -95.698794 
L 306.042997 -95.447563 
L 311.115724 -93.084009 
L 316.188452 -90.77611 
L 321.261179 -89.347867 
L 326.333906 -84.372641 
L 331.406634 -83.290778 
L 336.479361 -78.416053 
L 341.552088 -75.088592 
L 346.624815 -67.930391 
L 351.697543 -71.254111 
L 356.77027 -60.636513 
L 361.842997 -57.755094 
L 366.915724 -51.20724 
L 371.988452 -54.175806 
L 377.061179 -49.3428 
L 382.133906 -43.722192 
L 387.206634 -43.162786 
L 392.279361 -45.832889 
L 397.352088 -40.264018 
L 402.424815 -42.118404 
L 407.497543 -50.67882 
L 412.57027 -44.570213 
L 417.642997 -43.220736 
L 422.715724 -43.320427 
L 427.788452 -39.693687 
L 432.861179 -34.774266 
L 437.933906 -36.128842 
L 443.006634 -37.087856 
L 448.079361 -38.388138 
L 453.152088 -44.895921 
L 458.224815 -43.068501 
L 463.297543 -49.960979 
L 468.37027 -48.331469 
L 473.442997 -40.818691 
L 478.515724 -38.654553 
L 483.588452 -33.161515 
L 488.661179 -31.420344 
L 493.733906 -33.339985 
L 498.806634 -41.027926 
L 503.879361 -50.106777 
L 508.952088 -45.292655 
L 514.024815 -44.167168 
L 519.097543 -42.977368 
L 524.17027 -38.190171 
L 529.242997 -48.104326 
L 534.315724 -47.394502 
L 539.388452 -46.638882 
L 544.461179 -42.085017 
L 549.533906 -41.223438 
L 554.606634 -34.410805 
L 559.679361 -29.175684 
L 564.752088 -27.574029 
L 569.824815 -25.844243 
L 574.897543 -23.970307 
L 579.97027 -21.933421 
L 585.042997 -19.711363 
L 590.115724 -17.27768 
L 595.188452 -14.600629 
L 595.188452 -78.314438 
L 595.188452 -78.314438 
L 590.115724 -78.314438 
L 585.042997 -78.314438 
L 579.97027 -78.314438 
L 574.897543 -78.314438 
L 569.824815 -78.314438 
L 564.752088 -78.314438 
L 559.679361 -78.314438 
L 554.606634 -82.062309 
L 549.533906 -93.305923 
L 544.461179 -93.305923 
L 539.388452 -97.053794 
L 534.315724 -97.053794 
L 529.242997 -97.053794 
L 524.17027 -93.526386 
L 519.097543 -97.589204 
L 514.024815 -97.886654 
L 508.952088 -98.168026 
L 503.879361 -103.587911 
L 498.806634 -98.687481 
L 493.733906 -93.352771 
L 488.661179 -97.510851 
L 483.588452 -97.946144 
L 478.515724 -104.551715 
L 473.442997 -104.566572 
L 468.37027 -113.294569 
L 463.297543 -113.837739 
L 458.224815 -112.92244 
L 453.152088 -113.919214 
L 448.079361 -107.68551 
L 443.006634 -112.045278 
L 437.933906 -113.07778 
L 432.861179 -110.322699 
L 427.788452 -116.288151 
L 422.715724 -119.124591 
L 417.642997 -117.156012 
L 412.57027 -120.350829 
L 407.497543 -125.94199 
L 402.424815 -121.738049 
L 397.352088 -119.938041 
L 392.279361 -125.818705 
L 387.206634 -123.166011 
L 382.133906 -122.342857 
L 377.061179 -133.057153 
L 371.988452 -137.817748 
L 366.915724 -138.864179 
L 361.842997 -144.793722 
L 356.77027 -152.041216 
L 351.697543 -162.090381 
L 346.624815 -161.062273 
L 341.552088 -171.475806 
L 336.479361 -173.809931 
L 331.406634 -180.558445 
L 326.333906 -181.122907 
L 321.261179 -184.171539 
L 316.188452 -184.50412 
L 311.115724 -186.415863 
L 306.042997 -187.985909 
L 300.97027 -188.641193 
L 295.897543 -190.14095 
L 290.824815 -193.561475 
L 285.752088 -196.169947 
L 280.679361 -203.46591 
L 275.606634 -205.337919 
L 270.533906 -212.550689 
L 265.461179 -216.996693 
L 260.388452 -217.423648 
L 255.315724 -221.087866 
L 250.242997 -229.102367 
L 245.17027 -231.567626 
L 240.097543 -238.234017 
L 235.024815 -241.367425 
L 229.952088 -243.717768 
L 224.879361 -250.239966 
L 219.806634 -254.151394 
L 214.733906 -268.272327 
z
"/>
    </defs>
    <g clip-path="url(#pd9e313ceb5)">
     <use xlink:href="#m6d0ca9fea8" x="0" y="259.99494" style="fill: #df8f44; fill-opacity: 0.15"/>
    </g>
   </g>
   <g id="FillBetweenPolyCollection_2">
    <path d="M 214.733906 -9.47572 
L 214.733906 82.667664 
L 219.806634 92.130304 
L 224.879361 104.897503 
L 229.952088 108.063351 
L 235.024815 110.808671 
L 240.097543 115.488933 
L 245.17027 117.989854 
L 250.242997 124.785263 
L 255.315724 130.722378 
L 260.388452 130.007818 
L 265.461179 136.496608 
L 270.533906 141.547048 
L 275.606634 147.108648 
L 280.679361 148.041073 
L 285.752088 164.530521 
L 290.824815 166.689017 
L 295.897543 165.746119 
L 300.97027 170.629087 
L 306.042997 170.534236 
L 311.115724 169.455538 
L 316.188452 171.686179 
L 321.261179 172.779308 
L 326.333906 173.671352 
L 331.406634 173.351899 
L 336.479361 171.707733 
L 341.552088 178.481426 
L 346.624815 184.568807 
L 351.697543 192.703652 
L 356.77027 189.96078 
L 361.842997 193.037687 
L 366.915724 187.741962 
L 371.988452 197.608954 
L 377.061179 199.447195 
L 382.133906 212.267966 
L 387.206634 216.832154 
L 392.279361 216.660632 
L 397.352088 217.952271 
L 402.424815 213.085077 
L 407.497543 215.740102 
L 412.57027 221.836264 
L 417.642997 206.552737 
L 422.715724 212.940523 
L 427.788452 216.986508 
L 432.861179 218.91416 
L 437.933906 220.917405 
L 443.006634 219.159213 
L 448.079361 213.652137 
L 453.152088 212.295924 
L 458.224815 205.228296 
L 463.297543 210.033961 
L 468.37027 211.673881 
L 473.442997 215.428378 
L 478.515724 217.592516 
L 483.588452 213.29201 
L 488.661179 216.873926 
L 493.733906 224.78102 
L 498.806634 226.474769 
L 503.879361 228.257663 
L 508.952088 230.531976 
L 514.024815 230.402826 
L 519.097543 222.385059 
L 524.17027 228.859585 
L 529.242997 231.084257 
L 534.315724 237.430085 
L 539.388452 243.822623 
L 544.461179 246.643601 
L 549.533906 250.088842 
L 554.606634 256.637924 
L 559.679361 260.108175 
L 564.752088 263.845369 
L 569.824815 252.890053 
L 574.897543 256.013279 
L 579.97027 259.40809 
L 585.042997 263.11152 
L 590.115724 238.969389 
L 595.188452 241.64644 
L 595.188452 177.932631 
L 595.188452 177.932631 
L 590.115724 177.932631 
L 585.042997 183.724795 
L 579.97027 182.984109 
L 574.897543 182.305147 
L 569.824815 181.680502 
L 564.752088 184.851777 
L 559.679361 184.317892 
L 554.606634 183.822142 
L 549.533906 177.932631 
L 544.461179 171.686179 
L 539.388452 171.283182 
L 534.315724 167.157501 
L 529.242997 163.054718 
L 524.17027 162.50022 
L 519.097543 158.122455 
L 514.024815 159.193275 
L 508.952088 158.079043 
L 503.879361 157.417968 
L 498.806634 156.406396 
L 493.733906 155.445404 
L 488.661179 145.835771 
L 483.588452 142.939115 
L 478.515724 144.114631 
L 473.442997 143.520359 
L 468.37027 140.037489 
L 463.297543 139.313263 
L 458.224815 131.124113 
L 453.152088 138.579984 
L 448.079361 137.161147 
L 443.006634 140.453919 
L 437.933906 142.090857 
L 432.861179 140.151207 
L 427.788452 139.159843 
L 422.715724 133.780627 
L 417.642997 126.825297 
L 412.57027 137.502471 
L 407.497543 132.23326 
L 402.424815 130.751456 
L 397.352088 136.634585 
L 392.279361 132.958177 
L 387.206634 133.196259 
L 382.133906 125.583334 
L 377.061179 110.41146 
L 371.988452 106.957321 
L 366.915724 94.607365 
L 361.842997 99.110926 
L 356.77027 96.766049 
L 351.697543 99.888726 
L 346.624815 93.904274 
L 341.552088 85.842083 
L 336.479361 82.124376 
L 331.406634 83.809012 
L 326.333906 80.847366 
L 321.261179 80.685504 
L 316.188452 79.238691 
L 311.115724 78.293504 
L 306.042997 78.432737 
L 300.97027 79.71198 
L 295.897543 77.309407 
L 290.824815 78.590622 
L 285.752088 76.59089 
L 280.679361 52.772017 
L 275.606634 51.679044 
L 270.533906 46.935611 
L 265.461179 42.127418 
L 260.388452 35.947148 
L 255.315724 37.39931 
L 250.242997 30.05782 
L 245.17027 21.045272 
L 240.097543 20.4804 
L 235.024815 14.178463 
L 229.952088 12.521153 
L 224.879361 8.633635 
L 219.806634 0.387204 
L 214.733906 -9.47572 
z
" clip-path="url(#pd9e313ceb5)" style="fill: #00a1d5; fill-opacity: 0.15"/>
   </g>
   <g id="matplotlib.axis_1">
    <g id="xtick_1">
     <g id="line2d_1">
      <defs>
       <path id="mebd91f6752" d="M 0 0 
L 0 3.5 
" style="stroke: #000000; stroke-width: 0.8"/>
      </defs>
      <g>
       <use xlink:href="#mebd91f6752" x="240.097543" y="219.534" style="stroke: #000000; stroke-width: 0.8"/>
      </g>
     </g>
     <g id="text_1">
      <!-- 10 -->
      <g transform="translate(235.648793 232.534) scale(0.08 -0.08)">
       <defs>
        <path id="Helvetica-14" d="M 613 3169 
L 613 3600 
Q 1222 3659 1462 3798 
Q 1703 3938 1822 4456 
L 2266 4456 
L 2266 0 
L 1666 0 
L 1666 3169 
L 613 3169 
z
" transform="scale(0.015625)"/>
        <path id="Helvetica-13" d="M 1731 4475 
Q 2600 4475 2988 3759 
Q 3288 3206 3288 2244 
Q 3288 1331 3016 734 
Q 2622 -122 1728 -122 
Q 922 -122 528 578 
Q 200 1163 200 2147 
Q 200 2909 397 3456 
Q 766 4475 1731 4475 
z
M 1725 391 
Q 2163 391 2422 778 
Q 2681 1166 2681 2222 
Q 2681 2984 2493 3476 
Q 2306 3969 1766 3969 
Q 1269 3969 1039 3501 
Q 809 3034 809 2125 
Q 809 1441 956 1025 
Q 1181 391 1725 391 
z
" transform="scale(0.015625)"/>
       </defs>
       <use xlink:href="#Helvetica-14"/>
       <use xlink:href="#Helvetica-13" transform="translate(55.609375 0)"/>
      </g>
     </g>
    </g>
    <g id="xtick_2">
     <g id="line2d_2">
      <g>
       <use xlink:href="#mebd91f6752" x="290.824815" y="219.534" style="stroke: #000000; stroke-width: 0.8"/>
      </g>
     </g>
     <g id="text_2">
      <!-- 20 -->
      <g transform="translate(286.376065 232.534) scale(0.08 -0.08)">
       <defs>
        <path id="Helvetica-15" d="M 200 0 
Q 231 578 439 1006 
Q 647 1434 1250 1784 
L 1850 2131 
Q 2253 2366 2416 2531 
Q 2672 2791 2672 3125 
Q 2672 3516 2437 3745 
Q 2203 3975 1813 3975 
Q 1234 3975 1013 3538 
Q 894 3303 881 2888 
L 309 2888 
Q 319 3472 525 3841 
Q 891 4491 1816 4491 
Q 2584 4491 2939 4075 
Q 3294 3659 3294 3150 
Q 3294 2613 2916 2231 
Q 2697 2009 2131 1694 
L 1703 1456 
Q 1397 1288 1222 1134 
Q 909 863 828 531 
L 3272 531 
L 3272 0 
L 200 0 
z
" transform="scale(0.015625)"/>
       </defs>
       <use xlink:href="#Helvetica-15"/>
       <use xlink:href="#Helvetica-13" transform="translate(55.609375 0)"/>
      </g>
     </g>
    </g>
    <g id="xtick_3">
     <g id="line2d_3">
      <g>
       <use xlink:href="#mebd91f6752" x="341.552088" y="219.534" style="stroke: #000000; stroke-width: 0.8"/>
      </g>
     </g>
     <g id="text_3">
      <!-- 30 -->
      <g transform="translate(337.103338 232.534) scale(0.08 -0.08)">
       <defs>
        <path id="Helvetica-16" d="M 1663 -122 
Q 869 -122 511 314 
Q 153 750 153 1375 
L 741 1375 
Q 778 941 903 744 
Q 1122 391 1694 391 
Q 2138 391 2406 628 
Q 2675 866 2675 1241 
Q 2675 1703 2392 1887 
Q 2109 2072 1606 2072 
Q 1550 2072 1492 2070 
Q 1434 2069 1375 2066 
L 1375 2563 
Q 1463 2553 1522 2550 
Q 1581 2547 1650 2547 
Q 1966 2547 2169 2647 
Q 2525 2822 2525 3272 
Q 2525 3606 2287 3787 
Q 2050 3969 1734 3969 
Q 1172 3969 956 3594 
Q 838 3388 822 3006 
L 266 3006 
Q 266 3506 466 3856 
Q 809 4481 1675 4481 
Q 2359 4481 2734 4176 
Q 3109 3872 3109 3294 
Q 3109 2881 2888 2625 
Q 2750 2466 2531 2375 
Q 2884 2278 3082 2001 
Q 3281 1725 3281 1325 
Q 3281 684 2859 281 
Q 2438 -122 1663 -122 
z
" transform="scale(0.015625)"/>
       </defs>
       <use xlink:href="#Helvetica-16"/>
       <use xlink:href="#Helvetica-13" transform="translate(55.609375 0)"/>
      </g>
     </g>
    </g>
    <g id="xtick_4">
     <g id="line2d_4">
      <g>
       <use xlink:href="#mebd91f6752" x="392.279361" y="219.534" style="stroke: #000000; stroke-width: 0.8"/>
      </g>
     </g>
     <g id="text_4">
      <!-- 40 -->
      <g transform="translate(387.830611 232.534) scale(0.08 -0.08)">
       <defs>
        <path id="Helvetica-17" d="M 2116 1584 
L 2116 3613 
L 681 1584 
L 2116 1584 
z
M 2125 0 
L 2125 1094 
L 163 1094 
L 163 1644 
L 2213 4488 
L 2688 4488 
L 2688 1584 
L 3347 1584 
L 3347 1094 
L 2688 1094 
L 2688 0 
L 2125 0 
z
" transform="scale(0.015625)"/>
       </defs>
       <use xlink:href="#Helvetica-17"/>
       <use xlink:href="#Helvetica-13" transform="translate(55.609375 0)"/>
      </g>
     </g>
    </g>
    <g id="xtick_5">
     <g id="line2d_5">
      <g>
       <use xlink:href="#mebd91f6752" x="443.006634" y="219.534" style="stroke: #000000; stroke-width: 0.8"/>
      </g>
     </g>
     <g id="text_5">
      <!-- 50 -->
      <g transform="translate(438.557884 232.534) scale(0.08 -0.08)">
       <defs>
        <path id="Helvetica-18" d="M 791 1141 
Q 847 659 1238 475 
Q 1438 381 1700 381 
Q 2200 381 2440 700 
Q 2681 1019 2681 1406 
Q 2681 1875 2395 2131 
Q 2109 2388 1709 2388 
Q 1419 2388 1211 2275 
Q 1003 2163 856 1963 
L 369 1991 
L 709 4400 
L 3034 4400 
L 3034 3856 
L 1131 3856 
L 941 2613 
Q 1097 2731 1238 2791 
Q 1488 2894 1816 2894 
Q 2431 2894 2859 2497 
Q 3288 2100 3288 1491 
Q 3288 856 2895 371 
Q 2503 -113 1644 -113 
Q 1097 -113 676 195 
Q 256 503 206 1141 
L 791 1141 
z
" transform="scale(0.015625)"/>
       </defs>
       <use xlink:href="#Helvetica-18"/>
       <use xlink:href="#Helvetica-13" transform="translate(55.609375 0)"/>
      </g>
     </g>
    </g>
    <g id="xtick_6">
     <g id="line2d_6">
      <g>
       <use xlink:href="#mebd91f6752" x="493.733906" y="219.534" style="stroke: #000000; stroke-width: 0.8"/>
      </g>
     </g>
     <g id="text_6">
      <!-- 60 -->
      <g transform="translate(489.285156 232.534) scale(0.08 -0.08)">
       <defs>
        <path id="Helvetica-19" d="M 1872 4494 
Q 2622 4494 2917 4105 
Q 3213 3716 3213 3303 
L 2656 3303 
Q 2606 3569 2497 3719 
Q 2294 4000 1881 4000 
Q 1409 4000 1131 3564 
Q 853 3128 822 2316 
Q 1016 2600 1309 2741 
Q 1578 2866 1909 2866 
Q 2472 2866 2890 2506 
Q 3309 2147 3309 1434 
Q 3309 825 2912 354 
Q 2516 -116 1781 -116 
Q 1153 -116 697 361 
Q 241 838 241 1966 
Q 241 2800 444 3381 
Q 834 4494 1872 4494 
z
M 1831 384 
Q 2275 384 2495 682 
Q 2716 981 2716 1388 
Q 2716 1731 2519 2042 
Q 2322 2353 1803 2353 
Q 1441 2353 1167 2112 
Q 894 1872 894 1388 
Q 894 963 1142 673 
Q 1391 384 1831 384 
z
" transform="scale(0.015625)"/>
       </defs>
       <use xlink:href="#Helvetica-19"/>
       <use xlink:href="#Helvetica-13" transform="translate(55.609375 0)"/>
      </g>
     </g>
    </g>
    <g id="text_7">
     <!-- Threshold probability, % -->
     <g transform="translate(311.621406 243.893375) scale(0.08 -0.08)">
      <defs>
       <path id="Helvetica-37" d="M 3828 4591 
L 3828 4044 
L 2281 4044 
L 2281 0 
L 1650 0 
L 1650 4044 
L 103 4044 
L 103 4591 
L 3828 4591 
z
" transform="scale(0.015625)"/>
       <path id="Helvetica-4b" d="M 413 4606 
L 975 4606 
L 975 2894 
Q 1175 3147 1334 3250 
Q 1606 3428 2013 3428 
Q 2741 3428 3000 2919 
Q 3141 2641 3141 2147 
L 3141 0 
L 2563 0 
L 2563 2109 
Q 2563 2478 2469 2650 
Q 2316 2925 1894 2925 
Q 1544 2925 1259 2684 
Q 975 2444 975 1775 
L 975 0 
L 413 0 
L 413 4606 
z
" transform="scale(0.015625)"/>
       <path id="Helvetica-55" d="M 428 3347 
L 963 3347 
L 963 2769 
Q 1028 2938 1284 3180 
Q 1541 3422 1875 3422 
Q 1891 3422 1928 3419 
Q 1966 3416 2056 3406 
L 2056 2813 
Q 2006 2822 1964 2825 
Q 1922 2828 1872 2828 
Q 1447 2828 1219 2554 
Q 991 2281 991 1925 
L 991 0 
L 428 0 
L 428 3347 
z
" transform="scale(0.015625)"/>
       <path id="Helvetica-48" d="M 1806 3422 
Q 2163 3422 2497 3255 
Q 2831 3088 3006 2822 
Q 3175 2569 3231 2231 
Q 3281 2000 3281 1494 
L 828 1494 
Q 844 984 1069 676 
Q 1294 369 1766 369 
Q 2206 369 2469 659 
Q 2619 828 2681 1050 
L 3234 1050 
Q 3213 866 3089 639 
Q 2966 413 2813 269 
Q 2556 19 2178 -69 
Q 1975 -119 1719 -119 
Q 1094 -119 659 336 
Q 225 791 225 1609 
Q 225 2416 662 2919 
Q 1100 3422 1806 3422 
z
M 2703 1941 
Q 2669 2306 2544 2525 
Q 2313 2931 1772 2931 
Q 1384 2931 1121 2651 
Q 859 2372 844 1941 
L 2703 1941 
z
M 1753 3428 
L 1753 3428 
z
" transform="scale(0.015625)"/>
       <path id="Helvetica-56" d="M 747 1050 
Q 772 769 888 619 
Q 1100 347 1625 347 
Q 1938 347 2175 483 
Q 2413 619 2413 903 
Q 2413 1119 2222 1231 
Q 2100 1300 1741 1391 
L 1294 1503 
Q 866 1609 663 1741 
Q 300 1969 300 2372 
Q 300 2847 642 3140 
Q 984 3434 1563 3434 
Q 2319 3434 2653 2991 
Q 2863 2709 2856 2384 
L 2325 2384 
Q 2309 2575 2191 2731 
Q 1997 2953 1519 2953 
Q 1200 2953 1036 2831 
Q 872 2709 872 2509 
Q 872 2291 1088 2159 
Q 1213 2081 1456 2022 
L 1828 1931 
Q 2434 1784 2641 1647 
Q 2969 1431 2969 969 
Q 2969 522 2630 197 
Q 2291 -128 1597 -128 
Q 850 -128 539 211 
Q 228 550 206 1050 
L 747 1050 
z
M 1578 3428 
L 1578 3428 
z
" transform="scale(0.015625)"/>
       <path id="Helvetica-52" d="M 1741 363 
Q 2300 363 2508 786 
Q 2716 1209 2716 1728 
Q 2716 2197 2566 2491 
Q 2328 2953 1747 2953 
Q 1231 2953 997 2559 
Q 763 2166 763 1609 
Q 763 1075 997 719 
Q 1231 363 1741 363 
z
M 1763 3444 
Q 2409 3444 2856 3012 
Q 3303 2581 3303 1744 
Q 3303 934 2909 406 
Q 2516 -122 1688 -122 
Q 997 -122 590 345 
Q 184 813 184 1600 
Q 184 2444 612 2944 
Q 1041 3444 1763 3444 
z
M 1744 3428 
L 1744 3428 
z
" transform="scale(0.015625)"/>
       <path id="Helvetica-4f" d="M 428 4591 
L 991 4591 
L 991 0 
L 428 0 
L 428 4591 
z
" transform="scale(0.015625)"/>
       <path id="Helvetica-47" d="M 769 1634 
Q 769 1097 997 734 
Q 1225 372 1728 372 
Q 2119 372 2370 708 
Q 2622 1044 2622 1672 
Q 2622 2306 2362 2611 
Q 2103 2916 1722 2916 
Q 1297 2916 1033 2591 
Q 769 2266 769 1634 
z
M 1616 3406 
Q 2000 3406 2259 3244 
Q 2409 3150 2600 2916 
L 2600 4606 
L 3141 4606 
L 3141 0 
L 2634 0 
L 2634 466 
Q 2438 156 2169 18 
Q 1900 -119 1553 -119 
Q 994 -119 584 351 
Q 175 822 175 1603 
Q 175 2334 548 2870 
Q 922 3406 1616 3406 
z
" transform="scale(0.015625)"/>
       <path id="Helvetica-3" transform="scale(0.015625)"/>
       <path id="Helvetica-53" d="M 1825 378 
Q 2219 378 2480 708 
Q 2741 1038 2741 1694 
Q 2741 2094 2625 2381 
Q 2406 2934 1825 2934 
Q 1241 2934 1025 2350 
Q 909 2038 909 1556 
Q 909 1169 1025 897 
Q 1244 378 1825 378 
z
M 369 3331 
L 916 3331 
L 916 2888 
Q 1084 3116 1284 3241 
Q 1569 3428 1953 3428 
Q 2522 3428 2919 2992 
Q 3316 2556 3316 1747 
Q 3316 653 2744 184 
Q 2381 -113 1900 -113 
Q 1522 -113 1266 53 
Q 1116 147 931 375 
L 931 -1334 
L 369 -1334 
L 369 3331 
z
" transform="scale(0.015625)"/>
       <path id="Helvetica-45" d="M 369 4606 
L 916 4606 
L 916 2941 
Q 1100 3181 1356 3307 
Q 1613 3434 1913 3434 
Q 2538 3434 2927 3004 
Q 3316 2575 3316 1738 
Q 3316 944 2931 419 
Q 2547 -106 1866 -106 
Q 1484 -106 1222 78 
Q 1066 188 888 428 
L 888 0 
L 369 0 
L 369 4606 
z
M 1831 391 
Q 2288 391 2514 753 
Q 2741 1116 2741 1709 
Q 2741 2238 2514 2584 
Q 2288 2931 1847 2931 
Q 1463 2931 1173 2647 
Q 884 2363 884 1709 
Q 884 1238 1003 944 
Q 1225 391 1831 391 
z
" transform="scale(0.015625)"/>
       <path id="Helvetica-44" d="M 844 891 
Q 844 647 1022 506 
Q 1200 366 1444 366 
Q 1741 366 2019 503 
Q 2488 731 2488 1250 
L 2488 1703 
Q 2384 1638 2221 1594 
Q 2059 1550 1903 1531 
L 1563 1488 
Q 1256 1447 1103 1359 
Q 844 1213 844 891 
z
M 2206 2028 
Q 2400 2053 2466 2191 
Q 2503 2266 2503 2406 
Q 2503 2694 2298 2823 
Q 2094 2953 1713 2953 
Q 1272 2953 1088 2716 
Q 984 2584 953 2325 
L 428 2325 
Q 444 2944 830 3186 
Q 1216 3428 1725 3428 
Q 2316 3428 2684 3203 
Q 3050 2978 3050 2503 
L 3050 575 
Q 3050 488 3086 434 
Q 3122 381 3238 381 
Q 3275 381 3322 386 
Q 3369 391 3422 400 
L 3422 -16 
Q 3291 -53 3222 -62 
Q 3153 -72 3034 -72 
Q 2744 -72 2613 134 
Q 2544 244 2516 444 
Q 2344 219 2022 53 
Q 1700 -113 1313 -113 
Q 847 -113 551 170 
Q 256 453 256 878 
Q 256 1344 547 1600 
Q 838 1856 1309 1916 
L 2206 2028 
z
M 1741 3428 
L 1741 3428 
z
" transform="scale(0.015625)"/>
       <path id="Helvetica-4c" d="M 413 3331 
L 984 3331 
L 984 0 
L 413 0 
L 413 3331 
z
M 413 4591 
L 984 4591 
L 984 3953 
L 413 3953 
L 413 4591 
z
" transform="scale(0.015625)"/>
       <path id="Helvetica-57" d="M 525 4281 
L 1094 4281 
L 1094 3347 
L 1628 3347 
L 1628 2888 
L 1094 2888 
L 1094 703 
Q 1094 528 1213 469 
Q 1278 434 1431 434 
Q 1472 434 1519 436 
Q 1566 438 1628 444 
L 1628 0 
Q 1531 -28 1426 -40 
Q 1322 -53 1200 -53 
Q 806 -53 665 148 
Q 525 350 525 672 
L 525 2888 
L 72 2888 
L 72 3347 
L 525 3347 
L 525 4281 
z
" transform="scale(0.015625)"/>
       <path id="Helvetica-5c" d="M 2503 3347 
L 3125 3347 
Q 3006 3025 2597 1878 
Q 2291 1016 2084 472 
Q 1597 -809 1397 -1090 
Q 1197 -1372 709 -1372 
Q 591 -1372 527 -1362 
Q 463 -1353 369 -1328 
L 369 -816 
Q 516 -856 581 -865 
Q 647 -875 697 -875 
Q 853 -875 926 -823 
Q 1000 -772 1050 -697 
Q 1066 -672 1162 -440 
Q 1259 -209 1303 -97 
L 66 3347 
L 703 3347 
L 1600 622 
L 2503 3347 
z
M 1597 3428 
L 1597 3428 
z
" transform="scale(0.015625)"/>
       <path id="Helvetica-f" d="M 531 -653 
Q 747 -616 834 -350 
Q 881 -209 881 -78 
Q 881 -56 879 -39 
Q 878 -22 872 0 
L 531 0 
L 531 681 
L 1200 681 
L 1200 50 
Q 1200 -322 1050 -603 
Q 900 -884 531 -950 
L 531 -653 
z
" transform="scale(0.015625)"/>
       <path id="Helvetica-8" d="M 4363 2175 
Q 4813 2175 5131 1856 
Q 5450 1538 5450 1088 
Q 5450 638 5131 319 
Q 4813 0 4363 0 
Q 3909 0 3590 319 
Q 3272 638 3272 1088 
Q 3272 1538 3590 1856 
Q 3909 2175 4363 2175 
z
M 3909 4456 
L 4256 4456 
L 1753 -119 
L 1406 -119 
L 3909 4456 
z
M 1294 2606 
Q 1563 2606 1752 2795 
Q 1941 2984 1941 3250 
Q 1941 3516 1752 3705 
Q 1563 3894 1294 3894 
Q 1028 3894 839 3706 
Q 650 3519 650 3250 
Q 650 2984 839 2795 
Q 1028 2606 1294 2606 
z
M 1294 4341 
Q 1747 4341 2065 4020 
Q 2384 3700 2384 3250 
Q 2384 2800 2065 2481 
Q 1747 2163 1294 2163 
Q 844 2163 525 2481 
Q 206 2800 206 3250 
Q 206 3700 525 4020 
Q 844 4341 1294 4341 
z
M 4363 444 
Q 4628 444 4817 633 
Q 5006 822 5006 1088 
Q 5006 1353 4817 1542 
Q 4628 1731 4363 1731 
Q 4094 1731 3905 1542 
Q 3716 1353 3716 1088 
Q 3716 822 3905 633 
Q 4094 444 4363 444 
z
" transform="scale(0.015625)"/>
      </defs>
      <use xlink:href="#Helvetica-37"/>
      <use xlink:href="#Helvetica-4b" transform="translate(61.078125 0)"/>
      <use xlink:href="#Helvetica-55" transform="translate(116.6875 0)"/>
      <use xlink:href="#Helvetica-48" transform="translate(149.984375 0)"/>
      <use xlink:href="#Helvetica-56" transform="translate(205.59375 0)"/>
      <use xlink:href="#Helvetica-4b" transform="translate(255.59375 0)"/>
      <use xlink:href="#Helvetica-52" transform="translate(311.203125 0)"/>
      <use xlink:href="#Helvetica-4f" transform="translate(366.8125 0)"/>
      <use xlink:href="#Helvetica-47" transform="translate(389.03125 0)"/>
      <use xlink:href="#Helvetica-3" transform="translate(444.640625 0)"/>
      <use xlink:href="#Helvetica-53" transform="translate(472.421875 0)"/>
      <use xlink:href="#Helvetica-55" transform="translate(528.03125 0)"/>
      <use xlink:href="#Helvetica-52" transform="translate(561.328125 0)"/>
      <use xlink:href="#Helvetica-45" transform="translate(616.9375 0)"/>
      <use xlink:href="#Helvetica-44" transform="translate(672.546875 0)"/>
      <use xlink:href="#Helvetica-45" transform="translate(728.15625 0)"/>
      <use xlink:href="#Helvetica-4c" transform="translate(783.765625 0)"/>
      <use xlink:href="#Helvetica-4f" transform="translate(805.984375 0)"/>
      <use xlink:href="#Helvetica-4c" transform="translate(828.203125 0)"/>
      <use xlink:href="#Helvetica-57" transform="translate(850.421875 0)"/>
      <use xlink:href="#Helvetica-5c" transform="translate(878.203125 0)"/>
      <use xlink:href="#Helvetica-f" transform="translate(920.828125 0)"/>
      <use xlink:href="#Helvetica-3" transform="translate(948.609375 0)"/>
      <use xlink:href="#Helvetica-8" transform="translate(976.390625 0)"/>
     </g>
    </g>
   </g>
   <g id="matplotlib.axis_2">
    <g id="ytick_1">
     <g id="line2d_7">
      <defs>
       <path id="mf521688fbd" d="M 0 0 
L -3.5 0 
" style="stroke: #000000; stroke-width: 0.8"/>
      </defs>
      <g>
       <use xlink:href="#mf521688fbd" x="214.733906" y="204.167728" style="stroke: #000000; stroke-width: 0.8"/>
      </g>
     </g>
     <g id="text_8">
      <!-- 0.00 -->
      <g transform="translate(192.165156 207.167728) scale(0.08 -0.08)">
       <defs>
        <path id="Helvetica-11" d="M 547 681 
L 1200 681 
L 1200 0 
L 547 0 
L 547 681 
z
" transform="scale(0.015625)"/>
       </defs>
       <use xlink:href="#Helvetica-13"/>
       <use xlink:href="#Helvetica-11" transform="translate(55.609375 0)"/>
       <use xlink:href="#Helvetica-13" transform="translate(83.390625 0)"/>
       <use xlink:href="#Helvetica-13" transform="translate(139 0)"/>
      </g>
     </g>
    </g>
    <g id="ytick_2">
     <g id="line2d_8">
      <g>
       <use xlink:href="#mf521688fbd" x="214.733906" y="165.752049" style="stroke: #000000; stroke-width: 0.8"/>
      </g>
     </g>
     <g id="text_9">
      <!-- 0.05 -->
      <g transform="translate(192.165156 168.752049) scale(0.08 -0.08)">
       <use xlink:href="#Helvetica-13"/>
       <use xlink:href="#Helvetica-11" transform="translate(55.609375 0)"/>
       <use xlink:href="#Helvetica-13" transform="translate(83.390625 0)"/>
       <use xlink:href="#Helvetica-18" transform="translate(139 0)"/>
      </g>
     </g>
    </g>
    <g id="ytick_3">
     <g id="line2d_9">
      <g>
       <use xlink:href="#mf521688fbd" x="214.733906" y="127.33637" style="stroke: #000000; stroke-width: 0.8"/>
      </g>
     </g>
     <g id="text_10">
      <!-- 0.10 -->
      <g transform="translate(192.165156 130.33637) scale(0.08 -0.08)">
       <use xlink:href="#Helvetica-13"/>
       <use xlink:href="#Helvetica-11" transform="translate(55.609375 0)"/>
       <use xlink:href="#Helvetica-14" transform="translate(83.390625 0)"/>
       <use xlink:href="#Helvetica-13" transform="translate(139 0)"/>
      </g>
     </g>
    </g>
    <g id="ytick_4">
     <g id="line2d_10">
      <g>
       <use xlink:href="#mf521688fbd" x="214.733906" y="88.920691" style="stroke: #000000; stroke-width: 0.8"/>
      </g>
     </g>
     <g id="text_11">
      <!-- 0.15 -->
      <g transform="translate(192.165156 91.920691) scale(0.08 -0.08)">
       <use xlink:href="#Helvetica-13"/>
       <use xlink:href="#Helvetica-11" transform="translate(55.609375 0)"/>
       <use xlink:href="#Helvetica-14" transform="translate(83.390625 0)"/>
       <use xlink:href="#Helvetica-18" transform="translate(139 0)"/>
      </g>
     </g>
    </g>
    <g id="ytick_5">
     <g id="line2d_11">
      <g>
       <use xlink:href="#mf521688fbd" x="214.733906" y="50.505012" style="stroke: #000000; stroke-width: 0.8"/>
      </g>
     </g>
     <g id="text_12">
      <!-- 0.20 -->
      <g transform="translate(192.165156 53.505012) scale(0.08 -0.08)">
       <use xlink:href="#Helvetica-13"/>
       <use xlink:href="#Helvetica-11" transform="translate(55.609375 0)"/>
       <use xlink:href="#Helvetica-15" transform="translate(83.390625 0)"/>
       <use xlink:href="#Helvetica-13" transform="translate(139 0)"/>
      </g>
     </g>
    </g>
    <g id="text_13">
     <!-- Net benefit -->
     <g transform="translate(186.805781 139.086375) rotate(-90) scale(0.08 -0.08)">
      <defs>
       <path id="Helvetica-31" d="M 488 4591 
L 1222 4591 
L 3541 872 
L 3541 4591 
L 4131 4591 
L 4131 0 
L 3434 0 
L 1081 3716 
L 1081 0 
L 488 0 
L 488 4591 
z
M 2269 4591 
L 2269 4591 
z
" transform="scale(0.015625)"/>
       <path id="Helvetica-51" d="M 413 3347 
L 947 3347 
L 947 2872 
Q 1184 3166 1450 3294 
Q 1716 3422 2041 3422 
Q 2753 3422 3003 2925 
Q 3141 2653 3141 2147 
L 3141 0 
L 2569 0 
L 2569 2109 
Q 2569 2416 2478 2603 
Q 2328 2916 1934 2916 
Q 1734 2916 1606 2875 
Q 1375 2806 1200 2600 
Q 1059 2434 1017 2257 
Q 975 2081 975 1753 
L 975 0 
L 413 0 
L 413 3347 
z
M 1734 3428 
L 1734 3428 
z
" transform="scale(0.015625)"/>
       <path id="Helvetica-c0" d="M 553 3856 
Q 566 4206 675 4369 
Q 872 4656 1434 4656 
Q 1488 4656 1544 4653 
Q 1600 4650 1672 4644 
L 1672 4131 
Q 1584 4138 1545 4139 
Q 1506 4141 1472 4141 
Q 1216 4141 1166 4008 
Q 1116 3875 1116 3331 
L 1672 3331 
L 1672 2888 
L 1109 2888 
L 1109 0 
L 553 0 
L 553 2888 
L 88 2888 
L 88 3331 
L 553 3331 
L 553 3856 
z
M 2213 3953 
L 2213 4591 
L 2775 4591 
L 2775 3953 
L 2213 3953 
z
M 2213 3331 
L 2775 3331 
L 2775 0 
L 2213 0 
L 2213 3331 
z
" transform="scale(0.015625)"/>
      </defs>
      <use xlink:href="#Helvetica-31"/>
      <use xlink:href="#Helvetica-48" transform="translate(72.21875 0)"/>
      <use xlink:href="#Helvetica-57" transform="translate(127.828125 0)"/>
      <use xlink:href="#Helvetica-3" transform="translate(155.609375 0)"/>
      <use xlink:href="#Helvetica-45" transform="translate(183.390625 0)"/>
      <use xlink:href="#Helvetica-48" transform="translate(239 0)"/>
      <use xlink:href="#Helvetica-51" transform="translate(294.609375 0)"/>
      <use xlink:href="#Helvetica-48" transform="translate(350.21875 0)"/>
      <use xlink:href="#Helvetica-c0" transform="translate(405.828125 0)"/>
      <use xlink:href="#Helvetica-57" transform="translate(455.828125 0)"/>
     </g>
    </g>
   </g>
   <g id="line2d_12">
    <path d="M 214.733906 204.167728 
L 219.806634 204.167728 
L 224.879361 204.167728 
L 229.952088 204.167728 
L 235.024815 204.167728 
L 240.097543 204.167728 
L 245.17027 204.167728 
L 250.242997 204.167728 
L 255.315724 204.167728 
L 260.388452 204.167728 
L 265.461179 204.167728 
L 270.533906 204.167728 
L 275.606634 204.167728 
L 280.679361 204.167728 
L 285.752088 204.167728 
L 290.824815 204.167728 
L 295.897543 204.167728 
L 300.97027 204.167728 
L 306.042997 204.167728 
L 311.115724 204.167728 
L 316.188452 204.167728 
L 321.261179 204.167728 
L 326.333906 204.167728 
L 331.406634 204.167728 
L 336.479361 204.167728 
L 341.552088 204.167728 
L 346.624815 204.167728 
L 351.697543 204.167728 
L 356.77027 204.167728 
L 361.842997 204.167728 
L 366.915724 204.167728 
L 371.988452 204.167728 
L 377.061179 204.167728 
L 382.133906 204.167728 
L 387.206634 204.167728 
L 392.279361 204.167728 
L 397.352088 204.167728 
L 402.424815 204.167728 
L 407.497543 204.167728 
L 412.57027 204.167728 
L 417.642997 204.167728 
L 422.715724 204.167728 
L 427.788452 204.167728 
L 432.861179 204.167728 
L 437.933906 204.167728 
L 443.006634 204.167728 
L 448.079361 204.167728 
L 453.152088 204.167728 
L 458.224815 204.167728 
L 463.297543 204.167728 
L 468.37027 204.167728 
L 473.442997 204.167728 
L 478.515724 204.167728 
L 483.588452 204.167728 
L 488.661179 204.167728 
L 493.733906 204.167728 
L 498.806634 204.167728 
L 503.879361 204.167728 
L 508.952088 204.167728 
L 514.024815 204.167728 
L 519.097543 204.167728 
L 524.17027 204.167728 
L 529.242997 204.167728 
L 534.315724 204.167728 
L 539.388452 204.167728 
L 544.461179 204.167728 
L 549.533906 204.167728 
L 554.606634 204.167728 
L 559.679361 204.167728 
L 564.752088 204.167728 
L 569.824815 204.167728 
L 574.897543 204.167728 
L 579.97027 204.167728 
L 585.042997 204.167728 
L 590.115724 204.167728 
L 595.188452 204.167728 
" clip-path="url(#pd9e313ceb5)" style="fill: none; stroke-dasharray: 0.9,1.485; stroke-dashoffset: 0; stroke: #000000; stroke-width: 0.9"/>
   </g>
   <g id="line2d_13">
    <path d="M 214.733906 43.403783 
L 219.806634 49.867077 
L 224.879361 56.469366 
L 229.952088 63.215184 
L 235.024815 70.109261 
L 240.097543 77.15654 
L 245.17027 84.362185 
L 250.242997 91.731595 
L 255.315724 99.270416 
L 260.388452 106.984559 
L 265.461179 114.880211 
L 270.533906 122.963854 
L 275.606634 131.242284 
L 280.679361 139.722627 
L 285.752088 148.412362 
L 290.824815 157.319339 
L 295.897543 166.45181 
L 300.97027 175.818447 
L 306.042997 185.428373 
L 311.115724 195.291192 
L 316.188452 205.417019 
L 321.261179 215.816517 
L 326.333906 226.500933 
L 331.406634 237.482138 
L 336.479361 248.772673 
L 341.552088 260.385795 
L 341.810673 260.99494 
" clip-path="url(#pd9e313ceb5)" style="fill: none; stroke-dasharray: 3.7,1.6; stroke-dashoffset: 0; stroke: #80796b"/>
   </g>
   <g id="line2d_14">
    <path d="M 214.733906 38.66963 
L 219.806634 53.216238 
L 224.879361 57.27536 
L 229.952088 64.844693 
L 235.024815 67.679323 
L 240.097543 71.326519 
L 245.17027 76.697999 
L 250.242997 79.295477 
L 255.315724 87.423697 
L 260.388452 91.208636 
L 265.461179 91.952058 
L 270.533906 96.728756 
L 275.606634 103.471914 
L 280.679361 105.626141 
L 285.752088 110.51722 
L 290.824815 115.155789 
L 295.897543 118.53599 
L 300.97027 119.888678 
L 306.042997 119.962312 
L 311.115724 122.109076 
L 316.188452 124.213144 
L 321.261179 124.753378 
L 326.333906 128.850921 
L 331.406634 130.459596 
L 336.479361 135.755884 
L 341.552088 137.776869 
L 346.624815 146.53742 
L 351.697543 144.422253 
L 356.77027 154.55039 
L 361.842997 158.966131 
L 366.915724 165.247528 
L 371.988452 165.283566 
L 377.061179 169.247088 
L 382.133906 176.844539 
L 387.206634 176.826701 
L 392.279361 174.184759 
L 397.352088 180.155944 
L 402.424815 177.027972 
L 407.497543 170.699897 
L 412.57027 176.3264 
L 417.642997 179.636208 
L 422.715724 178.210251 
L 427.788452 180.336925 
L 432.861179 185.716671 
L 437.933906 183.811644 
L 443.006634 185.428373 
L 448.079361 186.805142 
L 453.152088 180.118889 
L 458.224815 181.281792 
L 463.297543 177.443778 
L 468.37027 178.349061 
L 473.442997 186.791235 
L 478.515724 187.781687 
L 483.588452 192.567175 
L 488.661179 193.655407 
L 493.733906 192.924115 
L 498.806634 188.023053 
L 503.879361 182.666784 
L 508.952088 186.94778 
L 514.024815 187.510523 
L 519.097543 188.105424 
L 524.17027 192.483189 
L 529.242997 185.541945 
L 534.315724 185.896857 
L 539.388452 186.274666 
L 544.461179 190.425534 
L 549.533906 190.856324 
L 554.606634 198.813627 
L 559.679361 203.057248 
L 564.752088 203.591133 
L 569.824815 204.167728 
L 574.897543 204.792374 
L 579.97027 205.471336 
L 585.042997 206.212022 
L 590.115724 207.023249 
L 595.188452 207.9156 
" clip-path="url(#pd9e313ceb5)" style="fill: none; stroke: #df8f44; stroke-width: 1.8; stroke-linecap: square"/>
   </g>
   <g id="line2d_15">
    <path d="M 214.733906 36.697066 
L 219.806634 45.002819 
L 224.879361 56.429067 
L 229.952088 60.119117 
L 235.024815 62.078109 
L 240.097543 67.578648 
L 245.17027 69.707588 
L 250.242997 78.954761 
L 255.315724 85.18359 
L 260.388452 84.410172 
L 265.461179 91.290669 
L 270.533906 96.014876 
L 275.606634 101.936641 
L 280.679361 102.335328 
L 285.752088 122.871314 
L 290.824815 124.525467 
L 295.897543 124.039193 
L 300.97027 127.961016 
L 306.042997 126.72795 
L 311.115724 126.25146 
L 316.188452 127.961016 
L 321.261179 129.615481 
L 326.333906 129.826394 
L 331.406634 130.667811 
L 336.479361 128.788011 
L 341.552088 135.099818 
L 346.624815 141.485942 
L 351.697543 147.949662 
L 356.77027 145.208681 
L 361.842997 147.83609 
L 366.915724 144.490088 
L 371.988452 154.508436 
L 377.061179 158.657865 
L 382.133906 172.492172 
L 387.206634 177.87119 
L 392.279361 177.932631 
L 397.352088 180.155944 
L 402.424815 174.313996 
L 407.497543 176.35458 
L 412.57027 182.215912 
L 417.642997 169.074026 
L 422.715724 174.46238 
L 427.788452 179.912638 
L 432.861179 181.680502 
L 437.933906 183.517693 
L 443.006634 181.680502 
L 448.079361 175.714503 
L 453.152088 176.995663 
L 458.224815 170.038179 
L 463.297543 174.999514 
L 468.37027 176.26691 
L 473.442997 180.317639 
L 478.515724 181.506182 
L 483.588452 177.57569 
L 488.661179 182.411794 
L 493.733906 191.050179 
L 498.806634 192.25142 
L 503.879361 193.515884 
L 508.952088 194.848698 
L 514.024815 193.340545 
L 519.097543 187.570013 
L 524.17027 192.262726 
L 529.242997 193.264831 
L 534.315724 198.077438 
L 539.388452 202.958738 
L 544.461179 204.167728 
L 549.533906 209.207969 
L 554.606634 214.340521 
L 559.679361 215.827772 
L 564.752088 217.429426 
L 569.824815 211.663471 
L 574.897543 212.912761 
L 579.97027 214.270685 
L 585.042997 215.752057 
L 590.115724 203.275378 
L 595.188452 204.167728 
" clip-path="url(#pd9e313ceb5)" style="fill: none; stroke: #00a1d5; stroke-width: 1.8; stroke-linecap: square"/>
   </g>
   <g id="patch_4">
    <path d="M 214.733906 219.534 
L 214.733906 19.95 
" style="fill: none; stroke: #000000; stroke-width: 0.8; stroke-linejoin: miter; stroke-linecap: square"/>
   </g>
   <g id="patch_5">
    <path d="M 214.733906 219.534 
L 493.733906 219.534 
" style="fill: none; stroke: #000000; stroke-width: 0.8; stroke-linejoin: miter; stroke-linecap: square"/>
   </g>
   <g id="text_14">
    <!-- Shaded band = 10–40% clinical range; mean net-benefit gain vs treat-all = +0.114 (≈11 more correctly identified per 100). Bands = 95% bootstrap CI. Comparison vs treat-all is shown for context; added value of morphometry is judged vs the clinical model (Fig 2). -->
    <g style="fill: #80796b" transform="translate(7.2 251.46744) scale(0.06 -0.06)">
     <defs>
      <path id="Helvetica-36" d="M 894 1481 
Q 916 1091 1078 847 
Q 1388 391 2169 391 
Q 2519 391 2806 491 
Q 3363 684 3363 1184 
Q 3363 1559 3128 1719 
Q 2891 1875 2384 1991 
L 1763 2131 
Q 1153 2269 900 2434 
Q 463 2722 463 3294 
Q 463 3913 891 4309 
Q 1319 4706 2103 4706 
Q 2825 4706 3329 4357 
Q 3834 4009 3834 3244 
L 3250 3244 
Q 3203 3613 3050 3809 
Q 2766 4169 2084 4169 
Q 1534 4169 1293 3937 
Q 1053 3706 1053 3400 
Q 1053 3063 1334 2906 
Q 1519 2806 2169 2656 
L 2813 2509 
Q 3278 2403 3531 2219 
Q 3969 1897 3969 1284 
Q 3969 522 3414 194 
Q 2859 -134 2125 -134 
Q 1269 -134 784 303 
Q 300 738 309 1481 
L 894 1481 
z
M 2150 4716 
L 2150 4716 
z
" transform="scale(0.015625)"/>
      <path id="Helvetica-20" d="M 3547 2569 
L 3547 2044 
L 288 2044 
L 288 2569 
L 3547 2569 
z
M 3547 1228 
L 3547 694 
L 288 694 
L 288 1228 
L 3547 1228 
z
" transform="scale(0.015625)"/>
      <path id="Helvetica-b2" d="M -16 2000 
L 3569 2000 
L 3569 1541 
L -16 1541 
L -16 2000 
z
" transform="scale(0.015625)"/>
      <path id="Helvetica-46" d="M 1703 3444 
Q 2269 3444 2623 3169 
Q 2978 2894 3050 2222 
L 2503 2222 
Q 2453 2531 2275 2736 
Q 2097 2941 1703 2941 
Q 1166 2941 934 2416 
Q 784 2075 784 1575 
Q 784 1072 996 728 
Q 1209 384 1666 384 
Q 2016 384 2220 598 
Q 2425 813 2503 1184 
L 3050 1184 
Q 2956 519 2581 211 
Q 2206 -97 1622 -97 
Q 966 -97 575 383 
Q 184 863 184 1581 
Q 184 2463 612 2953 
Q 1041 3444 1703 3444 
z
M 1616 3428 
L 1616 3428 
z
" transform="scale(0.015625)"/>
      <path id="Helvetica-4a" d="M 1594 3406 
Q 1988 3406 2281 3213 
Q 2441 3103 2606 2894 
L 2606 3316 
L 3125 3316 
L 3125 272 
Q 3125 -366 2938 -734 
Q 2588 -1416 1616 -1416 
Q 1075 -1416 706 -1173 
Q 338 -931 294 -416 
L 866 -416 
Q 906 -641 1028 -763 
Q 1219 -950 1628 -950 
Q 2275 -950 2475 -494 
Q 2594 -225 2584 466 
Q 2416 209 2178 84 
Q 1941 -41 1550 -41 
Q 1006 -41 598 345 
Q 191 731 191 1622 
Q 191 2463 602 2934 
Q 1013 3406 1594 3406 
z
M 2606 1688 
Q 2606 2309 2350 2609 
Q 2094 2909 1697 2909 
Q 1103 2909 884 2353 
Q 769 2056 769 1575 
Q 769 1009 998 714 
Q 1228 419 1616 419 
Q 2222 419 2469 966 
Q 2606 1275 2606 1688 
z
M 1659 3428 
L 1659 3428 
z
" transform="scale(0.015625)"/>
      <path id="Helvetica-1e" d="M 709 -653 
Q 928 -613 1013 -363 
Q 1056 -231 1056 -75 
Q 1056 -59 1054 -48 
Q 1053 -38 1050 0 
L 709 0 
L 709 681 
L 1375 681 
L 1375 50 
Q 1375 -284 1278 -509 
Q 1116 -878 709 -950 
L 709 -653 
z
M 709 3303 
L 1375 3303 
L 1375 2622 
L 709 2622 
L 709 3303 
z
" transform="scale(0.015625)"/>
      <path id="Helvetica-50" d="M 413 3347 
L 969 3347 
L 969 2872 
Q 1169 3119 1331 3231 
Q 1609 3422 1963 3422 
Q 2363 3422 2606 3225 
Q 2744 3113 2856 2894 
Q 3044 3163 3297 3292 
Q 3550 3422 3866 3422 
Q 4541 3422 4784 2934 
Q 4916 2672 4916 2228 
L 4916 0 
L 4331 0 
L 4331 2325 
Q 4331 2659 4164 2784 
Q 3997 2909 3756 2909 
Q 3425 2909 3186 2687 
Q 2947 2466 2947 1947 
L 2947 0 
L 2375 0 
L 2375 2184 
Q 2375 2525 2294 2681 
Q 2166 2916 1816 2916 
Q 1497 2916 1236 2669 
Q 975 2422 975 1775 
L 975 0 
L 413 0 
L 413 3347 
z
" transform="scale(0.015625)"/>
      <path id="Helvetica-10" d="M 266 2072 
L 1834 2072 
L 1834 1494 
L 266 1494 
L 266 2072 
z
" transform="scale(0.015625)"/>
      <path id="Helvetica-59" d="M 688 3347 
L 1581 622 
L 2516 3347 
L 3131 3347 
L 1869 0 
L 1269 0 
L 34 3347 
L 688 3347 
z
" transform="scale(0.015625)"/>
      <path id="Helvetica-e" d="M 288 1369 
L 288 1894 
L 1650 1894 
L 1650 3266 
L 2184 3266 
L 2184 1894 
L 3547 1894 
L 3547 1369 
L 2184 1369 
L 2184 0 
L 1650 0 
L 1650 1369 
L 288 1369 
z
" transform="scale(0.015625)"/>
      <path id="Helvetica-b" d="M 1894 4666 
Q 1403 3713 1256 3263 
Q 1034 2578 1034 1681 
Q 1034 775 1288 25 
Q 1444 -438 1903 -1306 
L 1525 -1306 
Q 1069 -594 959 -397 
Q 850 -200 722 138 
Q 547 600 478 1125 
Q 444 1397 444 1644 
Q 444 2569 734 3291 
Q 919 3750 1503 4666 
L 1894 4666 
z
" transform="scale(0.015625)"/>
      <path id="Helvetica-29c" d="M 141 2400 
Q 387 2619 565 2697 
Q 744 2775 984 2775 
Q 1287 2775 1801 2542 
Q 2316 2309 2537 2309 
Q 2841 2309 3128 2513 
Q 3300 2631 3400 2763 
L 3400 2163 
Q 3275 2047 3106 1956 
Q 2825 1806 2547 1806 
Q 2469 1806 2342 1825 
Q 2216 1844 2112 1881 
Q 2053 1900 1622 2088 
Q 1409 2181 1300 2219 
Q 1128 2272 975 2272 
Q 703 2272 484 2131 
Q 350 2044 141 1822 
L 141 2400 
z
M 141 1081 
Q 387 1300 565 1378 
Q 744 1456 984 1456 
Q 1287 1456 1801 1223 
Q 2316 991 2537 991 
Q 2819 991 3039 1133 
Q 3259 1275 3400 1444 
L 3400 844 
Q 3191 672 2984 580 
Q 2778 488 2547 488 
Q 2450 488 2329 511 
Q 2209 534 2112 563 
Q 2041 588 1622 769 
Q 1409 863 1300 900 
Q 1128 953 975 953 
Q 700 953 475 806 
Q 337 719 141 503 
L 141 1081 
z
" transform="scale(0.015625)"/>
      <path id="Helvetica-c" d="M 222 -1306 
Q 719 -338 863 106 
Q 1081 778 1081 1681 
Q 1081 2584 828 3334 
Q 672 3797 213 4666 
L 591 4666 
Q 1072 3897 1173 3717 
Q 1275 3538 1394 3222 
Q 1544 2831 1608 2450 
Q 1672 2069 1672 1716 
Q 1672 791 1378 66 
Q 1194 -400 613 -1306 
L 222 -1306 
z
" transform="scale(0.015625)"/>
      <path id="Helvetica-25" d="M 2213 2650 
Q 2606 2650 2825 2759 
Q 3169 2931 3169 3378 
Q 3169 3828 2803 3984 
Q 2597 4072 2191 4072 
L 1081 4072 
L 1081 2650 
L 2213 2650 
z
M 2422 531 
Q 2994 531 3238 863 
Q 3391 1072 3391 1369 
Q 3391 1869 2944 2050 
Q 2706 2147 2316 2147 
L 1081 2147 
L 1081 531 
L 2422 531 
z
M 472 4591 
L 2444 4591 
Q 3250 4591 3591 4109 
Q 3791 3825 3791 3453 
Q 3791 3019 3544 2741 
Q 3416 2594 3175 2472 
Q 3528 2338 3703 2169 
Q 4013 1869 4013 1341 
Q 4013 897 3734 538 
Q 3319 0 2413 0 
L 472 0 
L 472 4591 
z
" transform="scale(0.015625)"/>
      <path id="Helvetica-1c" d="M 850 1081 
Q 875 616 1209 438 
Q 1381 344 1597 344 
Q 2000 344 2284 680 
Q 2569 1016 2688 2044 
Q 2500 1747 2223 1626 
Q 1947 1506 1628 1506 
Q 981 1506 604 1909 
Q 228 2313 228 2947 
Q 228 3556 600 4018 
Q 972 4481 1697 4481 
Q 2675 4481 3047 3600 
Q 3253 3116 3253 2388 
Q 3253 1566 3006 931 
Q 2597 -125 1619 -125 
Q 963 -125 622 219 
Q 281 563 281 1081 
L 850 1081 
z
M 1703 2000 
Q 2038 2000 2314 2220 
Q 2591 2441 2591 2991 
Q 2591 3484 2342 3726 
Q 2094 3969 1709 3969 
Q 1297 3969 1055 3692 
Q 813 3416 813 2953 
Q 813 2516 1025 2258 
Q 1238 2000 1703 2000 
z
" transform="scale(0.015625)"/>
      <path id="Helvetica-26" d="M 2422 4716 
Q 3294 4716 3775 4256 
Q 4256 3797 4309 3213 
L 3703 3213 
Q 3600 3656 3292 3915 
Q 2984 4175 2428 4175 
Q 1750 4175 1333 3698 
Q 916 3222 916 2238 
Q 916 1431 1292 929 
Q 1669 428 2416 428 
Q 3103 428 3463 956 
Q 3653 1234 3747 1688 
L 4353 1688 
Q 4272 963 3816 472 
Q 3269 -119 2341 -119 
Q 1541 -119 997 366 
Q 281 1006 281 2344 
Q 281 3359 819 4009 
Q 1400 4716 2422 4716 
z
M 2297 4716 
L 2297 4716 
z
" transform="scale(0.015625)"/>
      <path id="Helvetica-2c" d="M 628 4591 
L 1256 4591 
L 1256 0 
L 628 0 
L 628 4591 
z
" transform="scale(0.015625)"/>
      <path id="Helvetica-5a" d="M 672 3347 
L 1316 709 
L 1969 3347 
L 2600 3347 
L 3256 725 
L 3941 3347 
L 4503 3347 
L 3531 0 
L 2947 0 
L 2266 2591 
L 1606 0 
L 1022 0 
L 56 3347 
L 672 3347 
z
" transform="scale(0.015625)"/>
      <path id="Helvetica-49" d="M 553 3856 
Q 566 4206 675 4369 
Q 872 4656 1434 4656 
Q 1488 4656 1544 4653 
Q 1600 4650 1672 4644 
L 1672 4131 
Q 1584 4138 1545 4139 
Q 1506 4141 1472 4141 
Q 1216 4141 1166 4008 
Q 1116 3875 1116 3331 
L 1672 3331 
L 1672 2888 
L 1109 2888 
L 1109 0 
L 553 0 
L 553 2888 
L 88 2888 
L 88 3331 
L 553 3331 
L 553 3856 
z
" transform="scale(0.015625)"/>
      <path id="Helvetica-5b" d="M 94 3347 
L 822 3347 
L 1591 2169 
L 2369 3347 
L 3053 3331 
L 1925 1716 
L 3103 0 
L 2384 0 
L 1553 1256 
L 747 0 
L 34 0 
L 1213 1716 
L 94 3347 
z
" transform="scale(0.015625)"/>
      <path id="Helvetica-58" d="M 975 3347 
L 975 1125 
Q 975 869 1056 706 
Q 1206 406 1616 406 
Q 2203 406 2416 931 
Q 2531 1213 2531 1703 
L 2531 3347 
L 3094 3347 
L 3094 0 
L 2563 0 
L 2569 494 
Q 2459 303 2297 172 
Q 1975 -91 1516 -91 
Q 800 -91 541 388 
Q 400 644 400 1072 
L 400 3347 
L 975 3347 
z
M 1747 3428 
L 1747 3428 
z
" transform="scale(0.015625)"/>
      <path id="Helvetica-4d" d="M 975 3941 
L 413 3941 
L 413 4591 
L 975 4591 
L 975 3941 
z
M -119 -847 
Q 259 -834 336 -779 
Q 413 -725 413 -438 
L 413 3331 
L 975 3331 
L 975 -497 
Q 975 -863 856 -1044 
Q 659 -1350 109 -1350 
Q 69 -1350 23 -1347 
Q -22 -1344 -119 -1334 
L -119 -847 
z
" transform="scale(0.015625)"/>
      <path id="Helvetica-29" d="M 547 4591 
L 3731 4591 
L 3731 4028 
L 1169 4028 
L 1169 2634 
L 3422 2634 
L 3422 2088 
L 1169 2088 
L 1169 0 
L 547 0 
L 547 4591 
z
" transform="scale(0.015625)"/>
     </defs>
     <use xlink:href="#Helvetica-36"/>
     <use xlink:href="#Helvetica-4b" transform="translate(66.703125 0)"/>
     <use xlink:href="#Helvetica-44" transform="translate(122.3125 0)"/>
     <use xlink:href="#Helvetica-47" transform="translate(177.921875 0)"/>
     <use xlink:href="#Helvetica-48" transform="translate(233.53125 0)"/>
     <use xlink:href="#Helvetica-47" transform="translate(289.140625 0)"/>
     <use xlink:href="#Helvetica-3" transform="translate(344.75 0)"/>
     <use xlink:href="#Helvetica-45" transform="translate(372.53125 0)"/>
     <use xlink:href="#Helvetica-44" transform="translate(428.140625 0)"/>
     <use xlink:href="#Helvetica-51" transform="translate(483.75 0)"/>
     <use xlink:href="#Helvetica-47" transform="translate(539.359375 0)"/>
     <use xlink:href="#Helvetica-3" transform="translate(594.96875 0)"/>
     <use xlink:href="#Helvetica-20" transform="translate(622.75 0)"/>
     <use xlink:href="#Helvetica-3" transform="translate(681.15625 0)"/>
     <use xlink:href="#Helvetica-14" transform="translate(708.9375 0)"/>
     <use xlink:href="#Helvetica-13" transform="translate(764.546875 0)"/>
     <use xlink:href="#Helvetica-b2" transform="translate(820.15625 0)"/>
     <use xlink:href="#Helvetica-17" transform="translate(875.765625 0)"/>
     <use xlink:href="#Helvetica-13" transform="translate(931.375 0)"/>
     <use xlink:href="#Helvetica-8" transform="translate(986.984375 0)"/>
     <use xlink:href="#Helvetica-3" transform="translate(1075.90625 0)"/>
     <use xlink:href="#Helvetica-46" transform="translate(1103.6875 0)"/>
     <use xlink:href="#Helvetica-4f" transform="translate(1153.6875 0)"/>
     <use xlink:href="#Helvetica-4c" transform="translate(1175.90625 0)"/>
     <use xlink:href="#Helvetica-51" transform="translate(1198.125 0)"/>
     <use xlink:href="#Helvetica-4c" transform="translate(1253.734375 0)"/>
     <use xlink:href="#Helvetica-46" transform="translate(1275.953125 0)"/>
     <use xlink:href="#Helvetica-44" transform="translate(1325.953125 0)"/>
     <use xlink:href="#Helvetica-4f" transform="translate(1381.5625 0)"/>
     <use xlink:href="#Helvetica-3" transform="translate(1403.78125 0)"/>
     <use xlink:href="#Helvetica-55" transform="translate(1431.5625 0)"/>
     <use xlink:href="#Helvetica-44" transform="translate(1464.859375 0)"/>
     <use xlink:href="#Helvetica-51" transform="translate(1520.46875 0)"/>
     <use xlink:href="#Helvetica-4a" transform="translate(1576.078125 0)"/>
     <use xlink:href="#Helvetica-48" transform="translate(1631.6875 0)"/>
     <use xlink:href="#Helvetica-1e" transform="translate(1687.296875 0)"/>
     <use xlink:href="#Helvetica-3" transform="translate(1715.078125 0)"/>
     <use xlink:href="#Helvetica-50" transform="translate(1742.859375 0)"/>
     <use xlink:href="#Helvetica-48" transform="translate(1826.15625 0)"/>
     <use xlink:href="#Helvetica-44" transform="translate(1881.765625 0)"/>
     <use xlink:href="#Helvetica-51" transform="translate(1937.375 0)"/>
     <use xlink:href="#Helvetica-3" transform="translate(1992.984375 0)"/>
     <use xlink:href="#Helvetica-51" transform="translate(2020.765625 0)"/>
     <use xlink:href="#Helvetica-48" transform="translate(2076.375 0)"/>
     <use xlink:href="#Helvetica-57" transform="translate(2131.984375 0)"/>
     <use xlink:href="#Helvetica-10" transform="translate(2159.765625 0)"/>
     <use xlink:href="#Helvetica-45" transform="translate(2193.0625 0)"/>
     <use xlink:href="#Helvetica-48" transform="translate(2248.671875 0)"/>
     <use xlink:href="#Helvetica-51" transform="translate(2304.28125 0)"/>
     <use xlink:href="#Helvetica-48" transform="translate(2359.890625 0)"/>
     <use xlink:href="#Helvetica-c0" transform="translate(2415.5 0)"/>
     <use xlink:href="#Helvetica-57" transform="translate(2465.5 0)"/>
     <use xlink:href="#Helvetica-3" transform="translate(2493.28125 0)"/>
     <use xlink:href="#Helvetica-4a" transform="translate(2521.0625 0)"/>
     <use xlink:href="#Helvetica-44" transform="translate(2576.671875 0)"/>
     <use xlink:href="#Helvetica-4c" transform="translate(2632.28125 0)"/>
     <use xlink:href="#Helvetica-51" transform="translate(2654.5 0)"/>
     <use xlink:href="#Helvetica-3" transform="translate(2710.109375 0)"/>
     <use xlink:href="#Helvetica-59" transform="translate(2737.890625 0)"/>
     <use xlink:href="#Helvetica-56" transform="translate(2787.890625 0)"/>
     <use xlink:href="#Helvetica-3" transform="translate(2837.890625 0)"/>
     <use xlink:href="#Helvetica-57" transform="translate(2865.671875 0)"/>
     <use xlink:href="#Helvetica-55" transform="translate(2893.453125 0)"/>
     <use xlink:href="#Helvetica-48" transform="translate(2926.75 0)"/>
     <use xlink:href="#Helvetica-44" transform="translate(2982.359375 0)"/>
     <use xlink:href="#Helvetica-57" transform="translate(3037.96875 0)"/>
     <use xlink:href="#Helvetica-10" transform="translate(3065.75 0)"/>
     <use xlink:href="#Helvetica-44" transform="translate(3099.046875 0)"/>
     <use xlink:href="#Helvetica-4f" transform="translate(3154.65625 0)"/>
     <use xlink:href="#Helvetica-4f" transform="translate(3176.875 0)"/>
     <use xlink:href="#Helvetica-3" transform="translate(3199.09375 0)"/>
     <use xlink:href="#Helvetica-20" transform="translate(3226.875 0)"/>
     <use xlink:href="#Helvetica-3" transform="translate(3285.28125 0)"/>
     <use xlink:href="#Helvetica-e" transform="translate(3313.0625 0)"/>
     <use xlink:href="#Helvetica-13" transform="translate(3371.46875 0)"/>
     <use xlink:href="#Helvetica-11" transform="translate(3427.078125 0)"/>
     <use xlink:href="#Helvetica-14" transform="translate(3454.859375 0)"/>
     <use xlink:href="#Helvetica-14" transform="translate(3503.09375 0)"/>
     <use xlink:href="#Helvetica-17" transform="translate(3558.703125 0)"/>
     <use xlink:href="#Helvetica-3" transform="translate(3614.3125 0)"/>
     <use xlink:href="#Helvetica-b" transform="translate(3642.09375 0)"/>
     <use xlink:href="#Helvetica-29c" transform="translate(3675.390625 0)"/>
     <use xlink:href="#Helvetica-14" transform="translate(3730.28125 0)"/>
     <use xlink:href="#Helvetica-14" transform="translate(3778.515625 0)"/>
     <use xlink:href="#Helvetica-3" transform="translate(3834.125 0)"/>
     <use xlink:href="#Helvetica-50" transform="translate(3861.90625 0)"/>
     <use xlink:href="#Helvetica-52" transform="translate(3945.203125 0)"/>
     <use xlink:href="#Helvetica-55" transform="translate(4000.8125 0)"/>
     <use xlink:href="#Helvetica-48" transform="translate(4034.109375 0)"/>
     <use xlink:href="#Helvetica-3" transform="translate(4089.71875 0)"/>
     <use xlink:href="#Helvetica-46" transform="translate(4117.5 0)"/>
     <use xlink:href="#Helvetica-52" transform="translate(4167.5 0)"/>
     <use xlink:href="#Helvetica-55" transform="translate(4223.109375 0)"/>
     <use xlink:href="#Helvetica-55" transform="translate(4256.40625 0)"/>
     <use xlink:href="#Helvetica-48" transform="translate(4289.703125 0)"/>
     <use xlink:href="#Helvetica-46" transform="translate(4345.3125 0)"/>
     <use xlink:href="#Helvetica-57" transform="translate(4395.3125 0)"/>
     <use xlink:href="#Helvetica-4f" transform="translate(4423.09375 0)"/>
     <use xlink:href="#Helvetica-5c" transform="translate(4445.3125 0)"/>
     <use xlink:href="#Helvetica-3" transform="translate(4495.3125 0)"/>
     <use xlink:href="#Helvetica-4c" transform="translate(4523.09375 0)"/>
     <use xlink:href="#Helvetica-47" transform="translate(4545.3125 0)"/>
     <use xlink:href="#Helvetica-48" transform="translate(4600.921875 0)"/>
     <use xlink:href="#Helvetica-51" transform="translate(4656.53125 0)"/>
     <use xlink:href="#Helvetica-57" transform="translate(4712.140625 0)"/>
     <use xlink:href="#Helvetica-4c" transform="translate(4739.921875 0)"/>
     <use xlink:href="#Helvetica-c0" transform="translate(4762.140625 0)"/>
     <use xlink:href="#Helvetica-48" transform="translate(4812.140625 0)"/>
     <use xlink:href="#Helvetica-47" transform="translate(4867.75 0)"/>
     <use xlink:href="#Helvetica-3" transform="translate(4923.359375 0)"/>
     <use xlink:href="#Helvetica-53" transform="translate(4951.140625 0)"/>
     <use xlink:href="#Helvetica-48" transform="translate(5006.75 0)"/>
     <use xlink:href="#Helvetica-55" transform="translate(5062.359375 0)"/>
     <use xlink:href="#Helvetica-3" transform="translate(5095.65625 0)"/>
     <use xlink:href="#Helvetica-14" transform="translate(5123.4375 0)"/>
     <use xlink:href="#Helvetica-13" transform="translate(5179.046875 0)"/>
     <use xlink:href="#Helvetica-13" transform="translate(5234.65625 0)"/>
     <use xlink:href="#Helvetica-c" transform="translate(5290.265625 0)"/>
     <use xlink:href="#Helvetica-11" transform="translate(5323.5625 0)"/>
     <use xlink:href="#Helvetica-3" transform="translate(5351.34375 0)"/>
     <use xlink:href="#Helvetica-25" transform="translate(5379.125 0)"/>
     <use xlink:href="#Helvetica-44" transform="translate(5445.828125 0)"/>
     <use xlink:href="#Helvetica-51" transform="translate(5501.4375 0)"/>
     <use xlink:href="#Helvetica-47" transform="translate(5557.046875 0)"/>
     <use xlink:href="#Helvetica-56" transform="translate(5612.65625 0)"/>
     <use xlink:href="#Helvetica-3" transform="translate(5662.65625 0)"/>
     <use xlink:href="#Helvetica-20" transform="translate(5690.4375 0)"/>
     <use xlink:href="#Helvetica-3" transform="translate(5748.84375 0)"/>
     <use xlink:href="#Helvetica-1c" transform="translate(5776.625 0)"/>
     <use xlink:href="#Helvetica-18" transform="translate(5832.234375 0)"/>
     <use xlink:href="#Helvetica-8" transform="translate(5887.84375 0)"/>
     <use xlink:href="#Helvetica-3" transform="translate(5976.765625 0)"/>
     <use xlink:href="#Helvetica-45" transform="translate(6004.546875 0)"/>
     <use xlink:href="#Helvetica-52" transform="translate(6060.15625 0)"/>
     <use xlink:href="#Helvetica-52" transform="translate(6115.765625 0)"/>
     <use xlink:href="#Helvetica-57" transform="translate(6171.375 0)"/>
     <use xlink:href="#Helvetica-56" transform="translate(6199.15625 0)"/>
     <use xlink:href="#Helvetica-57" transform="translate(6249.15625 0)"/>
     <use xlink:href="#Helvetica-55" transform="translate(6276.9375 0)"/>
     <use xlink:href="#Helvetica-44" transform="translate(6310.234375 0)"/>
     <use xlink:href="#Helvetica-53" transform="translate(6365.84375 0)"/>
     <use xlink:href="#Helvetica-3" transform="translate(6421.453125 0)"/>
     <use xlink:href="#Helvetica-26" transform="translate(6449.234375 0)"/>
     <use xlink:href="#Helvetica-2c" transform="translate(6521.453125 0)"/>
     <use xlink:href="#Helvetica-11" transform="translate(6549.234375 0)"/>
     <use xlink:href="#Helvetica-3" transform="translate(6577.015625 0)"/>
     <use xlink:href="#Helvetica-26" transform="translate(6604.796875 0)"/>
     <use xlink:href="#Helvetica-52" transform="translate(6677.015625 0)"/>
     <use xlink:href="#Helvetica-50" transform="translate(6732.625 0)"/>
     <use xlink:href="#Helvetica-53" transform="translate(6815.921875 0)"/>
     <use xlink:href="#Helvetica-44" transform="translate(6871.53125 0)"/>
     <use xlink:href="#Helvetica-55" transform="translate(6927.140625 0)"/>
     <use xlink:href="#Helvetica-4c" transform="translate(6960.4375 0)"/>
     <use xlink:href="#Helvetica-56" transform="translate(6982.65625 0)"/>
     <use xlink:href="#Helvetica-52" transform="translate(7032.65625 0)"/>
     <use xlink:href="#Helvetica-51" transform="translate(7088.265625 0)"/>
     <use xlink:href="#Helvetica-3" transform="translate(7143.875 0)"/>
     <use xlink:href="#Helvetica-59" transform="translate(7171.65625 0)"/>
     <use xlink:href="#Helvetica-56" transform="translate(7221.65625 0)"/>
     <use xlink:href="#Helvetica-3" transform="translate(7271.65625 0)"/>
     <use xlink:href="#Helvetica-57" transform="translate(7299.4375 0)"/>
     <use xlink:href="#Helvetica-55" transform="translate(7327.21875 0)"/>
     <use xlink:href="#Helvetica-48" transform="translate(7360.515625 0)"/>
     <use xlink:href="#Helvetica-44" transform="translate(7416.125 0)"/>
     <use xlink:href="#Helvetica-57" transform="translate(7471.734375 0)"/>
     <use xlink:href="#Helvetica-10" transform="translate(7499.515625 0)"/>
     <use xlink:href="#Helvetica-44" transform="translate(7532.8125 0)"/>
     <use xlink:href="#Helvetica-4f" transform="translate(7588.421875 0)"/>
     <use xlink:href="#Helvetica-4f" transform="translate(7610.640625 0)"/>
     <use xlink:href="#Helvetica-3" transform="translate(7632.859375 0)"/>
     <use xlink:href="#Helvetica-4c" transform="translate(7660.640625 0)"/>
     <use xlink:href="#Helvetica-56" transform="translate(7682.859375 0)"/>
     <use xlink:href="#Helvetica-3" transform="translate(7732.859375 0)"/>
     <use xlink:href="#Helvetica-56" transform="translate(7760.640625 0)"/>
     <use xlink:href="#Helvetica-4b" transform="translate(7810.640625 0)"/>
     <use xlink:href="#Helvetica-52" transform="translate(7866.25 0)"/>
     <use xlink:href="#Helvetica-5a" transform="translate(7921.859375 0)"/>
     <use xlink:href="#Helvetica-51" transform="translate(7994.078125 0)"/>
     <use xlink:href="#Helvetica-3" transform="translate(8049.6875 0)"/>
     <use xlink:href="#Helvetica-49" transform="translate(8077.46875 0)"/>
     <use xlink:href="#Helvetica-52" transform="translate(8105.25 0)"/>
     <use xlink:href="#Helvetica-55" transform="translate(8160.859375 0)"/>
     <use xlink:href="#Helvetica-3" transform="translate(8194.15625 0)"/>
     <use xlink:href="#Helvetica-46" transform="translate(8221.9375 0)"/>
     <use xlink:href="#Helvetica-52" transform="translate(8271.9375 0)"/>
     <use xlink:href="#Helvetica-51" transform="translate(8327.546875 0)"/>
     <use xlink:href="#Helvetica-57" transform="translate(8383.15625 0)"/>
     <use xlink:href="#Helvetica-48" transform="translate(8410.9375 0)"/>
     <use xlink:href="#Helvetica-5b" transform="translate(8466.546875 0)"/>
     <use xlink:href="#Helvetica-57" transform="translate(8516.546875 0)"/>
     <use xlink:href="#Helvetica-1e" transform="translate(8544.328125 0)"/>
     <use xlink:href="#Helvetica-3" transform="translate(8572.109375 0)"/>
     <use xlink:href="#Helvetica-44" transform="translate(8599.890625 0)"/>
     <use xlink:href="#Helvetica-47" transform="translate(8655.5 0)"/>
     <use xlink:href="#Helvetica-47" transform="translate(8711.109375 0)"/>
     <use xlink:href="#Helvetica-48" transform="translate(8766.71875 0)"/>
     <use xlink:href="#Helvetica-47" transform="translate(8822.328125 0)"/>
     <use xlink:href="#Helvetica-3" transform="translate(8877.9375 0)"/>
     <use xlink:href="#Helvetica-59" transform="translate(8905.71875 0)"/>
     <use xlink:href="#Helvetica-44" transform="translate(8955.71875 0)"/>
     <use xlink:href="#Helvetica-4f" transform="translate(9011.328125 0)"/>
     <use xlink:href="#Helvetica-58" transform="translate(9033.546875 0)"/>
     <use xlink:href="#Helvetica-48" transform="translate(9089.15625 0)"/>
     <use xlink:href="#Helvetica-3" transform="translate(9144.765625 0)"/>
     <use xlink:href="#Helvetica-52" transform="translate(9172.546875 0)"/>
     <use xlink:href="#Helvetica-49" transform="translate(9228.15625 0)"/>
     <use xlink:href="#Helvetica-3" transform="translate(9255.9375 0)"/>
     <use xlink:href="#Helvetica-50" transform="translate(9283.71875 0)"/>
     <use xlink:href="#Helvetica-52" transform="translate(9367.015625 0)"/>
     <use xlink:href="#Helvetica-55" transform="translate(9422.625 0)"/>
     <use xlink:href="#Helvetica-53" transform="translate(9455.921875 0)"/>
     <use xlink:href="#Helvetica-4b" transform="translate(9511.53125 0)"/>
     <use xlink:href="#Helvetica-52" transform="translate(9567.140625 0)"/>
     <use xlink:href="#Helvetica-50" transform="translate(9622.75 0)"/>
     <use xlink:href="#Helvetica-48" transform="translate(9706.046875 0)"/>
     <use xlink:href="#Helvetica-57" transform="translate(9761.65625 0)"/>
     <use xlink:href="#Helvetica-55" transform="translate(9789.4375 0)"/>
     <use xlink:href="#Helvetica-5c" transform="translate(9822.734375 0)"/>
     <use xlink:href="#Helvetica-3" transform="translate(9872.734375 0)"/>
     <use xlink:href="#Helvetica-4c" transform="translate(9900.515625 0)"/>
     <use xlink:href="#Helvetica-56" transform="translate(9922.734375 0)"/>
     <use xlink:href="#Helvetica-3" transform="translate(9972.734375 0)"/>
     <use xlink:href="#Helvetica-4d" transform="translate(10000.515625 0)"/>
     <use xlink:href="#Helvetica-58" transform="translate(10022.734375 0)"/>
     <use xlink:href="#Helvetica-47" transform="translate(10078.34375 0)"/>
     <use xlink:href="#Helvetica-4a" transform="translate(10133.953125 0)"/>
     <use xlink:href="#Helvetica-48" transform="translate(10189.5625 0)"/>
     <use xlink:href="#Helvetica-47" transform="translate(10245.171875 0)"/>
     <use xlink:href="#Helvetica-3" transform="translate(10300.78125 0)"/>
     <use xlink:href="#Helvetica-59" transform="translate(10328.5625 0)"/>
     <use xlink:href="#Helvetica-56" transform="translate(10378.5625 0)"/>
     <use xlink:href="#Helvetica-3" transform="translate(10428.5625 0)"/>
     <use xlink:href="#Helvetica-57" transform="translate(10456.34375 0)"/>
     <use xlink:href="#Helvetica-4b" transform="translate(10484.125 0)"/>
     <use xlink:href="#Helvetica-48" transform="translate(10539.734375 0)"/>
     <use xlink:href="#Helvetica-3" transform="translate(10595.34375 0)"/>
     <use xlink:href="#Helvetica-46" transform="translate(10623.125 0)"/>
     <use xlink:href="#Helvetica-4f" transform="translate(10673.125 0)"/>
     <use xlink:href="#Helvetica-4c" transform="translate(10695.34375 0)"/>
     <use xlink:href="#Helvetica-51" transform="translate(10717.5625 0)"/>
     <use xlink:href="#Helvetica-4c" transform="translate(10773.171875 0)"/>
     <use xlink:href="#Helvetica-46" transform="translate(10795.390625 0)"/>
     <use xlink:href="#Helvetica-44" transform="translate(10845.390625 0)"/>
     <use xlink:href="#Helvetica-4f" transform="translate(10901 0)"/>
     <use xlink:href="#Helvetica-3" transform="translate(10923.21875 0)"/>
     <use xlink:href="#Helvetica-50" transform="translate(10951 0)"/>
     <use xlink:href="#Helvetica-52" transform="translate(11034.296875 0)"/>
     <use xlink:href="#Helvetica-47" transform="translate(11089.90625 0)"/>
     <use xlink:href="#Helvetica-48" transform="translate(11145.515625 0)"/>
     <use xlink:href="#Helvetica-4f" transform="translate(11201.125 0)"/>
     <use xlink:href="#Helvetica-3" transform="translate(11223.34375 0)"/>
     <use xlink:href="#Helvetica-b" transform="translate(11251.125 0)"/>
     <use xlink:href="#Helvetica-29" transform="translate(11284.421875 0)"/>
     <use xlink:href="#Helvetica-4c" transform="translate(11345.5 0)"/>
     <use xlink:href="#Helvetica-4a" transform="translate(11367.71875 0)"/>
     <use xlink:href="#Helvetica-3" transform="translate(11423.328125 0)"/>
     <use xlink:href="#Helvetica-15" transform="translate(11451.109375 0)"/>
     <use xlink:href="#Helvetica-c" transform="translate(11506.71875 0)"/>
     <use xlink:href="#Helvetica-11" transform="translate(11540.015625 0)"/>
    </g>
   </g>
   <g id="text_15">
    <!-- Decision-curve analysis for non-home discharge -->
    <g transform="translate(214.733906 13.95) scale(0.09 -0.09)">
     <defs>
      <path id="Helvetica-Bold-27" d="M 2472 0 
L 488 0 
L 488 4606 
L 2472 4606 
Q 2900 4600 3184 4506 
Q 3669 4347 3969 3922 
Q 4209 3578 4296 3178 
Q 4384 2778 4384 2416 
Q 4384 1497 4016 859 
Q 3516 0 2472 0 
z
M 3188 3431 
Q 2966 3806 2309 3806 
L 1422 3806 
L 1422 800 
L 2309 800 
Q 2991 800 3259 1472 
Q 3406 1841 3406 2350 
Q 3406 3053 3188 3431 
z
" transform="scale(0.015625)"/>
      <path id="Helvetica-Bold-48" d="M 3331 1000 
Q 3297 697 3016 384 
Q 2578 -113 1791 -113 
Q 1141 -113 644 306 
Q 147 725 147 1669 
Q 147 2553 595 3025 
Q 1044 3497 1759 3497 
Q 2184 3497 2525 3337 
Q 2866 3178 3088 2834 
Q 3288 2531 3347 2131 
Q 3381 1897 3375 1456 
L 1044 1456 
Q 1063 944 1366 738 
Q 1550 609 1809 609 
Q 2084 609 2256 766 
Q 2350 850 2422 1000 
L 3331 1000 
z
M 2450 2044 
Q 2428 2397 2236 2580 
Q 2044 2763 1759 2763 
Q 1450 2763 1279 2569 
Q 1109 2375 1066 2044 
L 2450 2044 
z
" transform="scale(0.015625)"/>
      <path id="Helvetica-Bold-46" d="M 3363 2184 
L 2450 2184 
Q 2425 2375 2322 2528 
Q 2172 2734 1856 2734 
Q 1406 2734 1241 2288 
Q 1153 2050 1153 1656 
Q 1153 1281 1241 1053 
Q 1400 628 1841 628 
Q 2153 628 2284 797 
Q 2416 966 2444 1234 
L 3353 1234 
Q 3322 828 3059 466 
Q 2641 -119 1819 -119 
Q 997 -119 609 368 
Q 222 856 222 1634 
Q 222 2513 650 3000 
Q 1078 3488 1831 3488 
Q 2472 3488 2880 3200 
Q 3288 2913 3363 2184 
z
" transform="scale(0.015625)"/>
      <path id="Helvetica-Bold-4c" d="M 1331 3406 
L 1331 0 
L 428 0 
L 428 3406 
L 1331 3406 
z
M 1331 4634 
L 1331 3813 
L 428 3813 
L 428 4634 
L 1331 4634 
z
" transform="scale(0.015625)"/>
      <path id="Helvetica-Bold-56" d="M 2763 3250 
Q 3163 2994 3222 2369 
L 2331 2369 
Q 2313 2541 2234 2641 
Q 2088 2822 1734 2822 
Q 1444 2822 1320 2731 
Q 1197 2641 1197 2519 
Q 1197 2366 1328 2297 
Q 1459 2225 2256 2050 
Q 2788 1925 3053 1672 
Q 3316 1416 3316 1031 
Q 3316 525 2939 204 
Q 2563 -116 1775 -116 
Q 972 -116 589 223 
Q 206 563 206 1088 
L 1109 1088 
Q 1138 850 1231 750 
Q 1397 572 1844 572 
Q 2106 572 2261 650 
Q 2416 728 2416 884 
Q 2416 1034 2291 1113 
Q 2166 1191 1363 1381 
Q 784 1525 547 1741 
Q 309 1953 309 2353 
Q 309 2825 679 3164 
Q 1050 3503 1722 3503 
Q 2359 3503 2763 3250 
z
" transform="scale(0.015625)"/>
      <path id="Helvetica-Bold-52" d="M 3256 2975 
Q 3688 2434 3688 1697 
Q 3688 947 3256 414 
Q 2825 -119 1947 -119 
Q 1069 -119 637 414 
Q 206 947 206 1697 
Q 206 2434 637 2975 
Q 1069 3516 1947 3516 
Q 2825 3516 3256 2975 
z
M 1944 2763 
Q 1553 2763 1342 2486 
Q 1131 2209 1131 1697 
Q 1131 1184 1342 906 
Q 1553 628 1944 628 
Q 2334 628 2543 906 
Q 2753 1184 2753 1697 
Q 2753 2209 2543 2486 
Q 2334 2763 1944 2763 
z
" transform="scale(0.015625)"/>
      <path id="Helvetica-Bold-51" d="M 2019 2747 
Q 1566 2747 1397 2363 
Q 1309 2159 1309 1844 
L 1309 0 
L 422 0 
L 422 3400 
L 1281 3400 
L 1281 2903 
Q 1453 3166 1606 3281 
Q 1881 3488 2303 3488 
Q 2831 3488 3167 3211 
Q 3503 2934 3503 2294 
L 3503 0 
L 2591 0 
L 2591 2072 
Q 2591 2341 2519 2484 
Q 2388 2747 2019 2747 
z
" transform="scale(0.015625)"/>
      <path id="Helvetica-Bold-10" d="M 147 2206 
L 1941 2206 
L 1941 1363 
L 147 1363 
L 147 2206 
z
" transform="scale(0.015625)"/>
      <path id="Helvetica-Bold-58" d="M 2600 481 
Q 2588 466 2538 387 
Q 2488 309 2419 250 
Q 2209 63 2014 -6 
Q 1819 -75 1556 -75 
Q 800 -75 538 469 
Q 391 769 391 1353 
L 391 3406 
L 1303 3406 
L 1303 1353 
Q 1303 1063 1372 916 
Q 1494 656 1850 656 
Q 2306 656 2475 1025 
Q 2563 1225 2563 1553 
L 2563 3406 
L 3466 3406 
L 3466 0 
L 2600 0 
L 2600 481 
z
" transform="scale(0.015625)"/>
      <path id="Helvetica-Bold-55" d="M 2128 2584 
Q 1591 2584 1406 2234 
Q 1303 2038 1303 1628 
L 1303 0 
L 406 0 
L 406 3406 
L 1256 3406 
L 1256 2813 
Q 1463 3153 1616 3278 
Q 1866 3488 2266 3488 
Q 2291 3488 2308 3486 
Q 2325 3484 2384 3481 
L 2384 2569 
Q 2300 2578 2234 2581 
Q 2169 2584 2128 2584 
z
" transform="scale(0.015625)"/>
      <path id="Helvetica-Bold-59" d="M 81 3406 
L 1081 3406 
L 1791 894 
L 2516 3406 
L 3472 3406 
L 2244 0 
L 1303 0 
L 81 3406 
z
" transform="scale(0.015625)"/>
      <path id="Helvetica-Bold-3" transform="scale(0.015625)"/>
      <path id="Helvetica-Bold-44" d="M 544 3038 
Q 897 3488 1756 3488 
Q 2316 3488 2750 3266 
Q 3184 3044 3184 2428 
L 3184 866 
Q 3184 703 3191 472 
Q 3200 297 3244 234 
Q 3288 172 3375 131 
L 3375 0 
L 2406 0 
Q 2366 103 2350 193 
Q 2334 284 2325 400 
Q 2141 200 1900 59 
Q 1613 -106 1250 -106 
Q 788 -106 486 158 
Q 184 422 184 906 
Q 184 1534 669 1816 
Q 934 1969 1450 2034 
L 1753 2072 
Q 2000 2103 2106 2150 
Q 2297 2231 2297 2403 
Q 2297 2613 2151 2692 
Q 2006 2772 1725 2772 
Q 1409 2772 1278 2616 
Q 1184 2500 1153 2303 
L 294 2303 
Q 322 2750 544 3038 
z
M 1206 644 
Q 1331 541 1513 541 
Q 1800 541 2042 709 
Q 2284 878 2294 1325 
L 2294 1656 
Q 2209 1603 2123 1570 
Q 2038 1538 1888 1509 
L 1688 1472 
Q 1406 1422 1284 1350 
Q 1078 1228 1078 972 
Q 1078 744 1206 644 
z
" transform="scale(0.015625)"/>
      <path id="Helvetica-Bold-4f" d="M 434 4606 
L 1325 4606 
L 1325 0 
L 434 0 
L 434 4606 
z
" transform="scale(0.015625)"/>
      <path id="Helvetica-Bold-5c" d="M 1800 894 
L 2503 3406 
L 3450 3406 
L 2281 56 
Q 1944 -913 1747 -1145 
Q 1550 -1378 959 -1378 
Q 841 -1378 769 -1376 
Q 697 -1375 553 -1366 
L 553 -653 
L 666 -659 
Q 797 -666 915 -650 
Q 1034 -634 1116 -578 
Q 1194 -525 1261 -356 
Q 1328 -188 1316 -150 
L 66 3406 
L 1056 3406 
L 1800 894 
z
" transform="scale(0.015625)"/>
      <path id="Helvetica-Bold-49" d="M 2013 4634 
L 2013 3909 
Q 1938 3919 1761 3923 
Q 1584 3928 1517 3845 
Q 1450 3763 1450 3663 
L 1450 3375 
L 2034 3375 
L 2034 2747 
L 1450 2747 
L 1450 0 
L 563 0 
L 563 2747 
L 66 2747 
L 66 3375 
L 553 3375 
L 553 3594 
Q 553 4141 738 4347 
Q 931 4653 1672 4653 
Q 1756 4653 1825 4648 
Q 1894 4644 2013 4634 
z
" transform="scale(0.015625)"/>
      <path id="Helvetica-Bold-4b" d="M 3494 2000 
L 3494 0 
L 2584 0 
L 2584 2072 
Q 2584 2347 2491 2516 
Q 2369 2753 2028 2753 
Q 1675 2753 1492 2517 
Q 1309 2281 1309 1844 
L 1309 0 
L 422 0 
L 422 4591 
L 1309 4591 
L 1309 2963 
Q 1503 3259 1758 3376 
Q 2013 3494 2294 3494 
Q 2609 3494 2867 3384 
Q 3125 3275 3291 3050 
Q 3431 2859 3462 2657 
Q 3494 2456 3494 2000 
z
" transform="scale(0.015625)"/>
      <path id="Helvetica-Bold-50" d="M 2328 2469 
Q 2216 2716 1888 2716 
Q 1506 2716 1375 2469 
Q 1303 2328 1303 2050 
L 1303 0 
L 400 0 
L 400 3400 
L 1266 3400 
L 1266 2903 
Q 1431 3169 1578 3281 
Q 1838 3481 2250 3481 
Q 2641 3481 2881 3309 
Q 3075 3150 3175 2900 
Q 3350 3200 3609 3341 
Q 3884 3481 4222 3481 
Q 4447 3481 4665 3393 
Q 4884 3306 5063 3088 
Q 5206 2909 5256 2650 
Q 5288 2478 5288 2147 
L 5281 0 
L 4369 0 
L 4369 2169 
Q 4369 2363 4306 2488 
Q 4188 2725 3869 2725 
Q 3500 2725 3359 2419 
Q 3288 2256 3288 2028 
L 3288 0 
L 2391 0 
L 2391 2028 
Q 2391 2331 2328 2469 
z
" transform="scale(0.015625)"/>
      <path id="Helvetica-Bold-47" d="M 3516 4600 
L 3516 0 
L 2650 0 
L 2650 472 
Q 2459 169 2215 31 
Q 1972 -106 1609 -106 
Q 1013 -106 605 376 
Q 197 859 197 1616 
Q 197 2488 598 2988 
Q 1000 3488 1672 3488 
Q 1981 3488 2222 3352 
Q 2463 3216 2613 2975 
L 2613 4600 
L 3516 4600 
z
M 1116 1681 
Q 1116 1209 1303 928 
Q 1488 644 1866 644 
Q 2244 644 2441 925 
Q 2638 1206 2638 1653 
Q 2638 2278 2322 2547 
Q 2128 2709 1872 2709 
Q 1481 2709 1298 2414 
Q 1116 2119 1116 1681 
z
" transform="scale(0.015625)"/>
      <path id="Helvetica-Bold-4a" d="M 1378 -597 
Q 1522 -719 1863 -719 
Q 2344 -719 2506 -397 
Q 2613 -191 2613 297 
L 2613 516 
Q 2484 297 2338 188 
Q 2072 -16 1647 -16 
Q 991 -16 598 445 
Q 206 906 206 1694 
Q 206 2453 584 2970 
Q 963 3488 1656 3488 
Q 1913 3488 2103 3409 
Q 2428 3275 2628 2916 
L 2628 3406 
L 3494 3406 
L 3494 175 
Q 3494 -484 3272 -819 
Q 2891 -1394 1809 -1394 
Q 1156 -1394 743 -1137 
Q 331 -881 288 -372 
L 1256 -372 
Q 1294 -528 1378 -597 
z
M 1228 1163 
Q 1409 731 1878 731 
Q 2191 731 2406 967 
Q 2622 1203 2622 1719 
Q 2622 2203 2417 2456 
Q 2213 2709 1869 2709 
Q 1400 2709 1222 2269 
Q 1128 2034 1128 1691 
Q 1128 1394 1228 1163 
z
" transform="scale(0.015625)"/>
     </defs>
     <use xlink:href="#Helvetica-Bold-27"/>
     <use xlink:href="#Helvetica-Bold-48" transform="translate(72.21875 0)"/>
     <use xlink:href="#Helvetica-Bold-46" transform="translate(127.828125 0)"/>
     <use xlink:href="#Helvetica-Bold-4c" transform="translate(183.4375 0)"/>
     <use xlink:href="#Helvetica-Bold-56" transform="translate(211.21875 0)"/>
     <use xlink:href="#Helvetica-Bold-4c" transform="translate(266.828125 0)"/>
     <use xlink:href="#Helvetica-Bold-52" transform="translate(294.609375 0)"/>
     <use xlink:href="#Helvetica-Bold-51" transform="translate(355.6875 0)"/>
     <use xlink:href="#Helvetica-Bold-10" transform="translate(416.765625 0)"/>
     <use xlink:href="#Helvetica-Bold-46" transform="translate(450.0625 0)"/>
     <use xlink:href="#Helvetica-Bold-58" transform="translate(505.671875 0)"/>
     <use xlink:href="#Helvetica-Bold-55" transform="translate(566.75 0)"/>
     <use xlink:href="#Helvetica-Bold-59" transform="translate(605.671875 0)"/>
     <use xlink:href="#Helvetica-Bold-48" transform="translate(661.28125 0)"/>
     <use xlink:href="#Helvetica-Bold-3" transform="translate(716.890625 0)"/>
     <use xlink:href="#Helvetica-Bold-44" transform="translate(744.671875 0)"/>
     <use xlink:href="#Helvetica-Bold-51" transform="translate(800.28125 0)"/>
     <use xlink:href="#Helvetica-Bold-44" transform="translate(861.359375 0)"/>
     <use xlink:href="#Helvetica-Bold-4f" transform="translate(916.96875 0)"/>
     <use xlink:href="#Helvetica-Bold-5c" transform="translate(944.75 0)"/>
     <use xlink:href="#Helvetica-Bold-56" transform="translate(1000.359375 0)"/>
     <use xlink:href="#Helvetica-Bold-4c" transform="translate(1055.96875 0)"/>
     <use xlink:href="#Helvetica-Bold-56" transform="translate(1083.75 0)"/>
     <use xlink:href="#Helvetica-Bold-3" transform="translate(1139.359375 0)"/>
     <use xlink:href="#Helvetica-Bold-49" transform="translate(1167.140625 0)"/>
     <use xlink:href="#Helvetica-Bold-52" transform="translate(1200.4375 0)"/>
     <use xlink:href="#Helvetica-Bold-55" transform="translate(1261.515625 0)"/>
     <use xlink:href="#Helvetica-Bold-3" transform="translate(1300.4375 0)"/>
     <use xlink:href="#Helvetica-Bold-51" transform="translate(1328.21875 0)"/>
     <use xlink:href="#Helvetica-Bold-52" transform="translate(1389.296875 0)"/>
     <use xlink:href="#Helvetica-Bold-51" transform="translate(1450.375 0)"/>
     <use xlink:href="#Helvetica-Bold-10" transform="translate(1511.453125 0)"/>
     <use xlink:href="#Helvetica-Bold-4b" transform="translate(1544.75 0)"/>
     <use xlink:href="#Helvetica-Bold-52" transform="translate(1605.828125 0)"/>
     <use xlink:href="#Helvetica-Bold-50" transform="translate(1666.90625 0)"/>
     <use xlink:href="#Helvetica-Bold-48" transform="translate(1755.828125 0)"/>
     <use xlink:href="#Helvetica-Bold-3" transform="translate(1811.4375 0)"/>
     <use xlink:href="#Helvetica-Bold-47" transform="translate(1839.21875 0)"/>
     <use xlink:href="#Helvetica-Bold-4c" transform="translate(1900.296875 0)"/>
     <use xlink:href="#Helvetica-Bold-56" transform="translate(1928.078125 0)"/>
     <use xlink:href="#Helvetica-Bold-46" transform="translate(1983.6875 0)"/>
     <use xlink:href="#Helvetica-Bold-4b" transform="translate(2039.296875 0)"/>
     <use xlink:href="#Helvetica-Bold-44" transform="translate(2100.375 0)"/>
     <use xlink:href="#Helvetica-Bold-55" transform="translate(2155.984375 0)"/>
     <use xlink:href="#Helvetica-Bold-4a" transform="translate(2194.90625 0)"/>
     <use xlink:href="#Helvetica-Bold-48" transform="translate(2255.984375 0)"/>
    </g>
   </g>
   <g id="legend_1">
    <g id="line2d_16">
     <path d="M 407.544219 29.05 
L 414.544219 29.05 
L 421.544219 29.05 
" style="fill: none; stroke-dasharray: 0.9,1.485; stroke-dashoffset: 0; stroke: #000000; stroke-width: 0.9"/>
    </g>
    <g id="text_16">
     <!-- Treat none -->
     <g transform="translate(427.144219 31.5) scale(0.07 -0.07)">
      <use xlink:href="#Helvetica-37"/>
      <use xlink:href="#Helvetica-55" transform="translate(57.421875 0)"/>
      <use xlink:href="#Helvetica-48" transform="translate(90.71875 0)"/>
      <use xlink:href="#Helvetica-44" transform="translate(146.328125 0)"/>
      <use xlink:href="#Helvetica-57" transform="translate(201.9375 0)"/>
      <use xlink:href="#Helvetica-3" transform="translate(229.71875 0)"/>
      <use xlink:href="#Helvetica-51" transform="translate(257.5 0)"/>
      <use xlink:href="#Helvetica-52" transform="translate(313.109375 0)"/>
      <use xlink:href="#Helvetica-51" transform="translate(368.71875 0)"/>
      <use xlink:href="#Helvetica-48" transform="translate(424.328125 0)"/>
     </g>
    </g>
    <g id="line2d_17">
     <path d="M 407.544219 38.989453 
L 414.544219 38.989453 
L 421.544219 38.989453 
" style="fill: none; stroke-dasharray: 3.7,1.6; stroke-dashoffset: 0; stroke: #80796b"/>
    </g>
    <g id="text_17">
     <!-- Treat all -->
     <g transform="translate(427.144219 41.439453) scale(0.07 -0.07)">
      <use xlink:href="#Helvetica-37"/>
      <use xlink:href="#Helvetica-55" transform="translate(57.421875 0)"/>
      <use xlink:href="#Helvetica-48" transform="translate(90.71875 0)"/>
      <use xlink:href="#Helvetica-44" transform="translate(146.328125 0)"/>
      <use xlink:href="#Helvetica-57" transform="translate(201.9375 0)"/>
      <use xlink:href="#Helvetica-3" transform="translate(229.71875 0)"/>
      <use xlink:href="#Helvetica-44" transform="translate(257.5 0)"/>
      <use xlink:href="#Helvetica-4f" transform="translate(313.109375 0)"/>
      <use xlink:href="#Helvetica-4f" transform="translate(335.328125 0)"/>
     </g>
    </g>
    <g id="line2d_18">
     <path d="M 407.544219 48.928906 
L 414.544219 48.928906 
L 421.544219 48.928906 
" style="fill: none; stroke: #df8f44; stroke-width: 1.8; stroke-linecap: square"/>
    </g>
    <g id="text_18">
     <!-- Clinical model -->
     <g transform="translate(427.144219 51.378906) scale(0.07 -0.07)">
      <use xlink:href="#Helvetica-26"/>
      <use xlink:href="#Helvetica-4f" transform="translate(72.21875 0)"/>
      <use xlink:href="#Helvetica-4c" transform="translate(94.4375 0)"/>
      <use xlink:href="#Helvetica-51" transform="translate(116.65625 0)"/>
      <use xlink:href="#Helvetica-4c" transform="translate(172.265625 0)"/>
      <use xlink:href="#Helvetica-46" transform="translate(194.484375 0)"/>
      <use xlink:href="#Helvetica-44" transform="translate(244.484375 0)"/>
      <use xlink:href="#Helvetica-4f" transform="translate(300.09375 0)"/>
      <use xlink:href="#Helvetica-3" transform="translate(322.3125 0)"/>
      <use xlink:href="#Helvetica-50" transform="translate(350.09375 0)"/>
      <use xlink:href="#Helvetica-52" transform="translate(433.390625 0)"/>
      <use xlink:href="#Helvetica-47" transform="translate(489 0)"/>
      <use xlink:href="#Helvetica-48" transform="translate(544.609375 0)"/>
      <use xlink:href="#Helvetica-4f" transform="translate(600.21875 0)"/>
     </g>
    </g>
    <g id="line2d_19">
     <path d="M 407.544219 58.868359 
L 414.544219 58.868359 
L 421.544219 58.868359 
" style="fill: none; stroke: #00a1d5; stroke-width: 1.8; stroke-linecap: square"/>
    </g>
    <g id="text_19">
     <!-- Multi-muscle model -->
     <g transform="translate(427.144219 61.318359) scale(0.07 -0.07)">
      <defs>
       <path id="Helvetica-30" d="M 472 4591 
L 1363 4591 
L 2681 709 
L 3991 4591 
L 4872 4591 
L 4872 0 
L 4281 0 
L 4281 2709 
Q 4281 2850 4287 3175 
Q 4294 3500 4294 3872 
L 2984 0 
L 2369 0 
L 1050 3872 
L 1050 3731 
Q 1050 3563 1058 3217 
Q 1066 2872 1066 2709 
L 1066 0 
L 472 0 
L 472 4591 
z
" transform="scale(0.015625)"/>
      </defs>
      <use xlink:href="#Helvetica-30"/>
      <use xlink:href="#Helvetica-58" transform="translate(83.296875 0)"/>
      <use xlink:href="#Helvetica-4f" transform="translate(138.90625 0)"/>
      <use xlink:href="#Helvetica-57" transform="translate(161.125 0)"/>
      <use xlink:href="#Helvetica-4c" transform="translate(188.90625 0)"/>
      <use xlink:href="#Helvetica-10" transform="translate(211.125 0)"/>
      <use xlink:href="#Helvetica-50" transform="translate(244.421875 0)"/>
      <use xlink:href="#Helvetica-58" transform="translate(327.71875 0)"/>
      <use xlink:href="#Helvetica-56" transform="translate(383.328125 0)"/>
      <use xlink:href="#Helvetica-46" transform="translate(433.328125 0)"/>
      <use xlink:href="#Helvetica-4f" transform="translate(483.328125 0)"/>
      <use xlink:href="#Helvetica-48" transform="translate(505.546875 0)"/>
      <use xlink:href="#Helvetica-3" transform="translate(561.15625 0)"/>
      <use xlink:href="#Helvetica-50" transform="translate(588.9375 0)"/>
      <use xlink:href="#Helvetica-52" transform="translate(672.234375 0)"/>
      <use xlink:href="#Helvetica-47" transform="translate(727.84375 0)"/>
      <use xlink:href="#Helvetica-48" transform="translate(783.453125 0)"/>
      <use xlink:href="#Helvetica-4f" transform="translate(839.0625 0)"/>
     </g>
    </g>
   </g>
  </g>
 </g>
 <defs>
  <clipPath id="pd9e313ceb5">
   <rect x="214.733906" y="19.95" width="279" height="199.584"/>
  </clipPath>
 </defs>
</svg>
