<?xml version="1.0" encoding="utf-8" standalone="no"?>
<!DOCTYPE svg PUBLIC "-//W3C//DTD SVG 1.1//EN"
  "http://www.w3.org/Graphics/SVG/1.1/DTD/svg11.dtd">
<svg xmlns:xlink="http://www.w3.org/1999/xlink" width="247.2145pt" height="260.99325pt" viewBox="0 0 247.2145 260.99325" xmlns="http://www.w3.org/2000/svg" version="1.1">
 <metadata>
  <rdf:RDF xmlns:dc="http://purl.org/dc/elements/1.1/" xmlns:cc="http://creativecommons.org/ns#" xmlns:rdf="http://www.w3.org/1999/02/22-rdf-syntax-ns#">
   <cc:Work>
    <dc:type rdf:resource="http://purl.org/dc/dcmitype/StillImage"/>
    <dc:date>2026-07-08T20:45:23.526518</dc:date>
    <dc:format>image/svg+xml</dc:format>
    <dc:creator>
     <cc:Agent>
      <dc:title>Matplotlib v3.11.0, https://matplotlib.org/</dc:title>
     </cc:Agent>
    </dc:creator>
   </cc:Work>
  </rdf:RDF>
 </metadata>
 <defs>
  <style type="text/css">*{stroke-linejoin: round; stroke-linecap: butt}</style>
 </defs>
 <g id="figure_1">
  <g id="patch_1">
   <path d="M 0 260.99325 
L 247.2145 260.99325 
L 247.2145 0 
L 0 0 
z
" style="fill: #ffffff"/>
  </g>
  <g id="axes_1">
   <g id="patch_2">
    <path d="M 37.035 205.998 
L 223.083 205.998 
L 223.083 19.95 
L 37.035 19.95 
z
" style="fill: #ffffff"/>
   </g>
   <g id="matplotlib.axis_1">
    <g id="xtick_1">
     <g id="line2d_1">
      <defs>
       <path id="m5d323ff972" d="M 0 0 
L 0 3.5 
" style="stroke: #000000; stroke-width: 0.8"/>
      </defs>
      <g>
       <use xlink:href="#m5d323ff972" x="45.491727" y="205.998" style="stroke: #000000; stroke-width: 0.8"/>
      </g>
     </g>
     <g id="text_1">
      <!-- 0.0 -->
      <g transform="translate(39.931727 218.998) scale(0.08 -0.08)">
       <defs>
        <path id="Helvetica-13" d="M 1731 4475 
Q 2600 4475 2988 3759 
Q 3288 3206 3288 2244 
Q 3288 1331 3016 734 
Q 2622 -122 1728 -122 
Q 922 -122 528 578 
Q 200 1163 200 2147 
Q 200 2909 397 3456 
Q 766 4475 1731 4475 
z
M 1725 391 
Q 2163 391 2422 778 
Q 2681 1166 2681 2222 
Q 2681 2984 2493 3476 
Q 2306 3969 1766 3969 
Q 1269 3969 1039 3501 
Q 809 3034 809 2125 
Q 809 1441 956 1025 
Q 1181 391 1725 391 
z
" transform="scale(0.015625)"/>
        <path id="Helvetica-11" d="M 547 681 
L 1200 681 
L 1200 0 
L 547 0 
L 547 681 
z
" transform="scale(0.015625)"/>
       </defs>
       <use xlink:href="#Helvetica-13"/>
       <use xlink:href="#Helvetica-11" transform="translate(55.609375 0)"/>
       <use xlink:href="#Helvetica-13" transform="translate(83.390625 0)"/>
      </g>
     </g>
    </g>
    <g id="xtick_2">
     <g id="line2d_2">
      <g>
       <use xlink:href="#m5d323ff972" x="79.318636" y="205.998" style="stroke: #000000; stroke-width: 0.8"/>
      </g>
     </g>
     <g id="text_2">
      <!-- 0.2 -->
      <g transform="translate(73.758636 218.998) scale(0.08 -0.08)">
       <defs>
        <path id="Helvetica-15" d="M 200 0 
Q 231 578 439 1006 
Q 647 1434 1250 1784 
L 1850 2131 
Q 2253 2366 2416 2531 
Q 2672 2791 2672 3125 
Q 2672 3516 2437 3745 
Q 2203 3975 1813 3975 
Q 1234 3975 1013 3538 
Q 894 3303 881 2888 
L 309 2888 
Q 319 3472 525 3841 
Q 891 4491 1816 4491 
Q 2584 4491 2939 4075 
Q 3294 3659 3294 3150 
Q 3294 2613 2916 2231 
Q 2697 2009 2131 1694 
L 1703 1456 
Q 1397 1288 1222 1134 
Q 909 863 828 531 
L 3272 531 
L 3272 0 
L 200 0 
z
" transform="scale(0.015625)"/>
       </defs>
       <use xlink:href="#Helvetica-13"/>
       <use xlink:href="#Helvetica-11" transform="translate(55.609375 0)"/>
       <use xlink:href="#Helvetica-15" transform="translate(83.390625 0)"/>
      </g>
     </g>
    </g>
    <g id="xtick_3">
     <g id="line2d_3">
      <g>
       <use xlink:href="#m5d323ff972" x="113.145545" y="205.998" style="stroke: #000000; stroke-width: 0.8"/>
      </g>
     </g>
     <g id="text_3">
      <!-- 0.4 -->
      <g transform="translate(107.585545 218.998) scale(0.08 -0.08)">
       <defs>
        <path id="Helvetica-17" d="M 2116 1584 
L 2116 3613 
L 681 1584 
L 2116 1584 
z
M 2125 0 
L 2125 1094 
L 163 1094 
L 163 1644 
L 2213 4488 
L 2688 4488 
L 2688 1584 
L 3347 1584 
L 3347 1094 
L 2688 1094 
L 2688 0 
L 2125 0 
z
" transform="scale(0.015625)"/>
       </defs>
       <use xlink:href="#Helvetica-13"/>
       <use xlink:href="#Helvetica-11" transform="translate(55.609375 0)"/>
       <use xlink:href="#Helvetica-17" transform="translate(83.390625 0)"/>
      </g>
     </g>
    </g>
    <g id="xtick_4">
     <g id="line2d_4">
      <g>
       <use xlink:href="#m5d323ff972" x="146.972455" y="205.998" style="stroke: #000000; stroke-width: 0.8"/>
      </g>
     </g>
     <g id="text_4">
      <!-- 0.6 -->
      <g transform="translate(141.412455 218.998) scale(0.08 -0.08)">
       <defs>
        <path id="Helvetica-19" d="M 1872 4494 
Q 2622 4494 2917 4105 
Q 3213 3716 3213 3303 
L 2656 3303 
Q 2606 3569 2497 3719 
Q 2294 4000 1881 4000 
Q 1409 4000 1131 3564 
Q 853 3128 822 2316 
Q 1016 2600 1309 2741 
Q 1578 2866 1909 2866 
Q 2472 2866 2890 2506 
Q 3309 2147 3309 1434 
Q 3309 825 2912 354 
Q 2516 -116 1781 -116 
Q 1153 -116 697 361 
Q 241 838 241 1966 
Q 241 2800 444 3381 
Q 834 4494 1872 4494 
z
M 1831 384 
Q 2275 384 2495 682 
Q 2716 981 2716 1388 
Q 2716 1731 2519 2042 
Q 2322 2353 1803 2353 
Q 1441 2353 1167 2112 
Q 894 1872 894 1388 
Q 894 963 1142 673 
Q 1391 384 1831 384 
z
" transform="scale(0.015625)"/>
       </defs>
       <use xlink:href="#Helvetica-13"/>
       <use xlink:href="#Helvetica-11" transform="translate(55.609375 0)"/>
       <use xlink:href="#Helvetica-19" transform="translate(83.390625 0)"/>
      </g>
     </g>
    </g>
    <g id="xtick_5">
     <g id="line2d_5">
      <g>
       <use xlink:href="#m5d323ff972" x="180.799364" y="205.998" style="stroke: #000000; stroke-width: 0.8"/>
      </g>
     </g>
     <g id="text_5">
      <!-- 0.8 -->
      <g transform="translate(175.239364 218.998) scale(0.08 -0.08)">
       <defs>
        <path id="Helvetica-1b" d="M 1741 2600 
Q 2113 2600 2322 2808 
Q 2531 3016 2531 3303 
Q 2531 3553 2331 3762 
Q 2131 3972 1722 3972 
Q 1316 3972 1134 3762 
Q 953 3553 953 3272 
Q 953 2956 1187 2778 
Q 1422 2600 1741 2600 
z
M 1775 384 
Q 2166 384 2423 595 
Q 2681 806 2681 1225 
Q 2681 1659 2415 1884 
Q 2150 2109 1734 2109 
Q 1331 2109 1076 1879 
Q 822 1650 822 1244 
Q 822 894 1055 639 
Q 1288 384 1775 384 
z
M 975 2384 
Q 741 2484 609 2619 
Q 363 2869 363 3269 
Q 363 3769 725 4128 
Q 1088 4488 1753 4488 
Q 2397 4488 2762 4148 
Q 3128 3809 3128 3356 
Q 3128 2938 2916 2678 
Q 2797 2531 2547 2391 
Q 2825 2263 2984 2097 
Q 3281 1784 3281 1284 
Q 3281 694 2884 283 
Q 2488 -128 1763 -128 
Q 1109 -128 657 226 
Q 206 581 206 1256 
Q 206 1653 400 1942 
Q 594 2231 975 2384 
z
" transform="scale(0.015625)"/>
       </defs>
       <use xlink:href="#Helvetica-13"/>
       <use xlink:href="#Helvetica-11" transform="translate(55.609375 0)"/>
       <use xlink:href="#Helvetica-1b" transform="translate(83.390625 0)"/>
      </g>
     </g>
    </g>
    <g id="xtick_6">
     <g id="line2d_6">
      <g>
       <use xlink:href="#m5d323ff972" x="214.626273" y="205.998" style="stroke: #000000; stroke-width: 0.8"/>
      </g>
     </g>
     <g id="text_6">
      <!-- 1.0 -->
      <g transform="translate(209.066273 218.998) scale(0.08 -0.08)">
       <defs>
        <path id="Helvetica-14" d="M 613 3169 
L 613 3600 
Q 1222 3659 1462 3798 
Q 1703 3938 1822 4456 
L 2266 4456 
L 2266 0 
L 1666 0 
L 1666 3169 
L 613 3169 
z
" transform="scale(0.015625)"/>
       </defs>
       <use xlink:href="#Helvetica-14"/>
       <use xlink:href="#Helvetica-11" transform="translate(55.609375 0)"/>
       <use xlink:href="#Helvetica-13" transform="translate(83.390625 0)"/>
      </g>
     </g>
    </g>
    <g id="text_7">
     <!-- 1 − specificity -->
     <g transform="translate(105.938375 230.357375) scale(0.08 -0.08)">
      <defs>
       <path id="Helvetica-3" transform="scale(0.015625)"/>
       <path id="Helvetica-ef" d="M 3547 1894 
L 3547 1369 
L 288 1369 
L 288 1894 
L 3547 1894 
z
" transform="scale(0.015625)"/>
       <path id="Helvetica-56" d="M 747 1050 
Q 772 769 888 619 
Q 1100 347 1625 347 
Q 1938 347 2175 483 
Q 2413 619 2413 903 
Q 2413 1119 2222 1231 
Q 2100 1300 1741 1391 
L 1294 1503 
Q 866 1609 663 1741 
Q 300 1969 300 2372 
Q 300 2847 642 3140 
Q 984 3434 1563 3434 
Q 2319 3434 2653 2991 
Q 2863 2709 2856 2384 
L 2325 2384 
Q 2309 2575 2191 2731 
Q 1997 2953 1519 2953 
Q 1200 2953 1036 2831 
Q 872 2709 872 2509 
Q 872 2291 1088 2159 
Q 1213 2081 1456 2022 
L 1828 1931 
Q 2434 1784 2641 1647 
Q 2969 1431 2969 969 
Q 2969 522 2630 197 
Q 2291 -128 1597 -128 
Q 850 -128 539 211 
Q 228 550 206 1050 
L 747 1050 
z
M 1578 3428 
L 1578 3428 
z
" transform="scale(0.015625)"/>
       <path id="Helvetica-53" d="M 1825 378 
Q 2219 378 2480 708 
Q 2741 1038 2741 1694 
Q 2741 2094 2625 2381 
Q 2406 2934 1825 2934 
Q 1241 2934 1025 2350 
Q 909 2038 909 1556 
Q 909 1169 1025 897 
Q 1244 378 1825 378 
z
M 369 3331 
L 916 3331 
L 916 2888 
Q 1084 3116 1284 3241 
Q 1569 3428 1953 3428 
Q 2522 3428 2919 2992 
Q 3316 2556 3316 1747 
Q 3316 653 2744 184 
Q 2381 -113 1900 -113 
Q 1522 -113 1266 53 
Q 1116 147 931 375 
L 931 -1334 
L 369 -1334 
L 369 3331 
z
" transform="scale(0.015625)"/>
       <path id="Helvetica-48" d="M 1806 3422 
Q 2163 3422 2497 3255 
Q 2831 3088 3006 2822 
Q 3175 2569 3231 2231 
Q 3281 2000 3281 1494 
L 828 1494 
Q 844 984 1069 676 
Q 1294 369 1766 369 
Q 2206 369 2469 659 
Q 2619 828 2681 1050 
L 3234 1050 
Q 3213 866 3089 639 
Q 2966 413 2813 269 
Q 2556 19 2178 -69 
Q 1975 -119 1719 -119 
Q 1094 -119 659 336 
Q 225 791 225 1609 
Q 225 2416 662 2919 
Q 1100 3422 1806 3422 
z
M 2703 1941 
Q 2669 2306 2544 2525 
Q 2313 2931 1772 2931 
Q 1384 2931 1121 2651 
Q 859 2372 844 1941 
L 2703 1941 
z
M 1753 3428 
L 1753 3428 
z
" transform="scale(0.015625)"/>
       <path id="Helvetica-46" d="M 1703 3444 
Q 2269 3444 2623 3169 
Q 2978 2894 3050 2222 
L 2503 2222 
Q 2453 2531 2275 2736 
Q 2097 2941 1703 2941 
Q 1166 2941 934 2416 
Q 784 2075 784 1575 
Q 784 1072 996 728 
Q 1209 384 1666 384 
Q 2016 384 2220 598 
Q 2425 813 2503 1184 
L 3050 1184 
Q 2956 519 2581 211 
Q 2206 -97 1622 -97 
Q 966 -97 575 383 
Q 184 863 184 1581 
Q 184 2463 612 2953 
Q 1041 3444 1703 3444 
z
M 1616 3428 
L 1616 3428 
z
" transform="scale(0.015625)"/>
       <path id="Helvetica-4c" d="M 413 3331 
L 984 3331 
L 984 0 
L 413 0 
L 413 3331 
z
M 413 4591 
L 984 4591 
L 984 3953 
L 413 3953 
L 413 4591 
z
" transform="scale(0.015625)"/>
       <path id="Helvetica-c0" d="M 553 3856 
Q 566 4206 675 4369 
Q 872 4656 1434 4656 
Q 1488 4656 1544 4653 
Q 1600 4650 1672 4644 
L 1672 4131 
Q 1584 4138 1545 4139 
Q 1506 4141 1472 4141 
Q 1216 4141 1166 4008 
Q 1116 3875 1116 3331 
L 1672 3331 
L 1672 2888 
L 1109 2888 
L 1109 0 
L 553 0 
L 553 2888 
L 88 2888 
L 88 3331 
L 553 3331 
L 553 3856 
z
M 2213 3953 
L 2213 4591 
L 2775 4591 
L 2775 3953 
L 2213 3953 
z
M 2213 3331 
L 2775 3331 
L 2775 0 
L 2213 0 
L 2213 3331 
z
" transform="scale(0.015625)"/>
       <path id="Helvetica-57" d="M 525 4281 
L 1094 4281 
L 1094 3347 
L 1628 3347 
L 1628 2888 
L 1094 2888 
L 1094 703 
Q 1094 528 1213 469 
Q 1278 434 1431 434 
Q 1472 434 1519 436 
Q 1566 438 1628 444 
L 1628 0 
Q 1531 -28 1426 -40 
Q 1322 -53 1200 -53 
Q 806 -53 665 148 
Q 525 350 525 672 
L 525 2888 
L 72 2888 
L 72 3347 
L 525 3347 
L 525 4281 
z
" transform="scale(0.015625)"/>
       <path id="Helvetica-5c" d="M 2503 3347 
L 3125 3347 
Q 3006 3025 2597 1878 
Q 2291 1016 2084 472 
Q 1597 -809 1397 -1090 
Q 1197 -1372 709 -1372 
Q 591 -1372 527 -1362 
Q 463 -1353 369 -1328 
L 369 -816 
Q 516 -856 581 -865 
Q 647 -875 697 -875 
Q 853 -875 926 -823 
Q 1000 -772 1050 -697 
Q 1066 -672 1162 -440 
Q 1259 -209 1303 -97 
L 66 3347 
L 703 3347 
L 1600 622 
L 2503 3347 
z
M 1597 3428 
L 1597 3428 
z
" transform="scale(0.015625)"/>
      </defs>
      <use xlink:href="#Helvetica-14"/>
      <use xlink:href="#Helvetica-3" transform="translate(55.609375 0)"/>
      <use xlink:href="#Helvetica-ef" transform="translate(83.390625 0)"/>
      <use xlink:href="#Helvetica-3" transform="translate(141.796875 0)"/>
      <use xlink:href="#Helvetica-56" transform="translate(169.578125 0)"/>
      <use xlink:href="#Helvetica-53" transform="translate(219.578125 0)"/>
      <use xlink:href="#Helvetica-48" transform="translate(275.1875 0)"/>
      <use xlink:href="#Helvetica-46" transform="translate(330.796875 0)"/>
      <use xlink:href="#Helvetica-4c" transform="translate(380.796875 0)"/>
      <use xlink:href="#Helvetica-c0" transform="translate(403.015625 0)"/>
      <use xlink:href="#Helvetica-46" transform="translate(453.015625 0)"/>
      <use xlink:href="#Helvetica-4c" transform="translate(503.015625 0)"/>
      <use xlink:href="#Helvetica-57" transform="translate(525.234375 0)"/>
      <use xlink:href="#Helvetica-5c" transform="translate(553.015625 0)"/>
     </g>
    </g>
   </g>
   <g id="matplotlib.axis_2">
    <g id="ytick_1">
     <g id="line2d_7">
      <defs>
       <path id="m8d0f075201" d="M 0 0 
L -3.5 0 
" style="stroke: #000000; stroke-width: 0.8"/>
      </defs>
      <g>
       <use xlink:href="#m8d0f075201" x="37.035" y="197.541273" style="stroke: #000000; stroke-width: 0.8"/>
      </g>
     </g>
     <g id="text_8">
      <!-- 0.0 -->
      <g transform="translate(18.915 200.541273) scale(0.08 -0.08)">
       <use xlink:href="#Helvetica-13"/>
       <use xlink:href="#Helvetica-11" transform="translate(55.609375 0)"/>
       <use xlink:href="#Helvetica-13" transform="translate(83.390625 0)"/>
      </g>
     </g>
    </g>
    <g id="ytick_2">
     <g id="line2d_8">
      <g>
       <use xlink:href="#m8d0f075201" x="37.035" y="163.714364" style="stroke: #000000; stroke-width: 0.8"/>
      </g>
     </g>
     <g id="text_9">
      <!-- 0.2 -->
      <g transform="translate(18.915 166.714364) scale(0.08 -0.08)">
       <use xlink:href="#Helvetica-13"/>
       <use xlink:href="#Helvetica-11" transform="translate(55.609375 0)"/>
       <use xlink:href="#Helvetica-15" transform="translate(83.390625 0)"/>
      </g>
     </g>
    </g>
    <g id="ytick_3">
     <g id="line2d_9">
      <g>
       <use xlink:href="#m8d0f075201" x="37.035" y="129.887455" style="stroke: #000000; stroke-width: 0.8"/>
      </g>
     </g>
     <g id="text_10">
      <!-- 0.4 -->
      <g transform="translate(18.915 132.887455) scale(0.08 -0.08)">
       <use xlink:href="#Helvetica-13"/>
       <use xlink:href="#Helvetica-11" transform="translate(55.609375 0)"/>
       <use xlink:href="#Helvetica-17" transform="translate(83.390625 0)"/>
      </g>
     </g>
    </g>
    <g id="ytick_4">
     <g id="line2d_10">
      <g>
       <use xlink:href="#m8d0f075201" x="37.035" y="96.060545" style="stroke: #000000; stroke-width: 0.8"/>
      </g>
     </g>
     <g id="text_11">
      <!-- 0.6 -->
      <g transform="translate(18.915 99.060545) scale(0.08 -0.08)">
       <use xlink:href="#Helvetica-13"/>
       <use xlink:href="#Helvetica-11" transform="translate(55.609375 0)"/>
       <use xlink:href="#Helvetica-19" transform="translate(83.390625 0)"/>
      </g>
     </g>
    </g>
    <g id="ytick_5">
     <g id="line2d_11">
      <g>
       <use xlink:href="#m8d0f075201" x="37.035" y="62.233636" style="stroke: #000000; stroke-width: 0.8"/>
      </g>
     </g>
     <g id="text_12">
      <!-- 0.8 -->
      <g transform="translate(18.915 65.233636) scale(0.08 -0.08)">
       <use xlink:href="#Helvetica-13"/>
       <use xlink:href="#Helvetica-11" transform="translate(55.609375 0)"/>
       <use xlink:href="#Helvetica-1b" transform="translate(83.390625 0)"/>
      </g>
     </g>
    </g>
    <g id="ytick_6">
     <g id="line2d_12">
      <g>
       <use xlink:href="#m8d0f075201" x="37.035" y="28.406727" style="stroke: #000000; stroke-width: 0.8"/>
      </g>
     </g>
     <g id="text_13">
      <!-- 1.0 -->
      <g transform="translate(18.915 31.406727) scale(0.08 -0.08)">
       <use xlink:href="#Helvetica-14"/>
       <use xlink:href="#Helvetica-11" transform="translate(55.609375 0)"/>
       <use xlink:href="#Helvetica-13" transform="translate(83.390625 0)"/>
      </g>
     </g>
    </g>
    <g id="text_14">
     <!-- Sensitivity -->
     <g transform="translate(13.2 130.979625) rotate(-90) scale(0.08 -0.08)">
      <defs>
       <path id="Helvetica-36" d="M 894 1481 
Q 916 1091 1078 847 
Q 1388 391 2169 391 
Q 2519 391 2806 491 
Q 3363 684 3363 1184 
Q 3363 1559 3128 1719 
Q 2891 1875 2384 1991 
L 1763 2131 
Q 1153 2269 900 2434 
Q 463 2722 463 3294 
Q 463 3913 891 4309 
Q 1319 4706 2103 4706 
Q 2825 4706 3329 4357 
Q 3834 4009 3834 3244 
L 3250 3244 
Q 3203 3613 3050 3809 
Q 2766 4169 2084 4169 
Q 1534 4169 1293 3937 
Q 1053 3706 1053 3400 
Q 1053 3063 1334 2906 
Q 1519 2806 2169 2656 
L 2813 2509 
Q 3278 2403 3531 2219 
Q 3969 1897 3969 1284 
Q 3969 522 3414 194 
Q 2859 -134 2125 -134 
Q 1269 -134 784 303 
Q 300 738 309 1481 
L 894 1481 
z
M 2150 4716 
L 2150 4716 
z
" transform="scale(0.015625)"/>
       <path id="Helvetica-51" d="M 413 3347 
L 947 3347 
L 947 2872 
Q 1184 3166 1450 3294 
Q 1716 3422 2041 3422 
Q 2753 3422 3003 2925 
Q 3141 2653 3141 2147 
L 3141 0 
L 2569 0 
L 2569 2109 
Q 2569 2416 2478 2603 
Q 2328 2916 1934 2916 
Q 1734 2916 1606 2875 
Q 1375 2806 1200 2600 
Q 1059 2434 1017 2257 
Q 975 2081 975 1753 
L 975 0 
L 413 0 
L 413 3347 
z
M 1734 3428 
L 1734 3428 
z
" transform="scale(0.015625)"/>
       <path id="Helvetica-59" d="M 688 3347 
L 1581 622 
L 2516 3347 
L 3131 3347 
L 1869 0 
L 1269 0 
L 34 3347 
L 688 3347 
z
" transform="scale(0.015625)"/>
      </defs>
      <use xlink:href="#Helvetica-36"/>
      <use xlink:href="#Helvetica-48" transform="translate(66.703125 0)"/>
      <use xlink:href="#Helvetica-51" transform="translate(122.3125 0)"/>
      <use xlink:href="#Helvetica-56" transform="translate(177.921875 0)"/>
      <use xlink:href="#Helvetica-4c" transform="translate(227.921875 0)"/>
      <use xlink:href="#Helvetica-57" transform="translate(250.140625 0)"/>
      <use xlink:href="#Helvetica-4c" transform="translate(277.921875 0)"/>
      <use xlink:href="#Helvetica-59" transform="translate(300.140625 0)"/>
      <use xlink:href="#Helvetica-4c" transform="translate(350.140625 0)"/>
      <use xlink:href="#Helvetica-57" transform="translate(372.359375 0)"/>
      <use xlink:href="#Helvetica-5c" transform="translate(400.140625 0)"/>
     </g>
    </g>
   </g>
   <g id="line2d_13">
    <path d="M 45.491727 197.541273 
L 214.626273 28.406727 
" clip-path="url(#p0f806b0098)" style="fill: none; stroke-dasharray: 2.59,1.12; stroke-dashoffset: 0; stroke: #000000; stroke-opacity: 0.5; stroke-width: 0.7"/>
   </g>
   <g id="line2d_14">
    <path d="M 45.491727 197.541273 
L 45.491727 194.224909 
L 46.590004 194.224909 
L 46.590004 174.326727 
L 47.68828 174.326727 
L 47.68828 167.694 
L 49.884832 167.694 
L 49.884832 164.377636 
L 50.983109 164.377636 
L 50.983109 151.112182 
L 55.376214 151.112182 
L 55.376214 147.795818 
L 56.47449 147.795818 
L 56.47449 144.479455 
L 58.671043 144.479455 
L 58.671043 137.846727 
L 61.965871 137.846727 
L 61.965871 131.214 
L 63.064148 131.214 
L 63.064148 127.897636 
L 68.555529 127.897636 
L 68.555529 124.581273 
L 72.948634 124.581273 
L 72.948634 117.948545 
L 74.04691 117.948545 
L 74.04691 114.632182 
L 77.341739 114.632182 
L 77.341739 101.366727 
L 80.636568 101.366727 
L 80.636568 94.734 
L 83.931397 94.734 
L 83.931397 91.417636 
L 86.127949 91.417636 
L 86.127949 84.784909 
L 87.226226 84.784909 
L 87.226226 81.468545 
L 90.521054 81.468545 
L 90.521054 78.152182 
L 94.914159 78.152182 
L 94.914159 74.835818 
L 97.110712 74.835818 
L 97.110712 71.519455 
L 108.093475 71.519455 
L 108.093475 68.203091 
L 112.48658 68.203091 
L 112.48658 64.886727 
L 117.977961 64.886727 
L 117.977961 61.570364 
L 122.371066 61.570364 
L 122.371066 54.937636 
L 137.746934 54.937636 
L 137.746934 51.621273 
L 139.943486 51.621273 
L 139.943486 44.988545 
L 155.319354 44.988545 
L 155.319354 41.672182 
L 171.793498 41.672182 
L 171.793498 38.355818 
L 180.579708 38.355818 
L 180.579708 28.406727 
L 214.626273 28.406727 
" clip-path="url(#p0f806b0098)" style="fill: none; stroke: #df8f44; stroke-width: 1.6; stroke-linecap: square"/>
   </g>
   <g id="line2d_15">
    <path d="M 45.491727 197.541273 
L 45.491727 194.224909 
L 46.590004 194.224909 
L 46.590004 177.643091 
L 47.68828 177.643091 
L 47.68828 157.744909 
L 52.081385 157.744909 
L 52.081385 154.428545 
L 55.376214 154.428545 
L 55.376214 147.795818 
L 59.769319 147.795818 
L 59.769319 144.479455 
L 60.867595 144.479455 
L 60.867595 141.163091 
L 67.457253 141.163091 
L 67.457253 137.846727 
L 68.555529 137.846727 
L 68.555529 127.897636 
L 70.752081 127.897636 
L 70.752081 121.264909 
L 71.850358 121.264909 
L 71.850358 117.948545 
L 72.948634 117.948545 
L 72.948634 114.632182 
L 76.243463 114.632182 
L 76.243463 111.315818 
L 78.440015 111.315818 
L 78.440015 101.366727 
L 79.538292 101.366727 
L 79.538292 98.050364 
L 80.636568 98.050364 
L 80.636568 94.734 
L 83.931397 94.734 
L 83.931397 88.101273 
L 85.029673 88.101273 
L 85.029673 84.784909 
L 89.422778 84.784909 
L 89.422778 81.468545 
L 93.815883 81.468545 
L 93.815883 78.152182 
L 94.914159 78.152182 
L 94.914159 74.835818 
L 100.405541 74.835818 
L 100.405541 71.519455 
L 102.602093 71.519455 
L 102.602093 68.203091 
L 111.388303 68.203091 
L 111.388303 64.886727 
L 120.174514 64.886727 
L 120.174514 61.570364 
L 132.255553 61.570364 
L 132.255553 58.254 
L 134.452105 58.254 
L 134.452105 54.937636 
L 135.550381 54.937636 
L 135.550381 51.621273 
L 141.041763 51.621273 
L 141.041763 48.304909 
L 157.515907 48.304909 
L 157.515907 44.988545 
L 165.203841 44.988545 
L 165.203841 41.672182 
L 173.990051 41.672182 
L 173.990051 35.039455 
L 179.481432 35.039455 
L 179.481432 31.723091 
L 195.955576 31.723091 
L 195.955576 28.406727 
L 214.626273 28.406727 
" clip-path="url(#p0f806b0098)" style="fill: none; stroke: #79af97; stroke-width: 1.6; stroke-linecap: square"/>
   </g>
   <g id="line2d_16">
    <path d="M 45.491727 197.541273 
L 46.590004 197.541273 
L 46.590004 184.275818 
L 48.786556 184.275818 
L 48.786556 164.377636 
L 50.983109 164.377636 
L 50.983109 151.112182 
L 52.081385 151.112182 
L 52.081385 147.795818 
L 53.179661 147.795818 
L 53.179661 141.163091 
L 56.47449 141.163091 
L 56.47449 137.846727 
L 59.769319 137.846727 
L 59.769319 131.214 
L 65.2607 131.214 
L 65.2607 127.897636 
L 70.752081 127.897636 
L 70.752081 121.264909 
L 74.04691 121.264909 
L 74.04691 117.948545 
L 75.145187 117.948545 
L 75.145187 104.683091 
L 76.243463 104.683091 
L 76.243463 94.734 
L 82.83312 94.734 
L 82.83312 84.784909 
L 90.521054 84.784909 
L 90.521054 81.468545 
L 105.896922 81.468545 
L 105.896922 78.152182 
L 112.48658 78.152182 
L 112.48658 68.203091 
L 114.683132 68.203091 
L 114.683132 61.570364 
L 120.174514 61.570364 
L 120.174514 58.254 
L 125.665895 58.254 
L 125.665895 54.937636 
L 126.764171 54.937636 
L 126.764171 51.621273 
L 138.84521 51.621273 
L 138.84521 41.672182 
L 152.024525 41.672182 
L 152.024525 38.355818 
L 170.695222 38.355818 
L 170.695222 35.039455 
L 171.793498 35.039455 
L 171.793498 31.723091 
L 175.088327 31.723091 
L 175.088327 28.406727 
L 214.626273 28.406727 
" clip-path="url(#p0f806b0098)" style="fill: none; stroke: #00a1d5; stroke-width: 1.6; stroke-linecap: square"/>
   </g>
   <g id="patch_3">
    <path d="M 37.035 205.998 
L 37.035 19.95 
" style="fill: none; stroke: #000000; stroke-width: 0.8; stroke-linejoin: miter; stroke-linecap: square"/>
   </g>
   <g id="patch_4">
    <path d="M 37.035 205.998 
L 223.083 205.998 
" style="fill: none; stroke: #000000; stroke-width: 0.8; stroke-linejoin: miter; stroke-linecap: square"/>
   </g>
   <g id="text_15">
    <!-- ROC — nested models -->
    <g transform="translate(37.035 13.95) scale(0.09 -0.09)">
     <defs>
      <path id="Helvetica-Bold-35" d="M 2444 1806 
L 1450 1806 
L 1450 0 
L 509 0 
L 509 4606 
L 2769 4606 
Q 3253 4597 3514 4487 
Q 3775 4378 3956 4166 
Q 4106 3991 4193 3778 
Q 4281 3566 4281 3294 
Q 4281 2966 4115 2648 
Q 3950 2331 3569 2200 
Q 3888 2072 4020 1836 
Q 4153 1600 4153 1116 
L 4153 806 
Q 4153 491 4178 378 
Q 4216 200 4353 116 
L 4353 0 
L 3294 0 
Q 3250 153 3231 247 
Q 3194 441 3191 644 
L 3184 1072 
Q 3178 1513 3023 1659 
Q 2869 1806 2444 1806 
z
M 3028 2644 
Q 3316 2775 3316 3163 
Q 3316 3581 3038 3725 
Q 2881 3806 2569 3806 
L 1450 3806 
L 1450 2569 
L 2541 2569 
Q 2866 2569 3028 2644 
z
" transform="scale(0.015625)"/>
      <path id="Helvetica-Bold-32" d="M 2525 -128 
Q 1538 -128 1016 409 
Q 316 1069 316 2309 
Q 316 3575 1016 4209 
Q 1538 4747 2525 4747 
Q 3513 4747 4034 4209 
Q 4731 3575 4731 2309 
Q 4731 1069 4034 409 
Q 3513 -128 2525 -128 
z
M 3434 1109 
Q 3769 1531 3769 2309 
Q 3769 3084 3433 3507 
Q 3097 3931 2525 3931 
Q 1953 3931 1612 3509 
Q 1272 3088 1272 2309 
Q 1272 1531 1612 1109 
Q 1953 688 2525 688 
Q 3097 688 3434 1109 
z
" transform="scale(0.015625)"/>
      <path id="Helvetica-Bold-26" d="M 3738 344 
Q 3222 -128 2419 -128 
Q 1425 -128 856 509 
Q 288 1150 288 2266 
Q 288 3472 934 4125 
Q 1497 4694 2366 4694 
Q 3528 4694 4066 3931 
Q 4363 3503 4384 3072 
L 3422 3072 
Q 3328 3403 3181 3572 
Q 2919 3872 2403 3872 
Q 1878 3872 1575 3448 
Q 1272 3025 1272 2250 
Q 1272 1475 1592 1089 
Q 1913 703 2406 703 
Q 2913 703 3178 1034 
Q 3325 1213 3422 1569 
L 4375 1569 
Q 4250 816 3738 344 
z
" transform="scale(0.015625)"/>
      <path id="Helvetica-Bold-3" transform="scale(0.015625)"/>
      <path id="Helvetica-Bold-b3" d="M 753 2131 
L 5644 2131 
L 5644 1450 
L 753 1450 
L 753 2131 
z
" transform="scale(0.015625)"/>
      <path id="Helvetica-Bold-51" d="M 2019 2747 
Q 1566 2747 1397 2363 
Q 1309 2159 1309 1844 
L 1309 0 
L 422 0 
L 422 3400 
L 1281 3400 
L 1281 2903 
Q 1453 3166 1606 3281 
Q 1881 3488 2303 3488 
Q 2831 3488 3167 3211 
Q 3503 2934 3503 2294 
L 3503 0 
L 2591 0 
L 2591 2072 
Q 2591 2341 2519 2484 
Q 2388 2747 2019 2747 
z
" transform="scale(0.015625)"/>
      <path id="Helvetica-Bold-48" d="M 3331 1000 
Q 3297 697 3016 384 
Q 2578 -113 1791 -113 
Q 1141 -113 644 306 
Q 147 725 147 1669 
Q 147 2553 595 3025 
Q 1044 3497 1759 3497 
Q 2184 3497 2525 3337 
Q 2866 3178 3088 2834 
Q 3288 2531 3347 2131 
Q 3381 1897 3375 1456 
L 1044 1456 
Q 1063 944 1366 738 
Q 1550 609 1809 609 
Q 2084 609 2256 766 
Q 2350 850 2422 1000 
L 3331 1000 
z
M 2450 2044 
Q 2428 2397 2236 2580 
Q 2044 2763 1759 2763 
Q 1450 2763 1279 2569 
Q 1109 2375 1066 2044 
L 2450 2044 
z
" transform="scale(0.015625)"/>
      <path id="Helvetica-Bold-56" d="M 2763 3250 
Q 3163 2994 3222 2369 
L 2331 2369 
Q 2313 2541 2234 2641 
Q 2088 2822 1734 2822 
Q 1444 2822 1320 2731 
Q 1197 2641 1197 2519 
Q 1197 2366 1328 2297 
Q 1459 2225 2256 2050 
Q 2788 1925 3053 1672 
Q 3316 1416 3316 1031 
Q 3316 525 2939 204 
Q 2563 -116 1775 -116 
Q 972 -116 589 223 
Q 206 563 206 1088 
L 1109 1088 
Q 1138 850 1231 750 
Q 1397 572 1844 572 
Q 2106 572 2261 650 
Q 2416 728 2416 884 
Q 2416 1034 2291 1113 
Q 2166 1191 1363 1381 
Q 784 1525 547 1741 
Q 309 1953 309 2353 
Q 309 2825 679 3164 
Q 1050 3503 1722 3503 
Q 2359 3503 2763 3250 
z
" transform="scale(0.015625)"/>
      <path id="Helvetica-Bold-57" d="M 1975 634 
L 1975 -31 
L 1553 -47 
Q 922 -69 691 172 
Q 541 325 541 644 
L 541 2741 
L 66 2741 
L 66 3375 
L 541 3375 
L 541 4325 
L 1422 4325 
L 1422 3375 
L 1975 3375 
L 1975 2741 
L 1422 2741 
L 1422 941 
Q 1422 731 1475 679 
Q 1528 628 1800 628 
Q 1841 628 1886 629 
Q 1931 631 1975 634 
z
" transform="scale(0.015625)"/>
      <path id="Helvetica-Bold-47" d="M 3516 4600 
L 3516 0 
L 2650 0 
L 2650 472 
Q 2459 169 2215 31 
Q 1972 -106 1609 -106 
Q 1013 -106 605 376 
Q 197 859 197 1616 
Q 197 2488 598 2988 
Q 1000 3488 1672 3488 
Q 1981 3488 2222 3352 
Q 2463 3216 2613 2975 
L 2613 4600 
L 3516 4600 
z
M 1116 1681 
Q 1116 1209 1303 928 
Q 1488 644 1866 644 
Q 2244 644 2441 925 
Q 2638 1206 2638 1653 
Q 2638 2278 2322 2547 
Q 2128 2709 1872 2709 
Q 1481 2709 1298 2414 
Q 1116 2119 1116 1681 
z
" transform="scale(0.015625)"/>
      <path id="Helvetica-Bold-50" d="M 2328 2469 
Q 2216 2716 1888 2716 
Q 1506 2716 1375 2469 
Q 1303 2328 1303 2050 
L 1303 0 
L 400 0 
L 400 3400 
L 1266 3400 
L 1266 2903 
Q 1431 3169 1578 3281 
Q 1838 3481 2250 3481 
Q 2641 3481 2881 3309 
Q 3075 3150 3175 2900 
Q 3350 3200 3609 3341 
Q 3884 3481 4222 3481 
Q 4447 3481 4665 3393 
Q 4884 3306 5063 3088 
Q 5206 2909 5256 2650 
Q 5288 2478 5288 2147 
L 5281 0 
L 4369 0 
L 4369 2169 
Q 4369 2363 4306 2488 
Q 4188 2725 3869 2725 
Q 3500 2725 3359 2419 
Q 3288 2256 3288 2028 
L 3288 0 
L 2391 0 
L 2391 2028 
Q 2391 2331 2328 2469 
z
" transform="scale(0.015625)"/>
      <path id="Helvetica-Bold-52" d="M 3256 2975 
Q 3688 2434 3688 1697 
Q 3688 947 3256 414 
Q 2825 -119 1947 -119 
Q 1069 -119 637 414 
Q 206 947 206 1697 
Q 206 2434 637 2975 
Q 1069 3516 1947 3516 
Q 2825 3516 3256 2975 
z
M 1944 2763 
Q 1553 2763 1342 2486 
Q 1131 2209 1131 1697 
Q 1131 1184 1342 906 
Q 1553 628 1944 628 
Q 2334 628 2543 906 
Q 2753 1184 2753 1697 
Q 2753 2209 2543 2486 
Q 2334 2763 1944 2763 
z
" transform="scale(0.015625)"/>
      <path id="Helvetica-Bold-4f" d="M 434 4606 
L 1325 4606 
L 1325 0 
L 434 0 
L 434 4606 
z
" transform="scale(0.015625)"/>
     </defs>
     <use xlink:href="#Helvetica-Bold-35"/>
     <use xlink:href="#Helvetica-Bold-32" transform="translate(72.21875 0)"/>
     <use xlink:href="#Helvetica-Bold-26" transform="translate(150 0)"/>
     <use xlink:href="#Helvetica-Bold-3" transform="translate(222.21875 0)"/>
     <use xlink:href="#Helvetica-Bold-b3" transform="translate(250 0)"/>
     <use xlink:href="#Helvetica-Bold-3" transform="translate(350 0)"/>
     <use xlink:href="#Helvetica-Bold-51" transform="translate(377.78125 0)"/>
     <use xlink:href="#Helvetica-Bold-48" transform="translate(438.859375 0)"/>
     <use xlink:href="#Helvetica-Bold-56" transform="translate(494.46875 0)"/>
     <use xlink:href="#Helvetica-Bold-57" transform="translate(550.078125 0)"/>
     <use xlink:href="#Helvetica-Bold-48" transform="translate(583.375 0)"/>
     <use xlink:href="#Helvetica-Bold-47" transform="translate(638.984375 0)"/>
     <use xlink:href="#Helvetica-Bold-3" transform="translate(700.0625 0)"/>
     <use xlink:href="#Helvetica-Bold-50" transform="translate(727.84375 0)"/>
     <use xlink:href="#Helvetica-Bold-52" transform="translate(816.765625 0)"/>
     <use xlink:href="#Helvetica-Bold-47" transform="translate(877.84375 0)"/>
     <use xlink:href="#Helvetica-Bold-48" transform="translate(938.921875 0)"/>
     <use xlink:href="#Helvetica-Bold-4f" transform="translate(994.53125 0)"/>
     <use xlink:href="#Helvetica-Bold-56" transform="translate(1022.3125 0)"/>
    </g>
   </g>
   <g id="legend_1">
    <g id="line2d_17">
     <path d="M 96.074016 177.615344 
L 102.574016 177.615344 
L 109.074016 177.615344 
" style="fill: none; stroke: #df8f44; stroke-width: 1.6; stroke-linecap: square"/>
    </g>
    <g id="text_16">
     <!-- Clinical: AUC 0.77 (0.69–0.84) -->
     <g transform="translate(114.274016 179.890344) scale(0.065 -0.065)">
      <defs>
       <path id="Helvetica-26" d="M 2422 4716 
Q 3294 4716 3775 4256 
Q 4256 3797 4309 3213 
L 3703 3213 
Q 3600 3656 3292 3915 
Q 2984 4175 2428 4175 
Q 1750 4175 1333 3698 
Q 916 3222 916 2238 
Q 916 1431 1292 929 
Q 1669 428 2416 428 
Q 3103 428 3463 956 
Q 3653 1234 3747 1688 
L 4353 1688 
Q 4272 963 3816 472 
Q 3269 -119 2341 -119 
Q 1541 -119 997 366 
Q 281 1006 281 2344 
Q 281 3359 819 4009 
Q 1400 4716 2422 4716 
z
M 2297 4716 
L 2297 4716 
z
" transform="scale(0.015625)"/>
       <path id="Helvetica-4f" d="M 428 4591 
L 991 4591 
L 991 0 
L 428 0 
L 428 4591 
z
" transform="scale(0.015625)"/>
       <path id="Helvetica-44" d="M 844 891 
Q 844 647 1022 506 
Q 1200 366 1444 366 
Q 1741 366 2019 503 
Q 2488 731 2488 1250 
L 2488 1703 
Q 2384 1638 2221 1594 
Q 2059 1550 1903 1531 
L 1563 1488 
Q 1256 1447 1103 1359 
Q 844 1213 844 891 
z
M 2206 2028 
Q 2400 2053 2466 2191 
Q 2503 2266 2503 2406 
Q 2503 2694 2298 2823 
Q 2094 2953 1713 2953 
Q 1272 2953 1088 2716 
Q 984 2584 953 2325 
L 428 2325 
Q 444 2944 830 3186 
Q 1216 3428 1725 3428 
Q 2316 3428 2684 3203 
Q 3050 2978 3050 2503 
L 3050 575 
Q 3050 488 3086 434 
Q 3122 381 3238 381 
Q 3275 381 3322 386 
Q 3369 391 3422 400 
L 3422 -16 
Q 3291 -53 3222 -62 
Q 3153 -72 3034 -72 
Q 2744 -72 2613 134 
Q 2544 244 2516 444 
Q 2344 219 2022 53 
Q 1700 -113 1313 -113 
Q 847 -113 551 170 
Q 256 453 256 878 
Q 256 1344 547 1600 
Q 838 1856 1309 1916 
L 2206 2028 
z
M 1741 3428 
L 1741 3428 
z
" transform="scale(0.015625)"/>
       <path id="Helvetica-1d" d="M 709 3303 
L 1363 3303 
L 1363 2622 
L 709 2622 
L 709 3303 
z
M 709 681 
L 1363 681 
L 1363 0 
L 709 0 
L 709 681 
z
" transform="scale(0.015625)"/>
       <path id="Helvetica-24" d="M 2844 1881 
L 2147 3909 
L 1406 1881 
L 2844 1881 
z
M 1822 4591 
L 2525 4591 
L 4191 0 
L 3509 0 
L 3044 1375 
L 1228 1375 
L 731 0 
L 94 0 
L 1822 4591 
z
" transform="scale(0.015625)"/>
       <path id="Helvetica-38" d="M 1163 4591 
L 1163 1753 
Q 1163 1253 1350 922 
Q 1628 422 2288 422 
Q 3078 422 3363 963 
Q 3516 1256 3516 1753 
L 3516 4591 
L 4147 4591 
L 4147 2013 
Q 4147 1166 3919 709 
Q 3500 -122 2338 -122 
Q 1175 -122 759 709 
Q 531 1166 531 2013 
L 531 4591 
L 1163 4591 
z
M 2341 4591 
L 2341 4591 
z
" transform="scale(0.015625)"/>
       <path id="Helvetica-1a" d="M 3347 4400 
L 3347 3909 
Q 3131 3700 2773 3181 
Q 2416 2663 2141 2063 
Q 1869 1478 1728 997 
Q 1638 688 1494 0 
L 872 0 
Q 1084 1281 1809 2550 
Q 2238 3294 2709 3834 
L 234 3834 
L 234 4400 
L 3347 4400 
z
" transform="scale(0.015625)"/>
       <path id="Helvetica-b" d="M 1894 4666 
Q 1403 3713 1256 3263 
Q 1034 2578 1034 1681 
Q 1034 775 1288 25 
Q 1444 -438 1903 -1306 
L 1525 -1306 
Q 1069 -594 959 -397 
Q 850 -200 722 138 
Q 547 600 478 1125 
Q 444 1397 444 1644 
Q 444 2569 734 3291 
Q 919 3750 1503 4666 
L 1894 4666 
z
" transform="scale(0.015625)"/>
       <path id="Helvetica-1c" d="M 850 1081 
Q 875 616 1209 438 
Q 1381 344 1597 344 
Q 2000 344 2284 680 
Q 2569 1016 2688 2044 
Q 2500 1747 2223 1626 
Q 1947 1506 1628 1506 
Q 981 1506 604 1909 
Q 228 2313 228 2947 
Q 228 3556 600 4018 
Q 972 4481 1697 4481 
Q 2675 4481 3047 3600 
Q 3253 3116 3253 2388 
Q 3253 1566 3006 931 
Q 2597 -125 1619 -125 
Q 963 -125 622 219 
Q 281 563 281 1081 
L 850 1081 
z
M 1703 2000 
Q 2038 2000 2314 2220 
Q 2591 2441 2591 2991 
Q 2591 3484 2342 3726 
Q 2094 3969 1709 3969 
Q 1297 3969 1055 3692 
Q 813 3416 813 2953 
Q 813 2516 1025 2258 
Q 1238 2000 1703 2000 
z
" transform="scale(0.015625)"/>
       <path id="Helvetica-b2" d="M -16 2000 
L 3569 2000 
L 3569 1541 
L -16 1541 
L -16 2000 
z
" transform="scale(0.015625)"/>
       <path id="Helvetica-c" d="M 222 -1306 
Q 719 -338 863 106 
Q 1081 778 1081 1681 
Q 1081 2584 828 3334 
Q 672 3797 213 4666 
L 591 4666 
Q 1072 3897 1173 3717 
Q 1275 3538 1394 3222 
Q 1544 2831 1608 2450 
Q 1672 2069 1672 1716 
Q 1672 791 1378 66 
Q 1194 -400 613 -1306 
L 222 -1306 
z
" transform="scale(0.015625)"/>
      </defs>
      <use xlink:href="#Helvetica-26"/>
      <use xlink:href="#Helvetica-4f" transform="translate(72.21875 0)"/>
      <use xlink:href="#Helvetica-4c" transform="translate(94.4375 0)"/>
      <use xlink:href="#Helvetica-51" transform="translate(116.65625 0)"/>
      <use xlink:href="#Helvetica-4c" transform="translate(172.265625 0)"/>
      <use xlink:href="#Helvetica-46" transform="translate(194.484375 0)"/>
      <use xlink:href="#Helvetica-44" transform="translate(244.484375 0)"/>
      <use xlink:href="#Helvetica-4f" transform="translate(300.09375 0)"/>
      <use xlink:href="#Helvetica-1d" transform="translate(322.3125 0)"/>
      <use xlink:href="#Helvetica-3" transform="translate(350.09375 0)"/>
      <use xlink:href="#Helvetica-24" transform="translate(372.40625 0)"/>
      <use xlink:href="#Helvetica-38" transform="translate(439.109375 0)"/>
      <use xlink:href="#Helvetica-26" transform="translate(511.328125 0)"/>
      <use xlink:href="#Helvetica-3" transform="translate(583.546875 0)"/>
      <use xlink:href="#Helvetica-13" transform="translate(611.328125 0)"/>
      <use xlink:href="#Helvetica-11" transform="translate(666.9375 0)"/>
      <use xlink:href="#Helvetica-1a" transform="translate(694.71875 0)"/>
      <use xlink:href="#Helvetica-1a" transform="translate(750.328125 0)"/>
      <use xlink:href="#Helvetica-3" transform="translate(805.9375 0)"/>
      <use xlink:href="#Helvetica-b" transform="translate(833.71875 0)"/>
      <use xlink:href="#Helvetica-13" transform="translate(867.015625 0)"/>
      <use xlink:href="#Helvetica-11" transform="translate(922.625 0)"/>
      <use xlink:href="#Helvetica-19" transform="translate(950.40625 0)"/>
      <use xlink:href="#Helvetica-1c" transform="translate(1006.015625 0)"/>
      <use xlink:href="#Helvetica-b2" transform="translate(1061.625 0)"/>
      <use xlink:href="#Helvetica-13" transform="translate(1117.234375 0)"/>
      <use xlink:href="#Helvetica-11" transform="translate(1172.84375 0)"/>
      <use xlink:href="#Helvetica-1b" transform="translate(1200.625 0)"/>
      <use xlink:href="#Helvetica-17" transform="translate(1256.234375 0)"/>
      <use xlink:href="#Helvetica-c" transform="translate(1311.84375 0)"/>
     </g>
    </g>
    <g id="line2d_18">
     <path d="M 96.074016 187.06675 
L 102.574016 187.06675 
L 109.074016 187.06675 
" style="fill: none; stroke: #79af97; stroke-width: 1.6; stroke-linecap: square"/>
    </g>
    <g id="text_17">
     <!-- +Iliopsoas: AUC 0.75 (0.68–0.83) -->
     <g transform="translate(114.274016 189.34175) scale(0.065 -0.065)">
      <defs>
       <path id="Helvetica-e" d="M 288 1369 
L 288 1894 
L 1650 1894 
L 1650 3266 
L 2184 3266 
L 2184 1894 
L 3547 1894 
L 3547 1369 
L 2184 1369 
L 2184 0 
L 1650 0 
L 1650 1369 
L 288 1369 
z
" transform="scale(0.015625)"/>
       <path id="Helvetica-2c" d="M 628 4591 
L 1256 4591 
L 1256 0 
L 628 0 
L 628 4591 
z
" transform="scale(0.015625)"/>
       <path id="Helvetica-52" d="M 1741 363 
Q 2300 363 2508 786 
Q 2716 1209 2716 1728 
Q 2716 2197 2566 2491 
Q 2328 2953 1747 2953 
Q 1231 2953 997 2559 
Q 763 2166 763 1609 
Q 763 1075 997 719 
Q 1231 363 1741 363 
z
M 1763 3444 
Q 2409 3444 2856 3012 
Q 3303 2581 3303 1744 
Q 3303 934 2909 406 
Q 2516 -122 1688 -122 
Q 997 -122 590 345 
Q 184 813 184 1600 
Q 184 2444 612 2944 
Q 1041 3444 1763 3444 
z
M 1744 3428 
L 1744 3428 
z
" transform="scale(0.015625)"/>
       <path id="Helvetica-18" d="M 791 1141 
Q 847 659 1238 475 
Q 1438 381 1700 381 
Q 2200 381 2440 700 
Q 2681 1019 2681 1406 
Q 2681 1875 2395 2131 
Q 2109 2388 1709 2388 
Q 1419 2388 1211 2275 
Q 1003 2163 856 1963 
L 369 1991 
L 709 4400 
L 3034 4400 
L 3034 3856 
L 1131 3856 
L 941 2613 
Q 1097 2731 1238 2791 
Q 1488 2894 1816 2894 
Q 2431 2894 2859 2497 
Q 3288 2100 3288 1491 
Q 3288 856 2895 371 
Q 2503 -113 1644 -113 
Q 1097 -113 676 195 
Q 256 503 206 1141 
L 791 1141 
z
" transform="scale(0.015625)"/>
       <path id="Helvetica-16" d="M 1663 -122 
Q 869 -122 511 314 
Q 153 750 153 1375 
L 741 1375 
Q 778 941 903 744 
Q 1122 391 1694 391 
Q 2138 391 2406 628 
Q 2675 866 2675 1241 
Q 2675 1703 2392 1887 
Q 2109 2072 1606 2072 
Q 1550 2072 1492 2070 
Q 1434 2069 1375 2066 
L 1375 2563 
Q 1463 2553 1522 2550 
Q 1581 2547 1650 2547 
Q 1966 2547 2169 2647 
Q 2525 2822 2525 3272 
Q 2525 3606 2287 3787 
Q 2050 3969 1734 3969 
Q 1172 3969 956 3594 
Q 838 3388 822 3006 
L 266 3006 
Q 266 3506 466 3856 
Q 809 4481 1675 4481 
Q 2359 4481 2734 4176 
Q 3109 3872 3109 3294 
Q 3109 2881 2888 2625 
Q 2750 2466 2531 2375 
Q 2884 2278 3082 2001 
Q 3281 1725 3281 1325 
Q 3281 684 2859 281 
Q 2438 -122 1663 -122 
z
" transform="scale(0.015625)"/>
      </defs>
      <use xlink:href="#Helvetica-e"/>
      <use xlink:href="#Helvetica-2c" transform="translate(58.40625 0)"/>
      <use xlink:href="#Helvetica-4f" transform="translate(86.1875 0)"/>
      <use xlink:href="#Helvetica-4c" transform="translate(108.40625 0)"/>
      <use xlink:href="#Helvetica-52" transform="translate(130.625 0)"/>
      <use xlink:href="#Helvetica-53" transform="translate(186.234375 0)"/>
      <use xlink:href="#Helvetica-56" transform="translate(241.84375 0)"/>
      <use xlink:href="#Helvetica-52" transform="translate(291.84375 0)"/>
      <use xlink:href="#Helvetica-44" transform="translate(347.453125 0)"/>
      <use xlink:href="#Helvetica-56" transform="translate(403.0625 0)"/>
      <use xlink:href="#Helvetica-1d" transform="translate(453.0625 0)"/>
      <use xlink:href="#Helvetica-3" transform="translate(480.84375 0)"/>
      <use xlink:href="#Helvetica-24" transform="translate(503.15625 0)"/>
      <use xlink:href="#Helvetica-38" transform="translate(569.859375 0)"/>
      <use xlink:href="#Helvetica-26" transform="translate(642.078125 0)"/>
      <use xlink:href="#Helvetica-3" transform="translate(714.296875 0)"/>
      <use xlink:href="#Helvetica-13" transform="translate(742.078125 0)"/>
      <use xlink:href="#Helvetica-11" transform="translate(797.6875 0)"/>
      <use xlink:href="#Helvetica-1a" transform="translate(825.46875 0)"/>
      <use xlink:href="#Helvetica-18" transform="translate(881.078125 0)"/>
      <use xlink:href="#Helvetica-3" transform="translate(936.6875 0)"/>
      <use xlink:href="#Helvetica-b" transform="translate(964.46875 0)"/>
      <use xlink:href="#Helvetica-13" transform="translate(997.765625 0)"/>
      <use xlink:href="#Helvetica-11" transform="translate(1053.375 0)"/>
      <use xlink:href="#Helvetica-19" transform="translate(1081.15625 0)"/>
      <use xlink:href="#Helvetica-1b" transform="translate(1136.765625 0)"/>
      <use xlink:href="#Helvetica-b2" transform="translate(1192.375 0)"/>
      <use xlink:href="#Helvetica-13" transform="translate(1247.984375 0)"/>
      <use xlink:href="#Helvetica-11" transform="translate(1303.59375 0)"/>
      <use xlink:href="#Helvetica-1b" transform="translate(1331.375 0)"/>
      <use xlink:href="#Helvetica-16" transform="translate(1386.984375 0)"/>
      <use xlink:href="#Helvetica-c" transform="translate(1442.59375 0)"/>
     </g>
    </g>
    <g id="line2d_19">
     <path d="M 96.074016 196.546594 
L 102.574016 196.546594 
L 109.074016 196.546594 
" style="fill: none; stroke: #00a1d5; stroke-width: 1.6; stroke-linecap: square"/>
    </g>
    <g id="text_18">
     <!-- Multi-muscle: AUC 0.77 (0.70–0.84) -->
     <g transform="translate(114.274016 198.821594) scale(0.065 -0.065)">
      <defs>
       <path id="Helvetica-30" d="M 472 4591 
L 1363 4591 
L 2681 709 
L 3991 4591 
L 4872 4591 
L 4872 0 
L 4281 0 
L 4281 2709 
Q 4281 2850 4287 3175 
Q 4294 3500 4294 3872 
L 2984 0 
L 2369 0 
L 1050 3872 
L 1050 3731 
Q 1050 3563 1058 3217 
Q 1066 2872 1066 2709 
L 1066 0 
L 472 0 
L 472 4591 
z
" transform="scale(0.015625)"/>
       <path id="Helvetica-58" d="M 975 3347 
L 975 1125 
Q 975 869 1056 706 
Q 1206 406 1616 406 
Q 2203 406 2416 931 
Q 2531 1213 2531 1703 
L 2531 3347 
L 3094 3347 
L 3094 0 
L 2563 0 
L 2569 494 
Q 2459 303 2297 172 
Q 1975 -91 1516 -91 
Q 800 -91 541 388 
Q 400 644 400 1072 
L 400 3347 
L 975 3347 
z
M 1747 3428 
L 1747 3428 
z
" transform="scale(0.015625)"/>
       <path id="Helvetica-10" d="M 266 2072 
L 1834 2072 
L 1834 1494 
L 266 1494 
L 266 2072 
z
" transform="scale(0.015625)"/>
       <path id="Helvetica-50" d="M 413 3347 
L 969 3347 
L 969 2872 
Q 1169 3119 1331 3231 
Q 1609 3422 1963 3422 
Q 2363 3422 2606 3225 
Q 2744 3113 2856 2894 
Q 3044 3163 3297 3292 
Q 3550 3422 3866 3422 
Q 4541 3422 4784 2934 
Q 4916 2672 4916 2228 
L 4916 0 
L 4331 0 
L 4331 2325 
Q 4331 2659 4164 2784 
Q 3997 2909 3756 2909 
Q 3425 2909 3186 2687 
Q 2947 2466 2947 1947 
L 2947 0 
L 2375 0 
L 2375 2184 
Q 2375 2525 2294 2681 
Q 2166 2916 1816 2916 
Q 1497 2916 1236 2669 
Q 975 2422 975 1775 
L 975 0 
L 413 0 
L 413 3347 
z
" transform="scale(0.015625)"/>
      </defs>
      <use xlink:href="#Helvetica-30"/>
      <use xlink:href="#Helvetica-58" transform="translate(83.296875 0)"/>
      <use xlink:href="#Helvetica-4f" transform="translate(138.90625 0)"/>
      <use xlink:href="#Helvetica-57" transform="translate(161.125 0)"/>
      <use xlink:href="#Helvetica-4c" transform="translate(188.90625 0)"/>
      <use xlink:href="#Helvetica-10" transform="translate(211.125 0)"/>
      <use xlink:href="#Helvetica-50" transform="translate(244.421875 0)"/>
      <use xlink:href="#Helvetica-58" transform="translate(327.71875 0)"/>
      <use xlink:href="#Helvetica-56" transform="translate(383.328125 0)"/>
      <use xlink:href="#Helvetica-46" transform="translate(433.328125 0)"/>
      <use xlink:href="#Helvetica-4f" transform="translate(483.328125 0)"/>
      <use xlink:href="#Helvetica-48" transform="translate(505.546875 0)"/>
      <use xlink:href="#Helvetica-1d" transform="translate(561.15625 0)"/>
      <use xlink:href="#Helvetica-3" transform="translate(588.9375 0)"/>
      <use xlink:href="#Helvetica-24" transform="translate(611.25 0)"/>
      <use xlink:href="#Helvetica-38" transform="translate(677.953125 0)"/>
      <use xlink:href="#Helvetica-26" transform="translate(750.171875 0)"/>
      <use xlink:href="#Helvetica-3" transform="translate(822.390625 0)"/>
      <use xlink:href="#Helvetica-13" transform="translate(850.171875 0)"/>
      <use xlink:href="#Helvetica-11" transform="translate(905.78125 0)"/>
      <use xlink:href="#Helvetica-1a" transform="translate(933.5625 0)"/>
      <use xlink:href="#Helvetica-1a" transform="translate(989.171875 0)"/>
      <use xlink:href="#Helvetica-3" transform="translate(1044.78125 0)"/>
      <use xlink:href="#Helvetica-b" transform="translate(1072.5625 0)"/>
      <use xlink:href="#Helvetica-13" transform="translate(1105.859375 0)"/>
      <use xlink:href="#Helvetica-11" transform="translate(1161.46875 0)"/>
      <use xlink:href="#Helvetica-1a" transform="translate(1189.25 0)"/>
      <use xlink:href="#Helvetica-13" transform="translate(1244.859375 0)"/>
      <use xlink:href="#Helvetica-b2" transform="translate(1300.46875 0)"/>
      <use xlink:href="#Helvetica-13" transform="translate(1356.078125 0)"/>
      <use xlink:href="#Helvetica-11" transform="translate(1411.6875 0)"/>
      <use xlink:href="#Helvetica-1b" transform="translate(1439.46875 0)"/>
      <use xlink:href="#Helvetica-17" transform="translate(1495.078125 0)"/>
      <use xlink:href="#Helvetica-c" transform="translate(1550.6875 0)"/>
     </g>
    </g>
   </g>
  </g>
  <g id="text_19">
   <!-- Optimism-corrected multi-muscle AUC = 0.79; ΔAUC vs clinical not significant (DeLong). -->
   <g style="fill: #80796b" transform="translate(13.2635 252.51) scale(0.058 -0.058)">
    <defs>
     <path id="Helvetica-32" d="M 2469 4716 
Q 3684 4716 4269 3934 
Q 4725 3325 4725 2375 
Q 4725 1347 4203 666 
Q 3591 -134 2456 -134 
Q 1397 -134 791 566 
Q 250 1241 250 2272 
Q 250 3203 713 3866 
Q 1306 4716 2469 4716 
z
M 2531 422 
Q 3353 422 3720 1011 
Q 4088 1600 4088 2366 
Q 4088 3175 3664 3669 
Q 3241 4163 2506 4163 
Q 1794 4163 1344 3673 
Q 894 3184 894 2231 
Q 894 1469 1280 945 
Q 1666 422 2531 422 
z
M 2488 4716 
L 2488 4716 
z
" transform="scale(0.015625)"/>
     <path id="Helvetica-55" d="M 428 3347 
L 963 3347 
L 963 2769 
Q 1028 2938 1284 3180 
Q 1541 3422 1875 3422 
Q 1891 3422 1928 3419 
Q 1966 3416 2056 3406 
L 2056 2813 
Q 2006 2822 1964 2825 
Q 1922 2828 1872 2828 
Q 1447 2828 1219 2554 
Q 991 2281 991 1925 
L 991 0 
L 428 0 
L 428 3347 
z
" transform="scale(0.015625)"/>
     <path id="Helvetica-47" d="M 769 1634 
Q 769 1097 997 734 
Q 1225 372 1728 372 
Q 2119 372 2370 708 
Q 2622 1044 2622 1672 
Q 2622 2306 2362 2611 
Q 2103 2916 1722 2916 
Q 1297 2916 1033 2591 
Q 769 2266 769 1634 
z
M 1616 3406 
Q 2000 3406 2259 3244 
Q 2409 3150 2600 2916 
L 2600 4606 
L 3141 4606 
L 3141 0 
L 2634 0 
L 2634 466 
Q 2438 156 2169 18 
Q 1900 -119 1553 -119 
Q 994 -119 584 351 
Q 175 822 175 1603 
Q 175 2334 548 2870 
Q 922 3406 1616 3406 
z
" transform="scale(0.015625)"/>
     <path id="Helvetica-20" d="M 3547 2569 
L 3547 2044 
L 288 2044 
L 288 2569 
L 3547 2569 
z
M 3547 1228 
L 3547 694 
L 288 694 
L 288 1228 
L 3547 1228 
z
" transform="scale(0.015625)"/>
     <path id="Helvetica-1e" d="M 709 -653 
Q 928 -613 1013 -363 
Q 1056 -231 1056 -75 
Q 1056 -59 1054 -48 
Q 1053 -38 1050 0 
L 709 0 
L 709 681 
L 1375 681 
L 1375 50 
Q 1375 -284 1278 -509 
Q 1116 -878 709 -950 
L 709 -653 
z
M 709 3303 
L 1375 3303 
L 1375 2622 
L 709 2622 
L 709 3303 
z
" transform="scale(0.015625)"/>
     <path id="Helvetica-443" d="M 922 500 
L 3672 500 
L 2278 3941 
L 922 500 
z
M 1966 4519 
L 2631 4519 
L 4494 0 
L 128 0 
L 1966 4519 
z
" transform="scale(0.015625)"/>
     <path id="Helvetica-4a" d="M 1594 3406 
Q 1988 3406 2281 3213 
Q 2441 3103 2606 2894 
L 2606 3316 
L 3125 3316 
L 3125 272 
Q 3125 -366 2938 -734 
Q 2588 -1416 1616 -1416 
Q 1075 -1416 706 -1173 
Q 338 -931 294 -416 
L 866 -416 
Q 906 -641 1028 -763 
Q 1219 -950 1628 -950 
Q 2275 -950 2475 -494 
Q 2594 -225 2584 466 
Q 2416 209 2178 84 
Q 1941 -41 1550 -41 
Q 1006 -41 598 345 
Q 191 731 191 1622 
Q 191 2463 602 2934 
Q 1013 3406 1594 3406 
z
M 2606 1688 
Q 2606 2309 2350 2609 
Q 2094 2909 1697 2909 
Q 1103 2909 884 2353 
Q 769 2056 769 1575 
Q 769 1009 998 714 
Q 1228 419 1616 419 
Q 2222 419 2469 966 
Q 2606 1275 2606 1688 
z
M 1659 3428 
L 1659 3428 
z
" transform="scale(0.015625)"/>
     <path id="Helvetica-27" d="M 2250 531 
Q 2566 531 2769 597 
Q 3131 719 3363 1066 
Q 3547 1344 3628 1778 
Q 3675 2038 3675 2259 
Q 3675 3113 3336 3584 
Q 2997 4056 2244 4056 
L 1141 4056 
L 1141 531 
L 2250 531 
z
M 516 4591 
L 2375 4591 
Q 3322 4591 3844 3919 
Q 4309 3313 4309 2366 
Q 4309 1634 4034 1044 
Q 3550 0 2369 0 
L 516 0 
L 516 4591 
z
" transform="scale(0.015625)"/>
     <path id="Helvetica-2f" d="M 488 4591 
L 1109 4591 
L 1109 547 
L 3434 547 
L 3434 0 
L 488 0 
L 488 4591 
z
" transform="scale(0.015625)"/>
    </defs>
    <use xlink:href="#Helvetica-32"/>
    <use xlink:href="#Helvetica-53" transform="translate(77.78125 0)"/>
    <use xlink:href="#Helvetica-57" transform="translate(133.390625 0)"/>
    <use xlink:href="#Helvetica-4c" transform="translate(161.171875 0)"/>
    <use xlink:href="#Helvetica-50" transform="translate(183.390625 0)"/>
    <use xlink:href="#Helvetica-4c" transform="translate(266.6875 0)"/>
    <use xlink:href="#Helvetica-56" transform="translate(288.90625 0)"/>
    <use xlink:href="#Helvetica-50" transform="translate(338.90625 0)"/>
    <use xlink:href="#Helvetica-10" transform="translate(422.203125 0)"/>
    <use xlink:href="#Helvetica-46" transform="translate(455.5 0)"/>
    <use xlink:href="#Helvetica-52" transform="translate(505.5 0)"/>
    <use xlink:href="#Helvetica-55" transform="translate(561.109375 0)"/>
    <use xlink:href="#Helvetica-55" transform="translate(594.40625 0)"/>
    <use xlink:href="#Helvetica-48" transform="translate(627.703125 0)"/>
    <use xlink:href="#Helvetica-46" transform="translate(683.3125 0)"/>
    <use xlink:href="#Helvetica-57" transform="translate(733.3125 0)"/>
    <use xlink:href="#Helvetica-48" transform="translate(761.09375 0)"/>
    <use xlink:href="#Helvetica-47" transform="translate(816.703125 0)"/>
    <use xlink:href="#Helvetica-3" transform="translate(872.3125 0)"/>
    <use xlink:href="#Helvetica-50" transform="translate(900.09375 0)"/>
    <use xlink:href="#Helvetica-58" transform="translate(983.390625 0)"/>
    <use xlink:href="#Helvetica-4f" transform="translate(1039 0)"/>
    <use xlink:href="#Helvetica-57" transform="translate(1061.21875 0)"/>
    <use xlink:href="#Helvetica-4c" transform="translate(1089 0)"/>
    <use xlink:href="#Helvetica-10" transform="translate(1111.21875 0)"/>
    <use xlink:href="#Helvetica-50" transform="translate(1144.515625 0)"/>
    <use xlink:href="#Helvetica-58" transform="translate(1227.8125 0)"/>
    <use xlink:href="#Helvetica-56" transform="translate(1283.421875 0)"/>
    <use xlink:href="#Helvetica-46" transform="translate(1333.421875 0)"/>
    <use xlink:href="#Helvetica-4f" transform="translate(1383.421875 0)"/>
    <use xlink:href="#Helvetica-48" transform="translate(1405.640625 0)"/>
    <use xlink:href="#Helvetica-3" transform="translate(1461.25 0)"/>
    <use xlink:href="#Helvetica-24" transform="translate(1483.5625 0)"/>
    <use xlink:href="#Helvetica-38" transform="translate(1550.265625 0)"/>
    <use xlink:href="#Helvetica-26" transform="translate(1622.484375 0)"/>
    <use xlink:href="#Helvetica-3" transform="translate(1694.703125 0)"/>
    <use xlink:href="#Helvetica-20" transform="translate(1722.484375 0)"/>
    <use xlink:href="#Helvetica-3" transform="translate(1780.890625 0)"/>
    <use xlink:href="#Helvetica-13" transform="translate(1808.671875 0)"/>
    <use xlink:href="#Helvetica-11" transform="translate(1864.28125 0)"/>
    <use xlink:href="#Helvetica-1a" transform="translate(1892.0625 0)"/>
    <use xlink:href="#Helvetica-1c" transform="translate(1947.671875 0)"/>
    <use xlink:href="#Helvetica-1e" transform="translate(2003.28125 0)"/>
    <use xlink:href="#Helvetica-3" transform="translate(2031.0625 0)"/>
    <use xlink:href="#Helvetica-443" transform="translate(2058.84375 0)"/>
    <use xlink:href="#Helvetica-24" transform="translate(2131.0625 0)"/>
    <use xlink:href="#Helvetica-38" transform="translate(2197.765625 0)"/>
    <use xlink:href="#Helvetica-26" transform="translate(2269.984375 0)"/>
    <use xlink:href="#Helvetica-3" transform="translate(2342.203125 0)"/>
    <use xlink:href="#Helvetica-59" transform="translate(2369.984375 0)"/>
    <use xlink:href="#Helvetica-56" transform="translate(2419.984375 0)"/>
    <use xlink:href="#Helvetica-3" transform="translate(2469.984375 0)"/>
    <use xlink:href="#Helvetica-46" transform="translate(2497.765625 0)"/>
    <use xlink:href="#Helvetica-4f" transform="translate(2547.765625 0)"/>
    <use xlink:href="#Helvetica-4c" transform="translate(2569.984375 0)"/>
    <use xlink:href="#Helvetica-51" transform="translate(2592.203125 0)"/>
    <use xlink:href="#Helvetica-4c" transform="translate(2647.8125 0)"/>
    <use xlink:href="#Helvetica-46" transform="translate(2670.03125 0)"/>
    <use xlink:href="#Helvetica-44" transform="translate(2720.03125 0)"/>
    <use xlink:href="#Helvetica-4f" transform="translate(2775.640625 0)"/>
    <use xlink:href="#Helvetica-3" transform="translate(2797.859375 0)"/>
    <use xlink:href="#Helvetica-51" transform="translate(2825.640625 0)"/>
    <use xlink:href="#Helvetica-52" transform="translate(2881.25 0)"/>
    <use xlink:href="#Helvetica-57" transform="translate(2936.859375 0)"/>
    <use xlink:href="#Helvetica-3" transform="translate(2964.640625 0)"/>
    <use xlink:href="#Helvetica-56" transform="translate(2992.421875 0)"/>
    <use xlink:href="#Helvetica-4c" transform="translate(3042.421875 0)"/>
    <use xlink:href="#Helvetica-4a" transform="translate(3064.640625 0)"/>
    <use xlink:href="#Helvetica-51" transform="translate(3120.25 0)"/>
    <use xlink:href="#Helvetica-4c" transform="translate(3175.859375 0)"/>
    <use xlink:href="#Helvetica-c0" transform="translate(3198.078125 0)"/>
    <use xlink:href="#Helvetica-46" transform="translate(3248.078125 0)"/>
    <use xlink:href="#Helvetica-44" transform="translate(3298.078125 0)"/>
    <use xlink:href="#Helvetica-51" transform="translate(3353.6875 0)"/>
    <use xlink:href="#Helvetica-57" transform="translate(3409.296875 0)"/>
    <use xlink:href="#Helvetica-3" transform="translate(3437.078125 0)"/>
    <use xlink:href="#Helvetica-b" transform="translate(3464.859375 0)"/>
    <use xlink:href="#Helvetica-27" transform="translate(3498.15625 0)"/>
    <use xlink:href="#Helvetica-48" transform="translate(3570.375 0)"/>
    <use xlink:href="#Helvetica-2f" transform="translate(3625.984375 0)"/>
    <use xlink:href="#Helvetica-52" transform="translate(3681.59375 0)"/>
    <use xlink:href="#Helvetica-51" transform="translate(3737.203125 0)"/>
    <use xlink:href="#Helvetica-4a" transform="translate(3792.8125 0)"/>
    <use xlink:href="#Helvetica-c" transform="translate(3848.421875 0)"/>
    <use xlink:href="#Helvetica-11" transform="translate(3881.71875 0)"/>
   </g>
  </g>
 </g>
 <defs>
  <clipPath id="p0f806b0098">
   <rect x="37.035" y="19.95" width="186.048" height="186.048"/>
  </clipPath>
 </defs>
</svg>
