<?xml version="1.0" encoding="utf-8" standalone="no"?>
<!DOCTYPE svg PUBLIC "-//W3C//DTD SVG 1.1//EN"
  "http://www.w3.org/Graphics/SVG/1.1/DTD/svg11.dtd">
<svg xmlns:xlink="http://www.w3.org/1999/xlink" width="410.032687pt" height="269.424pt" viewBox="0 0 410.032687 269.424" xmlns="http://www.w3.org/2000/svg" version="1.1">
 <metadata>
  <rdf:RDF xmlns:dc="http://purl.org/dc/elements/1.1/" xmlns:cc="http://creativecommons.org/ns#" xmlns:rdf="http://www.w3.org/1999/02/22-rdf-syntax-ns#">
   <cc:Work>
    <dc:type rdf:resource="http://purl.org/dc/dcmitype/StillImage"/>
    <dc:date>2026-07-08T20:32:38.481756</dc:date>
    <dc:format>image/svg+xml</dc:format>
    <dc:creator>
     <cc:Agent>
      <dc:title>Matplotlib v3.11.0, https://matplotlib.org/</dc:title>
     </cc:Agent>
    </dc:creator>
   </cc:Work>
  </rdf:RDF>
 </metadata>
 <defs>
  <style type="text/css">*{stroke-linejoin: round; stroke-linecap: butt}</style>
 </defs>
 <g id="figure_1">
  <g id="patch_1">
   <path d="M 0 269.424 
L 410.032687 269.424 
L 410.032687 0 
L 0 0 
z
" style="fill: #ffffff"/>
  </g>
  <g id="axes_1">
   <g id="patch_2">
    <path d="M 25.513087 110.739744 
L 131.756288 110.739744 
Q 135.662288 110.739744 135.662288 108.189504 
L 135.662288 38.822976 
Q 135.662288 36.272736 131.756288 36.272736 
L 25.513087 36.272736 
Q 21.607087 36.272736 21.607087 38.822976 
L 21.607087 108.189504 
Q 21.607087 110.739744 25.513087 110.739744 
z
" clip-path="url(#pe69332cbe5)" style="fill: #edf1f2; stroke: #374e55; stroke-linejoin: miter"/>
   </g>
   <g id="patch_3">
    <path d="M 25.513087 192.347424 
L 131.756288 192.347424 
Q 135.662288 192.347424 135.662288 189.797184 
L 135.662288 125.531136 
Q 135.662288 122.980896 131.756288 122.980896 
L 25.513087 122.980896 
Q 21.607087 122.980896 21.607087 125.531136 
L 21.607087 189.797184 
Q 21.607087 192.347424 25.513087 192.347424 
z
" clip-path="url(#pe69332cbe5)" style="fill: #eaf5fa; stroke: #00a1d5; stroke-linejoin: miter"/>
   </g>
   <g id="patch_4">
    <path d="M 154.411088 161.744544 
L 252.842287 161.744544 
Q 256.748288 161.744544 256.748288 159.194304 
L 256.748288 59.224896 
Q 256.748288 56.674656 252.842287 56.674656 
L 154.411088 56.674656 
Q 150.505088 56.674656 150.505088 59.224896 
L 150.505088 159.194304 
Q 150.505088 161.744544 154.411088 161.744544 
z
" clip-path="url(#pe69332cbe5)" style="fill: #fbf1e6; stroke: #df8f44; stroke-linejoin: miter"/>
   </g>
   <g id="patch_5">
    <path d="M 279.403088 85.237344 
L 389.552288 85.237344 
Q 393.458287 85.237344 393.458287 82.687104 
L 393.458287 33.722496 
Q 393.458287 31.172256 389.552288 31.172256 
L 279.403088 31.172256 
Q 275.497088 31.172256 275.497088 33.722496 
L 275.497088 82.687104 
Q 275.497088 85.237344 279.403088 85.237344 
z
" clip-path="url(#pe69332cbe5)" style="fill: #ffffff; stroke: #374e55; stroke-linejoin: miter"/>
   </g>
   <g id="patch_6">
    <path d="M 279.403088 151.543584 
L 389.552288 151.543584 
Q 393.458287 151.543584 393.458287 148.993344 
L 393.458287 100.028736 
Q 393.458287 97.478496 389.552288 97.478496 
L 279.403088 97.478496 
Q 275.497088 97.478496 275.497088 100.028736 
L 275.497088 148.993344 
Q 275.497088 151.543584 279.403088 151.543584 
z
" clip-path="url(#pe69332cbe5)" style="fill: #ffffff; stroke: #79af97; stroke-linejoin: miter"/>
   </g>
   <g id="patch_7">
    <path d="M 279.403088 217.849824 
L 389.552288 217.849824 
Q 393.458287 217.849824 393.458287 215.299584 
L 393.458287 166.334976 
Q 393.458287 163.784736 389.552288 163.784736 
L 279.403088 163.784736 
Q 275.497088 163.784736 275.497088 166.334976 
L 275.497088 215.299584 
Q 275.497088 217.849824 279.403088 217.849824 
z
" clip-path="url(#pe69332cbe5)" style="fill: #ffffff; stroke: #00a1d5; stroke-linejoin: miter"/>
   </g>
   <g id="text_1">
    <!-- Covariate specification and model building -->
    <g style="fill: #374e55" transform="translate(95.385109 16.12584) scale(0.11 -0.11)">
     <defs>
      <path id="Helvetica-Bold-26" d="M 3738 344 
Q 3222 -128 2419 -128 
Q 1425 -128 856 509 
Q 288 1150 288 2266 
Q 288 3472 934 4125 
Q 1497 4694 2366 4694 
Q 3528 4694 4066 3931 
Q 4363 3503 4384 3072 
L 3422 3072 
Q 3328 3403 3181 3572 
Q 2919 3872 2403 3872 
Q 1878 3872 1575 3448 
Q 1272 3025 1272 2250 
Q 1272 1475 1592 1089 
Q 1913 703 2406 703 
Q 2913 703 3178 1034 
Q 3325 1213 3422 1569 
L 4375 1569 
Q 4250 816 3738 344 
z
" transform="scale(0.015625)"/>
      <path id="Helvetica-Bold-52" d="M 3256 2975 
Q 3688 2434 3688 1697 
Q 3688 947 3256 414 
Q 2825 -119 1947 -119 
Q 1069 -119 637 414 
Q 206 947 206 1697 
Q 206 2434 637 2975 
Q 1069 3516 1947 3516 
Q 2825 3516 3256 2975 
z
M 1944 2763 
Q 1553 2763 1342 2486 
Q 1131 2209 1131 1697 
Q 1131 1184 1342 906 
Q 1553 628 1944 628 
Q 2334 628 2543 906 
Q 2753 1184 2753 1697 
Q 2753 2209 2543 2486 
Q 2334 2763 1944 2763 
z
" transform="scale(0.015625)"/>
      <path id="Helvetica-Bold-59" d="M 81 3406 
L 1081 3406 
L 1791 894 
L 2516 3406 
L 3472 3406 
L 2244 0 
L 1303 0 
L 81 3406 
z
" transform="scale(0.015625)"/>
      <path id="Helvetica-Bold-44" d="M 544 3038 
Q 897 3488 1756 3488 
Q 2316 3488 2750 3266 
Q 3184 3044 3184 2428 
L 3184 866 
Q 3184 703 3191 472 
Q 3200 297 3244 234 
Q 3288 172 3375 131 
L 3375 0 
L 2406 0 
Q 2366 103 2350 193 
Q 2334 284 2325 400 
Q 2141 200 1900 59 
Q 1613 -106 1250 -106 
Q 788 -106 486 158 
Q 184 422 184 906 
Q 184 1534 669 1816 
Q 934 1969 1450 2034 
L 1753 2072 
Q 2000 2103 2106 2150 
Q 2297 2231 2297 2403 
Q 2297 2613 2151 2692 
Q 2006 2772 1725 2772 
Q 1409 2772 1278 2616 
Q 1184 2500 1153 2303 
L 294 2303 
Q 322 2750 544 3038 
z
M 1206 644 
Q 1331 541 1513 541 
Q 1800 541 2042 709 
Q 2284 878 2294 1325 
L 2294 1656 
Q 2209 1603 2123 1570 
Q 2038 1538 1888 1509 
L 1688 1472 
Q 1406 1422 1284 1350 
Q 1078 1228 1078 972 
Q 1078 744 1206 644 
z
" transform="scale(0.015625)"/>
      <path id="Helvetica-Bold-55" d="M 2128 2584 
Q 1591 2584 1406 2234 
Q 1303 2038 1303 1628 
L 1303 0 
L 406 0 
L 406 3406 
L 1256 3406 
L 1256 2813 
Q 1463 3153 1616 3278 
Q 1866 3488 2266 3488 
Q 2291 3488 2308 3486 
Q 2325 3484 2384 3481 
L 2384 2569 
Q 2300 2578 2234 2581 
Q 2169 2584 2128 2584 
z
" transform="scale(0.015625)"/>
      <path id="Helvetica-Bold-4c" d="M 1331 3406 
L 1331 0 
L 428 0 
L 428 3406 
L 1331 3406 
z
M 1331 4634 
L 1331 3813 
L 428 3813 
L 428 4634 
L 1331 4634 
z
" transform="scale(0.015625)"/>
      <path id="Helvetica-Bold-57" d="M 1975 634 
L 1975 -31 
L 1553 -47 
Q 922 -69 691 172 
Q 541 325 541 644 
L 541 2741 
L 66 2741 
L 66 3375 
L 541 3375 
L 541 4325 
L 1422 4325 
L 1422 3375 
L 1975 3375 
L 1975 2741 
L 1422 2741 
L 1422 941 
Q 1422 731 1475 679 
Q 1528 628 1800 628 
Q 1841 628 1886 629 
Q 1931 631 1975 634 
z
" transform="scale(0.015625)"/>
      <path id="Helvetica-Bold-48" d="M 3331 1000 
Q 3297 697 3016 384 
Q 2578 -113 1791 -113 
Q 1141 -113 644 306 
Q 147 725 147 1669 
Q 147 2553 595 3025 
Q 1044 3497 1759 3497 
Q 2184 3497 2525 3337 
Q 2866 3178 3088 2834 
Q 3288 2531 3347 2131 
Q 3381 1897 3375 1456 
L 1044 1456 
Q 1063 944 1366 738 
Q 1550 609 1809 609 
Q 2084 609 2256 766 
Q 2350 850 2422 1000 
L 3331 1000 
z
M 2450 2044 
Q 2428 2397 2236 2580 
Q 2044 2763 1759 2763 
Q 1450 2763 1279 2569 
Q 1109 2375 1066 2044 
L 2450 2044 
z
" transform="scale(0.015625)"/>
      <path id="Helvetica-Bold-3" transform="scale(0.015625)"/>
      <path id="Helvetica-Bold-56" d="M 2763 3250 
Q 3163 2994 3222 2369 
L 2331 2369 
Q 2313 2541 2234 2641 
Q 2088 2822 1734 2822 
Q 1444 2822 1320 2731 
Q 1197 2641 1197 2519 
Q 1197 2366 1328 2297 
Q 1459 2225 2256 2050 
Q 2788 1925 3053 1672 
Q 3316 1416 3316 1031 
Q 3316 525 2939 204 
Q 2563 -116 1775 -116 
Q 972 -116 589 223 
Q 206 563 206 1088 
L 1109 1088 
Q 1138 850 1231 750 
Q 1397 572 1844 572 
Q 2106 572 2261 650 
Q 2416 728 2416 884 
Q 2416 1034 2291 1113 
Q 2166 1191 1363 1381 
Q 784 1525 547 1741 
Q 309 1953 309 2353 
Q 309 2825 679 3164 
Q 1050 3503 1722 3503 
Q 2359 3503 2763 3250 
z
" transform="scale(0.015625)"/>
      <path id="Helvetica-Bold-53" d="M 3269 3041 
Q 3681 2600 3681 1747 
Q 3681 847 3276 375 
Q 2872 -97 2234 -97 
Q 1828 -97 1559 106 
Q 1413 219 1272 434 
L 1272 -1341 
L 391 -1341 
L 391 3406 
L 1244 3406 
L 1244 2903 
Q 1388 3125 1550 3253 
Q 1847 3481 2256 3481 
Q 2853 3481 3269 3041 
z
M 2763 1703 
Q 2763 2097 2583 2400 
Q 2403 2703 2000 2703 
Q 1516 2703 1334 2244 
Q 1241 2000 1241 1625 
Q 1241 1031 1556 791 
Q 1744 650 2000 650 
Q 2372 650 2567 937 
Q 2763 1225 2763 1703 
z
" transform="scale(0.015625)"/>
      <path id="Helvetica-Bold-46" d="M 3363 2184 
L 2450 2184 
Q 2425 2375 2322 2528 
Q 2172 2734 1856 2734 
Q 1406 2734 1241 2288 
Q 1153 2050 1153 1656 
Q 1153 1281 1241 1053 
Q 1400 628 1841 628 
Q 2153 628 2284 797 
Q 2416 966 2444 1234 
L 3353 1234 
Q 3322 828 3059 466 
Q 2641 -119 1819 -119 
Q 997 -119 609 368 
Q 222 856 222 1634 
Q 222 2513 650 3000 
Q 1078 3488 1831 3488 
Q 2472 3488 2880 3200 
Q 3288 2913 3363 2184 
z
" transform="scale(0.015625)"/>
      <path id="Helvetica-Bold-c0" d="M 1472 0 
L 584 0 
L 584 2747 
L 88 2747 
L 88 3375 
L 575 3375 
L 575 3594 
Q 575 4138 816 4403 
Q 1031 4653 1694 4653 
Q 1775 4653 1859 4647 
Q 1944 4641 2034 4634 
L 2034 3909 
Q 1972 3913 1912 3914 
Q 1853 3916 1769 3916 
Q 1559 3916 1512 3800 
Q 1466 3684 1472 3438 
L 1472 3375 
L 2056 3375 
L 2056 2747 
L 1472 2747 
L 1472 0 
z
M 3472 3391 
L 3472 0 
L 2584 0 
L 2584 3391 
L 3472 3391 
z
M 2584 3822 
L 2584 4634 
L 3456 4634 
L 3456 3822 
L 2584 3822 
z
" transform="scale(0.015625)"/>
      <path id="Helvetica-Bold-51" d="M 2019 2747 
Q 1566 2747 1397 2363 
Q 1309 2159 1309 1844 
L 1309 0 
L 422 0 
L 422 3400 
L 1281 3400 
L 1281 2903 
Q 1453 3166 1606 3281 
Q 1881 3488 2303 3488 
Q 2831 3488 3167 3211 
Q 3503 2934 3503 2294 
L 3503 0 
L 2591 0 
L 2591 2072 
Q 2591 2341 2519 2484 
Q 2388 2747 2019 2747 
z
" transform="scale(0.015625)"/>
      <path id="Helvetica-Bold-47" d="M 3516 4600 
L 3516 0 
L 2650 0 
L 2650 472 
Q 2459 169 2215 31 
Q 1972 -106 1609 -106 
Q 1013 -106 605 376 
Q 197 859 197 1616 
Q 197 2488 598 2988 
Q 1000 3488 1672 3488 
Q 1981 3488 2222 3352 
Q 2463 3216 2613 2975 
L 2613 4600 
L 3516 4600 
z
M 1116 1681 
Q 1116 1209 1303 928 
Q 1488 644 1866 644 
Q 2244 644 2441 925 
Q 2638 1206 2638 1653 
Q 2638 2278 2322 2547 
Q 2128 2709 1872 2709 
Q 1481 2709 1298 2414 
Q 1116 2119 1116 1681 
z
" transform="scale(0.015625)"/>
      <path id="Helvetica-Bold-50" d="M 2328 2469 
Q 2216 2716 1888 2716 
Q 1506 2716 1375 2469 
Q 1303 2328 1303 2050 
L 1303 0 
L 400 0 
L 400 3400 
L 1266 3400 
L 1266 2903 
Q 1431 3169 1578 3281 
Q 1838 3481 2250 3481 
Q 2641 3481 2881 3309 
Q 3075 3150 3175 2900 
Q 3350 3200 3609 3341 
Q 3884 3481 4222 3481 
Q 4447 3481 4665 3393 
Q 4884 3306 5063 3088 
Q 5206 2909 5256 2650 
Q 5288 2478 5288 2147 
L 5281 0 
L 4369 0 
L 4369 2169 
Q 4369 2363 4306 2488 
Q 4188 2725 3869 2725 
Q 3500 2725 3359 2419 
Q 3288 2256 3288 2028 
L 3288 0 
L 2391 0 
L 2391 2028 
Q 2391 2331 2328 2469 
z
" transform="scale(0.015625)"/>
      <path id="Helvetica-Bold-4f" d="M 434 4606 
L 1325 4606 
L 1325 0 
L 434 0 
L 434 4606 
z
" transform="scale(0.015625)"/>
      <path id="Helvetica-Bold-45" d="M 2266 -91 
Q 1844 -91 1588 78 
Q 1434 178 1256 428 
L 1256 0 
L 384 0 
L 384 4600 
L 1272 4600 
L 1272 2963 
Q 1441 3200 1644 3325 
Q 1884 3481 2256 3481 
Q 2928 3481 3308 2997 
Q 3688 2513 3688 1747 
Q 3688 953 3313 431 
Q 2938 -91 2266 -91 
z
M 2753 1653 
Q 2753 2016 2659 2253 
Q 2481 2703 2003 2703 
Q 1519 2703 1338 2263 
Q 1244 2028 1244 1656 
Q 1244 1219 1437 931 
Q 1631 644 2028 644 
Q 2372 644 2562 922 
Q 2753 1200 2753 1653 
z
" transform="scale(0.015625)"/>
      <path id="Helvetica-Bold-58" d="M 2600 481 
Q 2588 466 2538 387 
Q 2488 309 2419 250 
Q 2209 63 2014 -6 
Q 1819 -75 1556 -75 
Q 800 -75 538 469 
Q 391 769 391 1353 
L 391 3406 
L 1303 3406 
L 1303 1353 
Q 1303 1063 1372 916 
Q 1494 656 1850 656 
Q 2306 656 2475 1025 
Q 2563 1225 2563 1553 
L 2563 3406 
L 3466 3406 
L 3466 0 
L 2600 0 
L 2600 481 
z
" transform="scale(0.015625)"/>
      <path id="Helvetica-Bold-4a" d="M 1378 -597 
Q 1522 -719 1863 -719 
Q 2344 -719 2506 -397 
Q 2613 -191 2613 297 
L 2613 516 
Q 2484 297 2338 188 
Q 2072 -16 1647 -16 
Q 991 -16 598 445 
Q 206 906 206 1694 
Q 206 2453 584 2970 
Q 963 3488 1656 3488 
Q 1913 3488 2103 3409 
Q 2428 3275 2628 2916 
L 2628 3406 
L 3494 3406 
L 3494 175 
Q 3494 -484 3272 -819 
Q 2891 -1394 1809 -1394 
Q 1156 -1394 743 -1137 
Q 331 -881 288 -372 
L 1256 -372 
Q 1294 -528 1378 -597 
z
M 1228 1163 
Q 1409 731 1878 731 
Q 2191 731 2406 967 
Q 2622 1203 2622 1719 
Q 2622 2203 2417 2456 
Q 2213 2709 1869 2709 
Q 1400 2709 1222 2269 
Q 1128 2034 1128 1691 
Q 1128 1394 1228 1163 
z
" transform="scale(0.015625)"/>
     </defs>
     <use xlink:href="#Helvetica-Bold-26"/>
     <use xlink:href="#Helvetica-Bold-52" transform="translate(72.21875 0)"/>
     <use xlink:href="#Helvetica-Bold-59" transform="translate(133.296875 0)"/>
     <use xlink:href="#Helvetica-Bold-44" transform="translate(188.90625 0)"/>
     <use xlink:href="#Helvetica-Bold-55" transform="translate(244.515625 0)"/>
     <use xlink:href="#Helvetica-Bold-4c" transform="translate(283.4375 0)"/>
     <use xlink:href="#Helvetica-Bold-44" transform="translate(311.21875 0)"/>
     <use xlink:href="#Helvetica-Bold-57" transform="translate(366.828125 0)"/>
     <use xlink:href="#Helvetica-Bold-48" transform="translate(400.125 0)"/>
     <use xlink:href="#Helvetica-Bold-3" transform="translate(455.734375 0)"/>
     <use xlink:href="#Helvetica-Bold-56" transform="translate(483.515625 0)"/>
     <use xlink:href="#Helvetica-Bold-53" transform="translate(539.125 0)"/>
     <use xlink:href="#Helvetica-Bold-48" transform="translate(600.203125 0)"/>
     <use xlink:href="#Helvetica-Bold-46" transform="translate(655.8125 0)"/>
     <use xlink:href="#Helvetica-Bold-4c" transform="translate(711.421875 0)"/>
     <use xlink:href="#Helvetica-Bold-c0" transform="translate(739.203125 0)"/>
     <use xlink:href="#Helvetica-Bold-46" transform="translate(800.28125 0)"/>
     <use xlink:href="#Helvetica-Bold-44" transform="translate(855.890625 0)"/>
     <use xlink:href="#Helvetica-Bold-57" transform="translate(911.5 0)"/>
     <use xlink:href="#Helvetica-Bold-4c" transform="translate(944.796875 0)"/>
     <use xlink:href="#Helvetica-Bold-52" transform="translate(972.578125 0)"/>
     <use xlink:href="#Helvetica-Bold-51" transform="translate(1033.65625 0)"/>
     <use xlink:href="#Helvetica-Bold-3" transform="translate(1094.734375 0)"/>
     <use xlink:href="#Helvetica-Bold-44" transform="translate(1122.515625 0)"/>
     <use xlink:href="#Helvetica-Bold-51" transform="translate(1178.125 0)"/>
     <use xlink:href="#Helvetica-Bold-47" transform="translate(1239.203125 0)"/>
     <use xlink:href="#Helvetica-Bold-3" transform="translate(1300.28125 0)"/>
     <use xlink:href="#Helvetica-Bold-50" transform="translate(1328.0625 0)"/>
     <use xlink:href="#Helvetica-Bold-52" transform="translate(1416.984375 0)"/>
     <use xlink:href="#Helvetica-Bold-47" transform="translate(1478.0625 0)"/>
     <use xlink:href="#Helvetica-Bold-48" transform="translate(1539.140625 0)"/>
     <use xlink:href="#Helvetica-Bold-4f" transform="translate(1594.75 0)"/>
     <use xlink:href="#Helvetica-Bold-3" transform="translate(1622.53125 0)"/>
     <use xlink:href="#Helvetica-Bold-45" transform="translate(1650.3125 0)"/>
     <use xlink:href="#Helvetica-Bold-58" transform="translate(1711.390625 0)"/>
     <use xlink:href="#Helvetica-Bold-4c" transform="translate(1772.46875 0)"/>
     <use xlink:href="#Helvetica-Bold-4f" transform="translate(1800.25 0)"/>
     <use xlink:href="#Helvetica-Bold-47" transform="translate(1828.03125 0)"/>
     <use xlink:href="#Helvetica-Bold-4c" transform="translate(1889.109375 0)"/>
     <use xlink:href="#Helvetica-Bold-51" transform="translate(1916.890625 0)"/>
     <use xlink:href="#Helvetica-Bold-4a" transform="translate(1977.96875 0)"/>
    </g>
   </g>
   <g id="text_2">
    <!-- Candidate pool -->
    <g transform="translate(54.417375 47.503552) scale(0.072 -0.072)">
     <defs>
      <path id="Helvetica-26" d="M 2422 4716 
Q 3294 4716 3775 4256 
Q 4256 3797 4309 3213 
L 3703 3213 
Q 3600 3656 3292 3915 
Q 2984 4175 2428 4175 
Q 1750 4175 1333 3698 
Q 916 3222 916 2238 
Q 916 1431 1292 929 
Q 1669 428 2416 428 
Q 3103 428 3463 956 
Q 3653 1234 3747 1688 
L 4353 1688 
Q 4272 963 3816 472 
Q 3269 -119 2341 -119 
Q 1541 -119 997 366 
Q 281 1006 281 2344 
Q 281 3359 819 4009 
Q 1400 4716 2422 4716 
z
M 2297 4716 
L 2297 4716 
z
" transform="scale(0.015625)"/>
      <path id="Helvetica-44" d="M 844 891 
Q 844 647 1022 506 
Q 1200 366 1444 366 
Q 1741 366 2019 503 
Q 2488 731 2488 1250 
L 2488 1703 
Q 2384 1638 2221 1594 
Q 2059 1550 1903 1531 
L 1563 1488 
Q 1256 1447 1103 1359 
Q 844 1213 844 891 
z
M 2206 2028 
Q 2400 2053 2466 2191 
Q 2503 2266 2503 2406 
Q 2503 2694 2298 2823 
Q 2094 2953 1713 2953 
Q 1272 2953 1088 2716 
Q 984 2584 953 2325 
L 428 2325 
Q 444 2944 830 3186 
Q 1216 3428 1725 3428 
Q 2316 3428 2684 3203 
Q 3050 2978 3050 2503 
L 3050 575 
Q 3050 488 3086 434 
Q 3122 381 3238 381 
Q 3275 381 3322 386 
Q 3369 391 3422 400 
L 3422 -16 
Q 3291 -53 3222 -62 
Q 3153 -72 3034 -72 
Q 2744 -72 2613 134 
Q 2544 244 2516 444 
Q 2344 219 2022 53 
Q 1700 -113 1313 -113 
Q 847 -113 551 170 
Q 256 453 256 878 
Q 256 1344 547 1600 
Q 838 1856 1309 1916 
L 2206 2028 
z
M 1741 3428 
L 1741 3428 
z
" transform="scale(0.015625)"/>
      <path id="Helvetica-51" d="M 413 3347 
L 947 3347 
L 947 2872 
Q 1184 3166 1450 3294 
Q 1716 3422 2041 3422 
Q 2753 3422 3003 2925 
Q 3141 2653 3141 2147 
L 3141 0 
L 2569 0 
L 2569 2109 
Q 2569 2416 2478 2603 
Q 2328 2916 1934 2916 
Q 1734 2916 1606 2875 
Q 1375 2806 1200 2600 
Q 1059 2434 1017 2257 
Q 975 2081 975 1753 
L 975 0 
L 413 0 
L 413 3347 
z
M 1734 3428 
L 1734 3428 
z
" transform="scale(0.015625)"/>
      <path id="Helvetica-47" d="M 769 1634 
Q 769 1097 997 734 
Q 1225 372 1728 372 
Q 2119 372 2370 708 
Q 2622 1044 2622 1672 
Q 2622 2306 2362 2611 
Q 2103 2916 1722 2916 
Q 1297 2916 1033 2591 
Q 769 2266 769 1634 
z
M 1616 3406 
Q 2000 3406 2259 3244 
Q 2409 3150 2600 2916 
L 2600 4606 
L 3141 4606 
L 3141 0 
L 2634 0 
L 2634 466 
Q 2438 156 2169 18 
Q 1900 -119 1553 -119 
Q 994 -119 584 351 
Q 175 822 175 1603 
Q 175 2334 548 2870 
Q 922 3406 1616 3406 
z
" transform="scale(0.015625)"/>
      <path id="Helvetica-4c" d="M 413 3331 
L 984 3331 
L 984 0 
L 413 0 
L 413 3331 
z
M 413 4591 
L 984 4591 
L 984 3953 
L 413 3953 
L 413 4591 
z
" transform="scale(0.015625)"/>
      <path id="Helvetica-57" d="M 525 4281 
L 1094 4281 
L 1094 3347 
L 1628 3347 
L 1628 2888 
L 1094 2888 
L 1094 703 
Q 1094 528 1213 469 
Q 1278 434 1431 434 
Q 1472 434 1519 436 
Q 1566 438 1628 444 
L 1628 0 
Q 1531 -28 1426 -40 
Q 1322 -53 1200 -53 
Q 806 -53 665 148 
Q 525 350 525 672 
L 525 2888 
L 72 2888 
L 72 3347 
L 525 3347 
L 525 4281 
z
" transform="scale(0.015625)"/>
      <path id="Helvetica-48" d="M 1806 3422 
Q 2163 3422 2497 3255 
Q 2831 3088 3006 2822 
Q 3175 2569 3231 2231 
Q 3281 2000 3281 1494 
L 828 1494 
Q 844 984 1069 676 
Q 1294 369 1766 369 
Q 2206 369 2469 659 
Q 2619 828 2681 1050 
L 3234 1050 
Q 3213 866 3089 639 
Q 2966 413 2813 269 
Q 2556 19 2178 -69 
Q 1975 -119 1719 -119 
Q 1094 -119 659 336 
Q 225 791 225 1609 
Q 225 2416 662 2919 
Q 1100 3422 1806 3422 
z
M 2703 1941 
Q 2669 2306 2544 2525 
Q 2313 2931 1772 2931 
Q 1384 2931 1121 2651 
Q 859 2372 844 1941 
L 2703 1941 
z
M 1753 3428 
L 1753 3428 
z
" transform="scale(0.015625)"/>
      <path id="Helvetica-3" transform="scale(0.015625)"/>
      <path id="Helvetica-53" d="M 1825 378 
Q 2219 378 2480 708 
Q 2741 1038 2741 1694 
Q 2741 2094 2625 2381 
Q 2406 2934 1825 2934 
Q 1241 2934 1025 2350 
Q 909 2038 909 1556 
Q 909 1169 1025 897 
Q 1244 378 1825 378 
z
M 369 3331 
L 916 3331 
L 916 2888 
Q 1084 3116 1284 3241 
Q 1569 3428 1953 3428 
Q 2522 3428 2919 2992 
Q 3316 2556 3316 1747 
Q 3316 653 2744 184 
Q 2381 -113 1900 -113 
Q 1522 -113 1266 53 
Q 1116 147 931 375 
L 931 -1334 
L 369 -1334 
L 369 3331 
z
" transform="scale(0.015625)"/>
      <path id="Helvetica-52" d="M 1741 363 
Q 2300 363 2508 786 
Q 2716 1209 2716 1728 
Q 2716 2197 2566 2491 
Q 2328 2953 1747 2953 
Q 1231 2953 997 2559 
Q 763 2166 763 1609 
Q 763 1075 997 719 
Q 1231 363 1741 363 
z
M 1763 3444 
Q 2409 3444 2856 3012 
Q 3303 2581 3303 1744 
Q 3303 934 2909 406 
Q 2516 -122 1688 -122 
Q 997 -122 590 345 
Q 184 813 184 1600 
Q 184 2444 612 2944 
Q 1041 3444 1763 3444 
z
M 1744 3428 
L 1744 3428 
z
" transform="scale(0.015625)"/>
      <path id="Helvetica-4f" d="M 428 4591 
L 991 4591 
L 991 0 
L 428 0 
L 428 4591 
z
" transform="scale(0.015625)"/>
     </defs>
     <use xlink:href="#Helvetica-26"/>
     <use xlink:href="#Helvetica-44" transform="translate(72.21875 0)"/>
     <use xlink:href="#Helvetica-51" transform="translate(127.828125 0)"/>
     <use xlink:href="#Helvetica-47" transform="translate(183.4375 0)"/>
     <use xlink:href="#Helvetica-4c" transform="translate(239.046875 0)"/>
     <use xlink:href="#Helvetica-47" transform="translate(261.265625 0)"/>
     <use xlink:href="#Helvetica-44" transform="translate(316.875 0)"/>
     <use xlink:href="#Helvetica-57" transform="translate(372.484375 0)"/>
     <use xlink:href="#Helvetica-48" transform="translate(400.265625 0)"/>
     <use xlink:href="#Helvetica-3" transform="translate(455.875 0)"/>
     <use xlink:href="#Helvetica-53" transform="translate(483.65625 0)"/>
     <use xlink:href="#Helvetica-52" transform="translate(539.265625 0)"/>
     <use xlink:href="#Helvetica-52" transform="translate(594.875 0)"/>
     <use xlink:href="#Helvetica-4f" transform="translate(650.484375 0)"/>
    </g>
    <!-- (pre-specified) -->
    <g transform="translate(55.628438 54.618756) scale(0.072 -0.072)">
     <defs>
      <path id="Helvetica-b" d="M 1894 4666 
Q 1403 3713 1256 3263 
Q 1034 2578 1034 1681 
Q 1034 775 1288 25 
Q 1444 -438 1903 -1306 
L 1525 -1306 
Q 1069 -594 959 -397 
Q 850 -200 722 138 
Q 547 600 478 1125 
Q 444 1397 444 1644 
Q 444 2569 734 3291 
Q 919 3750 1503 4666 
L 1894 4666 
z
" transform="scale(0.015625)"/>
      <path id="Helvetica-55" d="M 428 3347 
L 963 3347 
L 963 2769 
Q 1028 2938 1284 3180 
Q 1541 3422 1875 3422 
Q 1891 3422 1928 3419 
Q 1966 3416 2056 3406 
L 2056 2813 
Q 2006 2822 1964 2825 
Q 1922 2828 1872 2828 
Q 1447 2828 1219 2554 
Q 991 2281 991 1925 
L 991 0 
L 428 0 
L 428 3347 
z
" transform="scale(0.015625)"/>
      <path id="Helvetica-10" d="M 266 2072 
L 1834 2072 
L 1834 1494 
L 266 1494 
L 266 2072 
z
" transform="scale(0.015625)"/>
      <path id="Helvetica-56" d="M 747 1050 
Q 772 769 888 619 
Q 1100 347 1625 347 
Q 1938 347 2175 483 
Q 2413 619 2413 903 
Q 2413 1119 2222 1231 
Q 2100 1300 1741 1391 
L 1294 1503 
Q 866 1609 663 1741 
Q 300 1969 300 2372 
Q 300 2847 642 3140 
Q 984 3434 1563 3434 
Q 2319 3434 2653 2991 
Q 2863 2709 2856 2384 
L 2325 2384 
Q 2309 2575 2191 2731 
Q 1997 2953 1519 2953 
Q 1200 2953 1036 2831 
Q 872 2709 872 2509 
Q 872 2291 1088 2159 
Q 1213 2081 1456 2022 
L 1828 1931 
Q 2434 1784 2641 1647 
Q 2969 1431 2969 969 
Q 2969 522 2630 197 
Q 2291 -128 1597 -128 
Q 850 -128 539 211 
Q 228 550 206 1050 
L 747 1050 
z
M 1578 3428 
L 1578 3428 
z
" transform="scale(0.015625)"/>
      <path id="Helvetica-46" d="M 1703 3444 
Q 2269 3444 2623 3169 
Q 2978 2894 3050 2222 
L 2503 2222 
Q 2453 2531 2275 2736 
Q 2097 2941 1703 2941 
Q 1166 2941 934 2416 
Q 784 2075 784 1575 
Q 784 1072 996 728 
Q 1209 384 1666 384 
Q 2016 384 2220 598 
Q 2425 813 2503 1184 
L 3050 1184 
Q 2956 519 2581 211 
Q 2206 -97 1622 -97 
Q 966 -97 575 383 
Q 184 863 184 1581 
Q 184 2463 612 2953 
Q 1041 3444 1703 3444 
z
M 1616 3428 
L 1616 3428 
z
" transform="scale(0.015625)"/>
      <path id="Helvetica-c0" d="M 553 3856 
Q 566 4206 675 4369 
Q 872 4656 1434 4656 
Q 1488 4656 1544 4653 
Q 1600 4650 1672 4644 
L 1672 4131 
Q 1584 4138 1545 4139 
Q 1506 4141 1472 4141 
Q 1216 4141 1166 4008 
Q 1116 3875 1116 3331 
L 1672 3331 
L 1672 2888 
L 1109 2888 
L 1109 0 
L 553 0 
L 553 2888 
L 88 2888 
L 88 3331 
L 553 3331 
L 553 3856 
z
M 2213 3953 
L 2213 4591 
L 2775 4591 
L 2775 3953 
L 2213 3953 
z
M 2213 3331 
L 2775 3331 
L 2775 0 
L 2213 0 
L 2213 3331 
z
" transform="scale(0.015625)"/>
      <path id="Helvetica-c" d="M 222 -1306 
Q 719 -338 863 106 
Q 1081 778 1081 1681 
Q 1081 2584 828 3334 
Q 672 3797 213 4666 
L 591 4666 
Q 1072 3897 1173 3717 
Q 1275 3538 1394 3222 
Q 1544 2831 1608 2450 
Q 1672 2069 1672 1716 
Q 1672 791 1378 66 
Q 1194 -400 613 -1306 
L 222 -1306 
z
" transform="scale(0.015625)"/>
     </defs>
     <use xlink:href="#Helvetica-b"/>
     <use xlink:href="#Helvetica-53" transform="translate(33.296875 0)"/>
     <use xlink:href="#Helvetica-55" transform="translate(88.90625 0)"/>
     <use xlink:href="#Helvetica-48" transform="translate(122.203125 0)"/>
     <use xlink:href="#Helvetica-10" transform="translate(177.8125 0)"/>
     <use xlink:href="#Helvetica-56" transform="translate(211.109375 0)"/>
     <use xlink:href="#Helvetica-53" transform="translate(261.109375 0)"/>
     <use xlink:href="#Helvetica-48" transform="translate(316.71875 0)"/>
     <use xlink:href="#Helvetica-46" transform="translate(372.328125 0)"/>
     <use xlink:href="#Helvetica-4c" transform="translate(422.328125 0)"/>
     <use xlink:href="#Helvetica-c0" transform="translate(444.546875 0)"/>
     <use xlink:href="#Helvetica-48" transform="translate(494.546875 0)"/>
     <use xlink:href="#Helvetica-47" transform="translate(550.15625 0)"/>
     <use xlink:href="#Helvetica-c" transform="translate(605.765625 0)"/>
    </g>
    <!--  -->
    <g transform="translate(78.634688 61.733959) scale(0.072 -0.072)"/>
    <!-- Clinical: -->
    <g transform="translate(66.031313 68.571849) scale(0.072 -0.072)">
     <defs>
      <path id="Helvetica-1d" d="M 709 3303 
L 1363 3303 
L 1363 2622 
L 709 2622 
L 709 3303 
z
M 709 681 
L 1363 681 
L 1363 0 
L 709 0 
L 709 681 
z
" transform="scale(0.015625)"/>
     </defs>
     <use xlink:href="#Helvetica-26"/>
     <use xlink:href="#Helvetica-4f" transform="translate(72.21875 0)"/>
     <use xlink:href="#Helvetica-4c" transform="translate(94.4375 0)"/>
     <use xlink:href="#Helvetica-51" transform="translate(116.65625 0)"/>
     <use xlink:href="#Helvetica-4c" transform="translate(172.265625 0)"/>
     <use xlink:href="#Helvetica-46" transform="translate(194.484375 0)"/>
     <use xlink:href="#Helvetica-44" transform="translate(244.484375 0)"/>
     <use xlink:href="#Helvetica-4f" transform="translate(300.09375 0)"/>
     <use xlink:href="#Helvetica-1d" transform="translate(322.3125 0)"/>
    </g>
    <!-- Age -->
    <g transform="translate(72.2295 75.40974) scale(0.072 -0.072)">
     <defs>
      <path id="Helvetica-24" d="M 2844 1881 
L 2147 3909 
L 1406 1881 
L 2844 1881 
z
M 1822 4591 
L 2525 4591 
L 4191 0 
L 3509 0 
L 3044 1375 
L 1228 1375 
L 731 0 
L 94 0 
L 1822 4591 
z
" transform="scale(0.015625)"/>
      <path id="Helvetica-4a" d="M 1594 3406 
Q 1988 3406 2281 3213 
Q 2441 3103 2606 2894 
L 2606 3316 
L 3125 3316 
L 3125 272 
Q 3125 -366 2938 -734 
Q 2588 -1416 1616 -1416 
Q 1075 -1416 706 -1173 
Q 338 -931 294 -416 
L 866 -416 
Q 906 -641 1028 -763 
Q 1219 -950 1628 -950 
Q 2275 -950 2475 -494 
Q 2594 -225 2584 466 
Q 2416 209 2178 84 
Q 1941 -41 1550 -41 
Q 1006 -41 598 345 
Q 191 731 191 1622 
Q 191 2463 602 2934 
Q 1013 3406 1594 3406 
z
M 2606 1688 
Q 2606 2309 2350 2609 
Q 2094 2909 1697 2909 
Q 1103 2909 884 2353 
Q 769 2056 769 1575 
Q 769 1009 998 714 
Q 1228 419 1616 419 
Q 2222 419 2469 966 
Q 2606 1275 2606 1688 
z
M 1659 3428 
L 1659 3428 
z
" transform="scale(0.015625)"/>
     </defs>
     <use xlink:href="#Helvetica-24"/>
     <use xlink:href="#Helvetica-4a" transform="translate(66.703125 0)"/>
     <use xlink:href="#Helvetica-48" transform="translate(122.3125 0)"/>
    </g>
    <!-- Female sex -->
    <g transform="translate(60.029438 82.617193) scale(0.072 -0.072)">
     <defs>
      <path id="Helvetica-29" d="M 547 4591 
L 3731 4591 
L 3731 4028 
L 1169 4028 
L 1169 2634 
L 3422 2634 
L 3422 2088 
L 1169 2088 
L 1169 0 
L 547 0 
L 547 4591 
z
" transform="scale(0.015625)"/>
      <path id="Helvetica-50" d="M 413 3347 
L 969 3347 
L 969 2872 
Q 1169 3119 1331 3231 
Q 1609 3422 1963 3422 
Q 2363 3422 2606 3225 
Q 2744 3113 2856 2894 
Q 3044 3163 3297 3292 
Q 3550 3422 3866 3422 
Q 4541 3422 4784 2934 
Q 4916 2672 4916 2228 
L 4916 0 
L 4331 0 
L 4331 2325 
Q 4331 2659 4164 2784 
Q 3997 2909 3756 2909 
Q 3425 2909 3186 2687 
Q 2947 2466 2947 1947 
L 2947 0 
L 2375 0 
L 2375 2184 
Q 2375 2525 2294 2681 
Q 2166 2916 1816 2916 
Q 1497 2916 1236 2669 
Q 975 2422 975 1775 
L 975 0 
L 413 0 
L 413 3347 
z
" transform="scale(0.015625)"/>
      <path id="Helvetica-5b" d="M 94 3347 
L 822 3347 
L 1591 2169 
L 2369 3347 
L 3053 3331 
L 1925 1716 
L 3103 0 
L 2384 0 
L 1553 1256 
L 747 0 
L 34 0 
L 1213 1716 
L 94 3347 
z
" transform="scale(0.015625)"/>
     </defs>
     <use xlink:href="#Helvetica-29"/>
     <use xlink:href="#Helvetica-48" transform="translate(61.078125 0)"/>
     <use xlink:href="#Helvetica-50" transform="translate(116.6875 0)"/>
     <use xlink:href="#Helvetica-44" transform="translate(199.984375 0)"/>
     <use xlink:href="#Helvetica-4f" transform="translate(255.59375 0)"/>
     <use xlink:href="#Helvetica-48" transform="translate(277.8125 0)"/>
     <use xlink:href="#Helvetica-3" transform="translate(333.421875 0)"/>
     <use xlink:href="#Helvetica-56" transform="translate(361.203125 0)"/>
     <use xlink:href="#Helvetica-48" transform="translate(411.203125 0)"/>
     <use xlink:href="#Helvetica-5b" transform="translate(466.8125 0)"/>
    </g>
    <!-- ASA class -->
    <g transform="translate(62.425688 89.455084) scale(0.072 -0.072)">
     <defs>
      <path id="Helvetica-36" d="M 894 1481 
Q 916 1091 1078 847 
Q 1388 391 2169 391 
Q 2519 391 2806 491 
Q 3363 684 3363 1184 
Q 3363 1559 3128 1719 
Q 2891 1875 2384 1991 
L 1763 2131 
Q 1153 2269 900 2434 
Q 463 2722 463 3294 
Q 463 3913 891 4309 
Q 1319 4706 2103 4706 
Q 2825 4706 3329 4357 
Q 3834 4009 3834 3244 
L 3250 3244 
Q 3203 3613 3050 3809 
Q 2766 4169 2084 4169 
Q 1534 4169 1293 3937 
Q 1053 3706 1053 3400 
Q 1053 3063 1334 2906 
Q 1519 2806 2169 2656 
L 2813 2509 
Q 3278 2403 3531 2219 
Q 3969 1897 3969 1284 
Q 3969 522 3414 194 
Q 2859 -134 2125 -134 
Q 1269 -134 784 303 
Q 300 738 309 1481 
L 894 1481 
z
M 2150 4716 
L 2150 4716 
z
" transform="scale(0.015625)"/>
     </defs>
     <use xlink:href="#Helvetica-24"/>
     <use xlink:href="#Helvetica-36" transform="translate(66.703125 0)"/>
     <use xlink:href="#Helvetica-24" transform="translate(133.40625 0)"/>
     <use xlink:href="#Helvetica-3" transform="translate(194.640625 0)"/>
     <use xlink:href="#Helvetica-46" transform="translate(222.421875 0)"/>
     <use xlink:href="#Helvetica-4f" transform="translate(272.421875 0)"/>
     <use xlink:href="#Helvetica-44" transform="translate(294.640625 0)"/>
     <use xlink:href="#Helvetica-56" transform="translate(350.25 0)"/>
     <use xlink:href="#Helvetica-56" transform="translate(400.25 0)"/>
    </g>
    <!-- No. of operated levels -->
    <g transform="translate(43.61625 96.292974) scale(0.072 -0.072)">
     <defs>
      <path id="Helvetica-31" d="M 488 4591 
L 1222 4591 
L 3541 872 
L 3541 4591 
L 4131 4591 
L 4131 0 
L 3434 0 
L 1081 3716 
L 1081 0 
L 488 0 
L 488 4591 
z
M 2269 4591 
L 2269 4591 
z
" transform="scale(0.015625)"/>
      <path id="Helvetica-11" d="M 547 681 
L 1200 681 
L 1200 0 
L 547 0 
L 547 681 
z
" transform="scale(0.015625)"/>
      <path id="Helvetica-49" d="M 553 3856 
Q 566 4206 675 4369 
Q 872 4656 1434 4656 
Q 1488 4656 1544 4653 
Q 1600 4650 1672 4644 
L 1672 4131 
Q 1584 4138 1545 4139 
Q 1506 4141 1472 4141 
Q 1216 4141 1166 4008 
Q 1116 3875 1116 3331 
L 1672 3331 
L 1672 2888 
L 1109 2888 
L 1109 0 
L 553 0 
L 553 2888 
L 88 2888 
L 88 3331 
L 553 3331 
L 553 3856 
z
" transform="scale(0.015625)"/>
      <path id="Helvetica-59" d="M 688 3347 
L 1581 622 
L 2516 3347 
L 3131 3347 
L 1869 0 
L 1269 0 
L 34 3347 
L 688 3347 
z
" transform="scale(0.015625)"/>
     </defs>
     <use xlink:href="#Helvetica-31"/>
     <use xlink:href="#Helvetica-52" transform="translate(72.21875 0)"/>
     <use xlink:href="#Helvetica-11" transform="translate(127.828125 0)"/>
     <use xlink:href="#Helvetica-3" transform="translate(155.609375 0)"/>
     <use xlink:href="#Helvetica-52" transform="translate(183.390625 0)"/>
     <use xlink:href="#Helvetica-49" transform="translate(239 0)"/>
     <use xlink:href="#Helvetica-3" transform="translate(266.78125 0)"/>
     <use xlink:href="#Helvetica-52" transform="translate(294.5625 0)"/>
     <use xlink:href="#Helvetica-53" transform="translate(350.171875 0)"/>
     <use xlink:href="#Helvetica-48" transform="translate(405.78125 0)"/>
     <use xlink:href="#Helvetica-55" transform="translate(461.390625 0)"/>
     <use xlink:href="#Helvetica-44" transform="translate(494.6875 0)"/>
     <use xlink:href="#Helvetica-57" transform="translate(550.296875 0)"/>
     <use xlink:href="#Helvetica-48" transform="translate(578.078125 0)"/>
     <use xlink:href="#Helvetica-47" transform="translate(633.6875 0)"/>
     <use xlink:href="#Helvetica-3" transform="translate(689.296875 0)"/>
     <use xlink:href="#Helvetica-4f" transform="translate(717.078125 0)"/>
     <use xlink:href="#Helvetica-48" transform="translate(739.296875 0)"/>
     <use xlink:href="#Helvetica-59" transform="translate(794.90625 0)"/>
     <use xlink:href="#Helvetica-48" transform="translate(844.90625 0)"/>
     <use xlink:href="#Helvetica-4f" transform="translate(900.515625 0)"/>
     <use xlink:href="#Helvetica-56" transform="translate(922.734375 0)"/>
    </g>
    <!-- Fusion vs decompression -->
    <g transform="translate(37.819125 103.408177) scale(0.072 -0.072)">
     <defs>
      <path id="Helvetica-58" d="M 975 3347 
L 975 1125 
Q 975 869 1056 706 
Q 1206 406 1616 406 
Q 2203 406 2416 931 
Q 2531 1213 2531 1703 
L 2531 3347 
L 3094 3347 
L 3094 0 
L 2563 0 
L 2569 494 
Q 2459 303 2297 172 
Q 1975 -91 1516 -91 
Q 800 -91 541 388 
Q 400 644 400 1072 
L 400 3347 
L 975 3347 
z
M 1747 3428 
L 1747 3428 
z
" transform="scale(0.015625)"/>
     </defs>
     <use xlink:href="#Helvetica-29"/>
     <use xlink:href="#Helvetica-58" transform="translate(61.078125 0)"/>
     <use xlink:href="#Helvetica-56" transform="translate(116.6875 0)"/>
     <use xlink:href="#Helvetica-4c" transform="translate(166.6875 0)"/>
     <use xlink:href="#Helvetica-52" transform="translate(188.90625 0)"/>
     <use xlink:href="#Helvetica-51" transform="translate(244.515625 0)"/>
     <use xlink:href="#Helvetica-3" transform="translate(300.125 0)"/>
     <use xlink:href="#Helvetica-59" transform="translate(327.90625 0)"/>
     <use xlink:href="#Helvetica-56" transform="translate(377.90625 0)"/>
     <use xlink:href="#Helvetica-3" transform="translate(427.90625 0)"/>
     <use xlink:href="#Helvetica-47" transform="translate(455.6875 0)"/>
     <use xlink:href="#Helvetica-48" transform="translate(511.296875 0)"/>
     <use xlink:href="#Helvetica-46" transform="translate(566.90625 0)"/>
     <use xlink:href="#Helvetica-52" transform="translate(616.90625 0)"/>
     <use xlink:href="#Helvetica-50" transform="translate(672.515625 0)"/>
     <use xlink:href="#Helvetica-53" transform="translate(755.8125 0)"/>
     <use xlink:href="#Helvetica-55" transform="translate(811.421875 0)"/>
     <use xlink:href="#Helvetica-48" transform="translate(844.71875 0)"/>
     <use xlink:href="#Helvetica-56" transform="translate(900.328125 0)"/>
     <use xlink:href="#Helvetica-56" transform="translate(950.328125 0)"/>
     <use xlink:href="#Helvetica-4c" transform="translate(1000.328125 0)"/>
     <use xlink:href="#Helvetica-52" transform="translate(1022.546875 0)"/>
     <use xlink:href="#Helvetica-51" transform="translate(1078.15625 0)"/>
    </g>
   </g>
   <g id="text_3">
    <!-- Imaging (anatomically -->
    <g transform="translate(43.621313 145.429785) scale(0.072 -0.072)">
     <defs>
      <path id="Helvetica-2c" d="M 628 4591 
L 1256 4591 
L 1256 0 
L 628 0 
L 628 4591 
z
" transform="scale(0.015625)"/>
      <path id="Helvetica-5c" d="M 2503 3347 
L 3125 3347 
Q 3006 3025 2597 1878 
Q 2291 1016 2084 472 
Q 1597 -809 1397 -1090 
Q 1197 -1372 709 -1372 
Q 591 -1372 527 -1362 
Q 463 -1353 369 -1328 
L 369 -816 
Q 516 -856 581 -865 
Q 647 -875 697 -875 
Q 853 -875 926 -823 
Q 1000 -772 1050 -697 
Q 1066 -672 1162 -440 
Q 1259 -209 1303 -97 
L 66 3347 
L 703 3347 
L 1600 622 
L 2503 3347 
z
M 1597 3428 
L 1597 3428 
z
" transform="scale(0.015625)"/>
     </defs>
     <use xlink:href="#Helvetica-2c"/>
     <use xlink:href="#Helvetica-50" transform="translate(27.78125 0)"/>
     <use xlink:href="#Helvetica-44" transform="translate(111.078125 0)"/>
     <use xlink:href="#Helvetica-4a" transform="translate(166.6875 0)"/>
     <use xlink:href="#Helvetica-4c" transform="translate(222.296875 0)"/>
     <use xlink:href="#Helvetica-51" transform="translate(244.515625 0)"/>
     <use xlink:href="#Helvetica-4a" transform="translate(300.125 0)"/>
     <use xlink:href="#Helvetica-3" transform="translate(355.734375 0)"/>
     <use xlink:href="#Helvetica-b" transform="translate(383.515625 0)"/>
     <use xlink:href="#Helvetica-44" transform="translate(416.8125 0)"/>
     <use xlink:href="#Helvetica-51" transform="translate(472.421875 0)"/>
     <use xlink:href="#Helvetica-44" transform="translate(528.03125 0)"/>
     <use xlink:href="#Helvetica-57" transform="translate(583.640625 0)"/>
     <use xlink:href="#Helvetica-52" transform="translate(611.421875 0)"/>
     <use xlink:href="#Helvetica-50" transform="translate(667.03125 0)"/>
     <use xlink:href="#Helvetica-4c" transform="translate(750.328125 0)"/>
     <use xlink:href="#Helvetica-46" transform="translate(772.546875 0)"/>
     <use xlink:href="#Helvetica-44" transform="translate(822.546875 0)"/>
     <use xlink:href="#Helvetica-4f" transform="translate(878.15625 0)"/>
     <use xlink:href="#Helvetica-4f" transform="translate(900.375 0)"/>
     <use xlink:href="#Helvetica-5c" transform="translate(922.59375 0)"/>
    </g>
    <!-- pre-specified): -->
    <g transform="translate(55.827 152.637238) scale(0.072 -0.072)">
     <use xlink:href="#Helvetica-53"/>
     <use xlink:href="#Helvetica-55" transform="translate(55.609375 0)"/>
     <use xlink:href="#Helvetica-48" transform="translate(88.90625 0)"/>
     <use xlink:href="#Helvetica-10" transform="translate(144.515625 0)"/>
     <use xlink:href="#Helvetica-56" transform="translate(177.8125 0)"/>
     <use xlink:href="#Helvetica-53" transform="translate(227.8125 0)"/>
     <use xlink:href="#Helvetica-48" transform="translate(283.421875 0)"/>
     <use xlink:href="#Helvetica-46" transform="translate(339.03125 0)"/>
     <use xlink:href="#Helvetica-4c" transform="translate(389.03125 0)"/>
     <use xlink:href="#Helvetica-c0" transform="translate(411.25 0)"/>
     <use xlink:href="#Helvetica-48" transform="translate(461.25 0)"/>
     <use xlink:href="#Helvetica-47" transform="translate(516.859375 0)"/>
     <use xlink:href="#Helvetica-c" transform="translate(572.46875 0)"/>
     <use xlink:href="#Helvetica-1d" transform="translate(605.765625 0)"/>
    </g>
    <!--  -->
    <g transform="translate(78.634688 159.752441) scale(0.072 -0.072)"/>
    <!-- Iliopsoas · Deep paraspinal · Gluteus medius -->
    <g transform="translate(7.2 166.590332) scale(0.072 -0.072)">
     <defs>
      <path id="Helvetica-c3" d="M 872 2591 
Q 1041 2591 1156 2473 
Q 1272 2356 1272 2191 
Q 1272 2025 1155 1908 
Q 1038 1791 872 1791 
Q 706 1791 589 1908 
Q 472 2025 472 2191 
Q 472 2356 587 2473 
Q 703 2591 872 2591 
z
" transform="scale(0.015625)"/>
      <path id="Helvetica-27" d="M 2250 531 
Q 2566 531 2769 597 
Q 3131 719 3363 1066 
Q 3547 1344 3628 1778 
Q 3675 2038 3675 2259 
Q 3675 3113 3336 3584 
Q 2997 4056 2244 4056 
L 1141 4056 
L 1141 531 
L 2250 531 
z
M 516 4591 
L 2375 4591 
Q 3322 4591 3844 3919 
Q 4309 3313 4309 2366 
Q 4309 1634 4034 1044 
Q 3550 0 2369 0 
L 516 0 
L 516 4591 
z
" transform="scale(0.015625)"/>
      <path id="Helvetica-2a" d="M 2472 4709 
Q 3119 4709 3591 4459 
Q 4275 4100 4428 3200 
L 3813 3200 
Q 3700 3703 3347 3933 
Q 2994 4163 2456 4163 
Q 1819 4163 1383 3684 
Q 947 3206 947 2259 
Q 947 1441 1306 927 
Q 1666 413 2478 413 
Q 3100 413 3508 773 
Q 3916 1134 3925 1941 
L 2488 1941 
L 2488 2456 
L 4503 2456 
L 4503 0 
L 4103 0 
L 3953 591 
Q 3638 244 3394 109 
Q 2984 -122 2353 -122 
Q 1538 -122 950 406 
Q 309 1069 309 2225 
Q 309 3378 934 4059 
Q 1528 4709 2472 4709 
z
M 2369 4716 
L 2369 4716 
z
" transform="scale(0.015625)"/>
     </defs>
     <use xlink:href="#Helvetica-2c"/>
     <use xlink:href="#Helvetica-4f" transform="translate(27.78125 0)"/>
     <use xlink:href="#Helvetica-4c" transform="translate(50 0)"/>
     <use xlink:href="#Helvetica-52" transform="translate(72.21875 0)"/>
     <use xlink:href="#Helvetica-53" transform="translate(127.828125 0)"/>
     <use xlink:href="#Helvetica-56" transform="translate(183.4375 0)"/>
     <use xlink:href="#Helvetica-52" transform="translate(233.4375 0)"/>
     <use xlink:href="#Helvetica-44" transform="translate(289.046875 0)"/>
     <use xlink:href="#Helvetica-56" transform="translate(344.65625 0)"/>
     <use xlink:href="#Helvetica-3" transform="translate(394.65625 0)"/>
     <use xlink:href="#Helvetica-c3" transform="translate(422.4375 0)"/>
     <use xlink:href="#Helvetica-3" transform="translate(450.21875 0)"/>
     <use xlink:href="#Helvetica-27" transform="translate(478 0)"/>
     <use xlink:href="#Helvetica-48" transform="translate(550.21875 0)"/>
     <use xlink:href="#Helvetica-48" transform="translate(605.828125 0)"/>
     <use xlink:href="#Helvetica-53" transform="translate(661.4375 0)"/>
     <use xlink:href="#Helvetica-3" transform="translate(717.046875 0)"/>
     <use xlink:href="#Helvetica-53" transform="translate(744.828125 0)"/>
     <use xlink:href="#Helvetica-44" transform="translate(800.4375 0)"/>
     <use xlink:href="#Helvetica-55" transform="translate(856.046875 0)"/>
     <use xlink:href="#Helvetica-44" transform="translate(889.34375 0)"/>
     <use xlink:href="#Helvetica-56" transform="translate(944.953125 0)"/>
     <use xlink:href="#Helvetica-53" transform="translate(994.953125 0)"/>
     <use xlink:href="#Helvetica-4c" transform="translate(1050.5625 0)"/>
     <use xlink:href="#Helvetica-51" transform="translate(1072.78125 0)"/>
     <use xlink:href="#Helvetica-44" transform="translate(1128.390625 0)"/>
     <use xlink:href="#Helvetica-4f" transform="translate(1184 0)"/>
     <use xlink:href="#Helvetica-3" transform="translate(1206.21875 0)"/>
     <use xlink:href="#Helvetica-c3" transform="translate(1234 0)"/>
     <use xlink:href="#Helvetica-3" transform="translate(1261.78125 0)"/>
     <use xlink:href="#Helvetica-2a" transform="translate(1289.5625 0)"/>
     <use xlink:href="#Helvetica-4f" transform="translate(1367.34375 0)"/>
     <use xlink:href="#Helvetica-58" transform="translate(1389.5625 0)"/>
     <use xlink:href="#Helvetica-57" transform="translate(1445.171875 0)"/>
     <use xlink:href="#Helvetica-48" transform="translate(1472.953125 0)"/>
     <use xlink:href="#Helvetica-58" transform="translate(1528.5625 0)"/>
     <use xlink:href="#Helvetica-56" transform="translate(1584.171875 0)"/>
     <use xlink:href="#Helvetica-3" transform="translate(1634.171875 0)"/>
     <use xlink:href="#Helvetica-50" transform="translate(1661.953125 0)"/>
     <use xlink:href="#Helvetica-48" transform="translate(1745.25 0)"/>
     <use xlink:href="#Helvetica-47" transform="translate(1800.859375 0)"/>
     <use xlink:href="#Helvetica-4c" transform="translate(1856.46875 0)"/>
     <use xlink:href="#Helvetica-58" transform="translate(1878.6875 0)"/>
     <use xlink:href="#Helvetica-56" transform="translate(1934.296875 0)"/>
    </g>
    <!-- (L4-normalized volume + mean T2 signal) -->
    <g transform="translate(12.1725 173.705535) scale(0.072 -0.072)">
     <defs>
      <path id="Helvetica-2f" d="M 488 4591 
L 1109 4591 
L 1109 547 
L 3434 547 
L 3434 0 
L 488 0 
L 488 4591 
z
" transform="scale(0.015625)"/>
      <path id="Helvetica-17" d="M 2116 1584 
L 2116 3613 
L 681 1584 
L 2116 1584 
z
M 2125 0 
L 2125 1094 
L 163 1094 
L 163 1644 
L 2213 4488 
L 2688 4488 
L 2688 1584 
L 3347 1584 
L 3347 1094 
L 2688 1094 
L 2688 0 
L 2125 0 
z
" transform="scale(0.015625)"/>
      <path id="Helvetica-5d" d="M 163 444 
L 2147 2844 
L 309 2844 
L 309 3347 
L 2903 3347 
L 2903 2888 
L 931 503 
L 2963 503 
L 2963 0 
L 163 0 
L 163 444 
z
M 1609 3428 
L 1609 3428 
z
" transform="scale(0.015625)"/>
      <path id="Helvetica-e" d="M 288 1369 
L 288 1894 
L 1650 1894 
L 1650 3266 
L 2184 3266 
L 2184 1894 
L 3547 1894 
L 3547 1369 
L 2184 1369 
L 2184 0 
L 1650 0 
L 1650 1369 
L 288 1369 
z
" transform="scale(0.015625)"/>
      <path id="Helvetica-37" d="M 3828 4591 
L 3828 4044 
L 2281 4044 
L 2281 0 
L 1650 0 
L 1650 4044 
L 103 4044 
L 103 4591 
L 3828 4591 
z
" transform="scale(0.015625)"/>
      <path id="Helvetica-15" d="M 200 0 
Q 231 578 439 1006 
Q 647 1434 1250 1784 
L 1850 2131 
Q 2253 2366 2416 2531 
Q 2672 2791 2672 3125 
Q 2672 3516 2437 3745 
Q 2203 3975 1813 3975 
Q 1234 3975 1013 3538 
Q 894 3303 881 2888 
L 309 2888 
Q 319 3472 525 3841 
Q 891 4491 1816 4491 
Q 2584 4491 2939 4075 
Q 3294 3659 3294 3150 
Q 3294 2613 2916 2231 
Q 2697 2009 2131 1694 
L 1703 1456 
Q 1397 1288 1222 1134 
Q 909 863 828 531 
L 3272 531 
L 3272 0 
L 200 0 
z
" transform="scale(0.015625)"/>
     </defs>
     <use xlink:href="#Helvetica-b"/>
     <use xlink:href="#Helvetica-2f" transform="translate(33.296875 0)"/>
     <use xlink:href="#Helvetica-17" transform="translate(88.90625 0)"/>
     <use xlink:href="#Helvetica-10" transform="translate(144.515625 0)"/>
     <use xlink:href="#Helvetica-51" transform="translate(177.8125 0)"/>
     <use xlink:href="#Helvetica-52" transform="translate(233.421875 0)"/>
     <use xlink:href="#Helvetica-55" transform="translate(289.03125 0)"/>
     <use xlink:href="#Helvetica-50" transform="translate(322.328125 0)"/>
     <use xlink:href="#Helvetica-44" transform="translate(405.625 0)"/>
     <use xlink:href="#Helvetica-4f" transform="translate(461.234375 0)"/>
     <use xlink:href="#Helvetica-4c" transform="translate(483.453125 0)"/>
     <use xlink:href="#Helvetica-5d" transform="translate(505.671875 0)"/>
     <use xlink:href="#Helvetica-48" transform="translate(555.671875 0)"/>
     <use xlink:href="#Helvetica-47" transform="translate(611.28125 0)"/>
     <use xlink:href="#Helvetica-3" transform="translate(666.890625 0)"/>
     <use xlink:href="#Helvetica-59" transform="translate(694.671875 0)"/>
     <use xlink:href="#Helvetica-52" transform="translate(744.671875 0)"/>
     <use xlink:href="#Helvetica-4f" transform="translate(800.28125 0)"/>
     <use xlink:href="#Helvetica-58" transform="translate(822.5 0)"/>
     <use xlink:href="#Helvetica-50" transform="translate(878.109375 0)"/>
     <use xlink:href="#Helvetica-48" transform="translate(961.40625 0)"/>
     <use xlink:href="#Helvetica-3" transform="translate(1017.015625 0)"/>
     <use xlink:href="#Helvetica-e" transform="translate(1044.796875 0)"/>
     <use xlink:href="#Helvetica-3" transform="translate(1103.203125 0)"/>
     <use xlink:href="#Helvetica-50" transform="translate(1130.984375 0)"/>
     <use xlink:href="#Helvetica-48" transform="translate(1214.28125 0)"/>
     <use xlink:href="#Helvetica-44" transform="translate(1269.890625 0)"/>
     <use xlink:href="#Helvetica-51" transform="translate(1325.5 0)"/>
     <use xlink:href="#Helvetica-3" transform="translate(1381.109375 0)"/>
     <use xlink:href="#Helvetica-37" transform="translate(1407.140625 0)"/>
     <use xlink:href="#Helvetica-15" transform="translate(1468.21875 0)"/>
     <use xlink:href="#Helvetica-3" transform="translate(1523.828125 0)"/>
     <use xlink:href="#Helvetica-56" transform="translate(1551.609375 0)"/>
     <use xlink:href="#Helvetica-4c" transform="translate(1601.609375 0)"/>
     <use xlink:href="#Helvetica-4a" transform="translate(1623.828125 0)"/>
     <use xlink:href="#Helvetica-51" transform="translate(1679.4375 0)"/>
     <use xlink:href="#Helvetica-44" transform="translate(1735.046875 0)"/>
     <use xlink:href="#Helvetica-4f" transform="translate(1790.65625 0)"/>
     <use xlink:href="#Helvetica-c" transform="translate(1812.875 0)"/>
    </g>
   </g>
   <g id="text_4">
    <!-- Selection RULE -->
    <g transform="translate(177.508734 86.071664) scale(0.074 -0.074)">
     <defs>
      <path id="Helvetica-35" d="M 2622 2488 
Q 3059 2488 3314 2663 
Q 3569 2838 3569 3294 
Q 3569 3784 3213 3963 
Q 3022 4056 2703 4056 
L 1184 4056 
L 1184 2488 
L 2622 2488 
z
M 563 4591 
L 2688 4591 
Q 3213 4591 3553 4438 
Q 4200 4144 4200 3353 
Q 4200 2941 4029 2678 
Q 3859 2416 3553 2256 
Q 3822 2147 3958 1969 
Q 4094 1791 4109 1391 
L 4131 775 
Q 4141 513 4175 384 
Q 4231 166 4375 103 
L 4375 0 
L 3613 0 
Q 3581 59 3562 153 
Q 3544 247 3531 516 
L 3494 1281 
Q 3472 1731 3159 1884 
Q 2981 1969 2600 1969 
L 1184 1969 
L 1184 0 
L 563 0 
L 563 4591 
z
" transform="scale(0.015625)"/>
      <path id="Helvetica-38" d="M 1163 4591 
L 1163 1753 
Q 1163 1253 1350 922 
Q 1628 422 2288 422 
Q 3078 422 3363 963 
Q 3516 1256 3516 1753 
L 3516 4591 
L 4147 4591 
L 4147 2013 
Q 4147 1166 3919 709 
Q 3500 -122 2338 -122 
Q 1175 -122 759 709 
Q 531 1166 531 2013 
L 531 4591 
L 1163 4591 
z
M 2341 4591 
L 2341 4591 
z
" transform="scale(0.015625)"/>
      <path id="Helvetica-28" d="M 547 4591 
L 3894 4591 
L 3894 4028 
L 1153 4028 
L 1153 2634 
L 3688 2634 
L 3688 2103 
L 1153 2103 
L 1153 547 
L 3941 547 
L 3941 0 
L 547 0 
L 547 4591 
z
M 2244 4591 
L 2244 4591 
z
" transform="scale(0.015625)"/>
     </defs>
     <use xlink:href="#Helvetica-36"/>
     <use xlink:href="#Helvetica-48" transform="translate(66.703125 0)"/>
     <use xlink:href="#Helvetica-4f" transform="translate(122.3125 0)"/>
     <use xlink:href="#Helvetica-48" transform="translate(144.53125 0)"/>
     <use xlink:href="#Helvetica-46" transform="translate(200.140625 0)"/>
     <use xlink:href="#Helvetica-57" transform="translate(250.140625 0)"/>
     <use xlink:href="#Helvetica-4c" transform="translate(277.921875 0)"/>
     <use xlink:href="#Helvetica-52" transform="translate(300.140625 0)"/>
     <use xlink:href="#Helvetica-51" transform="translate(355.75 0)"/>
     <use xlink:href="#Helvetica-3" transform="translate(411.359375 0)"/>
     <use xlink:href="#Helvetica-35" transform="translate(439.140625 0)"/>
     <use xlink:href="#Helvetica-38" transform="translate(511.359375 0)"/>
     <use xlink:href="#Helvetica-2f" transform="translate(583.578125 0)"/>
     <use xlink:href="#Helvetica-28" transform="translate(639.1875 0)"/>
    </g>
    <!--  -->
    <g transform="translate(203.626688 93.099496) scale(0.074 -0.074)"/>
    <!-- • No data-driven -->
    <g transform="translate(177.036406 100.127329) scale(0.074 -0.074)">
     <defs>
      <path id="Helvetica-87" d="M 1847 2294 
Q 1847 1994 1651 1797 
Q 1456 1600 1156 1600 
Q 856 1600 661 1797 
Q 466 1994 466 2294 
Q 466 2594 661 2787 
Q 856 2981 1156 2981 
Q 1456 2981 1651 2787 
Q 1847 2594 1847 2294 
z
" transform="scale(0.015625)"/>
     </defs>
     <use xlink:href="#Helvetica-87"/>
     <use xlink:href="#Helvetica-3" transform="translate(35.015625 0)"/>
     <use xlink:href="#Helvetica-31" transform="translate(62.796875 0)"/>
     <use xlink:href="#Helvetica-52" transform="translate(135.015625 0)"/>
     <use xlink:href="#Helvetica-3" transform="translate(190.625 0)"/>
     <use xlink:href="#Helvetica-47" transform="translate(218.40625 0)"/>
     <use xlink:href="#Helvetica-44" transform="translate(274.015625 0)"/>
     <use xlink:href="#Helvetica-57" transform="translate(329.625 0)"/>
     <use xlink:href="#Helvetica-44" transform="translate(357.40625 0)"/>
     <use xlink:href="#Helvetica-10" transform="translate(413.015625 0)"/>
     <use xlink:href="#Helvetica-47" transform="translate(446.3125 0)"/>
     <use xlink:href="#Helvetica-55" transform="translate(501.921875 0)"/>
     <use xlink:href="#Helvetica-4c" transform="translate(535.21875 0)"/>
     <use xlink:href="#Helvetica-59" transform="translate(557.4375 0)"/>
     <use xlink:href="#Helvetica-48" transform="translate(607.4375 0)"/>
     <use xlink:href="#Helvetica-51" transform="translate(663.046875 0)"/>
    </g>
    <!--   selection (no stepwise) -->
    <g transform="translate(163.938984 107.155161) scale(0.074 -0.074)">
     <defs>
      <path id="Helvetica-5a" d="M 672 3347 
L 1316 709 
L 1969 3347 
L 2600 3347 
L 3256 725 
L 3941 3347 
L 4503 3347 
L 3531 0 
L 2947 0 
L 2266 2591 
L 1606 0 
L 1022 0 
L 56 3347 
L 672 3347 
z
" transform="scale(0.015625)"/>
     </defs>
     <use xlink:href="#Helvetica-3"/>
     <use xlink:href="#Helvetica-3" transform="translate(27.78125 0)"/>
     <use xlink:href="#Helvetica-56" transform="translate(55.5625 0)"/>
     <use xlink:href="#Helvetica-48" transform="translate(105.5625 0)"/>
     <use xlink:href="#Helvetica-4f" transform="translate(161.171875 0)"/>
     <use xlink:href="#Helvetica-48" transform="translate(183.390625 0)"/>
     <use xlink:href="#Helvetica-46" transform="translate(239 0)"/>
     <use xlink:href="#Helvetica-57" transform="translate(289 0)"/>
     <use xlink:href="#Helvetica-4c" transform="translate(316.78125 0)"/>
     <use xlink:href="#Helvetica-52" transform="translate(339 0)"/>
     <use xlink:href="#Helvetica-51" transform="translate(394.609375 0)"/>
     <use xlink:href="#Helvetica-3" transform="translate(450.21875 0)"/>
     <use xlink:href="#Helvetica-b" transform="translate(478 0)"/>
     <use xlink:href="#Helvetica-51" transform="translate(511.296875 0)"/>
     <use xlink:href="#Helvetica-52" transform="translate(566.90625 0)"/>
     <use xlink:href="#Helvetica-3" transform="translate(622.515625 0)"/>
     <use xlink:href="#Helvetica-56" transform="translate(650.296875 0)"/>
     <use xlink:href="#Helvetica-57" transform="translate(700.296875 0)"/>
     <use xlink:href="#Helvetica-48" transform="translate(728.078125 0)"/>
     <use xlink:href="#Helvetica-53" transform="translate(783.6875 0)"/>
     <use xlink:href="#Helvetica-5a" transform="translate(839.296875 0)"/>
     <use xlink:href="#Helvetica-4c" transform="translate(911.515625 0)"/>
     <use xlink:href="#Helvetica-56" transform="translate(933.734375 0)"/>
     <use xlink:href="#Helvetica-48" transform="translate(983.734375 0)"/>
     <use xlink:href="#Helvetica-c" transform="translate(1039.34375 0)"/>
    </g>
    <!-- • Blocks entered by -->
    <g transform="translate(171.894563 114.468008) scale(0.074 -0.074)">
     <defs>
      <path id="Helvetica-25" d="M 2213 2650 
Q 2606 2650 2825 2759 
Q 3169 2931 3169 3378 
Q 3169 3828 2803 3984 
Q 2597 4072 2191 4072 
L 1081 4072 
L 1081 2650 
L 2213 2650 
z
M 2422 531 
Q 2994 531 3238 863 
Q 3391 1072 3391 1369 
Q 3391 1869 2944 2050 
Q 2706 2147 2316 2147 
L 1081 2147 
L 1081 531 
L 2422 531 
z
M 472 4591 
L 2444 4591 
Q 3250 4591 3591 4109 
Q 3791 3825 3791 3453 
Q 3791 3019 3544 2741 
Q 3416 2594 3175 2472 
Q 3528 2338 3703 2169 
Q 4013 1869 4013 1341 
Q 4013 897 3734 538 
Q 3319 0 2413 0 
L 472 0 
L 472 4591 
z
" transform="scale(0.015625)"/>
      <path id="Helvetica-4e" d="M 400 4591 
L 941 4591 
L 941 1925 
L 2384 3347 
L 3103 3347 
L 1822 2094 
L 3175 0 
L 2456 0 
L 1413 1688 
L 941 1256 
L 941 0 
L 400 0 
L 400 4591 
z
" transform="scale(0.015625)"/>
      <path id="Helvetica-45" d="M 369 4606 
L 916 4606 
L 916 2941 
Q 1100 3181 1356 3307 
Q 1613 3434 1913 3434 
Q 2538 3434 2927 3004 
Q 3316 2575 3316 1738 
Q 3316 944 2931 419 
Q 2547 -106 1866 -106 
Q 1484 -106 1222 78 
Q 1066 188 888 428 
L 888 0 
L 369 0 
L 369 4606 
z
M 1831 391 
Q 2288 391 2514 753 
Q 2741 1116 2741 1709 
Q 2741 2238 2514 2584 
Q 2288 2931 1847 2931 
Q 1463 2931 1173 2647 
Q 884 2363 884 1709 
Q 884 1238 1003 944 
Q 1225 391 1831 391 
z
" transform="scale(0.015625)"/>
     </defs>
     <use xlink:href="#Helvetica-87"/>
     <use xlink:href="#Helvetica-3" transform="translate(35.015625 0)"/>
     <use xlink:href="#Helvetica-25" transform="translate(62.796875 0)"/>
     <use xlink:href="#Helvetica-4f" transform="translate(129.5 0)"/>
     <use xlink:href="#Helvetica-52" transform="translate(151.71875 0)"/>
     <use xlink:href="#Helvetica-46" transform="translate(207.328125 0)"/>
     <use xlink:href="#Helvetica-4e" transform="translate(257.328125 0)"/>
     <use xlink:href="#Helvetica-56" transform="translate(307.328125 0)"/>
     <use xlink:href="#Helvetica-3" transform="translate(357.328125 0)"/>
     <use xlink:href="#Helvetica-48" transform="translate(385.109375 0)"/>
     <use xlink:href="#Helvetica-51" transform="translate(440.71875 0)"/>
     <use xlink:href="#Helvetica-57" transform="translate(496.328125 0)"/>
     <use xlink:href="#Helvetica-48" transform="translate(524.109375 0)"/>
     <use xlink:href="#Helvetica-55" transform="translate(579.71875 0)"/>
     <use xlink:href="#Helvetica-48" transform="translate(613.015625 0)"/>
     <use xlink:href="#Helvetica-47" transform="translate(668.625 0)"/>
     <use xlink:href="#Helvetica-3" transform="translate(724.234375 0)"/>
     <use xlink:href="#Helvetica-45" transform="translate(752.015625 0)"/>
     <use xlink:href="#Helvetica-5c" transform="translate(807.625 0)"/>
    </g>
    <!--   pre-planned nesting -->
    <g transform="translate(168.866344 121.824793) scale(0.074 -0.074)">
     <use xlink:href="#Helvetica-3"/>
     <use xlink:href="#Helvetica-3" transform="translate(27.78125 0)"/>
     <use xlink:href="#Helvetica-53" transform="translate(55.5625 0)"/>
     <use xlink:href="#Helvetica-55" transform="translate(111.171875 0)"/>
     <use xlink:href="#Helvetica-48" transform="translate(144.46875 0)"/>
     <use xlink:href="#Helvetica-10" transform="translate(200.078125 0)"/>
     <use xlink:href="#Helvetica-53" transform="translate(233.375 0)"/>
     <use xlink:href="#Helvetica-4f" transform="translate(288.984375 0)"/>
     <use xlink:href="#Helvetica-44" transform="translate(311.203125 0)"/>
     <use xlink:href="#Helvetica-51" transform="translate(366.8125 0)"/>
     <use xlink:href="#Helvetica-51" transform="translate(422.421875 0)"/>
     <use xlink:href="#Helvetica-48" transform="translate(478.03125 0)"/>
     <use xlink:href="#Helvetica-47" transform="translate(533.640625 0)"/>
     <use xlink:href="#Helvetica-3" transform="translate(589.25 0)"/>
     <use xlink:href="#Helvetica-51" transform="translate(617.03125 0)"/>
     <use xlink:href="#Helvetica-48" transform="translate(672.640625 0)"/>
     <use xlink:href="#Helvetica-56" transform="translate(728.25 0)"/>
     <use xlink:href="#Helvetica-57" transform="translate(778.25 0)"/>
     <use xlink:href="#Helvetica-4c" transform="translate(806.03125 0)"/>
     <use xlink:href="#Helvetica-51" transform="translate(828.25 0)"/>
     <use xlink:href="#Helvetica-4a" transform="translate(883.859375 0)"/>
    </g>
    <!-- • Ridge (L2) shrinkage -->
    <g transform="translate(166.959688 129.232454) scale(0.074 -0.074)">
     <defs>
      <path id="Helvetica-4b" d="M 413 4606 
L 975 4606 
L 975 2894 
Q 1175 3147 1334 3250 
Q 1606 3428 2013 3428 
Q 2741 3428 3000 2919 
Q 3141 2641 3141 2147 
L 3141 0 
L 2563 0 
L 2563 2109 
Q 2563 2478 2469 2650 
Q 2316 2925 1894 2925 
Q 1544 2925 1259 2684 
Q 975 2444 975 1775 
L 975 0 
L 413 0 
L 413 4606 
z
" transform="scale(0.015625)"/>
     </defs>
     <use xlink:href="#Helvetica-87"/>
     <use xlink:href="#Helvetica-3" transform="translate(35.015625 0)"/>
     <use xlink:href="#Helvetica-35" transform="translate(62.796875 0)"/>
     <use xlink:href="#Helvetica-4c" transform="translate(135.015625 0)"/>
     <use xlink:href="#Helvetica-47" transform="translate(157.234375 0)"/>
     <use xlink:href="#Helvetica-4a" transform="translate(212.84375 0)"/>
     <use xlink:href="#Helvetica-48" transform="translate(268.453125 0)"/>
     <use xlink:href="#Helvetica-3" transform="translate(324.0625 0)"/>
     <use xlink:href="#Helvetica-b" transform="translate(351.84375 0)"/>
     <use xlink:href="#Helvetica-2f" transform="translate(385.140625 0)"/>
     <use xlink:href="#Helvetica-15" transform="translate(440.75 0)"/>
     <use xlink:href="#Helvetica-c" transform="translate(496.359375 0)"/>
     <use xlink:href="#Helvetica-3" transform="translate(529.65625 0)"/>
     <use xlink:href="#Helvetica-56" transform="translate(557.4375 0)"/>
     <use xlink:href="#Helvetica-4b" transform="translate(607.4375 0)"/>
     <use xlink:href="#Helvetica-55" transform="translate(663.046875 0)"/>
     <use xlink:href="#Helvetica-4c" transform="translate(696.34375 0)"/>
     <use xlink:href="#Helvetica-51" transform="translate(718.5625 0)"/>
     <use xlink:href="#Helvetica-4e" transform="translate(774.171875 0)"/>
     <use xlink:href="#Helvetica-44" transform="translate(824.171875 0)"/>
     <use xlink:href="#Helvetica-4a" transform="translate(879.78125 0)"/>
     <use xlink:href="#Helvetica-48" transform="translate(935.390625 0)"/>
    </g>
    <!-- • EPV = 51/11 = 4.6 -->
    <g transform="translate(171.33725 136.640114) scale(0.074 -0.074)">
     <defs>
      <path id="Helvetica-33" d="M 547 4591 
L 2613 4591 
Q 3225 4591 3600 4245 
Q 3975 3900 3975 3275 
Q 3975 2738 3640 2339 
Q 3306 1941 2613 1941 
L 1169 1941 
L 1169 0 
L 547 0 
L 547 4591 
z
M 3347 3272 
Q 3347 3778 2972 3959 
Q 2766 4056 2406 4056 
L 1169 4056 
L 1169 2466 
L 2406 2466 
Q 2825 2466 3086 2644 
Q 3347 2822 3347 3272 
z
" transform="scale(0.015625)"/>
      <path id="Helvetica-39" d="M 850 4591 
L 2169 681 
L 3472 4591 
L 4169 4591 
L 2494 0 
L 1834 0 
L 163 4591 
L 850 4591 
z
" transform="scale(0.015625)"/>
      <path id="Helvetica-20" d="M 3547 2569 
L 3547 2044 
L 288 2044 
L 288 2569 
L 3547 2569 
z
M 3547 1228 
L 3547 694 
L 288 694 
L 288 1228 
L 3547 1228 
z
" transform="scale(0.015625)"/>
      <path id="Helvetica-18" d="M 791 1141 
Q 847 659 1238 475 
Q 1438 381 1700 381 
Q 2200 381 2440 700 
Q 2681 1019 2681 1406 
Q 2681 1875 2395 2131 
Q 2109 2388 1709 2388 
Q 1419 2388 1211 2275 
Q 1003 2163 856 1963 
L 369 1991 
L 709 4400 
L 3034 4400 
L 3034 3856 
L 1131 3856 
L 941 2613 
Q 1097 2731 1238 2791 
Q 1488 2894 1816 2894 
Q 2431 2894 2859 2497 
Q 3288 2100 3288 1491 
Q 3288 856 2895 371 
Q 2503 -113 1644 -113 
Q 1097 -113 676 195 
Q 256 503 206 1141 
L 791 1141 
z
" transform="scale(0.015625)"/>
      <path id="Helvetica-14" d="M 613 3169 
L 613 3600 
Q 1222 3659 1462 3798 
Q 1703 3938 1822 4456 
L 2266 4456 
L 2266 0 
L 1666 0 
L 1666 3169 
L 613 3169 
z
" transform="scale(0.015625)"/>
      <path id="Helvetica-12" d="M 1456 4591 
L 1931 4591 
L 475 0 
L 0 0 
L 1456 4591 
z
" transform="scale(0.015625)"/>
      <path id="Helvetica-19" d="M 1872 4494 
Q 2622 4494 2917 4105 
Q 3213 3716 3213 3303 
L 2656 3303 
Q 2606 3569 2497 3719 
Q 2294 4000 1881 4000 
Q 1409 4000 1131 3564 
Q 853 3128 822 2316 
Q 1016 2600 1309 2741 
Q 1578 2866 1909 2866 
Q 2472 2866 2890 2506 
Q 3309 2147 3309 1434 
Q 3309 825 2912 354 
Q 2516 -116 1781 -116 
Q 1153 -116 697 361 
Q 241 838 241 1966 
Q 241 2800 444 3381 
Q 834 4494 1872 4494 
z
M 1831 384 
Q 2275 384 2495 682 
Q 2716 981 2716 1388 
Q 2716 1731 2519 2042 
Q 2322 2353 1803 2353 
Q 1441 2353 1167 2112 
Q 894 1872 894 1388 
Q 894 963 1142 673 
Q 1391 384 1831 384 
z
" transform="scale(0.015625)"/>
     </defs>
     <use xlink:href="#Helvetica-87"/>
     <use xlink:href="#Helvetica-3" transform="translate(35.015625 0)"/>
     <use xlink:href="#Helvetica-28" transform="translate(62.796875 0)"/>
     <use xlink:href="#Helvetica-33" transform="translate(129.5 0)"/>
     <use xlink:href="#Helvetica-39" transform="translate(196.203125 0)"/>
     <use xlink:href="#Helvetica-3" transform="translate(262.90625 0)"/>
     <use xlink:href="#Helvetica-20" transform="translate(290.6875 0)"/>
     <use xlink:href="#Helvetica-3" transform="translate(349.09375 0)"/>
     <use xlink:href="#Helvetica-18" transform="translate(376.875 0)"/>
     <use xlink:href="#Helvetica-14" transform="translate(432.484375 0)"/>
     <use xlink:href="#Helvetica-12" transform="translate(488.09375 0)"/>
     <use xlink:href="#Helvetica-14" transform="translate(515.875 0)"/>
     <use xlink:href="#Helvetica-14" transform="translate(564.109375 0)"/>
     <use xlink:href="#Helvetica-3" transform="translate(619.71875 0)"/>
     <use xlink:href="#Helvetica-20" transform="translate(647.5 0)"/>
     <use xlink:href="#Helvetica-3" transform="translate(705.90625 0)"/>
     <use xlink:href="#Helvetica-17" transform="translate(733.6875 0)"/>
     <use xlink:href="#Helvetica-11" transform="translate(789.296875 0)"/>
     <use xlink:href="#Helvetica-19" transform="translate(817.078125 0)"/>
    </g>
   </g>
   <g id="text_5">
    <!-- M0  Clinical -->
    <g transform="translate(312.473313 56.567847) scale(0.08 -0.08)">
     <defs>
      <path id="Helvetica-Bold-30" d="M 1369 0 
L 472 0 
L 472 4606 
L 1872 4606 
L 2709 984 
L 3541 4606 
L 4925 4606 
L 4925 0 
L 4028 0 
L 4028 3116 
Q 4028 3250 4031 3492 
Q 4034 3734 4034 3866 
L 3163 0 
L 2228 0 
L 1363 3866 
Q 1363 3734 1366 3492 
Q 1369 3250 1369 3116 
L 1369 0 
z
" transform="scale(0.015625)"/>
      <path id="Helvetica-Bold-13" d="M 1763 -113 
Q 897 -113 548 493 
Q 200 1100 200 2222 
Q 200 3344 548 3953 
Q 897 4563 1763 4563 
Q 2628 4563 2978 3953 
Q 3325 3344 3325 2222 
Q 3325 1100 2976 493 
Q 2628 -113 1763 -113 
z
M 2284 1028 
Q 2406 1441 2406 2222 
Q 2406 3041 2282 3434 
Q 2159 3828 1763 3828 
Q 1366 3828 1237 3434 
Q 1109 3041 1109 2222 
Q 1109 1441 1237 1027 
Q 1366 613 1763 613 
Q 2159 613 2284 1028 
z
" transform="scale(0.015625)"/>
     </defs>
     <use xlink:href="#Helvetica-Bold-30"/>
     <use xlink:href="#Helvetica-Bold-13" transform="translate(83.296875 0)"/>
     <use xlink:href="#Helvetica-Bold-3" transform="translate(138.90625 0)"/>
     <use xlink:href="#Helvetica-Bold-3" transform="translate(166.6875 0)"/>
     <use xlink:href="#Helvetica-Bold-26" transform="translate(194.46875 0)"/>
     <use xlink:href="#Helvetica-Bold-4f" transform="translate(266.6875 0)"/>
     <use xlink:href="#Helvetica-Bold-4c" transform="translate(294.46875 0)"/>
     <use xlink:href="#Helvetica-Bold-51" transform="translate(322.25 0)"/>
     <use xlink:href="#Helvetica-Bold-4c" transform="translate(383.328125 0)"/>
     <use xlink:href="#Helvetica-Bold-46" transform="translate(411.109375 0)"/>
     <use xlink:href="#Helvetica-Bold-44" transform="translate(466.71875 0)"/>
     <use xlink:href="#Helvetica-Bold-4f" transform="translate(522.328125 0)"/>
    </g>
    <!-- 5 predictors -->
    <g transform="translate(311.582688 64.165503) scale(0.08 -0.08)">
     <defs>
      <path id="Helvetica-Bold-18" d="M 1706 2250 
Q 1544 2250 1425 2209 
Q 1216 2134 1109 1931 
L 309 1969 
L 628 4472 
L 3125 4472 
L 3125 3716 
L 1272 3716 
L 1109 2725 
Q 1316 2859 1431 2903 
Q 1625 2975 1903 2975 
Q 2466 2975 2884 2597 
Q 3303 2219 3303 1497 
Q 3303 869 2900 375 
Q 2497 -119 1694 -119 
Q 1047 -119 631 228 
Q 216 575 169 1213 
L 1056 1213 
Q 1109 922 1259 764 
Q 1409 606 1697 606 
Q 2028 606 2201 839 
Q 2375 1072 2375 1425 
Q 2375 1772 2212 2011 
Q 2050 2250 1706 2250 
z
" transform="scale(0.015625)"/>
     </defs>
     <use xlink:href="#Helvetica-Bold-18"/>
     <use xlink:href="#Helvetica-Bold-3" transform="translate(55.609375 0)"/>
     <use xlink:href="#Helvetica-Bold-53" transform="translate(83.390625 0)"/>
     <use xlink:href="#Helvetica-Bold-55" transform="translate(144.46875 0)"/>
     <use xlink:href="#Helvetica-Bold-48" transform="translate(183.390625 0)"/>
     <use xlink:href="#Helvetica-Bold-47" transform="translate(239 0)"/>
     <use xlink:href="#Helvetica-Bold-4c" transform="translate(300.078125 0)"/>
     <use xlink:href="#Helvetica-Bold-46" transform="translate(327.859375 0)"/>
     <use xlink:href="#Helvetica-Bold-57" transform="translate(383.46875 0)"/>
     <use xlink:href="#Helvetica-Bold-52" transform="translate(416.765625 0)"/>
     <use xlink:href="#Helvetica-Bold-55" transform="translate(477.84375 0)"/>
     <use xlink:href="#Helvetica-Bold-56" transform="translate(516.765625 0)"/>
    </g>
   </g>
   <g id="text_6">
    <!-- M1  + Iliopsoas -->
    <g transform="translate(305.915188 122.715649) scale(0.08 -0.08)">
     <defs>
      <path id="Helvetica-Bold-14" d="M 2422 0 
L 1509 0 
L 1509 3125 
L 444 3125 
L 444 3731 
Q 866 3750 1034 3788 
Q 1303 3847 1472 4025 
Q 1588 4147 1647 4350 
Q 1681 4472 1681 4531 
L 2422 4531 
L 2422 0 
z
" transform="scale(0.015625)"/>
      <path id="Helvetica-Bold-e" d="M 2331 1288 
L 2331 0 
L 1509 0 
L 1509 1288 
L 228 1288 
L 228 2103 
L 1509 2103 
L 1509 3384 
L 2331 3384 
L 2331 2103 
L 3613 2103 
L 3613 1288 
L 2331 1288 
z
" transform="scale(0.015625)"/>
      <path id="Helvetica-Bold-2c" d="M 413 4606 
L 1369 4606 
L 1369 0 
L 413 0 
L 413 4606 
z
" transform="scale(0.015625)"/>
     </defs>
     <use xlink:href="#Helvetica-Bold-30"/>
     <use xlink:href="#Helvetica-Bold-14" transform="translate(83.296875 0)"/>
     <use xlink:href="#Helvetica-Bold-3" transform="translate(138.90625 0)"/>
     <use xlink:href="#Helvetica-Bold-3" transform="translate(166.6875 0)"/>
     <use xlink:href="#Helvetica-Bold-e" transform="translate(194.46875 0)"/>
     <use xlink:href="#Helvetica-Bold-3" transform="translate(252.875 0)"/>
     <use xlink:href="#Helvetica-Bold-2c" transform="translate(280.65625 0)"/>
     <use xlink:href="#Helvetica-Bold-4f" transform="translate(308.4375 0)"/>
     <use xlink:href="#Helvetica-Bold-4c" transform="translate(336.21875 0)"/>
     <use xlink:href="#Helvetica-Bold-52" transform="translate(364 0)"/>
     <use xlink:href="#Helvetica-Bold-53" transform="translate(425.078125 0)"/>
     <use xlink:href="#Helvetica-Bold-56" transform="translate(486.15625 0)"/>
     <use xlink:href="#Helvetica-Bold-52" transform="translate(541.765625 0)"/>
     <use xlink:href="#Helvetica-Bold-44" transform="translate(602.84375 0)"/>
     <use xlink:href="#Helvetica-Bold-56" transform="translate(658.453125 0)"/>
    </g>
    <!-- 7 predictors -->
    <g transform="translate(311.582688 130.630181) scale(0.08 -0.08)">
     <defs>
      <path id="Helvetica-Bold-1a" d="M 2819 3075 
Q 2463 2569 2222 2031 
Q 2031 1609 1878 1000 
Q 1725 391 1725 0 
L 800 0 
Q 841 1219 1600 2534 
Q 2091 3350 2422 3672 
L 163 3672 
L 175 4472 
L 3375 4472 
L 3375 3775 
Q 3175 3578 2819 3075 
z
" transform="scale(0.015625)"/>
     </defs>
     <use xlink:href="#Helvetica-Bold-1a"/>
     <use xlink:href="#Helvetica-Bold-3" transform="translate(55.609375 0)"/>
     <use xlink:href="#Helvetica-Bold-53" transform="translate(83.390625 0)"/>
     <use xlink:href="#Helvetica-Bold-55" transform="translate(144.46875 0)"/>
     <use xlink:href="#Helvetica-Bold-48" transform="translate(183.390625 0)"/>
     <use xlink:href="#Helvetica-Bold-47" transform="translate(239 0)"/>
     <use xlink:href="#Helvetica-Bold-4c" transform="translate(300.078125 0)"/>
     <use xlink:href="#Helvetica-Bold-46" transform="translate(327.859375 0)"/>
     <use xlink:href="#Helvetica-Bold-57" transform="translate(383.46875 0)"/>
     <use xlink:href="#Helvetica-Bold-52" transform="translate(416.765625 0)"/>
     <use xlink:href="#Helvetica-Bold-55" transform="translate(477.84375 0)"/>
     <use xlink:href="#Helvetica-Bold-56" transform="translate(516.765625 0)"/>
    </g>
   </g>
   <g id="text_7">
    <!-- M2  + Multi-muscle -->
    <g transform="translate(298.805813 189.180327) scale(0.08 -0.08)">
     <defs>
      <path id="Helvetica-Bold-15" d="M 2225 3609 
Q 2066 3800 1769 3800 
Q 1363 3800 1216 3497 
Q 1131 3322 1116 2941 
L 250 2941 
Q 272 3519 459 3875 
Q 816 4553 1725 4553 
Q 2444 4553 2869 4154 
Q 3294 3756 3294 3100 
Q 3294 2597 2994 2206 
Q 2797 1947 2347 1628 
L 1991 1375 
Q 1656 1138 1532 1031 
Q 1409 925 1325 784 
L 3303 784 
L 3303 0 
L 200 0 
Q 213 488 409 891 
Q 600 1344 1309 1850 
Q 1925 2291 2106 2481 
Q 2384 2778 2384 3131 
Q 2384 3419 2225 3609 
z
" transform="scale(0.015625)"/>
      <path id="Helvetica-Bold-10" d="M 147 2206 
L 1941 2206 
L 1941 1363 
L 147 1363 
L 147 2206 
z
" transform="scale(0.015625)"/>
     </defs>
     <use xlink:href="#Helvetica-Bold-30"/>
     <use xlink:href="#Helvetica-Bold-15" transform="translate(83.296875 0)"/>
     <use xlink:href="#Helvetica-Bold-3" transform="translate(138.90625 0)"/>
     <use xlink:href="#Helvetica-Bold-3" transform="translate(166.6875 0)"/>
     <use xlink:href="#Helvetica-Bold-e" transform="translate(194.46875 0)"/>
     <use xlink:href="#Helvetica-Bold-3" transform="translate(252.875 0)"/>
     <use xlink:href="#Helvetica-Bold-30" transform="translate(280.65625 0)"/>
     <use xlink:href="#Helvetica-Bold-58" transform="translate(363.953125 0)"/>
     <use xlink:href="#Helvetica-Bold-4f" transform="translate(425.03125 0)"/>
     <use xlink:href="#Helvetica-Bold-57" transform="translate(452.8125 0)"/>
     <use xlink:href="#Helvetica-Bold-4c" transform="translate(486.109375 0)"/>
     <use xlink:href="#Helvetica-Bold-10" transform="translate(513.890625 0)"/>
     <use xlink:href="#Helvetica-Bold-50" transform="translate(547.1875 0)"/>
     <use xlink:href="#Helvetica-Bold-58" transform="translate(636.109375 0)"/>
     <use xlink:href="#Helvetica-Bold-56" transform="translate(697.1875 0)"/>
     <use xlink:href="#Helvetica-Bold-46" transform="translate(752.796875 0)"/>
     <use xlink:href="#Helvetica-Bold-4f" transform="translate(808.40625 0)"/>
     <use xlink:href="#Helvetica-Bold-48" transform="translate(836.1875 0)"/>
    </g>
    <!-- 11 predictors -->
    <g transform="translate(309.577063 196.777983) scale(0.08 -0.08)">
     <use xlink:href="#Helvetica-Bold-14"/>
     <use xlink:href="#Helvetica-Bold-14" transform="translate(50.140625 0)"/>
     <use xlink:href="#Helvetica-Bold-3" transform="translate(105.75 0)"/>
     <use xlink:href="#Helvetica-Bold-53" transform="translate(133.53125 0)"/>
     <use xlink:href="#Helvetica-Bold-55" transform="translate(194.609375 0)"/>
     <use xlink:href="#Helvetica-Bold-48" transform="translate(233.53125 0)"/>
     <use xlink:href="#Helvetica-Bold-47" transform="translate(289.140625 0)"/>
     <use xlink:href="#Helvetica-Bold-4c" transform="translate(350.21875 0)"/>
     <use xlink:href="#Helvetica-Bold-46" transform="translate(378 0)"/>
     <use xlink:href="#Helvetica-Bold-57" transform="translate(433.609375 0)"/>
     <use xlink:href="#Helvetica-Bold-52" transform="translate(466.90625 0)"/>
     <use xlink:href="#Helvetica-Bold-55" transform="translate(527.984375 0)"/>
     <use xlink:href="#Helvetica-Bold-56" transform="translate(566.90625 0)"/>
    </g>
   </g>
   <g id="patch_8">
    <path d="M 134.894533 95.14281 
Q 143.083705 101.558894 150.392794 107.285447 
" style="fill: none; stroke: #80796b; stroke-linecap: round"/>
    <path d="M 148.477583 103.244164 
L 150.392794 107.285447 
L 146.010641 106.392846 
" style="fill: none; stroke: #80796b; stroke-linecap: round"/>
   </g>
   <g id="patch_9">
    <path d="M 134.536928 158.623613 
Q 143.085918 147.460287 150.955139 137.184607 
" style="fill: none; stroke: #80796b; stroke-linecap: round"/>
    <path d="M 146.935257 139.144339 
L 150.955139 137.184607 
L 150.110995 141.576352 
" style="fill: none; stroke: #80796b; stroke-linecap: round"/>
   </g>
   <g id="patch_10">
    <path d="M 255.09558 120.081274 
Q 266.123153 90.081532 276.764985 61.131173 
" style="fill: none; opacity: 0.7; stroke: #80796b; stroke-linecap: round"/>
    <path d="M 273.507723 64.195522 
L 276.764985 61.131173 
L 277.262107 65.575593 
" style="fill: none; opacity: 0.7; stroke: #80796b; stroke-linecap: round"/>
   </g>
   <g id="patch_11">
    <path d="M 256.392971 122.177159 
Q 266.123249 123.235981 274.742054 124.173855 
" style="fill: none; opacity: 0.7; stroke: #80796b; stroke-linecap: round"/>
    <path d="M 270.981886 121.752878 
L 274.742054 124.173855 
L 270.549171 125.729404 
" style="fill: none; opacity: 0.7; stroke: #80796b; stroke-linecap: round"/>
   </g>
   <g id="patch_12">
    <path d="M 255.049807 123.856202 
Q 266.12322 156.390605 276.836394 187.8666 
" style="fill: none; opacity: 0.7; stroke: #80796b; stroke-linecap: round"/>
    <path d="M 277.440898 183.435509 
L 276.836394 187.8666 
L 273.654223 184.724342 
" style="fill: none; opacity: 0.7; stroke: #80796b; stroke-linecap: round"/>
   </g>
   <g id="text_8">
    <!-- Predictor lists shown are read directly from src/features.py (the fitted model design). -->
    <g style="fill: #80796b" transform="translate(87.241555 249.4728) scale(0.065 -0.065)">
     <use xlink:href="#Helvetica-33"/>
     <use xlink:href="#Helvetica-55" transform="translate(66.703125 0)"/>
     <use xlink:href="#Helvetica-48" transform="translate(100 0)"/>
     <use xlink:href="#Helvetica-47" transform="translate(155.609375 0)"/>
     <use xlink:href="#Helvetica-4c" transform="translate(211.21875 0)"/>
     <use xlink:href="#Helvetica-46" transform="translate(233.4375 0)"/>
     <use xlink:href="#Helvetica-57" transform="translate(283.4375 0)"/>
     <use xlink:href="#Helvetica-52" transform="translate(311.21875 0)"/>
     <use xlink:href="#Helvetica-55" transform="translate(366.828125 0)"/>
     <use xlink:href="#Helvetica-3" transform="translate(400.125 0)"/>
     <use xlink:href="#Helvetica-4f" transform="translate(427.90625 0)"/>
     <use xlink:href="#Helvetica-4c" transform="translate(450.125 0)"/>
     <use xlink:href="#Helvetica-56" transform="translate(472.34375 0)"/>
     <use xlink:href="#Helvetica-57" transform="translate(522.34375 0)"/>
     <use xlink:href="#Helvetica-56" transform="translate(550.125 0)"/>
     <use xlink:href="#Helvetica-3" transform="translate(600.125 0)"/>
     <use xlink:href="#Helvetica-56" transform="translate(627.90625 0)"/>
     <use xlink:href="#Helvetica-4b" transform="translate(677.90625 0)"/>
     <use xlink:href="#Helvetica-52" transform="translate(733.515625 0)"/>
     <use xlink:href="#Helvetica-5a" transform="translate(789.125 0)"/>
     <use xlink:href="#Helvetica-51" transform="translate(861.34375 0)"/>
     <use xlink:href="#Helvetica-3" transform="translate(916.953125 0)"/>
     <use xlink:href="#Helvetica-44" transform="translate(944.734375 0)"/>
     <use xlink:href="#Helvetica-55" transform="translate(1000.34375 0)"/>
     <use xlink:href="#Helvetica-48" transform="translate(1033.640625 0)"/>
     <use xlink:href="#Helvetica-3" transform="translate(1089.25 0)"/>
     <use xlink:href="#Helvetica-55" transform="translate(1117.03125 0)"/>
     <use xlink:href="#Helvetica-48" transform="translate(1150.328125 0)"/>
     <use xlink:href="#Helvetica-44" transform="translate(1205.9375 0)"/>
     <use xlink:href="#Helvetica-47" transform="translate(1261.546875 0)"/>
     <use xlink:href="#Helvetica-3" transform="translate(1317.15625 0)"/>
     <use xlink:href="#Helvetica-47" transform="translate(1344.9375 0)"/>
     <use xlink:href="#Helvetica-4c" transform="translate(1400.546875 0)"/>
     <use xlink:href="#Helvetica-55" transform="translate(1422.765625 0)"/>
     <use xlink:href="#Helvetica-48" transform="translate(1456.0625 0)"/>
     <use xlink:href="#Helvetica-46" transform="translate(1511.671875 0)"/>
     <use xlink:href="#Helvetica-57" transform="translate(1561.671875 0)"/>
     <use xlink:href="#Helvetica-4f" transform="translate(1589.453125 0)"/>
     <use xlink:href="#Helvetica-5c" transform="translate(1611.671875 0)"/>
     <use xlink:href="#Helvetica-3" transform="translate(1661.671875 0)"/>
     <use xlink:href="#Helvetica-49" transform="translate(1689.453125 0)"/>
     <use xlink:href="#Helvetica-55" transform="translate(1717.234375 0)"/>
     <use xlink:href="#Helvetica-52" transform="translate(1750.53125 0)"/>
     <use xlink:href="#Helvetica-50" transform="translate(1806.140625 0)"/>
     <use xlink:href="#Helvetica-3" transform="translate(1889.4375 0)"/>
     <use xlink:href="#Helvetica-56" transform="translate(1917.21875 0)"/>
     <use xlink:href="#Helvetica-55" transform="translate(1967.21875 0)"/>
     <use xlink:href="#Helvetica-46" transform="translate(2000.515625 0)"/>
     <use xlink:href="#Helvetica-12" transform="translate(2050.515625 0)"/>
     <use xlink:href="#Helvetica-49" transform="translate(2078.296875 0)"/>
     <use xlink:href="#Helvetica-48" transform="translate(2106.078125 0)"/>
     <use xlink:href="#Helvetica-44" transform="translate(2161.6875 0)"/>
     <use xlink:href="#Helvetica-57" transform="translate(2217.296875 0)"/>
     <use xlink:href="#Helvetica-58" transform="translate(2245.078125 0)"/>
     <use xlink:href="#Helvetica-55" transform="translate(2300.6875 0)"/>
     <use xlink:href="#Helvetica-48" transform="translate(2333.984375 0)"/>
     <use xlink:href="#Helvetica-56" transform="translate(2389.59375 0)"/>
     <use xlink:href="#Helvetica-11" transform="translate(2439.59375 0)"/>
     <use xlink:href="#Helvetica-53" transform="translate(2467.375 0)"/>
     <use xlink:href="#Helvetica-5c" transform="translate(2522.984375 0)"/>
     <use xlink:href="#Helvetica-3" transform="translate(2572.984375 0)"/>
     <use xlink:href="#Helvetica-b" transform="translate(2600.765625 0)"/>
     <use xlink:href="#Helvetica-57" transform="translate(2634.0625 0)"/>
     <use xlink:href="#Helvetica-4b" transform="translate(2661.84375 0)"/>
     <use xlink:href="#Helvetica-48" transform="translate(2717.453125 0)"/>
     <use xlink:href="#Helvetica-3" transform="translate(2773.0625 0)"/>
     <use xlink:href="#Helvetica-c0" transform="translate(2800.84375 0)"/>
     <use xlink:href="#Helvetica-57" transform="translate(2850.84375 0)"/>
     <use xlink:href="#Helvetica-57" transform="translate(2878.625 0)"/>
     <use xlink:href="#Helvetica-48" transform="translate(2906.40625 0)"/>
     <use xlink:href="#Helvetica-47" transform="translate(2962.015625 0)"/>
     <use xlink:href="#Helvetica-3" transform="translate(3017.625 0)"/>
     <use xlink:href="#Helvetica-50" transform="translate(3045.40625 0)"/>
     <use xlink:href="#Helvetica-52" transform="translate(3128.703125 0)"/>
     <use xlink:href="#Helvetica-47" transform="translate(3184.3125 0)"/>
     <use xlink:href="#Helvetica-48" transform="translate(3239.921875 0)"/>
     <use xlink:href="#Helvetica-4f" transform="translate(3295.53125 0)"/>
     <use xlink:href="#Helvetica-3" transform="translate(3317.75 0)"/>
     <use xlink:href="#Helvetica-47" transform="translate(3345.53125 0)"/>
     <use xlink:href="#Helvetica-48" transform="translate(3401.140625 0)"/>
     <use xlink:href="#Helvetica-56" transform="translate(3456.75 0)"/>
     <use xlink:href="#Helvetica-4c" transform="translate(3506.75 0)"/>
     <use xlink:href="#Helvetica-4a" transform="translate(3528.96875 0)"/>
     <use xlink:href="#Helvetica-51" transform="translate(3584.578125 0)"/>
     <use xlink:href="#Helvetica-c" transform="translate(3640.1875 0)"/>
     <use xlink:href="#Helvetica-11" transform="translate(3673.484375 0)"/>
    </g>
   </g>
  </g>
 </g>
 <defs>
  <clipPath id="pe69332cbe5">
   <rect x="12.232687" y="7.2" width="390.6" height="255.024"/>
  </clipPath>
 </defs>
</svg>
