<?xml version="1.0" encoding="utf-8" standalone="no"?>
<!DOCTYPE svg PUBLIC "-//W3C//DTD SVG 1.1//EN"
  "http://www.w3.org/Graphics/SVG/1.1/DTD/svg11.dtd">
<svg xmlns:xlink="http://www.w3.org/1999/xlink" width="248.76pt" height="269.424pt" viewBox="0 0 248.76 269.424" xmlns="http://www.w3.org/2000/svg" version="1.1">
 <metadata>
  <rdf:RDF xmlns:dc="http://purl.org/dc/elements/1.1/" xmlns:cc="http://creativecommons.org/ns#" xmlns:rdf="http://www.w3.org/1999/02/22-rdf-syntax-ns#">
   <cc:Work>
    <dc:type rdf:resource="http://purl.org/dc/dcmitype/StillImage"/>
    <dc:date>2026-07-08T20:32:38.752512</dc:date>
    <dc:format>image/svg+xml</dc:format>
    <dc:creator>
     <cc:Agent>
      <dc:title>Matplotlib v3.11.0, https://matplotlib.org/</dc:title>
     </cc:Agent>
    </dc:creator>
   </cc:Work>
  </rdf:RDF>
 </metadata>
 <defs>
  <style type="text/css">*{stroke-linejoin: round; stroke-linecap: butt}</style>
 </defs>
 <g id="figure_1">
  <g id="patch_1">
   <path d="M 0 269.424 
L 248.76 269.424 
L 248.76 0 
L 0 0 
z
" style="fill: #ffffff"/>
  </g>
  <g id="axes_1">
   <g id="patch_2">
    <path d="M 43.29144 59.734944 
L 205.46856 59.734944 
Q 207.81216 59.734944 207.81216 57.184704 
L 207.81216 26.071776 
Q 207.81216 23.521536 205.46856 23.521536 
L 43.29144 23.521536 
Q 40.94784 23.521536 40.94784 26.071776 
L 40.94784 57.184704 
Q 40.94784 59.734944 43.29144 59.734944 
z
" clip-path="url(#pc05ac1f842)" style="fill: #edf1f2; stroke: #374e55; stroke-linejoin: miter"/>
   </g>
   <g id="patch_3">
    <path d="M 43.29144 123.490944 
L 205.46856 123.490944 
Q 207.81216 123.490944 207.81216 120.940704 
L 207.81216 89.827776 
Q 207.81216 87.277536 205.46856 87.277536 
L 43.29144 87.277536 
Q 40.94784 87.277536 40.94784 89.827776 
L 40.94784 120.940704 
Q 40.94784 123.490944 43.29144 123.490944 
z
" clip-path="url(#pc05ac1f842)" style="fill: #eaf5fa; stroke: #00a1d5; stroke-linejoin: miter"/>
   </g>
   <g id="patch_4">
    <path d="M 43.29144 187.246944 
L 205.46856 187.246944 
Q 207.81216 187.246944 207.81216 184.696704 
L 207.81216 153.583776 
Q 207.81216 151.033536 205.46856 151.033536 
L 43.29144 151.033536 
Q 40.94784 151.033536 40.94784 153.583776 
L 40.94784 184.696704 
Q 40.94784 187.246944 43.29144 187.246944 
z
" clip-path="url(#pc05ac1f842)" style="fill: #ffffff; stroke: #374e55; stroke-linejoin: miter"/>
   </g>
   <g id="patch_5">
    <path d="M 19.85544 248.452704 
L 116.41176 248.452704 
Q 118.75536 248.452704 118.75536 245.902464 
L 118.75536 212.239296 
Q 118.75536 209.689056 116.41176 209.689056 
L 19.85544 209.689056 
Q 17.51184 209.689056 17.51184 212.239296 
L 17.51184 245.902464 
Q 17.51184 248.452704 19.85544 248.452704 
z
" clip-path="url(#pc05ac1f842)" style="fill: #ffffff; stroke: #79af97; stroke-linejoin: miter"/>
   </g>
   <g id="patch_6">
    <path d="M 132.34824 248.452704 
L 228.90456 248.452704 
Q 231.24816 248.452704 231.24816 245.902464 
L 231.24816 212.239296 
Q 231.24816 209.689056 228.90456 209.689056 
L 132.34824 209.689056 
Q 130.00464 209.689056 130.00464 212.239296 
L 130.00464 245.902464 
Q 130.00464 248.452704 132.34824 248.452704 
z
" clip-path="url(#pc05ac1f842)" style="fill: #ffffff; stroke: #b24745; stroke-linejoin: miter"/>
   </g>
   <g id="text_1">
    <!-- Patients undergoing lumbar spine surgery -->
    <g transform="translate(50.3425 39.790349) scale(0.08 -0.08)">
     <defs>
      <path id="Helvetica-33" d="M 547 4591 
L 2613 4591 
Q 3225 4591 3600 4245 
Q 3975 3900 3975 3275 
Q 3975 2738 3640 2339 
Q 3306 1941 2613 1941 
L 1169 1941 
L 1169 0 
L 547 0 
L 547 4591 
z
M 3347 3272 
Q 3347 3778 2972 3959 
Q 2766 4056 2406 4056 
L 1169 4056 
L 1169 2466 
L 2406 2466 
Q 2825 2466 3086 2644 
Q 3347 2822 3347 3272 
z
" transform="scale(0.015625)"/>
      <path id="Helvetica-44" d="M 844 891 
Q 844 647 1022 506 
Q 1200 366 1444 366 
Q 1741 366 2019 503 
Q 2488 731 2488 1250 
L 2488 1703 
Q 2384 1638 2221 1594 
Q 2059 1550 1903 1531 
L 1563 1488 
Q 1256 1447 1103 1359 
Q 844 1213 844 891 
z
M 2206 2028 
Q 2400 2053 2466 2191 
Q 2503 2266 2503 2406 
Q 2503 2694 2298 2823 
Q 2094 2953 1713 2953 
Q 1272 2953 1088 2716 
Q 984 2584 953 2325 
L 428 2325 
Q 444 2944 830 3186 
Q 1216 3428 1725 3428 
Q 2316 3428 2684 3203 
Q 3050 2978 3050 2503 
L 3050 575 
Q 3050 488 3086 434 
Q 3122 381 3238 381 
Q 3275 381 3322 386 
Q 3369 391 3422 400 
L 3422 -16 
Q 3291 -53 3222 -62 
Q 3153 -72 3034 -72 
Q 2744 -72 2613 134 
Q 2544 244 2516 444 
Q 2344 219 2022 53 
Q 1700 -113 1313 -113 
Q 847 -113 551 170 
Q 256 453 256 878 
Q 256 1344 547 1600 
Q 838 1856 1309 1916 
L 2206 2028 
z
M 1741 3428 
L 1741 3428 
z
" transform="scale(0.015625)"/>
      <path id="Helvetica-57" d="M 525 4281 
L 1094 4281 
L 1094 3347 
L 1628 3347 
L 1628 2888 
L 1094 2888 
L 1094 703 
Q 1094 528 1213 469 
Q 1278 434 1431 434 
Q 1472 434 1519 436 
Q 1566 438 1628 444 
L 1628 0 
Q 1531 -28 1426 -40 
Q 1322 -53 1200 -53 
Q 806 -53 665 148 
Q 525 350 525 672 
L 525 2888 
L 72 2888 
L 72 3347 
L 525 3347 
L 525 4281 
z
" transform="scale(0.015625)"/>
      <path id="Helvetica-4c" d="M 413 3331 
L 984 3331 
L 984 0 
L 413 0 
L 413 3331 
z
M 413 4591 
L 984 4591 
L 984 3953 
L 413 3953 
L 413 4591 
z
" transform="scale(0.015625)"/>
      <path id="Helvetica-48" d="M 1806 3422 
Q 2163 3422 2497 3255 
Q 2831 3088 3006 2822 
Q 3175 2569 3231 2231 
Q 3281 2000 3281 1494 
L 828 1494 
Q 844 984 1069 676 
Q 1294 369 1766 369 
Q 2206 369 2469 659 
Q 2619 828 2681 1050 
L 3234 1050 
Q 3213 866 3089 639 
Q 2966 413 2813 269 
Q 2556 19 2178 -69 
Q 1975 -119 1719 -119 
Q 1094 -119 659 336 
Q 225 791 225 1609 
Q 225 2416 662 2919 
Q 1100 3422 1806 3422 
z
M 2703 1941 
Q 2669 2306 2544 2525 
Q 2313 2931 1772 2931 
Q 1384 2931 1121 2651 
Q 859 2372 844 1941 
L 2703 1941 
z
M 1753 3428 
L 1753 3428 
z
" transform="scale(0.015625)"/>
      <path id="Helvetica-51" d="M 413 3347 
L 947 3347 
L 947 2872 
Q 1184 3166 1450 3294 
Q 1716 3422 2041 3422 
Q 2753 3422 3003 2925 
Q 3141 2653 3141 2147 
L 3141 0 
L 2569 0 
L 2569 2109 
Q 2569 2416 2478 2603 
Q 2328 2916 1934 2916 
Q 1734 2916 1606 2875 
Q 1375 2806 1200 2600 
Q 1059 2434 1017 2257 
Q 975 2081 975 1753 
L 975 0 
L 413 0 
L 413 3347 
z
M 1734 3428 
L 1734 3428 
z
" transform="scale(0.015625)"/>
      <path id="Helvetica-56" d="M 747 1050 
Q 772 769 888 619 
Q 1100 347 1625 347 
Q 1938 347 2175 483 
Q 2413 619 2413 903 
Q 2413 1119 2222 1231 
Q 2100 1300 1741 1391 
L 1294 1503 
Q 866 1609 663 1741 
Q 300 1969 300 2372 
Q 300 2847 642 3140 
Q 984 3434 1563 3434 
Q 2319 3434 2653 2991 
Q 2863 2709 2856 2384 
L 2325 2384 
Q 2309 2575 2191 2731 
Q 1997 2953 1519 2953 
Q 1200 2953 1036 2831 
Q 872 2709 872 2509 
Q 872 2291 1088 2159 
Q 1213 2081 1456 2022 
L 1828 1931 
Q 2434 1784 2641 1647 
Q 2969 1431 2969 969 
Q 2969 522 2630 197 
Q 2291 -128 1597 -128 
Q 850 -128 539 211 
Q 228 550 206 1050 
L 747 1050 
z
M 1578 3428 
L 1578 3428 
z
" transform="scale(0.015625)"/>
      <path id="Helvetica-3" transform="scale(0.015625)"/>
      <path id="Helvetica-58" d="M 975 3347 
L 975 1125 
Q 975 869 1056 706 
Q 1206 406 1616 406 
Q 2203 406 2416 931 
Q 2531 1213 2531 1703 
L 2531 3347 
L 3094 3347 
L 3094 0 
L 2563 0 
L 2569 494 
Q 2459 303 2297 172 
Q 1975 -91 1516 -91 
Q 800 -91 541 388 
Q 400 644 400 1072 
L 400 3347 
L 975 3347 
z
M 1747 3428 
L 1747 3428 
z
" transform="scale(0.015625)"/>
      <path id="Helvetica-47" d="M 769 1634 
Q 769 1097 997 734 
Q 1225 372 1728 372 
Q 2119 372 2370 708 
Q 2622 1044 2622 1672 
Q 2622 2306 2362 2611 
Q 2103 2916 1722 2916 
Q 1297 2916 1033 2591 
Q 769 2266 769 1634 
z
M 1616 3406 
Q 2000 3406 2259 3244 
Q 2409 3150 2600 2916 
L 2600 4606 
L 3141 4606 
L 3141 0 
L 2634 0 
L 2634 466 
Q 2438 156 2169 18 
Q 1900 -119 1553 -119 
Q 994 -119 584 351 
Q 175 822 175 1603 
Q 175 2334 548 2870 
Q 922 3406 1616 3406 
z
" transform="scale(0.015625)"/>
      <path id="Helvetica-55" d="M 428 3347 
L 963 3347 
L 963 2769 
Q 1028 2938 1284 3180 
Q 1541 3422 1875 3422 
Q 1891 3422 1928 3419 
Q 1966 3416 2056 3406 
L 2056 2813 
Q 2006 2822 1964 2825 
Q 1922 2828 1872 2828 
Q 1447 2828 1219 2554 
Q 991 2281 991 1925 
L 991 0 
L 428 0 
L 428 3347 
z
" transform="scale(0.015625)"/>
      <path id="Helvetica-4a" d="M 1594 3406 
Q 1988 3406 2281 3213 
Q 2441 3103 2606 2894 
L 2606 3316 
L 3125 3316 
L 3125 272 
Q 3125 -366 2938 -734 
Q 2588 -1416 1616 -1416 
Q 1075 -1416 706 -1173 
Q 338 -931 294 -416 
L 866 -416 
Q 906 -641 1028 -763 
Q 1219 -950 1628 -950 
Q 2275 -950 2475 -494 
Q 2594 -225 2584 466 
Q 2416 209 2178 84 
Q 1941 -41 1550 -41 
Q 1006 -41 598 345 
Q 191 731 191 1622 
Q 191 2463 602 2934 
Q 1013 3406 1594 3406 
z
M 2606 1688 
Q 2606 2309 2350 2609 
Q 2094 2909 1697 2909 
Q 1103 2909 884 2353 
Q 769 2056 769 1575 
Q 769 1009 998 714 
Q 1228 419 1616 419 
Q 2222 419 2469 966 
Q 2606 1275 2606 1688 
z
M 1659 3428 
L 1659 3428 
z
" transform="scale(0.015625)"/>
      <path id="Helvetica-52" d="M 1741 363 
Q 2300 363 2508 786 
Q 2716 1209 2716 1728 
Q 2716 2197 2566 2491 
Q 2328 2953 1747 2953 
Q 1231 2953 997 2559 
Q 763 2166 763 1609 
Q 763 1075 997 719 
Q 1231 363 1741 363 
z
M 1763 3444 
Q 2409 3444 2856 3012 
Q 3303 2581 3303 1744 
Q 3303 934 2909 406 
Q 2516 -122 1688 -122 
Q 997 -122 590 345 
Q 184 813 184 1600 
Q 184 2444 612 2944 
Q 1041 3444 1763 3444 
z
M 1744 3428 
L 1744 3428 
z
" transform="scale(0.015625)"/>
      <path id="Helvetica-4f" d="M 428 4591 
L 991 4591 
L 991 0 
L 428 0 
L 428 4591 
z
" transform="scale(0.015625)"/>
      <path id="Helvetica-50" d="M 413 3347 
L 969 3347 
L 969 2872 
Q 1169 3119 1331 3231 
Q 1609 3422 1963 3422 
Q 2363 3422 2606 3225 
Q 2744 3113 2856 2894 
Q 3044 3163 3297 3292 
Q 3550 3422 3866 3422 
Q 4541 3422 4784 2934 
Q 4916 2672 4916 2228 
L 4916 0 
L 4331 0 
L 4331 2325 
Q 4331 2659 4164 2784 
Q 3997 2909 3756 2909 
Q 3425 2909 3186 2687 
Q 2947 2466 2947 1947 
L 2947 0 
L 2375 0 
L 2375 2184 
Q 2375 2525 2294 2681 
Q 2166 2916 1816 2916 
Q 1497 2916 1236 2669 
Q 975 2422 975 1775 
L 975 0 
L 413 0 
L 413 3347 
z
" transform="scale(0.015625)"/>
      <path id="Helvetica-45" d="M 369 4606 
L 916 4606 
L 916 2941 
Q 1100 3181 1356 3307 
Q 1613 3434 1913 3434 
Q 2538 3434 2927 3004 
Q 3316 2575 3316 1738 
Q 3316 944 2931 419 
Q 2547 -106 1866 -106 
Q 1484 -106 1222 78 
Q 1066 188 888 428 
L 888 0 
L 369 0 
L 369 4606 
z
M 1831 391 
Q 2288 391 2514 753 
Q 2741 1116 2741 1709 
Q 2741 2238 2514 2584 
Q 2288 2931 1847 2931 
Q 1463 2931 1173 2647 
Q 884 2363 884 1709 
Q 884 1238 1003 944 
Q 1225 391 1831 391 
z
" transform="scale(0.015625)"/>
      <path id="Helvetica-53" d="M 1825 378 
Q 2219 378 2480 708 
Q 2741 1038 2741 1694 
Q 2741 2094 2625 2381 
Q 2406 2934 1825 2934 
Q 1241 2934 1025 2350 
Q 909 2038 909 1556 
Q 909 1169 1025 897 
Q 1244 378 1825 378 
z
M 369 3331 
L 916 3331 
L 916 2888 
Q 1084 3116 1284 3241 
Q 1569 3428 1953 3428 
Q 2522 3428 2919 2992 
Q 3316 2556 3316 1747 
Q 3316 653 2744 184 
Q 2381 -113 1900 -113 
Q 1522 -113 1266 53 
Q 1116 147 931 375 
L 931 -1334 
L 369 -1334 
L 369 3331 
z
" transform="scale(0.015625)"/>
      <path id="Helvetica-5c" d="M 2503 3347 
L 3125 3347 
Q 3006 3025 2597 1878 
Q 2291 1016 2084 472 
Q 1597 -809 1397 -1090 
Q 1197 -1372 709 -1372 
Q 591 -1372 527 -1362 
Q 463 -1353 369 -1328 
L 369 -816 
Q 516 -856 581 -865 
Q 647 -875 697 -875 
Q 853 -875 926 -823 
Q 1000 -772 1050 -697 
Q 1066 -672 1162 -440 
Q 1259 -209 1303 -97 
L 66 3347 
L 703 3347 
L 1600 622 
L 2503 3347 
z
M 1597 3428 
L 1597 3428 
z
" transform="scale(0.015625)"/>
     </defs>
     <use xlink:href="#Helvetica-33"/>
     <use xlink:href="#Helvetica-44" transform="translate(66.703125 0)"/>
     <use xlink:href="#Helvetica-57" transform="translate(122.3125 0)"/>
     <use xlink:href="#Helvetica-4c" transform="translate(150.09375 0)"/>
     <use xlink:href="#Helvetica-48" transform="translate(172.3125 0)"/>
     <use xlink:href="#Helvetica-51" transform="translate(227.921875 0)"/>
     <use xlink:href="#Helvetica-57" transform="translate(283.53125 0)"/>
     <use xlink:href="#Helvetica-56" transform="translate(311.3125 0)"/>
     <use xlink:href="#Helvetica-3" transform="translate(361.3125 0)"/>
     <use xlink:href="#Helvetica-58" transform="translate(389.09375 0)"/>
     <use xlink:href="#Helvetica-51" transform="translate(444.703125 0)"/>
     <use xlink:href="#Helvetica-47" transform="translate(500.3125 0)"/>
     <use xlink:href="#Helvetica-48" transform="translate(555.921875 0)"/>
     <use xlink:href="#Helvetica-55" transform="translate(611.53125 0)"/>
     <use xlink:href="#Helvetica-4a" transform="translate(644.828125 0)"/>
     <use xlink:href="#Helvetica-52" transform="translate(700.4375 0)"/>
     <use xlink:href="#Helvetica-4c" transform="translate(756.046875 0)"/>
     <use xlink:href="#Helvetica-51" transform="translate(778.265625 0)"/>
     <use xlink:href="#Helvetica-4a" transform="translate(833.875 0)"/>
     <use xlink:href="#Helvetica-3" transform="translate(889.484375 0)"/>
     <use xlink:href="#Helvetica-4f" transform="translate(917.265625 0)"/>
     <use xlink:href="#Helvetica-58" transform="translate(939.484375 0)"/>
     <use xlink:href="#Helvetica-50" transform="translate(995.09375 0)"/>
     <use xlink:href="#Helvetica-45" transform="translate(1078.390625 0)"/>
     <use xlink:href="#Helvetica-44" transform="translate(1134 0)"/>
     <use xlink:href="#Helvetica-55" transform="translate(1189.609375 0)"/>
     <use xlink:href="#Helvetica-3" transform="translate(1222.90625 0)"/>
     <use xlink:href="#Helvetica-56" transform="translate(1250.6875 0)"/>
     <use xlink:href="#Helvetica-53" transform="translate(1300.6875 0)"/>
     <use xlink:href="#Helvetica-4c" transform="translate(1356.296875 0)"/>
     <use xlink:href="#Helvetica-51" transform="translate(1378.515625 0)"/>
     <use xlink:href="#Helvetica-48" transform="translate(1434.125 0)"/>
     <use xlink:href="#Helvetica-3" transform="translate(1489.734375 0)"/>
     <use xlink:href="#Helvetica-56" transform="translate(1517.515625 0)"/>
     <use xlink:href="#Helvetica-58" transform="translate(1567.515625 0)"/>
     <use xlink:href="#Helvetica-55" transform="translate(1623.125 0)"/>
     <use xlink:href="#Helvetica-4a" transform="translate(1656.421875 0)"/>
     <use xlink:href="#Helvetica-48" transform="translate(1712.03125 0)"/>
     <use xlink:href="#Helvetica-55" transform="translate(1767.640625 0)"/>
     <use xlink:href="#Helvetica-5c" transform="translate(1800.9375 0)"/>
    </g>
    <!-- with preoperative lumbar MRI -->
    <g transform="translate(72.14125 47.798631) scale(0.08 -0.08)">
     <defs>
      <path id="Helvetica-5a" d="M 672 3347 
L 1316 709 
L 1969 3347 
L 2600 3347 
L 3256 725 
L 3941 3347 
L 4503 3347 
L 3531 0 
L 2947 0 
L 2266 2591 
L 1606 0 
L 1022 0 
L 56 3347 
L 672 3347 
z
" transform="scale(0.015625)"/>
      <path id="Helvetica-4b" d="M 413 4606 
L 975 4606 
L 975 2894 
Q 1175 3147 1334 3250 
Q 1606 3428 2013 3428 
Q 2741 3428 3000 2919 
Q 3141 2641 3141 2147 
L 3141 0 
L 2563 0 
L 2563 2109 
Q 2563 2478 2469 2650 
Q 2316 2925 1894 2925 
Q 1544 2925 1259 2684 
Q 975 2444 975 1775 
L 975 0 
L 413 0 
L 413 4606 
z
" transform="scale(0.015625)"/>
      <path id="Helvetica-59" d="M 688 3347 
L 1581 622 
L 2516 3347 
L 3131 3347 
L 1869 0 
L 1269 0 
L 34 3347 
L 688 3347 
z
" transform="scale(0.015625)"/>
      <path id="Helvetica-30" d="M 472 4591 
L 1363 4591 
L 2681 709 
L 3991 4591 
L 4872 4591 
L 4872 0 
L 4281 0 
L 4281 2709 
Q 4281 2850 4287 3175 
Q 4294 3500 4294 3872 
L 2984 0 
L 2369 0 
L 1050 3872 
L 1050 3731 
Q 1050 3563 1058 3217 
Q 1066 2872 1066 2709 
L 1066 0 
L 472 0 
L 472 4591 
z
" transform="scale(0.015625)"/>
      <path id="Helvetica-35" d="M 2622 2488 
Q 3059 2488 3314 2663 
Q 3569 2838 3569 3294 
Q 3569 3784 3213 3963 
Q 3022 4056 2703 4056 
L 1184 4056 
L 1184 2488 
L 2622 2488 
z
M 563 4591 
L 2688 4591 
Q 3213 4591 3553 4438 
Q 4200 4144 4200 3353 
Q 4200 2941 4029 2678 
Q 3859 2416 3553 2256 
Q 3822 2147 3958 1969 
Q 4094 1791 4109 1391 
L 4131 775 
Q 4141 513 4175 384 
Q 4231 166 4375 103 
L 4375 0 
L 3613 0 
Q 3581 59 3562 153 
Q 3544 247 3531 516 
L 3494 1281 
Q 3472 1731 3159 1884 
Q 2981 1969 2600 1969 
L 1184 1969 
L 1184 0 
L 563 0 
L 563 4591 
z
" transform="scale(0.015625)"/>
      <path id="Helvetica-2c" d="M 628 4591 
L 1256 4591 
L 1256 0 
L 628 0 
L 628 4591 
z
" transform="scale(0.015625)"/>
     </defs>
     <use xlink:href="#Helvetica-5a"/>
     <use xlink:href="#Helvetica-4c" transform="translate(72.21875 0)"/>
     <use xlink:href="#Helvetica-57" transform="translate(94.4375 0)"/>
     <use xlink:href="#Helvetica-4b" transform="translate(122.21875 0)"/>
     <use xlink:href="#Helvetica-3" transform="translate(177.828125 0)"/>
     <use xlink:href="#Helvetica-53" transform="translate(205.609375 0)"/>
     <use xlink:href="#Helvetica-55" transform="translate(261.21875 0)"/>
     <use xlink:href="#Helvetica-48" transform="translate(294.515625 0)"/>
     <use xlink:href="#Helvetica-52" transform="translate(350.125 0)"/>
     <use xlink:href="#Helvetica-53" transform="translate(405.734375 0)"/>
     <use xlink:href="#Helvetica-48" transform="translate(461.34375 0)"/>
     <use xlink:href="#Helvetica-55" transform="translate(516.953125 0)"/>
     <use xlink:href="#Helvetica-44" transform="translate(550.25 0)"/>
     <use xlink:href="#Helvetica-57" transform="translate(605.859375 0)"/>
     <use xlink:href="#Helvetica-4c" transform="translate(633.640625 0)"/>
     <use xlink:href="#Helvetica-59" transform="translate(655.859375 0)"/>
     <use xlink:href="#Helvetica-48" transform="translate(705.859375 0)"/>
     <use xlink:href="#Helvetica-3" transform="translate(761.46875 0)"/>
     <use xlink:href="#Helvetica-4f" transform="translate(789.25 0)"/>
     <use xlink:href="#Helvetica-58" transform="translate(811.46875 0)"/>
     <use xlink:href="#Helvetica-50" transform="translate(867.078125 0)"/>
     <use xlink:href="#Helvetica-45" transform="translate(950.375 0)"/>
     <use xlink:href="#Helvetica-44" transform="translate(1005.984375 0)"/>
     <use xlink:href="#Helvetica-55" transform="translate(1061.59375 0)"/>
     <use xlink:href="#Helvetica-3" transform="translate(1094.890625 0)"/>
     <use xlink:href="#Helvetica-30" transform="translate(1122.671875 0)"/>
     <use xlink:href="#Helvetica-35" transform="translate(1205.96875 0)"/>
     <use xlink:href="#Helvetica-2c" transform="translate(1278.1875 0)"/>
    </g>
   </g>
   <g id="text_2">
    <!-- Successful multi-muscle segmentation -->
    <g transform="translate(56.35625 103.546349) scale(0.08 -0.08)">
     <defs>
      <path id="Helvetica-36" d="M 894 1481 
Q 916 1091 1078 847 
Q 1388 391 2169 391 
Q 2519 391 2806 491 
Q 3363 684 3363 1184 
Q 3363 1559 3128 1719 
Q 2891 1875 2384 1991 
L 1763 2131 
Q 1153 2269 900 2434 
Q 463 2722 463 3294 
Q 463 3913 891 4309 
Q 1319 4706 2103 4706 
Q 2825 4706 3329 4357 
Q 3834 4009 3834 3244 
L 3250 3244 
Q 3203 3613 3050 3809 
Q 2766 4169 2084 4169 
Q 1534 4169 1293 3937 
Q 1053 3706 1053 3400 
Q 1053 3063 1334 2906 
Q 1519 2806 2169 2656 
L 2813 2509 
Q 3278 2403 3531 2219 
Q 3969 1897 3969 1284 
Q 3969 522 3414 194 
Q 2859 -134 2125 -134 
Q 1269 -134 784 303 
Q 300 738 309 1481 
L 894 1481 
z
M 2150 4716 
L 2150 4716 
z
" transform="scale(0.015625)"/>
      <path id="Helvetica-46" d="M 1703 3444 
Q 2269 3444 2623 3169 
Q 2978 2894 3050 2222 
L 2503 2222 
Q 2453 2531 2275 2736 
Q 2097 2941 1703 2941 
Q 1166 2941 934 2416 
Q 784 2075 784 1575 
Q 784 1072 996 728 
Q 1209 384 1666 384 
Q 2016 384 2220 598 
Q 2425 813 2503 1184 
L 3050 1184 
Q 2956 519 2581 211 
Q 2206 -97 1622 -97 
Q 966 -97 575 383 
Q 184 863 184 1581 
Q 184 2463 612 2953 
Q 1041 3444 1703 3444 
z
M 1616 3428 
L 1616 3428 
z
" transform="scale(0.015625)"/>
      <path id="Helvetica-49" d="M 553 3856 
Q 566 4206 675 4369 
Q 872 4656 1434 4656 
Q 1488 4656 1544 4653 
Q 1600 4650 1672 4644 
L 1672 4131 
Q 1584 4138 1545 4139 
Q 1506 4141 1472 4141 
Q 1216 4141 1166 4008 
Q 1116 3875 1116 3331 
L 1672 3331 
L 1672 2888 
L 1109 2888 
L 1109 0 
L 553 0 
L 553 2888 
L 88 2888 
L 88 3331 
L 553 3331 
L 553 3856 
z
" transform="scale(0.015625)"/>
      <path id="Helvetica-10" d="M 266 2072 
L 1834 2072 
L 1834 1494 
L 266 1494 
L 266 2072 
z
" transform="scale(0.015625)"/>
     </defs>
     <use xlink:href="#Helvetica-36"/>
     <use xlink:href="#Helvetica-58" transform="translate(66.703125 0)"/>
     <use xlink:href="#Helvetica-46" transform="translate(122.3125 0)"/>
     <use xlink:href="#Helvetica-46" transform="translate(172.3125 0)"/>
     <use xlink:href="#Helvetica-48" transform="translate(222.3125 0)"/>
     <use xlink:href="#Helvetica-56" transform="translate(277.921875 0)"/>
     <use xlink:href="#Helvetica-56" transform="translate(327.921875 0)"/>
     <use xlink:href="#Helvetica-49" transform="translate(377.921875 0)"/>
     <use xlink:href="#Helvetica-58" transform="translate(405.703125 0)"/>
     <use xlink:href="#Helvetica-4f" transform="translate(461.3125 0)"/>
     <use xlink:href="#Helvetica-3" transform="translate(483.53125 0)"/>
     <use xlink:href="#Helvetica-50" transform="translate(511.3125 0)"/>
     <use xlink:href="#Helvetica-58" transform="translate(594.609375 0)"/>
     <use xlink:href="#Helvetica-4f" transform="translate(650.21875 0)"/>
     <use xlink:href="#Helvetica-57" transform="translate(672.4375 0)"/>
     <use xlink:href="#Helvetica-4c" transform="translate(700.21875 0)"/>
     <use xlink:href="#Helvetica-10" transform="translate(722.4375 0)"/>
     <use xlink:href="#Helvetica-50" transform="translate(755.734375 0)"/>
     <use xlink:href="#Helvetica-58" transform="translate(839.03125 0)"/>
     <use xlink:href="#Helvetica-56" transform="translate(894.640625 0)"/>
     <use xlink:href="#Helvetica-46" transform="translate(944.640625 0)"/>
     <use xlink:href="#Helvetica-4f" transform="translate(994.640625 0)"/>
     <use xlink:href="#Helvetica-48" transform="translate(1016.859375 0)"/>
     <use xlink:href="#Helvetica-3" transform="translate(1072.46875 0)"/>
     <use xlink:href="#Helvetica-56" transform="translate(1100.25 0)"/>
     <use xlink:href="#Helvetica-48" transform="translate(1150.25 0)"/>
     <use xlink:href="#Helvetica-4a" transform="translate(1205.859375 0)"/>
     <use xlink:href="#Helvetica-50" transform="translate(1261.46875 0)"/>
     <use xlink:href="#Helvetica-48" transform="translate(1344.765625 0)"/>
     <use xlink:href="#Helvetica-51" transform="translate(1400.375 0)"/>
     <use xlink:href="#Helvetica-57" transform="translate(1455.984375 0)"/>
     <use xlink:href="#Helvetica-44" transform="translate(1483.765625 0)"/>
     <use xlink:href="#Helvetica-57" transform="translate(1539.375 0)"/>
     <use xlink:href="#Helvetica-4c" transform="translate(1567.15625 0)"/>
     <use xlink:href="#Helvetica-52" transform="translate(1589.375 0)"/>
     <use xlink:href="#Helvetica-51" transform="translate(1644.984375 0)"/>
    </g>
    <!-- (iliopsoas reference present) -->
    <g transform="translate(73.6925 111.554631) scale(0.08 -0.08)">
     <defs>
      <path id="Helvetica-b" d="M 1894 4666 
Q 1403 3713 1256 3263 
Q 1034 2578 1034 1681 
Q 1034 775 1288 25 
Q 1444 -438 1903 -1306 
L 1525 -1306 
Q 1069 -594 959 -397 
Q 850 -200 722 138 
Q 547 600 478 1125 
Q 444 1397 444 1644 
Q 444 2569 734 3291 
Q 919 3750 1503 4666 
L 1894 4666 
z
" transform="scale(0.015625)"/>
      <path id="Helvetica-c" d="M 222 -1306 
Q 719 -338 863 106 
Q 1081 778 1081 1681 
Q 1081 2584 828 3334 
Q 672 3797 213 4666 
L 591 4666 
Q 1072 3897 1173 3717 
Q 1275 3538 1394 3222 
Q 1544 2831 1608 2450 
Q 1672 2069 1672 1716 
Q 1672 791 1378 66 
Q 1194 -400 613 -1306 
L 222 -1306 
z
" transform="scale(0.015625)"/>
     </defs>
     <use xlink:href="#Helvetica-b"/>
     <use xlink:href="#Helvetica-4c" transform="translate(33.296875 0)"/>
     <use xlink:href="#Helvetica-4f" transform="translate(55.515625 0)"/>
     <use xlink:href="#Helvetica-4c" transform="translate(77.734375 0)"/>
     <use xlink:href="#Helvetica-52" transform="translate(99.953125 0)"/>
     <use xlink:href="#Helvetica-53" transform="translate(155.5625 0)"/>
     <use xlink:href="#Helvetica-56" transform="translate(211.171875 0)"/>
     <use xlink:href="#Helvetica-52" transform="translate(261.171875 0)"/>
     <use xlink:href="#Helvetica-44" transform="translate(316.78125 0)"/>
     <use xlink:href="#Helvetica-56" transform="translate(372.390625 0)"/>
     <use xlink:href="#Helvetica-3" transform="translate(422.390625 0)"/>
     <use xlink:href="#Helvetica-55" transform="translate(450.171875 0)"/>
     <use xlink:href="#Helvetica-48" transform="translate(483.46875 0)"/>
     <use xlink:href="#Helvetica-49" transform="translate(539.078125 0)"/>
     <use xlink:href="#Helvetica-48" transform="translate(566.859375 0)"/>
     <use xlink:href="#Helvetica-55" transform="translate(622.46875 0)"/>
     <use xlink:href="#Helvetica-48" transform="translate(655.765625 0)"/>
     <use xlink:href="#Helvetica-51" transform="translate(711.375 0)"/>
     <use xlink:href="#Helvetica-46" transform="translate(766.984375 0)"/>
     <use xlink:href="#Helvetica-48" transform="translate(816.984375 0)"/>
     <use xlink:href="#Helvetica-3" transform="translate(872.59375 0)"/>
     <use xlink:href="#Helvetica-53" transform="translate(900.375 0)"/>
     <use xlink:href="#Helvetica-55" transform="translate(955.984375 0)"/>
     <use xlink:href="#Helvetica-48" transform="translate(989.28125 0)"/>
     <use xlink:href="#Helvetica-56" transform="translate(1044.890625 0)"/>
     <use xlink:href="#Helvetica-48" transform="translate(1094.890625 0)"/>
     <use xlink:href="#Helvetica-51" transform="translate(1150.5 0)"/>
     <use xlink:href="#Helvetica-57" transform="translate(1206.109375 0)"/>
     <use xlink:href="#Helvetica-c" transform="translate(1233.890625 0)"/>
    </g>
   </g>
   <g id="text_3">
    <!-- Analytic cohort -->
    <g transform="translate(91.627734 167.272652) scale(0.09 -0.09)">
     <defs>
      <path id="Helvetica-Bold-24" d="M 3184 947 
L 1488 947 
L 1169 0 
L 163 0 
L 1806 4606 
L 2894 4606 
L 4525 0 
L 3481 0 
L 3184 947 
z
M 2916 1741 
L 2341 3553 
L 1747 1741 
L 2916 1741 
z
" transform="scale(0.015625)"/>
      <path id="Helvetica-Bold-51" d="M 2019 2747 
Q 1566 2747 1397 2363 
Q 1309 2159 1309 1844 
L 1309 0 
L 422 0 
L 422 3400 
L 1281 3400 
L 1281 2903 
Q 1453 3166 1606 3281 
Q 1881 3488 2303 3488 
Q 2831 3488 3167 3211 
Q 3503 2934 3503 2294 
L 3503 0 
L 2591 0 
L 2591 2072 
Q 2591 2341 2519 2484 
Q 2388 2747 2019 2747 
z
" transform="scale(0.015625)"/>
      <path id="Helvetica-Bold-44" d="M 544 3038 
Q 897 3488 1756 3488 
Q 2316 3488 2750 3266 
Q 3184 3044 3184 2428 
L 3184 866 
Q 3184 703 3191 472 
Q 3200 297 3244 234 
Q 3288 172 3375 131 
L 3375 0 
L 2406 0 
Q 2366 103 2350 193 
Q 2334 284 2325 400 
Q 2141 200 1900 59 
Q 1613 -106 1250 -106 
Q 788 -106 486 158 
Q 184 422 184 906 
Q 184 1534 669 1816 
Q 934 1969 1450 2034 
L 1753 2072 
Q 2000 2103 2106 2150 
Q 2297 2231 2297 2403 
Q 2297 2613 2151 2692 
Q 2006 2772 1725 2772 
Q 1409 2772 1278 2616 
Q 1184 2500 1153 2303 
L 294 2303 
Q 322 2750 544 3038 
z
M 1206 644 
Q 1331 541 1513 541 
Q 1800 541 2042 709 
Q 2284 878 2294 1325 
L 2294 1656 
Q 2209 1603 2123 1570 
Q 2038 1538 1888 1509 
L 1688 1472 
Q 1406 1422 1284 1350 
Q 1078 1228 1078 972 
Q 1078 744 1206 644 
z
" transform="scale(0.015625)"/>
      <path id="Helvetica-Bold-4f" d="M 434 4606 
L 1325 4606 
L 1325 0 
L 434 0 
L 434 4606 
z
" transform="scale(0.015625)"/>
      <path id="Helvetica-Bold-5c" d="M 1800 894 
L 2503 3406 
L 3450 3406 
L 2281 56 
Q 1944 -913 1747 -1145 
Q 1550 -1378 959 -1378 
Q 841 -1378 769 -1376 
Q 697 -1375 553 -1366 
L 553 -653 
L 666 -659 
Q 797 -666 915 -650 
Q 1034 -634 1116 -578 
Q 1194 -525 1261 -356 
Q 1328 -188 1316 -150 
L 66 3406 
L 1056 3406 
L 1800 894 
z
" transform="scale(0.015625)"/>
      <path id="Helvetica-Bold-57" d="M 1975 634 
L 1975 -31 
L 1553 -47 
Q 922 -69 691 172 
Q 541 325 541 644 
L 541 2741 
L 66 2741 
L 66 3375 
L 541 3375 
L 541 4325 
L 1422 4325 
L 1422 3375 
L 1975 3375 
L 1975 2741 
L 1422 2741 
L 1422 941 
Q 1422 731 1475 679 
Q 1528 628 1800 628 
Q 1841 628 1886 629 
Q 1931 631 1975 634 
z
" transform="scale(0.015625)"/>
      <path id="Helvetica-Bold-4c" d="M 1331 3406 
L 1331 0 
L 428 0 
L 428 3406 
L 1331 3406 
z
M 1331 4634 
L 1331 3813 
L 428 3813 
L 428 4634 
L 1331 4634 
z
" transform="scale(0.015625)"/>
      <path id="Helvetica-Bold-46" d="M 3363 2184 
L 2450 2184 
Q 2425 2375 2322 2528 
Q 2172 2734 1856 2734 
Q 1406 2734 1241 2288 
Q 1153 2050 1153 1656 
Q 1153 1281 1241 1053 
Q 1400 628 1841 628 
Q 2153 628 2284 797 
Q 2416 966 2444 1234 
L 3353 1234 
Q 3322 828 3059 466 
Q 2641 -119 1819 -119 
Q 997 -119 609 368 
Q 222 856 222 1634 
Q 222 2513 650 3000 
Q 1078 3488 1831 3488 
Q 2472 3488 2880 3200 
Q 3288 2913 3363 2184 
z
" transform="scale(0.015625)"/>
      <path id="Helvetica-Bold-3" transform="scale(0.015625)"/>
      <path id="Helvetica-Bold-52" d="M 3256 2975 
Q 3688 2434 3688 1697 
Q 3688 947 3256 414 
Q 2825 -119 1947 -119 
Q 1069 -119 637 414 
Q 206 947 206 1697 
Q 206 2434 637 2975 
Q 1069 3516 1947 3516 
Q 2825 3516 3256 2975 
z
M 1944 2763 
Q 1553 2763 1342 2486 
Q 1131 2209 1131 1697 
Q 1131 1184 1342 906 
Q 1553 628 1944 628 
Q 2334 628 2543 906 
Q 2753 1184 2753 1697 
Q 2753 2209 2543 2486 
Q 2334 2763 1944 2763 
z
" transform="scale(0.015625)"/>
      <path id="Helvetica-Bold-4b" d="M 3494 2000 
L 3494 0 
L 2584 0 
L 2584 2072 
Q 2584 2347 2491 2516 
Q 2369 2753 2028 2753 
Q 1675 2753 1492 2517 
Q 1309 2281 1309 1844 
L 1309 0 
L 422 0 
L 422 4591 
L 1309 4591 
L 1309 2963 
Q 1503 3259 1758 3376 
Q 2013 3494 2294 3494 
Q 2609 3494 2867 3384 
Q 3125 3275 3291 3050 
Q 3431 2859 3462 2657 
Q 3494 2456 3494 2000 
z
" transform="scale(0.015625)"/>
      <path id="Helvetica-Bold-55" d="M 2128 2584 
Q 1591 2584 1406 2234 
Q 1303 2038 1303 1628 
L 1303 0 
L 406 0 
L 406 3406 
L 1256 3406 
L 1256 2813 
Q 1463 3153 1616 3278 
Q 1866 3488 2266 3488 
Q 2291 3488 2308 3486 
Q 2325 3484 2384 3481 
L 2384 2569 
Q 2300 2578 2234 2581 
Q 2169 2584 2128 2584 
z
" transform="scale(0.015625)"/>
     </defs>
     <use xlink:href="#Helvetica-Bold-24"/>
     <use xlink:href="#Helvetica-Bold-51" transform="translate(72.21875 0)"/>
     <use xlink:href="#Helvetica-Bold-44" transform="translate(133.296875 0)"/>
     <use xlink:href="#Helvetica-Bold-4f" transform="translate(188.90625 0)"/>
     <use xlink:href="#Helvetica-Bold-5c" transform="translate(216.6875 0)"/>
     <use xlink:href="#Helvetica-Bold-57" transform="translate(272.296875 0)"/>
     <use xlink:href="#Helvetica-Bold-4c" transform="translate(305.59375 0)"/>
     <use xlink:href="#Helvetica-Bold-46" transform="translate(333.375 0)"/>
     <use xlink:href="#Helvetica-Bold-3" transform="translate(388.984375 0)"/>
     <use xlink:href="#Helvetica-Bold-46" transform="translate(416.765625 0)"/>
     <use xlink:href="#Helvetica-Bold-52" transform="translate(472.375 0)"/>
     <use xlink:href="#Helvetica-Bold-4b" transform="translate(533.453125 0)"/>
     <use xlink:href="#Helvetica-Bold-52" transform="translate(594.53125 0)"/>
     <use xlink:href="#Helvetica-Bold-55" transform="translate(655.609375 0)"/>
     <use xlink:href="#Helvetica-Bold-57" transform="translate(694.53125 0)"/>
    </g>
    <!-- n = 205 -->
    <g transform="translate(108.995625 176.228531) scale(0.09 -0.09)">
     <defs>
      <path id="Helvetica-Bold-20" d="M 3613 2834 
L 3613 2013 
L 228 2013 
L 228 2834 
L 3613 2834 
z
M 228 553 
L 228 1375 
L 3613 1375 
L 3613 553 
L 228 553 
z
" transform="scale(0.015625)"/>
      <path id="Helvetica-Bold-15" d="M 2225 3609 
Q 2066 3800 1769 3800 
Q 1363 3800 1216 3497 
Q 1131 3322 1116 2941 
L 250 2941 
Q 272 3519 459 3875 
Q 816 4553 1725 4553 
Q 2444 4553 2869 4154 
Q 3294 3756 3294 3100 
Q 3294 2597 2994 2206 
Q 2797 1947 2347 1628 
L 1991 1375 
Q 1656 1138 1532 1031 
Q 1409 925 1325 784 
L 3303 784 
L 3303 0 
L 200 0 
Q 213 488 409 891 
Q 600 1344 1309 1850 
Q 1925 2291 2106 2481 
Q 2384 2778 2384 3131 
Q 2384 3419 2225 3609 
z
" transform="scale(0.015625)"/>
      <path id="Helvetica-Bold-13" d="M 1763 -113 
Q 897 -113 548 493 
Q 200 1100 200 2222 
Q 200 3344 548 3953 
Q 897 4563 1763 4563 
Q 2628 4563 2978 3953 
Q 3325 3344 3325 2222 
Q 3325 1100 2976 493 
Q 2628 -113 1763 -113 
z
M 2284 1028 
Q 2406 1441 2406 2222 
Q 2406 3041 2282 3434 
Q 2159 3828 1763 3828 
Q 1366 3828 1237 3434 
Q 1109 3041 1109 2222 
Q 1109 1441 1237 1027 
Q 1366 613 1763 613 
Q 2159 613 2284 1028 
z
" transform="scale(0.015625)"/>
      <path id="Helvetica-Bold-18" d="M 1706 2250 
Q 1544 2250 1425 2209 
Q 1216 2134 1109 1931 
L 309 1969 
L 628 4472 
L 3125 4472 
L 3125 3716 
L 1272 3716 
L 1109 2725 
Q 1316 2859 1431 2903 
Q 1625 2975 1903 2975 
Q 2466 2975 2884 2597 
Q 3303 2219 3303 1497 
Q 3303 869 2900 375 
Q 2497 -119 1694 -119 
Q 1047 -119 631 228 
Q 216 575 169 1213 
L 1056 1213 
Q 1109 922 1259 764 
Q 1409 606 1697 606 
Q 2028 606 2201 839 
Q 2375 1072 2375 1425 
Q 2375 1772 2212 2011 
Q 2050 2250 1706 2250 
z
" transform="scale(0.015625)"/>
     </defs>
     <use xlink:href="#Helvetica-Bold-51"/>
     <use xlink:href="#Helvetica-Bold-3" transform="translate(61.078125 0)"/>
     <use xlink:href="#Helvetica-Bold-20" transform="translate(88.859375 0)"/>
     <use xlink:href="#Helvetica-Bold-3" transform="translate(147.265625 0)"/>
     <use xlink:href="#Helvetica-Bold-15" transform="translate(175.046875 0)"/>
     <use xlink:href="#Helvetica-Bold-13" transform="translate(230.65625 0)"/>
     <use xlink:href="#Helvetica-Bold-18" transform="translate(286.265625 0)"/>
    </g>
   </g>
   <g id="text_4">
    <!-- Home discharge -->
    <g transform="translate(39.010475 227.387052) scale(0.08 -0.08)">
     <defs>
      <path id="Helvetica-2b" d="M 503 4591 
L 1131 4591 
L 1131 2694 
L 3519 2694 
L 3519 4591 
L 4147 4591 
L 4147 0 
L 3519 0 
L 3519 2147 
L 1131 2147 
L 1131 0 
L 503 0 
L 503 4591 
z
" transform="scale(0.015625)"/>
     </defs>
     <use xlink:href="#Helvetica-2b"/>
     <use xlink:href="#Helvetica-52" transform="translate(72.21875 0)"/>
     <use xlink:href="#Helvetica-50" transform="translate(127.828125 0)"/>
     <use xlink:href="#Helvetica-48" transform="translate(211.125 0)"/>
     <use xlink:href="#Helvetica-3" transform="translate(266.734375 0)"/>
     <use xlink:href="#Helvetica-47" transform="translate(294.515625 0)"/>
     <use xlink:href="#Helvetica-4c" transform="translate(350.125 0)"/>
     <use xlink:href="#Helvetica-56" transform="translate(372.34375 0)"/>
     <use xlink:href="#Helvetica-46" transform="translate(422.34375 0)"/>
     <use xlink:href="#Helvetica-4b" transform="translate(472.34375 0)"/>
     <use xlink:href="#Helvetica-44" transform="translate(527.953125 0)"/>
     <use xlink:href="#Helvetica-55" transform="translate(583.5625 0)"/>
     <use xlink:href="#Helvetica-4a" transform="translate(616.859375 0)"/>
     <use xlink:href="#Helvetica-48" transform="translate(672.46875 0)"/>
    </g>
    <!-- n = 154 -->
    <g transform="translate(54.67735 235.395333) scale(0.08 -0.08)">
     <defs>
      <path id="Helvetica-20" d="M 3547 2569 
L 3547 2044 
L 288 2044 
L 288 2569 
L 3547 2569 
z
M 3547 1228 
L 3547 694 
L 288 694 
L 288 1228 
L 3547 1228 
z
" transform="scale(0.015625)"/>
      <path id="Helvetica-14" d="M 613 3169 
L 613 3600 
Q 1222 3659 1462 3798 
Q 1703 3938 1822 4456 
L 2266 4456 
L 2266 0 
L 1666 0 
L 1666 3169 
L 613 3169 
z
" transform="scale(0.015625)"/>
      <path id="Helvetica-18" d="M 791 1141 
Q 847 659 1238 475 
Q 1438 381 1700 381 
Q 2200 381 2440 700 
Q 2681 1019 2681 1406 
Q 2681 1875 2395 2131 
Q 2109 2388 1709 2388 
Q 1419 2388 1211 2275 
Q 1003 2163 856 1963 
L 369 1991 
L 709 4400 
L 3034 4400 
L 3034 3856 
L 1131 3856 
L 941 2613 
Q 1097 2731 1238 2791 
Q 1488 2894 1816 2894 
Q 2431 2894 2859 2497 
Q 3288 2100 3288 1491 
Q 3288 856 2895 371 
Q 2503 -113 1644 -113 
Q 1097 -113 676 195 
Q 256 503 206 1141 
L 791 1141 
z
" transform="scale(0.015625)"/>
      <path id="Helvetica-17" d="M 2116 1584 
L 2116 3613 
L 681 1584 
L 2116 1584 
z
M 2125 0 
L 2125 1094 
L 163 1094 
L 163 1644 
L 2213 4488 
L 2688 4488 
L 2688 1584 
L 3347 1584 
L 3347 1094 
L 2688 1094 
L 2688 0 
L 2125 0 
z
" transform="scale(0.015625)"/>
     </defs>
     <use xlink:href="#Helvetica-51"/>
     <use xlink:href="#Helvetica-3" transform="translate(55.609375 0)"/>
     <use xlink:href="#Helvetica-20" transform="translate(83.390625 0)"/>
     <use xlink:href="#Helvetica-3" transform="translate(141.796875 0)"/>
     <use xlink:href="#Helvetica-14" transform="translate(169.578125 0)"/>
     <use xlink:href="#Helvetica-18" transform="translate(225.1875 0)"/>
     <use xlink:href="#Helvetica-17" transform="translate(280.796875 0)"/>
    </g>
   </g>
   <g id="text_5">
    <!-- Non-home discharge -->
    <g transform="translate(143.498275 227.250489) scale(0.08 -0.08)">
     <defs>
      <path id="Helvetica-31" d="M 488 4591 
L 1222 4591 
L 3541 872 
L 3541 4591 
L 4131 4591 
L 4131 0 
L 3434 0 
L 1081 3716 
L 1081 0 
L 488 0 
L 488 4591 
z
M 2269 4591 
L 2269 4591 
z
" transform="scale(0.015625)"/>
     </defs>
     <use xlink:href="#Helvetica-31"/>
     <use xlink:href="#Helvetica-52" transform="translate(72.21875 0)"/>
     <use xlink:href="#Helvetica-51" transform="translate(127.828125 0)"/>
     <use xlink:href="#Helvetica-10" transform="translate(183.4375 0)"/>
     <use xlink:href="#Helvetica-4b" transform="translate(216.734375 0)"/>
     <use xlink:href="#Helvetica-52" transform="translate(272.34375 0)"/>
     <use xlink:href="#Helvetica-50" transform="translate(327.953125 0)"/>
     <use xlink:href="#Helvetica-48" transform="translate(411.25 0)"/>
     <use xlink:href="#Helvetica-3" transform="translate(466.859375 0)"/>
     <use xlink:href="#Helvetica-47" transform="translate(494.640625 0)"/>
     <use xlink:href="#Helvetica-4c" transform="translate(550.25 0)"/>
     <use xlink:href="#Helvetica-56" transform="translate(572.46875 0)"/>
     <use xlink:href="#Helvetica-46" transform="translate(622.46875 0)"/>
     <use xlink:href="#Helvetica-4b" transform="translate(672.46875 0)"/>
     <use xlink:href="#Helvetica-44" transform="translate(728.078125 0)"/>
     <use xlink:href="#Helvetica-55" transform="translate(783.6875 0)"/>
     <use xlink:href="#Helvetica-4a" transform="translate(816.984375 0)"/>
     <use xlink:href="#Helvetica-48" transform="translate(872.59375 0)"/>
    </g>
    <!-- n = 51 (24.9%) -->
    <g transform="translate(154.278275 235.258771) scale(0.08 -0.08)">
     <defs>
      <path id="Helvetica-15" d="M 200 0 
Q 231 578 439 1006 
Q 647 1434 1250 1784 
L 1850 2131 
Q 2253 2366 2416 2531 
Q 2672 2791 2672 3125 
Q 2672 3516 2437 3745 
Q 2203 3975 1813 3975 
Q 1234 3975 1013 3538 
Q 894 3303 881 2888 
L 309 2888 
Q 319 3472 525 3841 
Q 891 4491 1816 4491 
Q 2584 4491 2939 4075 
Q 3294 3659 3294 3150 
Q 3294 2613 2916 2231 
Q 2697 2009 2131 1694 
L 1703 1456 
Q 1397 1288 1222 1134 
Q 909 863 828 531 
L 3272 531 
L 3272 0 
L 200 0 
z
" transform="scale(0.015625)"/>
      <path id="Helvetica-11" d="M 547 681 
L 1200 681 
L 1200 0 
L 547 0 
L 547 681 
z
" transform="scale(0.015625)"/>
      <path id="Helvetica-1c" d="M 850 1081 
Q 875 616 1209 438 
Q 1381 344 1597 344 
Q 2000 344 2284 680 
Q 2569 1016 2688 2044 
Q 2500 1747 2223 1626 
Q 1947 1506 1628 1506 
Q 981 1506 604 1909 
Q 228 2313 228 2947 
Q 228 3556 600 4018 
Q 972 4481 1697 4481 
Q 2675 4481 3047 3600 
Q 3253 3116 3253 2388 
Q 3253 1566 3006 931 
Q 2597 -125 1619 -125 
Q 963 -125 622 219 
Q 281 563 281 1081 
L 850 1081 
z
M 1703 2000 
Q 2038 2000 2314 2220 
Q 2591 2441 2591 2991 
Q 2591 3484 2342 3726 
Q 2094 3969 1709 3969 
Q 1297 3969 1055 3692 
Q 813 3416 813 2953 
Q 813 2516 1025 2258 
Q 1238 2000 1703 2000 
z
" transform="scale(0.015625)"/>
      <path id="Helvetica-8" d="M 4363 2175 
Q 4813 2175 5131 1856 
Q 5450 1538 5450 1088 
Q 5450 638 5131 319 
Q 4813 0 4363 0 
Q 3909 0 3590 319 
Q 3272 638 3272 1088 
Q 3272 1538 3590 1856 
Q 3909 2175 4363 2175 
z
M 3909 4456 
L 4256 4456 
L 1753 -119 
L 1406 -119 
L 3909 4456 
z
M 1294 2606 
Q 1563 2606 1752 2795 
Q 1941 2984 1941 3250 
Q 1941 3516 1752 3705 
Q 1563 3894 1294 3894 
Q 1028 3894 839 3706 
Q 650 3519 650 3250 
Q 650 2984 839 2795 
Q 1028 2606 1294 2606 
z
M 1294 4341 
Q 1747 4341 2065 4020 
Q 2384 3700 2384 3250 
Q 2384 2800 2065 2481 
Q 1747 2163 1294 2163 
Q 844 2163 525 2481 
Q 206 2800 206 3250 
Q 206 3700 525 4020 
Q 844 4341 1294 4341 
z
M 4363 444 
Q 4628 444 4817 633 
Q 5006 822 5006 1088 
Q 5006 1353 4817 1542 
Q 4628 1731 4363 1731 
Q 4094 1731 3905 1542 
Q 3716 1353 3716 1088 
Q 3716 822 3905 633 
Q 4094 444 4363 444 
z
" transform="scale(0.015625)"/>
     </defs>
     <use xlink:href="#Helvetica-51"/>
     <use xlink:href="#Helvetica-3" transform="translate(55.609375 0)"/>
     <use xlink:href="#Helvetica-20" transform="translate(83.390625 0)"/>
     <use xlink:href="#Helvetica-3" transform="translate(141.796875 0)"/>
     <use xlink:href="#Helvetica-18" transform="translate(169.578125 0)"/>
     <use xlink:href="#Helvetica-14" transform="translate(225.1875 0)"/>
     <use xlink:href="#Helvetica-3" transform="translate(280.796875 0)"/>
     <use xlink:href="#Helvetica-b" transform="translate(308.578125 0)"/>
     <use xlink:href="#Helvetica-15" transform="translate(341.875 0)"/>
     <use xlink:href="#Helvetica-17" transform="translate(397.484375 0)"/>
     <use xlink:href="#Helvetica-11" transform="translate(453.09375 0)"/>
     <use xlink:href="#Helvetica-1c" transform="translate(480.875 0)"/>
     <use xlink:href="#Helvetica-8" transform="translate(536.484375 0)"/>
     <use xlink:href="#Helvetica-c" transform="translate(625.40625 0)"/>
    </g>
   </g>
   <g id="patch_7">
    <path d="M 124.38 60.203401 
Q 124.38 73.505159 124.38 85.688883 
" style="fill: none; stroke: #80796b; stroke-linecap: round"/>
    <path d="M 126.38 81.688883 
L 124.38 85.688883 
L 122.38 81.688883 
" style="fill: none; stroke: #80796b; stroke-linecap: round"/>
   </g>
   <g id="patch_8">
    <path d="M 124.38 123.959401 
Q 124.38 137.261159 124.38 149.444883 
" style="fill: none; stroke: #80796b; stroke-linecap: round"/>
    <path d="M 126.38 145.444883 
L 124.38 149.444883 
L 122.38 145.444883 
" style="fill: none; stroke: #80796b; stroke-linecap: round"/>
   </g>
   <g id="patch_9">
    <path d="M 110.925327 186.711431 
Q 90.397887 198.46795 70.840631 209.668823 
" style="fill: none; stroke: #80796b; stroke-linecap: round"/>
    <path d="M 75.305638 209.416402 
L 70.840631 209.668823 
L 73.317698 205.945365 
" style="fill: none; stroke: #80796b; stroke-linecap: round"/>
   </g>
   <g id="patch_10">
    <path d="M 137.834673 186.711431 
Q 158.362113 198.46795 177.919369 209.668823 
" style="fill: none; stroke: #80796b; stroke-linecap: round"/>
    <path d="M 175.442302 205.945365 
L 177.919369 209.668823 
L 173.454362 209.416402 
" style="fill: none; stroke: #80796b; stroke-linecap: round"/>
   </g>
  </g>
 </g>
 <defs>
  <clipPath id="pc05ac1f842">
   <rect x="7.2" y="7.2" width="234.36" height="255.024"/>
  </clipPath>
 </defs>
</svg>
