<?xml version="1.0" encoding="UTF-8" standalone="no"?>
<svg
   width="374.4pt"
   height="417.6pt"
   viewBox="0 0 374.4 417.6"
   version="1.1"
   id="svg29"
   sodipodi:docname="S1.Figure_S1_STROBE_flow_v2.svg"
   inkscape:version="1.4.4 (dcaf3e7, 2026-05-05)"
   xmlns:inkscape="http://www.inkscape.org/namespaces/inkscape"
   xmlns:sodipodi="http://sodipodi.sourceforge.net/DTD/sodipodi-0.dtd"
   xmlns="http://www.w3.org/2000/svg"
   xmlns:svg="http://www.w3.org/2000/svg"
   xmlns:rdf="http://www.w3.org/1999/02/22-rdf-syntax-ns#"
   xmlns:cc="http://creativecommons.org/ns#"
   xmlns:dc="http://purl.org/dc/elements/1.1/">
  <sodipodi:namedview
     id="namedview29"
     pagecolor="#ffffff"
     bordercolor="#000000"
     borderopacity="0.25"
     inkscape:showpageshadow="2"
     inkscape:pageopacity="0.0"
     inkscape:pagecheckerboard="0"
     inkscape:deskcolor="#d1d1d1"
     inkscape:document-units="pt"
     inkscape:zoom="1.7429482"
     inkscape:cx="234.08613"
     inkscape:cy="439.48524"
     inkscape:window-width="1332"
     inkscape:window-height="849"
     inkscape:window-x="0"
     inkscape:window-y="34"
     inkscape:window-maximized="0"
     inkscape:current-layer="figure_1" />
  <metadata
     id="metadata1">
    <rdf:RDF>
      <cc:Work>
        <dc:type
           rdf:resource="http://purl.org/dc/dcmitype/StillImage" />
        <dc:date>2026-07-15T15:15:14.834367</dc:date>
        <dc:format>image/svg+xml</dc:format>
        <dc:creator>
          <cc:Agent>
            <dc:title>Matplotlib v3.11.0, https://matplotlib.org/</dc:title>
          </cc:Agent>
        </dc:creator>
      </cc:Work>
    </rdf:RDF>
  </metadata>
  <defs
     id="defs1">
    <style
       type="text/css"
       id="style1">*{stroke-linejoin: round; stroke-linecap: butt}</style>
  </defs>
  <g
     id="figure_1">
    <g
       id="patch_1">
      <path
         d="M 0 417.6  L 374.4 417.6  L 374.4 0  L 0 0  z "
         style="fill: #ffffff"
         id="path1" />
    </g>
    <g
       id="axes_1">
      <g
         id="patch_2">
        <path
           d="M 63.36 90.2592  L 311.04 90.2592  Q 315.36 90.2592 315.36 85.4208  L 315.36 45.9072  Q 315.36 41.0688 311.04 41.0688  L 63.36 41.0688  Q 59.04 41.0688 59.04 45.9072  L 59.04 85.4208  Q 59.04 90.2592 63.36 90.2592  z "
           clip-path="url(#p5aef06f718)"
           style="fill: #ffffff; stroke: #374e55; stroke-width: 1.2; stroke-linejoin: miter"
           id="path2" />
      </g>
      <g
         id="patch_3">
        <path
           d="M 63.36 191.0592  L 311.04 191.0592  Q 315.36 191.0592 315.36 186.2208  L 315.36 146.7072  Q 315.36 141.8688 311.04 141.8688  L 63.36 141.8688  Q 59.04 141.8688 59.04 146.7072  L 59.04 186.2208  Q 59.04 191.0592 63.36 191.0592  z "
           clip-path="url(#p5aef06f718)"
           style="fill: #ffffff; stroke: #374e55; stroke-width: 1.2; stroke-linejoin: miter"
           id="path3" />
      </g>
      <g
         id="patch_4">
        <path
           d="M 63.36 291.8592  L 311.04 291.8592  Q 315.36 291.8592 315.36 287.0208  L 315.36 243.4752  Q 315.36 238.6368 311.04 238.6368  L 63.36 238.6368  Q 59.04 238.6368 59.04 243.4752  L 59.04 287.0208  Q 59.04 291.8592 63.36 291.8592  z "
           clip-path="url(#p5aef06f718)"
           style="fill: #ffffff; stroke: #374e55; stroke-width: 1.2; stroke-linejoin: miter"
           id="path4" />
      </g>
      <g
         id="patch_5">
        <path
           d="M 74.16 388.6272  L 177.84 388.6272  Q 182.16 388.6272 182.16 383.7888  L 182.16 336.2112  Q 182.16 331.3728 177.84 331.3728  L 74.16 331.3728  Q 69.84 331.3728 69.84 336.2112  L 69.84 383.7888  Q 69.84 388.6272 74.16 388.6272  z "
           clip-path="url(#p5aef06f718)"
           style="fill: #f4f6f7; stroke: #374e55; stroke-width: 1.2; stroke-linejoin: miter"
           id="path5" />
      </g>
      <g
         id="patch_6">
        <path
           d="M 196.56 388.6272  L 300.24 388.6272  Q 304.56 388.6272 304.56 383.7888  L 304.56 336.2112  Q 304.56 331.3728 300.24 331.3728  L 196.56 331.3728  Q 192.24 331.3728 192.24 336.2112  L 192.24 383.7888  Q 192.24 388.6272 196.56 388.6272  z "
           clip-path="url(#p5aef06f718)"
           style="fill: #ffffff; stroke: #c77b30; stroke-width: 1.2; stroke-linejoin: miter"
           id="path6" />
      </g>
      <g
         id="patch_7">
        <path
           d="M 187.2 89.841727  Q 187.2 116.066261 187.2 140.837351  "
           clip-path="url(#p5aef06f718)"
           style="fill: none; stroke: #8a8a8a; stroke-width: 1.3; stroke-linecap: round"
           id="path7" />
        <path
           d="M 189.4 136.437351  L 187.2 140.837351  L 185 136.437351  z "
           clip-path="url(#p5aef06f718)"
           style="fill: #8a8a8a; stroke: #8a8a8a; stroke-width: 1.3; stroke-linecap: round"
           id="path8" />
      </g>
      <g
         id="patch_8">
        <path
           d="M 187.2 190.639512  Q 187.2 214.849212 187.2 237.605467  "
           clip-path="url(#p5aef06f718)"
           style="fill: none; stroke: #8a8a8a; stroke-width: 1.3; stroke-linecap: round"
           id="path9" />
        <path
           d="M 189.4 233.205467  L 187.2 237.605467  L 185 233.205467  z "
           clip-path="url(#p5aef06f718)"
           style="fill: #8a8a8a; stroke: #8a8a8a; stroke-width: 1.3; stroke-linecap: round"
           id="path10" />
      </g>
      <g
         id="patch_9"
         transform="matrix(1.0762594,0,0,0.9114244,-13.815403,28.3948)">
        <path
           d="m 185.58259,290.61214 q -28.98214,21.00354 -56.7874,41.15417"
           clip-path="url(#p5aef06f718)"
           style="fill:none;stroke:#8a8a8a;stroke-width:1.3;stroke-linecap:round"
           id="path11" />
        <path
           d="m 133.64896,330.96573 -4.85377,0.80058 2.2718,-4.36336 z"
           clip-path="url(#p5aef06f718)"
           style="fill:#8a8a8a;stroke:#8a8a8a;stroke-width:1.3;stroke-linecap:round"
           id="path12" />
      </g>
      <g
         id="patch_10"
         transform="matrix(1.1340589,0,0,0.92663863,-27.290829,22.663064)">
        <path
           d="m 188.81741,290.61214 q 28.98214,21.00354 56.7874,41.15417"
           clip-path="url(#p5aef06f718)"
           style="fill:none;stroke:#8a8a8a;stroke-width:1.3;stroke-linecap:round"
           id="path13" />
        <path
           d="m 243.33301,327.40295 2.2718,4.36336 -4.85377,-0.80058 z"
           clip-path="url(#p5aef06f718)"
           style="fill:#8a8a8a;stroke:#8a8a8a;stroke-width:1.3;stroke-linecap:round"
           id="path14" />
      </g>
      <g
         id="patch_11">
        <path
           d="M 225.36 136.6272  L 343.44 136.6272  Q 347.76 136.6272 347.76 131.7888  L 347.76 106.3872  Q 347.76 101.5488 343.44 101.5488  L 225.36 101.5488  Q 221.04 101.5488 221.04 106.3872  L 221.04 131.7888  Q 221.04 136.6272 225.36 136.6272  z "
           clip-path="url(#p5aef06f718)"
           style="fill: #ffffff; stroke: #8a8a8a; stroke-width: 1.2; stroke-linejoin: miter"
           id="path15" />
      </g>
      <g
         id="patch_12"
         transform="translate(0,-4.5)">
        <path
           d="m 225.36,237.4272 h 118.08 q 4.32,0 4.32,-4.8384 v -25.4016 q 0,-4.8384 -4.32,-4.8384 H 225.36 q -4.32,0 -4.32,4.8384 v 25.4016 q 0,4.8384 4.32,4.8384 z"
           clip-path="url(#p5aef06f718)"
           style="fill:#ffffff;stroke:#8a8a8a;stroke-width:1.2;stroke-linejoin:miter"
           id="path16" />
      </g>
      <g
         id="text_1">
        <text
           style="font-weight: 700; font-size: 10px; font-family: 'DejaVu Sans', 'Arial', 'Helvetica', sans-serif; text-anchor: middle; fill: #1a1a1a"
           x="187.2"
           y="19.296"
           transform="rotate(-0 187.2 19.296)"
           id="text16">Participant flow (STROBE)</text>
      </g>
      <g
         id="text_2">
        <text
           style="font-size: 8px; font-family: 'DejaVu Sans', 'Arial', 'Helvetica', sans-serif; fill: #374e55"
           transform="translate(106.68 62.941344)"
           id="text17">Adults undergoing lumbar spine surgery</text>
        <text
           style="font-size: 8px; font-family: 'DejaVu Sans', 'Arial', 'Helvetica', sans-serif; fill: #374e55"
           transform="translate(106.789375 72.543531)"
           id="text18">with preoperative lumbar MRI (N = 206)</text>
      </g>
      <g
         id="text_3">
        <text
           style="font-size: 8px; font-family: 'DejaVu Sans', 'Arial', 'Helvetica', sans-serif; fill: #374e55"
           transform="translate(106.38625 163.741344)"
           id="text19">Analytic cohort with discharge outcome,</text>
        <text
           style="font-size: 8px; font-family: 'DejaVu Sans', 'Arial', 'Helvetica', sans-serif; fill: #374e55"
           transform="translate(92.7675 173.343531)"
           id="text20">segmentable iliopsoas, plausible age (n = 204)</text>
      </g>
      <g
         id="text_4">
        <text
           style="font-size: 8px; font-family: 'DejaVu Sans', 'Arial', 'Helvetica', sans-serif; fill: #374e55"
           transform="translate(111.080625 262.525344)"
           id="text21">Complete multi-tissue imaging for the</text>
        <text
           style="font-size: 8px; font-family: 'DejaVu Sans', 'Arial', 'Helvetica', sans-serif; fill: #374e55"
           transform="translate(144.021875 272.127531)"
           id="text22">aging clock (n = 192)</text>
      </g>
      <g
         id="text_5">
        <text
           style="font-size: 8px; font-family: 'DejaVu Sans', 'Arial', 'Helvetica', sans-serif; fill: #374e55"
           transform="translate(114.186875 357.277344)"
           id="text23">Home</text>
        <text
           style="font-size: 8px; font-family: 'DejaVu Sans', 'Arial', 'Helvetica', sans-serif; fill: #374e55"
           transform="translate(106.814375 366.878906)"
           id="text24">(n = 145)</text>
      </g>
      <g
         id="text_6">
        <text
           style="font-size: 8px; font-family: 'DejaVu Sans', 'Arial', 'Helvetica', sans-serif; fill: #374e55"
           transform="translate(227.641875 357.277656)"
           id="text25">Non-home</text>
        <text
           style="font-size: 8px; font-family: 'DejaVu Sans', 'Arial', 'Helvetica', sans-serif; fill: #374e55"
           transform="translate(220.32625 366.879219)"
           id="text26">(n = 47, 24%)</text>
      </g>
      <g
         id="text_7">
        <text
           style="font-size: 6.5px; font-family: 'DejaVu Sans', 'Arial', 'Helvetica', sans-serif; text-anchor: middle; fill: #374e55"
           x="284.4"
           y="120.77673"
           transform="rotate(-0 284.4 120.77673)"
           id="text27">Excluded (2)</text>
      </g>
      <g
         id="text_8"
         transform="translate(9,-4.5)">
        <text
           style="font-size:6.5px;font-family:'DejaVu Sans', Arial, Helvetica, sans-serif;fill:#374e55"
           transform="translate(249.3325,217.67584)"
           id="text28">Excluded: incomplete</text>
        <text
           style="font-size:6.5px;font-family:'DejaVu Sans', Arial, Helvetica, sans-serif;fill:#374e55"
           transform="translate(243.41293,225.47762)"
           id="text29">multi-tissue imaging (12)</text>
      </g>
    </g>
  </g>
  <defs
     id="defs29">
    <clipPath
       id="p5aef06f718">
      <rect
         x="7.2"
         y="7.2"
         width="360"
         height="403.2"
         id="rect29" />
    </clipPath>
  </defs>
</svg>
